G04*
G04 #@! TF.GenerationSoftware,Altium Limited,Altium Designer,18.1.11 (251)*
G04*
G04 Layer_Color=16711935*
%FSLAX44Y44*%
%MOMM*%
G71*
G01*
G75*
%ADD24R,0.9032X1.1532*%
%ADD29R,1.1532X0.9032*%
%ADD31C,0.2032*%
%ADD32C,2.2032*%
%ADD33R,1.7032X1.7032*%
%ADD34C,1.7032*%
%ADD35C,6.2032*%
%ADD36C,0.7032*%
%ADD54R,2.3532X3.4532*%
%ADD55R,2.3532X1.2032*%
%ADD56O,0.6032X1.8532*%
%ADD57R,1.6032X0.8232*%
D24*
X617370Y1189990D02*
D03*
X604370D02*
D03*
X617370Y1173590D02*
D03*
X604370D02*
D03*
X745340Y1316990D02*
D03*
X758340D02*
D03*
X718670D02*
D03*
X731670D02*
D03*
X897740Y1193546D02*
D03*
X910740D02*
D03*
X897740Y1210310D02*
D03*
X910740D02*
D03*
X897740Y1226820D02*
D03*
X910740D02*
D03*
X897740Y1243330D02*
D03*
X910740D02*
D03*
X897740Y1259840D02*
D03*
X910740D02*
D03*
X985220Y1202690D02*
D03*
X998220D02*
D03*
X985220Y1218946D02*
D03*
X998220D02*
D03*
X985220Y1240028D02*
D03*
X998220D02*
D03*
X985220Y1256284D02*
D03*
X998220D02*
D03*
X1082190Y1272540D02*
D03*
X1069190D02*
D03*
X1069340Y1224690D02*
D03*
X1082340D02*
D03*
X1082190Y1192530D02*
D03*
X1069190D02*
D03*
X1082190Y1177290D02*
D03*
X1069190D02*
D03*
X1125370Y1304490D02*
D03*
X1112370D02*
D03*
Y1287980D02*
D03*
X1125370D02*
D03*
X1112370Y1271955D02*
D03*
X1125370D02*
D03*
X1112370Y1254370D02*
D03*
X1125370D02*
D03*
Y1236785D02*
D03*
X1112370D02*
D03*
X1112370Y1219200D02*
D03*
X1125370D02*
D03*
X1112370Y1198880D02*
D03*
X1125370D02*
D03*
X1112370Y1182370D02*
D03*
X1125370D02*
D03*
X1112370Y1165860D02*
D03*
X1125370D02*
D03*
X1112370Y1149350D02*
D03*
X1125370D02*
D03*
D29*
X799690Y1166010D02*
D03*
Y1153010D02*
D03*
X780190Y1166010D02*
D03*
Y1153010D02*
D03*
X747690Y1166010D02*
D03*
Y1153010D02*
D03*
X578264Y1140510D02*
D03*
Y1153510D02*
D03*
X594311Y1140510D02*
D03*
Y1153510D02*
D03*
X610357Y1140510D02*
D03*
Y1153510D02*
D03*
X661670Y1245720D02*
D03*
Y1258720D02*
D03*
X825500Y1281610D02*
D03*
Y1294610D02*
D03*
X1003300Y1185190D02*
D03*
Y1172190D02*
D03*
X1019810Y1185190D02*
D03*
Y1172190D02*
D03*
X1003300Y1274930D02*
D03*
Y1287930D02*
D03*
X1019810Y1274930D02*
D03*
Y1287930D02*
D03*
D31*
X984970Y1178690D02*
D03*
Y1274690D02*
D03*
X1000970Y1297940D02*
D03*
X950970D02*
D03*
X903970D02*
D03*
X1046970Y1274690D02*
D03*
Y1226690D02*
D03*
Y1178690D02*
D03*
X1000970Y1155440D02*
D03*
X950970D02*
D03*
X903970D02*
D03*
X875970Y1241140D02*
D03*
Y1187140D02*
D03*
X674970Y1212140D02*
D03*
D32*
X675970Y1297940D02*
D03*
X775970D02*
D03*
X875970D02*
D03*
X975970D02*
D03*
X925970Y1155440D02*
D03*
X1025970D02*
D03*
X825970D02*
D03*
X725970D02*
D03*
D33*
X739140Y1333500D02*
D03*
X1098550Y1063180D02*
D03*
D34*
X764540Y1333500D02*
D03*
X789940D02*
D03*
X815340D02*
D03*
X840740D02*
D03*
X1225550Y1063180D02*
D03*
X1200150D02*
D03*
X1174750D02*
D03*
X1149350D02*
D03*
X1123950D02*
D03*
D35*
X594990Y1058740D02*
D03*
X1274990D02*
D03*
D36*
X1178430Y1204690D02*
D03*
Y1215690D02*
D03*
Y1226690D02*
D03*
Y1237690D02*
D03*
Y1248690D02*
D03*
X1189430Y1204690D02*
D03*
Y1215690D02*
D03*
Y1226690D02*
D03*
Y1237690D02*
D03*
Y1248690D02*
D03*
X1200430Y1204690D02*
D03*
Y1215690D02*
D03*
Y1226690D02*
D03*
Y1237690D02*
D03*
Y1248690D02*
D03*
X1211430Y1204690D02*
D03*
Y1215690D02*
D03*
Y1226690D02*
D03*
Y1237690D02*
D03*
Y1248690D02*
D03*
X1222430Y1204690D02*
D03*
Y1215690D02*
D03*
Y1226690D02*
D03*
Y1237690D02*
D03*
Y1248690D02*
D03*
D54*
X580360Y1240790D02*
D03*
D55*
X638860Y1217790D02*
D03*
Y1240790D02*
D03*
Y1263790D02*
D03*
D56*
X832190Y1185490D02*
D03*
X825690D02*
D03*
X819190D02*
D03*
X812690D02*
D03*
X806190D02*
D03*
X799690D02*
D03*
X793190D02*
D03*
X786690D02*
D03*
X780190D02*
D03*
X773690D02*
D03*
X767190D02*
D03*
X760690D02*
D03*
X754190D02*
D03*
X747690D02*
D03*
X832190Y1257990D02*
D03*
X825690D02*
D03*
X819190D02*
D03*
X812690D02*
D03*
X806190D02*
D03*
X799690D02*
D03*
X793190D02*
D03*
X786690D02*
D03*
X780190D02*
D03*
X773690D02*
D03*
X767190D02*
D03*
X760690D02*
D03*
X754190D02*
D03*
X747690D02*
D03*
D57*
X1272930Y1142990D02*
D03*
X1182930D02*
D03*
X1272930Y1304490D02*
D03*
X1182930D02*
D03*
X1162930Y1235690D02*
D03*
Y1290690D02*
D03*
Y1268690D02*
D03*
Y1257690D02*
D03*
Y1246690D02*
D03*
Y1224690D02*
D03*
Y1213690D02*
D03*
Y1279690D02*
D03*
Y1202690D02*
D03*
M02*
