M48
;Layer_Color=9474304
;FILE_FORMAT=2:5
INCH,LZ
;TYPE=PLATED
T1F00S00C0.00787
T2F00S00C0.00984
T3F00S00C0.01575
T4F00S00C0.02756
T5F00S00C0.03346
T6F00S00C0.03543
T7F00S00C0.04134
T8F00S00C0.06102
T9F00S00C0.12205
%
T01
X047261Y0474287
X0476941
Y0478618
X047261
Y0482949
Y048728
X0476941
Y0482949
X0481272
Y048728
Y049161
X0476941
X047261
X0481272Y0478618
Y0474287
X046828
X0463949
Y0478618
Y0482949
Y048728
Y049161
X046828
Y048728
Y0482949
Y0478618
T02
X0223256Y04435
X0233981Y04365
X0244996Y0443544
X0240298Y0457383
X0233998Y04574
X0227663Y04575
X0294366Y0462
X0299484Y0461
X03033
X0307161Y0462
X0322516Y0461295
X0376869Y04681
X03983Y0461492
X04174Y04634
X04235Y04575
X04295Y0460059
Y0464441
X04326Y0452661
X04425Y0442616
X04525Y04379
X04625Y04354
X0465721Y04565
X04535Y0464839
X0449516
X04495Y0468185
X04755Y046021
X0475563Y0456247
X0482874Y0456047
X04814Y04604
X0495333Y046
X0496Y0467
X04798Y04445
X04775Y04689
X0496Y047409
X0495831Y0481965
X0496Y0497713
X0484744Y0509544
X04775Y0507
X05025Y0469047
X045Y0478028
Y0481965
X0448Y048
Y0483933
X04435Y0475862
X0430579Y0479
Y0482161
X04345Y0486505
X0423Y04875
X04175Y0482161
X04165Y04695
X040968
X03975Y0482161
Y0485311
X0378163Y0482434
X0376733Y04901
X0376779Y04964
X03655Y0493185
Y0486923
Y0483736
X03631Y04699
X03782Y04731
X03983Y0507059
X04112Y0498
X04165Y0503
X0430417Y04985
X04295Y0509
X0433Y0513
X04289Y0516
X0448547Y0508146
Y0504602
X04485Y0499484
X0452925Y0508146
X0463752Y05055
X0461919Y05166
X03325Y0496
X03199Y04894
Y04866
X0314839Y04885
Y0482853
X03175Y047722
X0325Y04716
X03115Y04794
X0308Y048848
X0304602
X0302043Y0474327
X0293Y04815
X0296925Y0504865
X0299484Y05025
T03
X0220473Y0488189
Y0503937
X0228347
X0236221
X0244095
X0251969
X0248032Y0511811
X0240158
X0232284
X022441
X0240158Y0496063
Y0480315
T04
X0251325Y04725
T05
X0355894Y0454898
X0374398
X0394083
X0412193Y0464051
X034487Y0467378
Y0488638
X0355894Y0511
X0374398
X0394083
X0412193Y0501847
Y0482949
X0265736Y047722
T06
X04325Y0418575
X04425
X04525
X04625
X04725
X04825
X0331Y0525
X0321
X0311
X0301
X0291
T07
X0285815Y0454898
X0325185
X0364555
X0403925
X038424Y0511
X034487
X03055
X026613
T08
X0387784Y0464051
Y0501847
T09
X0234248Y0416827
X0501965
M30
