G04*
G04 #@! TF.GenerationSoftware,Altium Limited,Altium Designer,18.1.11 (251)*
G04*
G04 Layer_Color=128*
%FSLAX44Y44*%
%MOMM*%
G71*
G01*
G75*
%ADD16R,0.7000X0.9500*%
%ADD21R,0.9500X0.7000*%
%ADD46R,2.1500X3.2500*%
%ADD47R,2.1500X1.0000*%
%ADD48O,0.4000X1.6500*%
%ADD49R,1.4000X0.6200*%
D16*
X617370Y1189990D02*
D03*
X604370D02*
D03*
X617370Y1173590D02*
D03*
X604370D02*
D03*
X745340Y1316990D02*
D03*
X758340D02*
D03*
X718670D02*
D03*
X731670D02*
D03*
X897740Y1193546D02*
D03*
X910740D02*
D03*
X897740Y1210310D02*
D03*
X910740D02*
D03*
X897740Y1226820D02*
D03*
X910740D02*
D03*
X897740Y1243330D02*
D03*
X910740D02*
D03*
X897740Y1259840D02*
D03*
X910740D02*
D03*
X985220Y1202690D02*
D03*
X998220D02*
D03*
X985220Y1218946D02*
D03*
X998220D02*
D03*
X985220Y1240028D02*
D03*
X998220D02*
D03*
X985220Y1256284D02*
D03*
X998220D02*
D03*
X1082190Y1272540D02*
D03*
X1069190D02*
D03*
X1069340Y1224690D02*
D03*
X1082340D02*
D03*
X1082190Y1192530D02*
D03*
X1069190D02*
D03*
X1082190Y1177290D02*
D03*
X1069190D02*
D03*
X1125370Y1304490D02*
D03*
X1112370D02*
D03*
Y1287980D02*
D03*
X1125370D02*
D03*
X1112370Y1271955D02*
D03*
X1125370D02*
D03*
X1112370Y1254370D02*
D03*
X1125370D02*
D03*
Y1236785D02*
D03*
X1112370D02*
D03*
X1112370Y1219200D02*
D03*
X1125370D02*
D03*
X1112370Y1198880D02*
D03*
X1125370D02*
D03*
X1112370Y1182370D02*
D03*
X1125370D02*
D03*
X1112370Y1165860D02*
D03*
X1125370D02*
D03*
X1112370Y1149350D02*
D03*
X1125370D02*
D03*
D21*
X799690Y1166010D02*
D03*
Y1153010D02*
D03*
X780190Y1166010D02*
D03*
Y1153010D02*
D03*
X747690Y1166010D02*
D03*
Y1153010D02*
D03*
X578264Y1140510D02*
D03*
Y1153510D02*
D03*
X594311Y1140510D02*
D03*
Y1153510D02*
D03*
X610357Y1140510D02*
D03*
Y1153510D02*
D03*
X661670Y1245720D02*
D03*
Y1258720D02*
D03*
X825500Y1281610D02*
D03*
Y1294610D02*
D03*
X1003300Y1185190D02*
D03*
Y1172190D02*
D03*
X1019810Y1185190D02*
D03*
Y1172190D02*
D03*
X1003300Y1274930D02*
D03*
Y1287930D02*
D03*
X1019810Y1274930D02*
D03*
Y1287930D02*
D03*
D46*
X580360Y1240790D02*
D03*
D47*
X638860Y1217790D02*
D03*
Y1240790D02*
D03*
Y1263790D02*
D03*
D48*
X832190Y1185490D02*
D03*
X825690D02*
D03*
X819190D02*
D03*
X812690D02*
D03*
X806190D02*
D03*
X799690D02*
D03*
X793190D02*
D03*
X786690D02*
D03*
X780190D02*
D03*
X773690D02*
D03*
X767190D02*
D03*
X760690D02*
D03*
X754190D02*
D03*
X747690D02*
D03*
X832190Y1257990D02*
D03*
X825690D02*
D03*
X819190D02*
D03*
X812690D02*
D03*
X806190D02*
D03*
X799690D02*
D03*
X793190D02*
D03*
X786690D02*
D03*
X780190D02*
D03*
X773690D02*
D03*
X767190D02*
D03*
X760690D02*
D03*
X754190D02*
D03*
X747690D02*
D03*
D49*
X1272930Y1142990D02*
D03*
X1182930D02*
D03*
X1272930Y1304490D02*
D03*
X1182930D02*
D03*
X1162930Y1235690D02*
D03*
Y1290690D02*
D03*
Y1268690D02*
D03*
Y1257690D02*
D03*
Y1246690D02*
D03*
Y1224690D02*
D03*
Y1213690D02*
D03*
Y1279690D02*
D03*
Y1202690D02*
D03*
M02*
