G04*
G04 #@! TF.GenerationSoftware,Altium Limited,Altium Designer,18.1.11 (251)*
G04*
G04 Layer_Color=8421504*
%FSLAX44Y44*%
%MOMM*%
G71*
G01*
G75*
%ADD15R,2.0000X0.5000*%
%ADD16R,0.7000X0.9500*%
%ADD17R,1.5000X0.9000*%
%ADD18O,0.2500X1.3000*%
%ADD19O,1.3000X0.2500*%
%ADD20R,6.0000X6.0000*%
%ADD21R,0.9500X0.7000*%
%ADD22R,1.4000X1.2000*%
D15*
X1025970Y1264690D02*
D03*
Y1256690D02*
D03*
Y1248690D02*
D03*
Y1240690D02*
D03*
Y1232690D02*
D03*
X943970Y1188690D02*
D03*
Y1196690D02*
D03*
Y1204690D02*
D03*
Y1212690D02*
D03*
Y1220690D02*
D03*
Y1228690D02*
D03*
Y1236690D02*
D03*
Y1244690D02*
D03*
Y1252690D02*
D03*
X1025970Y1224690D02*
D03*
Y1216690D02*
D03*
Y1208690D02*
D03*
Y1200690D02*
D03*
Y1192690D02*
D03*
X943970Y1260690D02*
D03*
D16*
X1169430Y1041400D02*
D03*
X1156430D02*
D03*
X1082340Y1177010D02*
D03*
X1069340D02*
D03*
X1082340Y1192530D02*
D03*
X1069340D02*
D03*
X1082340Y1208690D02*
D03*
X1069340D02*
D03*
X1082340Y1224690D02*
D03*
X1069340D02*
D03*
X1069190Y1310640D02*
D03*
X1082190D02*
D03*
X1082190Y1292860D02*
D03*
X1069190D02*
D03*
X1082340Y1272540D02*
D03*
X1069340D02*
D03*
X1082340Y1256310D02*
D03*
X1069340D02*
D03*
X1272390Y1204190D02*
D03*
X1285390D02*
D03*
X1272390Y1224190D02*
D03*
X1285390D02*
D03*
X1272390Y1264190D02*
D03*
X1285390D02*
D03*
D17*
X578818Y1108601D02*
D03*
Y1126601D02*
D03*
X609818Y1108601D02*
D03*
Y1126601D02*
D03*
D18*
X1162930Y1180690D02*
D03*
X1167930D02*
D03*
X1172930D02*
D03*
X1177930D02*
D03*
X1182930D02*
D03*
X1187930D02*
D03*
X1192930D02*
D03*
X1197930D02*
D03*
X1202930D02*
D03*
X1207930D02*
D03*
X1212930D02*
D03*
X1217930D02*
D03*
X1222930D02*
D03*
X1227930D02*
D03*
X1232930D02*
D03*
X1237930D02*
D03*
Y1272690D02*
D03*
X1232930D02*
D03*
X1227930D02*
D03*
X1222930D02*
D03*
X1217930D02*
D03*
X1212930D02*
D03*
X1207930D02*
D03*
X1202930D02*
D03*
X1197930D02*
D03*
X1192930D02*
D03*
X1187930D02*
D03*
X1182930D02*
D03*
X1177930D02*
D03*
X1172930D02*
D03*
X1167930D02*
D03*
X1162930D02*
D03*
D19*
X1246430Y1189190D02*
D03*
Y1194190D02*
D03*
Y1199190D02*
D03*
Y1204190D02*
D03*
Y1209190D02*
D03*
Y1214190D02*
D03*
Y1219190D02*
D03*
Y1224190D02*
D03*
Y1229190D02*
D03*
Y1234190D02*
D03*
Y1239190D02*
D03*
Y1244190D02*
D03*
Y1249190D02*
D03*
Y1254190D02*
D03*
Y1259190D02*
D03*
Y1264190D02*
D03*
X1154430D02*
D03*
Y1259190D02*
D03*
Y1254190D02*
D03*
Y1249190D02*
D03*
Y1244190D02*
D03*
Y1239190D02*
D03*
Y1234190D02*
D03*
Y1229190D02*
D03*
Y1224190D02*
D03*
Y1219190D02*
D03*
Y1214190D02*
D03*
Y1209190D02*
D03*
Y1204190D02*
D03*
Y1199190D02*
D03*
Y1194190D02*
D03*
Y1189190D02*
D03*
D20*
X1200430Y1226690D02*
D03*
D21*
X1260654Y1321158D02*
D03*
Y1334158D02*
D03*
X1241058Y1321158D02*
D03*
Y1334158D02*
D03*
X1221461Y1321158D02*
D03*
Y1334158D02*
D03*
X1201865D02*
D03*
Y1321158D02*
D03*
X1182269D02*
D03*
Y1334158D02*
D03*
X1162673D02*
D03*
Y1321158D02*
D03*
X1143076D02*
D03*
Y1334158D02*
D03*
X1123480Y1321158D02*
D03*
Y1334158D02*
D03*
X1103884D02*
D03*
Y1321158D02*
D03*
X1110450Y1149760D02*
D03*
Y1136760D02*
D03*
X1106170Y1179680D02*
D03*
Y1192680D02*
D03*
X1106170Y1221890D02*
D03*
Y1208890D02*
D03*
Y1285390D02*
D03*
Y1272390D02*
D03*
X1106170Y1243180D02*
D03*
Y1256180D02*
D03*
X1179030Y1136760D02*
D03*
Y1149760D02*
D03*
X1194853D02*
D03*
Y1136760D02*
D03*
X1210676Y1149760D02*
D03*
Y1136760D02*
D03*
X1226499Y1149760D02*
D03*
Y1136760D02*
D03*
X1242322Y1149760D02*
D03*
Y1136760D02*
D03*
X1258145Y1149760D02*
D03*
Y1136760D02*
D03*
D22*
X1155740Y1135260D02*
D03*
Y1151260D02*
D03*
X1133740Y1135260D02*
D03*
Y1151260D02*
D03*
M02*
