G04*
G04 #@! TF.GenerationSoftware,Altium Limited,Altium Designer,18.1.11 (251)*
G04*
G04 Layer_Color=8421504*
%FSLAX25Y25*%
%MOIN*%
G70*
G01*
G75*
%ADD15R,0.07874X0.01968*%
%ADD16R,0.02756X0.03740*%
%ADD17R,0.05906X0.03543*%
%ADD18O,0.00984X0.05118*%
%ADD19O,0.05118X0.00984*%
%ADD20R,0.23622X0.23622*%
%ADD21R,0.03740X0.02756*%
%ADD22R,0.05512X0.04724*%
D15*
X403925Y497909D02*
D03*
Y494760D02*
D03*
Y491610D02*
D03*
Y488461D02*
D03*
Y485311D02*
D03*
X371642Y467988D02*
D03*
Y471138D02*
D03*
Y474287D02*
D03*
Y477437D02*
D03*
Y480587D02*
D03*
Y483736D02*
D03*
Y486886D02*
D03*
Y490035D02*
D03*
Y493185D02*
D03*
X403925Y482161D02*
D03*
Y479012D02*
D03*
Y475862D02*
D03*
Y472713D02*
D03*
Y469563D02*
D03*
X371642Y496335D02*
D03*
D16*
X460405Y410000D02*
D03*
X455287D02*
D03*
X426118Y463390D02*
D03*
X421000D02*
D03*
X426118Y469500D02*
D03*
X421000D02*
D03*
X426118Y475862D02*
D03*
X421000D02*
D03*
X426118Y482161D02*
D03*
X421000D02*
D03*
X420941Y516000D02*
D03*
X426059D02*
D03*
X426059Y509000D02*
D03*
X420941D02*
D03*
X426118Y501000D02*
D03*
X421000D02*
D03*
X426118Y494610D02*
D03*
X421000D02*
D03*
X500941Y474090D02*
D03*
X506059D02*
D03*
X500941Y481965D02*
D03*
X506059D02*
D03*
X500941Y497713D02*
D03*
X506059D02*
D03*
D17*
X227881Y436457D02*
D03*
Y443544D02*
D03*
X240086Y436457D02*
D03*
Y443544D02*
D03*
D18*
X457846Y464839D02*
D03*
X459815D02*
D03*
X461784D02*
D03*
X463752D02*
D03*
X465721D02*
D03*
X467689D02*
D03*
X469658D02*
D03*
X471626D02*
D03*
X473595D02*
D03*
X475563D02*
D03*
X477531D02*
D03*
X479500D02*
D03*
X481468D02*
D03*
X483437D02*
D03*
X485405D02*
D03*
X487374D02*
D03*
Y501059D02*
D03*
X485405D02*
D03*
X483437D02*
D03*
X481468D02*
D03*
X479500D02*
D03*
X477531D02*
D03*
X475563D02*
D03*
X473595D02*
D03*
X471626D02*
D03*
X469658D02*
D03*
X467689D02*
D03*
X465721D02*
D03*
X463752D02*
D03*
X461784D02*
D03*
X459815D02*
D03*
X457846D02*
D03*
D19*
X490721Y468185D02*
D03*
Y470154D02*
D03*
Y472122D02*
D03*
Y474090D02*
D03*
Y476059D02*
D03*
Y478028D02*
D03*
Y479996D02*
D03*
Y481965D02*
D03*
Y483933D02*
D03*
Y485902D02*
D03*
Y487870D02*
D03*
Y489839D02*
D03*
Y491807D02*
D03*
Y493776D02*
D03*
Y495744D02*
D03*
Y497713D02*
D03*
X454500D02*
D03*
Y495744D02*
D03*
Y493776D02*
D03*
Y491807D02*
D03*
Y489839D02*
D03*
Y487870D02*
D03*
Y485902D02*
D03*
Y483933D02*
D03*
Y481965D02*
D03*
Y479996D02*
D03*
Y478028D02*
D03*
Y476059D02*
D03*
Y474090D02*
D03*
Y472122D02*
D03*
Y470154D02*
D03*
Y468185D02*
D03*
D20*
X472610Y482949D02*
D03*
D21*
X496320Y520141D02*
D03*
Y525259D02*
D03*
X488605Y520141D02*
D03*
Y525259D02*
D03*
X480890Y520141D02*
D03*
Y525259D02*
D03*
X473175D02*
D03*
Y520141D02*
D03*
X465460D02*
D03*
Y525259D02*
D03*
X457745D02*
D03*
Y520141D02*
D03*
X450030D02*
D03*
Y525259D02*
D03*
X442315Y520141D02*
D03*
Y525259D02*
D03*
X434600D02*
D03*
Y520141D02*
D03*
X437185Y452661D02*
D03*
Y447543D02*
D03*
X435500Y464441D02*
D03*
Y469559D02*
D03*
X435500Y481059D02*
D03*
Y475941D02*
D03*
Y506059D02*
D03*
Y500941D02*
D03*
X435500Y489441D02*
D03*
Y494559D02*
D03*
X464185Y447543D02*
D03*
Y452661D02*
D03*
X470415D02*
D03*
Y447543D02*
D03*
X476644Y452661D02*
D03*
Y447543D02*
D03*
X482874Y452661D02*
D03*
Y447543D02*
D03*
X489103Y452661D02*
D03*
Y447543D02*
D03*
X495333Y452661D02*
D03*
Y447543D02*
D03*
D22*
X455016Y446953D02*
D03*
Y453252D02*
D03*
X446354Y446953D02*
D03*
Y453252D02*
D03*
M02*
