M48
;Layer_Color=9474304
;FILE_FORMAT=4:4
METRIC,LZ
;TYPE=PLATED
T1F00S00C0.2000
T2F00S00C0.2500
T3F00S00C0.4000
T4F00S00C0.7000
T5F00S00C0.8500
T6F00S00C0.9000
T7F00S00C1.0500
T8F00S00C1.5500
T9F00S00C3.1000
%
T01
X0120043Y0120469
X0121143
Y0121569
X0120043
Y0122669
Y0123769
X0121143
Y0122669
X0122243
Y0123769
Y0124869
X0121143
X0120043
X0122243Y0121569
Y0120469
X0118943
X0117843
Y0121569
Y0122669
Y0123769
Y0124869
X0118943
Y0123769
Y0122669
Y0121569
T02
X0056707Y0112649
X00594311Y0110871
X0062229Y01126601
X00610357Y01161752
X00594355Y01161796
X00578264Y0116205
X0074769Y0117348
X0076069Y0117094
X00770382
X0078019Y0117348
X0081919Y0117169
X00957248Y01188974
X01011682Y0117219
X01060196Y01177036
X0107569Y0116205
X0109093Y0116855
Y0117968
X01098804Y0114976
X0112395Y01124244
X0114935Y01112266
X0117475Y01105916
X0118293Y0115951
X0115189Y0118069
X0114177
X0114173Y0118919
X0120777Y01168933
X0120793Y01158868
X01226499Y0115836
X01222756Y01169416
X01258145Y011684
X0125984Y0118618
X01218692Y0112903
X0121285Y01191006
X0125984Y0120419
X0125941Y0122419
X0125984Y0126419
X0124643Y0128689
X01231249Y01294241
X0121285Y0128778
X0127635Y0119138
X01143Y0121419
Y0122419
X0113792Y012192
Y0122919
X0112649Y0120869
X0109367Y0121666
Y0122469
X0110363Y01235723
X0107442Y0123825
X0106045Y0122469
X0105791Y0119253
X01040588
X0100965Y0122469
Y0123269
X00960535Y01225382
X00956901Y01244854
X00957018Y01260856
X0092837Y0125269
Y01236785
Y0122869
X00922274Y01193546
X00960628Y01201674
X01011682Y0128793
X01044448Y0126492
X0105791Y0127762
X0109326Y0126619
X0109093Y0129286
X0109982Y0130302
X01089406Y0131064
X0113931Y0129069
Y01281689
X0113919Y0126869
X0115043Y0129069
X0117793Y0128397
X01173275Y01312164
X0084455Y0125984
X00812546Y01243076
Y01235964
X0079969Y0124079
Y01226446
Y01217644
X0080645Y0121214
X008255Y01197864
X0076719Y0120479
X0074422Y0122301
X0077369Y0124074
X0078232
X0076069Y0127635
X0075419Y01282357
T03
X0056Y01240001
Y01280001
X0058
X006
X0062
X0064
X0063Y01300001
X0061
X0059
X0057
X0061Y01260001
Y01220001
T04
X00638366Y0120015
T05
X0090397Y0115544
X0095097
X0100097
X0104697Y0117869
X0087597Y0118714
Y0124114
X0090397Y0129794
X0095097
X0100097
X0104697Y0127469
Y0122669
X0067497Y0121214
T06
X0109855Y0106318
X0112395
X0114935
X0117475
X0120015
X0122555
X0084074Y013335
X0081534
X0078994
X0076454
X0073914
T07
X0072597Y0115544
X0082597
X0092597
X0102597
X0097597Y0129794
X0087597
X0077597
X0067597
T08
X0098497Y0117869
Y0127469
T09
X0059499Y0105874
X0127499
M30
