G04*
G04 #@! TF.GenerationSoftware,Altium Limited,Altium Designer,18.1.11 (251)*
G04*
G04 Layer_Color=16711935*
%FSLAX25Y25*%
%MOIN*%
G70*
G01*
G75*
%ADD24R,0.03556X0.04540*%
%ADD29R,0.04540X0.03556*%
%ADD31C,0.00800*%
%ADD32C,0.08674*%
%ADD33R,0.06706X0.06706*%
%ADD34C,0.06706*%
%ADD35C,0.24422*%
%ADD36C,0.02769*%
%ADD55R,0.09265X0.13595*%
%ADD56R,0.09265X0.04737*%
%ADD57O,0.02375X0.07296*%
%ADD58R,0.06312X0.03241*%
D24*
X243059Y468500D02*
D03*
X237941D02*
D03*
X243059Y462043D02*
D03*
X237941D02*
D03*
X293441Y518500D02*
D03*
X298559D02*
D03*
X282941D02*
D03*
X288059D02*
D03*
X353441Y469900D02*
D03*
X358559D02*
D03*
X353441Y476500D02*
D03*
X358559D02*
D03*
X353441Y483000D02*
D03*
X358559D02*
D03*
X353441Y489500D02*
D03*
X358559D02*
D03*
X353441Y496000D02*
D03*
X358559D02*
D03*
X387882Y473500D02*
D03*
X393000D02*
D03*
X387882Y479900D02*
D03*
X393000D02*
D03*
X387882Y488200D02*
D03*
X393000D02*
D03*
X387882Y494600D02*
D03*
X393000D02*
D03*
X426059Y501000D02*
D03*
X420941D02*
D03*
X421000Y482161D02*
D03*
X426118D02*
D03*
X426059Y469500D02*
D03*
X420941D02*
D03*
X426059Y463500D02*
D03*
X420941D02*
D03*
X443059Y513579D02*
D03*
X437941D02*
D03*
Y507079D02*
D03*
X443059D02*
D03*
X437941Y500770D02*
D03*
X443059D02*
D03*
X437941Y493846D02*
D03*
X443059D02*
D03*
Y486923D02*
D03*
X437941D02*
D03*
X437941Y480000D02*
D03*
X443059D02*
D03*
X437941Y472000D02*
D03*
X443059D02*
D03*
X437941Y465500D02*
D03*
X443059D02*
D03*
X437941Y459000D02*
D03*
X443059D02*
D03*
X437941Y452500D02*
D03*
X443059D02*
D03*
D29*
X314839Y459059D02*
D03*
Y453941D02*
D03*
X307161Y459059D02*
D03*
Y453941D02*
D03*
X294366Y459059D02*
D03*
Y453941D02*
D03*
X227663Y449020D02*
D03*
Y454138D02*
D03*
X233981Y449020D02*
D03*
Y454138D02*
D03*
X240298Y449020D02*
D03*
Y454138D02*
D03*
X260500Y490441D02*
D03*
Y495559D02*
D03*
X325000Y504571D02*
D03*
Y509689D02*
D03*
X395000Y466610D02*
D03*
Y461492D02*
D03*
X401500Y466610D02*
D03*
Y461492D02*
D03*
X395000Y501941D02*
D03*
Y507059D02*
D03*
X401500Y501941D02*
D03*
Y507059D02*
D03*
D31*
X387784Y464051D02*
D03*
Y501847D02*
D03*
X394083Y511000D02*
D03*
X374398D02*
D03*
X355894D02*
D03*
X412193Y501847D02*
D03*
Y482949D02*
D03*
Y464051D02*
D03*
X394083Y454898D02*
D03*
X374398D02*
D03*
X355894D02*
D03*
X344870Y488638D02*
D03*
Y467378D02*
D03*
X265736Y477220D02*
D03*
D32*
X266130Y511000D02*
D03*
X305500D02*
D03*
X344870D02*
D03*
X384240D02*
D03*
X364555Y454898D02*
D03*
X403925D02*
D03*
X325185D02*
D03*
X285815D02*
D03*
D33*
X291000Y525000D02*
D03*
X432500Y418575D02*
D03*
D34*
X301000Y525000D02*
D03*
X311000D02*
D03*
X321000D02*
D03*
X331000D02*
D03*
X482500Y418575D02*
D03*
X472500D02*
D03*
X462500D02*
D03*
X452500D02*
D03*
X442500D02*
D03*
D35*
X234248Y416827D02*
D03*
X501965D02*
D03*
D36*
X463949Y474287D02*
D03*
Y478618D02*
D03*
Y482949D02*
D03*
Y487280D02*
D03*
Y491610D02*
D03*
X468280Y474287D02*
D03*
Y478618D02*
D03*
Y482949D02*
D03*
Y487280D02*
D03*
Y491610D02*
D03*
X472610Y474287D02*
D03*
Y478618D02*
D03*
Y482949D02*
D03*
Y487280D02*
D03*
Y491610D02*
D03*
X476941Y474287D02*
D03*
Y478618D02*
D03*
Y482949D02*
D03*
Y487280D02*
D03*
Y491610D02*
D03*
X481272Y474287D02*
D03*
Y478618D02*
D03*
Y482949D02*
D03*
Y487280D02*
D03*
Y491610D02*
D03*
D55*
X228488Y488500D02*
D03*
D56*
X251520Y479445D02*
D03*
Y488500D02*
D03*
Y497555D02*
D03*
D57*
X327634Y466728D02*
D03*
X325075D02*
D03*
X322516D02*
D03*
X319957D02*
D03*
X317398D02*
D03*
X314839D02*
D03*
X312280D02*
D03*
X309720D02*
D03*
X307161D02*
D03*
X304602D02*
D03*
X302043D02*
D03*
X299484D02*
D03*
X296925D02*
D03*
X294366D02*
D03*
X327634Y495272D02*
D03*
X325075D02*
D03*
X322516D02*
D03*
X319957D02*
D03*
X317398D02*
D03*
X314839D02*
D03*
X312280D02*
D03*
X309720D02*
D03*
X307161D02*
D03*
X304602D02*
D03*
X302043D02*
D03*
X299484D02*
D03*
X296925D02*
D03*
X294366D02*
D03*
D58*
X501154Y449996D02*
D03*
X465721D02*
D03*
X501154Y513579D02*
D03*
X465721D02*
D03*
X457846Y486492D02*
D03*
Y508146D02*
D03*
Y499484D02*
D03*
Y495154D02*
D03*
Y490823D02*
D03*
Y482161D02*
D03*
Y477831D02*
D03*
Y503815D02*
D03*
Y473500D02*
D03*
M02*
