G04*
G04 #@! TF.GenerationSoftware,Altium Limited,Altium Designer,18.1.11 (251)*
G04*
G04 Layer_Physical_Order=3*
G04 Layer_Color=16440176*
%FSLAX44Y44*%
%MOMM*%
G71*
G01*
G75*
%ADD10C,0.2500*%
%ADD41C,1.5000*%
%ADD43C,0.5000*%
G36*
X1316990Y1098740D02*
X1202719D01*
Y1109218D01*
X1202524Y1110201D01*
X1201967Y1111035D01*
X1192823Y1120179D01*
X1191989Y1120736D01*
X1191006Y1120931D01*
X1127798D01*
X1127119Y1122201D01*
X1127501Y1122773D01*
X1127794Y1124244D01*
X1127501Y1125715D01*
X1126668Y1126962D01*
X1125421Y1127795D01*
X1124483Y1127982D01*
X1124135Y1128493D01*
X1124804Y1129760D01*
X1124809Y1129763D01*
X1204270D01*
X1212661Y1121371D01*
X1213495Y1120814D01*
X1214478Y1120619D01*
X1223772D01*
X1224755Y1120814D01*
X1225589Y1121371D01*
X1233980Y1129763D01*
X1252220D01*
X1253203Y1129958D01*
X1254037Y1130515D01*
X1278167Y1154645D01*
X1278724Y1155479D01*
X1278919Y1156462D01*
Y1188563D01*
X1279068Y1188662D01*
X1279901Y1189909D01*
X1280194Y1191380D01*
X1279901Y1192851D01*
X1279068Y1194098D01*
X1277821Y1194931D01*
X1276350Y1195224D01*
X1274879Y1194931D01*
X1273632Y1194098D01*
X1272799Y1192851D01*
X1272506Y1191380D01*
X1272799Y1189909D01*
X1273632Y1188662D01*
X1273781Y1188563D01*
Y1157710D01*
X1272893Y1156903D01*
X1271807Y1157462D01*
Y1182370D01*
X1271612Y1183353D01*
X1271055Y1184187D01*
X1267245Y1187997D01*
X1266411Y1188554D01*
X1265428Y1188749D01*
X1262657D01*
X1262558Y1188898D01*
X1261311Y1189731D01*
X1259840Y1190024D01*
X1258369Y1189731D01*
X1257122Y1188898D01*
X1256289Y1187651D01*
X1255996Y1186180D01*
X1256289Y1184709D01*
X1257122Y1183462D01*
X1258369Y1182629D01*
X1259840Y1182336D01*
X1261311Y1182629D01*
X1262558Y1183462D01*
X1262657Y1183611D01*
X1264364D01*
X1266669Y1181306D01*
Y1158034D01*
X1253188Y1144553D01*
X1032297D01*
X1031950Y1145823D01*
X1034008Y1147402D01*
X1035814Y1149756D01*
X1036950Y1152498D01*
X1037337Y1155440D01*
X1036950Y1158382D01*
X1035814Y1161124D01*
X1034008Y1163478D01*
X1031654Y1165284D01*
X1028912Y1166420D01*
X1025970Y1166807D01*
X1023028Y1166420D01*
X1020286Y1165284D01*
X1017932Y1163478D01*
X1016126Y1161124D01*
X1014990Y1158382D01*
X1014603Y1155440D01*
X1014990Y1152498D01*
X1016126Y1149756D01*
X1017932Y1147402D01*
X1019990Y1145823D01*
X1019643Y1144553D01*
X932297D01*
X931950Y1145823D01*
X934008Y1147402D01*
X935814Y1149756D01*
X936950Y1152498D01*
X937337Y1155440D01*
X936950Y1158382D01*
X935814Y1161124D01*
X934008Y1163478D01*
X931654Y1165284D01*
X928912Y1166420D01*
X925970Y1166807D01*
X923028Y1166420D01*
X920286Y1165284D01*
X917932Y1163478D01*
X916126Y1161124D01*
X914990Y1158382D01*
X914603Y1155440D01*
X914990Y1152498D01*
X916126Y1149756D01*
X917932Y1147402D01*
X919990Y1145823D01*
X919643Y1144553D01*
X832297D01*
X831950Y1145823D01*
X834008Y1147402D01*
X835814Y1149756D01*
X836950Y1152498D01*
X837337Y1155440D01*
X836950Y1158382D01*
X835814Y1161124D01*
X834008Y1163478D01*
X831654Y1165284D01*
X828912Y1166420D01*
X825970Y1166807D01*
X823028Y1166420D01*
X820286Y1165284D01*
X817932Y1163478D01*
X816126Y1161124D01*
X815115Y1158685D01*
X813845Y1158937D01*
Y1162712D01*
X819015Y1167881D01*
X819190Y1167846D01*
X820661Y1168139D01*
X821908Y1168972D01*
X822741Y1170219D01*
X823034Y1171690D01*
X822741Y1173161D01*
X821908Y1174408D01*
X820661Y1175241D01*
X819190Y1175534D01*
X817719Y1175241D01*
X816472Y1174408D01*
X815639Y1173161D01*
X815346Y1171690D01*
X815381Y1171515D01*
X809459Y1165593D01*
X808902Y1164759D01*
X808707Y1163776D01*
Y1147826D01*
X808902Y1146843D01*
X809459Y1146009D01*
X814471Y1140997D01*
X813945Y1139727D01*
X776018D01*
X772951Y1142794D01*
Y1168123D01*
X773100Y1168222D01*
X773933Y1169469D01*
X774226Y1170940D01*
X773933Y1172411D01*
X773100Y1173658D01*
X771853Y1174491D01*
X770382Y1174784D01*
X768911Y1174491D01*
X767664Y1173658D01*
X766831Y1172411D01*
X766538Y1170940D01*
X766831Y1169469D01*
X767664Y1168222D01*
X767813Y1168123D01*
Y1142871D01*
X766543Y1142345D01*
X763259Y1145628D01*
Y1168123D01*
X763408Y1168222D01*
X764241Y1169469D01*
X764534Y1170940D01*
X764241Y1172411D01*
X763408Y1173658D01*
X762161Y1174491D01*
X760690Y1174784D01*
X759219Y1174491D01*
X758473Y1173993D01*
X757203Y1174620D01*
Y1206522D01*
X765756Y1215075D01*
X796873D01*
X796972Y1214926D01*
X798219Y1214093D01*
X799690Y1213800D01*
X801161Y1214093D01*
X802122Y1214735D01*
X803038Y1213820D01*
X802899Y1213611D01*
X802606Y1212140D01*
X802899Y1210669D01*
X803732Y1209422D01*
X804918Y1208629D01*
X804935Y1208535D01*
X804468Y1207359D01*
X770007D01*
X769908Y1207508D01*
X768661Y1208341D01*
X767190Y1208634D01*
X765719Y1208341D01*
X764472Y1207508D01*
X763639Y1206261D01*
X763346Y1204790D01*
X763639Y1203319D01*
X764472Y1202072D01*
X765719Y1201239D01*
X767190Y1200946D01*
X768661Y1201239D01*
X769908Y1202072D01*
X770007Y1202221D01*
X820488D01*
X821471Y1202416D01*
X821661Y1202543D01*
X822931Y1201864D01*
Y1200681D01*
X822782Y1200582D01*
X821949Y1199335D01*
X821656Y1197864D01*
X821949Y1196393D01*
X822782Y1195146D01*
X824029Y1194313D01*
X825500Y1194020D01*
X826971Y1194313D01*
X828218Y1195146D01*
X829051Y1196393D01*
X829344Y1197864D01*
X829051Y1199335D01*
X828218Y1200582D01*
X828069Y1200681D01*
Y1201880D01*
X830120Y1203931D01*
X956190D01*
X956980Y1202661D01*
X956784Y1201674D01*
X957077Y1200203D01*
X957910Y1198956D01*
X959157Y1198123D01*
X960628Y1197830D01*
X962099Y1198123D01*
X963346Y1198956D01*
X963445Y1199105D01*
X1074880D01*
X1089541Y1184444D01*
X1089158Y1183030D01*
X1088212Y1182398D01*
X1087379Y1181151D01*
X1087086Y1179680D01*
X1087379Y1178209D01*
X1088212Y1176962D01*
X1089459Y1176129D01*
X1090930Y1175836D01*
X1092401Y1176129D01*
X1093648Y1176962D01*
X1094280Y1177908D01*
X1095694Y1178291D01*
X1110449Y1163535D01*
X1111283Y1162978D01*
X1112266Y1162783D01*
X1179055D01*
X1179734Y1161513D01*
X1179379Y1160981D01*
X1179086Y1159510D01*
X1179379Y1158039D01*
X1180212Y1156792D01*
X1181459Y1155959D01*
X1182930Y1155666D01*
X1184401Y1155959D01*
X1185648Y1156792D01*
X1186481Y1158039D01*
X1186774Y1159510D01*
X1186481Y1160981D01*
X1186126Y1161513D01*
X1186805Y1162783D01*
X1202957D01*
X1203635Y1161513D01*
X1203182Y1160835D01*
X1203044Y1160138D01*
X1212816D01*
X1212678Y1160835D01*
X1211564Y1162502D01*
X1209896Y1163616D01*
X1208384Y1163916D01*
X1208384Y1165211D01*
X1209241Y1165382D01*
X1210488Y1166215D01*
X1211321Y1167462D01*
X1211614Y1168933D01*
X1211321Y1170404D01*
X1210488Y1171651D01*
X1209241Y1172484D01*
X1207770Y1172777D01*
X1206299Y1172484D01*
X1205052Y1171651D01*
X1204219Y1170404D01*
X1203926Y1168933D01*
X1203942Y1168853D01*
X1203109Y1167921D01*
X1201154D01*
X1200668Y1169095D01*
X1204761Y1173187D01*
X1205318Y1174021D01*
X1205513Y1175004D01*
Y1187148D01*
X1206802Y1188437D01*
X1210033D01*
X1210132Y1188288D01*
X1211379Y1187455D01*
X1212850Y1187162D01*
X1214321Y1187455D01*
X1215568Y1188288D01*
X1216401Y1189535D01*
X1216694Y1191006D01*
X1216401Y1192477D01*
X1215568Y1193724D01*
X1214321Y1194557D01*
X1212850Y1194850D01*
X1211379Y1194557D01*
X1210132Y1193724D01*
X1210033Y1193575D01*
X1205738D01*
X1204755Y1193380D01*
X1203921Y1192823D01*
X1201127Y1190029D01*
X1200570Y1189195D01*
X1200375Y1188212D01*
Y1176068D01*
X1196292Y1171985D01*
X1170688D01*
X1170202Y1173159D01*
X1173017Y1175973D01*
X1173574Y1176807D01*
X1173769Y1177790D01*
Y1202767D01*
X1173828Y1202791D01*
X1175039Y1202979D01*
X1175712Y1201972D01*
X1176959Y1201139D01*
X1178430Y1200846D01*
X1179901Y1201139D01*
X1181148Y1201972D01*
X1181981Y1203219D01*
X1182274Y1204690D01*
X1181981Y1206161D01*
X1181148Y1207408D01*
X1179901Y1208241D01*
X1178430Y1208534D01*
X1176959Y1208241D01*
X1175712Y1207408D01*
X1175039Y1206401D01*
X1173828Y1206589D01*
X1173769Y1206613D01*
Y1213767D01*
X1173828Y1213791D01*
X1175039Y1213979D01*
X1175712Y1212972D01*
X1176959Y1212139D01*
X1178430Y1211846D01*
X1179901Y1212139D01*
X1181148Y1212972D01*
X1181981Y1214219D01*
X1182274Y1215690D01*
X1181981Y1217161D01*
X1181148Y1218408D01*
X1179901Y1219241D01*
X1178430Y1219534D01*
X1176959Y1219241D01*
X1175712Y1218408D01*
X1175039Y1217401D01*
X1173828Y1217589D01*
X1173769Y1217613D01*
Y1224767D01*
X1173828Y1224791D01*
X1175039Y1224979D01*
X1175712Y1223972D01*
X1176959Y1223139D01*
X1178430Y1222846D01*
X1179901Y1223139D01*
X1181148Y1223972D01*
X1181981Y1225219D01*
X1182274Y1226690D01*
X1181981Y1228161D01*
X1181148Y1229408D01*
X1179901Y1230241D01*
X1178430Y1230534D01*
X1176959Y1230241D01*
X1175712Y1229408D01*
X1175039Y1228401D01*
X1173828Y1228589D01*
X1173769Y1228613D01*
Y1235767D01*
X1173828Y1235791D01*
X1175039Y1235979D01*
X1175712Y1234972D01*
X1176959Y1234139D01*
X1178430Y1233846D01*
X1179901Y1234139D01*
X1181148Y1234972D01*
X1181981Y1236219D01*
X1182274Y1237690D01*
X1181981Y1239161D01*
X1181148Y1240408D01*
X1179901Y1241241D01*
X1178430Y1241534D01*
X1176959Y1241241D01*
X1175712Y1240408D01*
X1175039Y1239401D01*
X1173828Y1239589D01*
X1173769Y1239613D01*
Y1246767D01*
X1173828Y1246791D01*
X1175039Y1246979D01*
X1175712Y1245972D01*
X1176959Y1245139D01*
X1178430Y1244846D01*
X1179901Y1245139D01*
X1181148Y1245972D01*
X1181981Y1247219D01*
X1182274Y1248690D01*
X1181981Y1250161D01*
X1181148Y1251408D01*
X1179901Y1252241D01*
X1178430Y1252534D01*
X1176959Y1252241D01*
X1175712Y1251408D01*
X1175039Y1250401D01*
X1173828Y1250589D01*
X1173769Y1250613D01*
Y1266020D01*
X1173574Y1267003D01*
X1173017Y1267837D01*
X1170347Y1270507D01*
X1169513Y1271064D01*
X1168530Y1271259D01*
X1142007D01*
X1141908Y1271408D01*
X1140661Y1272241D01*
X1139190Y1272534D01*
X1137719Y1272241D01*
X1136472Y1271408D01*
X1135639Y1270161D01*
X1135346Y1268690D01*
X1135639Y1267219D01*
X1136472Y1265972D01*
X1137719Y1265139D01*
X1139190Y1264846D01*
X1140661Y1265139D01*
X1141908Y1265972D01*
X1142007Y1266121D01*
X1167466D01*
X1168631Y1264956D01*
Y1178854D01*
X1165706Y1175929D01*
X1154207D01*
X1153440Y1177107D01*
X1153452Y1177199D01*
X1154608Y1177972D01*
X1155441Y1179219D01*
X1155734Y1180690D01*
X1155441Y1182161D01*
X1154608Y1183408D01*
X1154459Y1183507D01*
Y1188720D01*
X1154264Y1189703D01*
X1153707Y1190537D01*
X1147357Y1196887D01*
X1146523Y1197444D01*
X1145540Y1197639D01*
X1109266D01*
X1096371Y1210535D01*
X1096897Y1211805D01*
X1122510D01*
X1123188Y1210535D01*
X1122939Y1210161D01*
X1122646Y1208690D01*
X1122939Y1207219D01*
X1123772Y1205972D01*
X1125019Y1205139D01*
X1126490Y1204846D01*
X1127961Y1205139D01*
X1129208Y1205972D01*
X1130041Y1207219D01*
X1130334Y1208690D01*
X1130041Y1210161D01*
X1129208Y1211408D01*
X1129059Y1211507D01*
Y1212596D01*
X1128864Y1213579D01*
X1128307Y1214413D01*
X1126529Y1216191D01*
X1125695Y1216748D01*
X1124712Y1216943D01*
X1098895D01*
X1098801Y1217139D01*
X1099603Y1218409D01*
X1134233D01*
X1134369Y1217729D01*
X1135202Y1216482D01*
X1136449Y1215649D01*
X1137920Y1215356D01*
X1138100Y1215392D01*
X1139180Y1214312D01*
X1139156Y1214190D01*
X1139449Y1212719D01*
X1140282Y1211472D01*
X1141529Y1210639D01*
X1143000Y1210346D01*
X1144471Y1210639D01*
X1145718Y1211472D01*
X1146551Y1212719D01*
X1146844Y1214190D01*
X1146551Y1215661D01*
X1145718Y1216908D01*
X1144471Y1217741D01*
X1143000Y1218034D01*
X1142482Y1219184D01*
Y1219198D01*
X1143000Y1220346D01*
X1144471Y1220639D01*
X1145718Y1221472D01*
X1146551Y1222719D01*
X1146844Y1224190D01*
X1146551Y1225661D01*
X1145718Y1226908D01*
X1144471Y1227741D01*
X1143000Y1228034D01*
X1142822Y1227998D01*
X1141742Y1229078D01*
X1141764Y1229190D01*
X1141471Y1230661D01*
X1140638Y1231908D01*
X1139391Y1232741D01*
X1137920Y1233034D01*
X1136449Y1232741D01*
X1135202Y1231908D01*
X1135103Y1231759D01*
X1106769D01*
X1106348Y1233006D01*
X1107181Y1234252D01*
X1107474Y1235723D01*
X1107181Y1237195D01*
X1106348Y1238441D01*
X1105101Y1239275D01*
X1103630Y1239567D01*
X1102159Y1239275D01*
X1100912Y1238441D01*
X1100079Y1237195D01*
X1099867Y1236132D01*
X1098752Y1235646D01*
X1098572Y1235632D01*
X1095829Y1238374D01*
Y1263373D01*
X1095978Y1263472D01*
X1096811Y1264719D01*
X1097104Y1266190D01*
X1096811Y1267661D01*
X1095978Y1268908D01*
X1094731Y1269741D01*
X1093260Y1270034D01*
X1091789Y1269741D01*
X1090542Y1268908D01*
X1089709Y1267661D01*
X1089416Y1266190D01*
X1089709Y1264719D01*
X1090542Y1263472D01*
X1090691Y1263373D01*
Y1237310D01*
X1090886Y1236327D01*
X1091443Y1235493D01*
X1099563Y1227373D01*
X1100397Y1226816D01*
X1101380Y1226621D01*
X1135103D01*
X1135202Y1226472D01*
X1136449Y1225639D01*
X1137920Y1225346D01*
X1138098Y1225382D01*
X1139178Y1224302D01*
X1139156Y1224190D01*
X1139176Y1224089D01*
X1138096Y1223009D01*
X1137920Y1223044D01*
X1137663Y1222993D01*
X1137125Y1223352D01*
X1136142Y1223547D01*
X1098446D01*
X1097479Y1224515D01*
X1097514Y1224690D01*
X1097221Y1226161D01*
X1096388Y1227408D01*
X1095141Y1228241D01*
X1093670Y1228534D01*
X1092199Y1228241D01*
X1090952Y1227408D01*
X1090119Y1226161D01*
X1089826Y1224690D01*
X1090119Y1223219D01*
X1090952Y1221972D01*
X1091837Y1221381D01*
X1091889Y1221213D01*
Y1220137D01*
X1091837Y1219969D01*
X1090952Y1219378D01*
X1090300Y1218402D01*
X1088898Y1218008D01*
X1086143Y1220763D01*
X1085309Y1221320D01*
X1084326Y1221515D01*
X1064390D01*
X1063712Y1222785D01*
X1064001Y1223219D01*
X1064294Y1224690D01*
X1064001Y1226161D01*
X1063168Y1227408D01*
X1061921Y1228241D01*
X1060450Y1228534D01*
X1058979Y1228241D01*
X1057732Y1227408D01*
X1056899Y1226161D01*
X1056606Y1224690D01*
X1056899Y1223219D01*
X1057188Y1222785D01*
X1056510Y1221515D01*
X1051312D01*
X1051178Y1221957D01*
X1051000Y1222785D01*
X1052170Y1224536D01*
X1052598Y1226690D01*
X1052170Y1228844D01*
X1050950Y1230670D01*
X1049124Y1231890D01*
X1046970Y1232318D01*
X1044816Y1231890D01*
X1042990Y1230670D01*
X1041770Y1228844D01*
X1041342Y1226690D01*
X1041770Y1224536D01*
X1042940Y1222785D01*
X1042762Y1221957D01*
X1042628Y1221515D01*
X1013590D01*
X1012912Y1222785D01*
X1013201Y1223219D01*
X1013494Y1224690D01*
X1013201Y1226161D01*
X1012368Y1227408D01*
X1011505Y1227984D01*
X1011466Y1228104D01*
Y1229276D01*
X1011505Y1229396D01*
X1012368Y1229972D01*
X1013201Y1231219D01*
X1013494Y1232690D01*
X1013201Y1234161D01*
X1012368Y1235408D01*
X1011121Y1236241D01*
X1009650Y1236534D01*
X1008179Y1236241D01*
X1006932Y1235408D01*
X1006099Y1234161D01*
X1005806Y1232690D01*
X1006099Y1231219D01*
X1006932Y1229972D01*
X1007795Y1229396D01*
X1007834Y1229276D01*
Y1228104D01*
X1007795Y1227984D01*
X1006932Y1227408D01*
X1006099Y1226161D01*
X1005806Y1224690D01*
X1006099Y1223219D01*
X1006388Y1222785D01*
X1005710Y1221515D01*
X963820D01*
X963474Y1222216D01*
X963334Y1222785D01*
X964086Y1223911D01*
X964379Y1225382D01*
X964086Y1226853D01*
X963253Y1228100D01*
X962006Y1228933D01*
X960535Y1229225D01*
X959064Y1228933D01*
X957817Y1228100D01*
X956983Y1226853D01*
X956691Y1225382D01*
X956983Y1223911D01*
X957735Y1222785D01*
X957595Y1222216D01*
X957249Y1221515D01*
X824278Y1221515D01*
X820449Y1225344D01*
Y1241140D01*
X820254Y1242123D01*
X819697Y1242957D01*
X817761Y1244893D01*
X816927Y1245450D01*
X815944Y1245645D01*
X815363D01*
X815264Y1245794D01*
X814017Y1246627D01*
X812546Y1246920D01*
X811075Y1246627D01*
X810289Y1246102D01*
X809019Y1246696D01*
Y1264364D01*
X812848Y1268193D01*
X823656D01*
X824640Y1268388D01*
X825473Y1268945D01*
X871457Y1314929D01*
X1086753D01*
X1087138Y1313659D01*
X1086688Y1313358D01*
X1085855Y1312111D01*
X1085562Y1310640D01*
X1085855Y1309169D01*
X1086688Y1307922D01*
X1087935Y1307089D01*
X1089406Y1306796D01*
X1090877Y1307089D01*
X1092124Y1307922D01*
X1092957Y1309169D01*
X1093250Y1310640D01*
X1092957Y1312111D01*
X1092124Y1313358D01*
X1091674Y1313659D01*
X1092059Y1314929D01*
X1118568D01*
X1130271Y1303226D01*
Y1288159D01*
X1130466Y1287176D01*
X1131023Y1286343D01*
X1135501Y1281865D01*
X1135466Y1281689D01*
X1135759Y1280219D01*
X1136592Y1278971D01*
X1137839Y1278138D01*
X1139310Y1277846D01*
X1140781Y1278138D01*
X1142028Y1278971D01*
X1142861Y1280219D01*
X1143154Y1281689D01*
X1142861Y1283161D01*
X1142028Y1284408D01*
X1140781Y1285241D01*
X1140267Y1285343D01*
X1139936Y1285602D01*
X1139908Y1285670D01*
X1140691Y1287121D01*
X1140781Y1287139D01*
X1142028Y1287972D01*
X1142356Y1288463D01*
X1142416Y1288503D01*
X1142973Y1289337D01*
X1143169Y1290320D01*
X1143125Y1290543D01*
X1143154Y1290690D01*
X1142861Y1292161D01*
X1142028Y1293408D01*
X1141879Y1293507D01*
Y1305920D01*
X1141806Y1306290D01*
X1142976Y1306916D01*
X1147861Y1302031D01*
Y1293507D01*
X1147712Y1293408D01*
X1146879Y1292161D01*
X1146586Y1290690D01*
X1146879Y1289219D01*
X1147712Y1287972D01*
X1148959Y1287139D01*
X1150430Y1286846D01*
X1151901Y1287139D01*
X1153148Y1287972D01*
X1153981Y1289219D01*
X1154274Y1290690D01*
X1153981Y1292161D01*
X1153148Y1293408D01*
X1152999Y1293507D01*
Y1303096D01*
X1152804Y1304079D01*
X1152247Y1304912D01*
X1127684Y1329475D01*
X1126851Y1330032D01*
X1125867Y1330227D01*
X863838D01*
X862855Y1330032D01*
X862021Y1329475D01*
X817473Y1284927D01*
X757007D01*
X756908Y1285075D01*
X755661Y1285909D01*
X754190Y1286201D01*
X752719Y1285909D01*
X751472Y1285075D01*
X750639Y1283828D01*
X750346Y1282357D01*
X750639Y1280886D01*
X751472Y1279639D01*
X752719Y1278806D01*
X754190Y1278513D01*
X755661Y1278806D01*
X756039Y1279058D01*
X756368Y1278953D01*
X757139Y1277821D01*
X756846Y1276350D01*
X757139Y1274879D01*
X757972Y1273632D01*
X759219Y1272799D01*
X760690Y1272506D01*
X762161Y1272799D01*
X763408Y1273632D01*
X763507Y1273781D01*
X809480D01*
X809877Y1272801D01*
X809899Y1272511D01*
X804633Y1267245D01*
X804076Y1266411D01*
X803881Y1265428D01*
Y1243590D01*
X802611Y1243205D01*
X802408Y1243508D01*
X801161Y1244341D01*
X799690Y1244634D01*
X798219Y1244341D01*
X796972Y1243508D01*
X796139Y1242261D01*
X795846Y1240790D01*
X796139Y1239319D01*
X796972Y1238072D01*
X797121Y1237973D01*
Y1236444D01*
X794384Y1233707D01*
X780717D01*
X780191Y1234977D01*
X782145Y1236931D01*
X782320Y1236896D01*
X783791Y1237189D01*
X785038Y1238022D01*
X785871Y1239269D01*
X786164Y1240740D01*
X785871Y1242211D01*
X785038Y1243458D01*
X783791Y1244291D01*
X782320Y1244584D01*
X780849Y1244291D01*
X779602Y1243458D01*
X778769Y1242211D01*
X778652Y1241626D01*
X777358D01*
X777241Y1242211D01*
X776408Y1243458D01*
X775161Y1244291D01*
X773690Y1244584D01*
X772219Y1244291D01*
X770972Y1243458D01*
X770873Y1243309D01*
X667716D01*
X666733Y1243114D01*
X665899Y1242557D01*
X654519Y1231177D01*
X653962Y1230343D01*
X653767Y1229360D01*
Y1197912D01*
X649804Y1193949D01*
X644138D01*
X643746Y1195219D01*
X644716Y1196484D01*
X645449Y1198252D01*
X645698Y1200150D01*
X645449Y1202048D01*
X644716Y1203816D01*
X643551Y1205335D01*
X642032Y1206500D01*
X640264Y1207233D01*
X638366Y1207483D01*
X636468Y1207233D01*
X634699Y1206500D01*
X633181Y1205335D01*
X632015Y1203816D01*
X631283Y1202048D01*
X631033Y1200150D01*
X631283Y1198252D01*
X632015Y1196484D01*
X632985Y1195219D01*
X632593Y1193949D01*
X598798D01*
X597815Y1193754D01*
X596981Y1193197D01*
X576447Y1172663D01*
X575890Y1171829D01*
X575695Y1170846D01*
Y1164867D01*
X575546Y1164768D01*
X574713Y1163521D01*
X574420Y1162050D01*
X574713Y1160579D01*
X575546Y1159332D01*
X576793Y1158499D01*
X578264Y1158206D01*
X579735Y1158499D01*
X580982Y1159332D01*
X581815Y1160579D01*
X582108Y1162050D01*
X581815Y1163521D01*
X580982Y1164768D01*
X580834Y1164867D01*
Y1169782D01*
X599862Y1188811D01*
X606547D01*
X607073Y1187541D01*
X592538Y1173006D01*
X591981Y1172172D01*
X591786Y1171189D01*
Y1164613D01*
X591637Y1164514D01*
X590804Y1163267D01*
X590511Y1161796D01*
X590804Y1160325D01*
X591637Y1159078D01*
X592884Y1158245D01*
X594355Y1157952D01*
X595826Y1158245D01*
X597073Y1159078D01*
X597906Y1160325D01*
X598199Y1161796D01*
X597906Y1163267D01*
X597073Y1164514D01*
X596924Y1164613D01*
Y1170125D01*
X610410Y1183611D01*
X617349D01*
X617875Y1182341D01*
X608541Y1173006D01*
X607984Y1172173D01*
X607788Y1171189D01*
Y1164569D01*
X607639Y1164470D01*
X606806Y1163223D01*
X606513Y1161752D01*
X606806Y1160281D01*
X607639Y1159034D01*
X608886Y1158201D01*
X610357Y1157908D01*
X611828Y1158201D01*
X613075Y1159034D01*
X613909Y1160281D01*
X614201Y1161752D01*
X613909Y1163223D01*
X613075Y1164470D01*
X612927Y1164569D01*
Y1170125D01*
X621332Y1178531D01*
X654304D01*
X655287Y1178726D01*
X656121Y1179283D01*
X668821Y1191983D01*
X669378Y1192817D01*
X669573Y1193800D01*
Y1207995D01*
X670843Y1208380D01*
X670990Y1208160D01*
X672816Y1206940D01*
X674970Y1206512D01*
X677124Y1206940D01*
X678950Y1208160D01*
X680170Y1209986D01*
X680598Y1212140D01*
X680170Y1214294D01*
X678950Y1216120D01*
X677124Y1217340D01*
X674970Y1217768D01*
X672816Y1217340D01*
X670990Y1216120D01*
X670843Y1215900D01*
X669573Y1216285D01*
Y1226264D01*
X671878Y1228569D01*
X751852D01*
X752338Y1227395D01*
X748998Y1224055D01*
X747947Y1224374D01*
X747714Y1224567D01*
X746938Y1225728D01*
X745691Y1226561D01*
X744220Y1226854D01*
X742749Y1226561D01*
X741502Y1225728D01*
X740669Y1224481D01*
X740376Y1223010D01*
X740411Y1222835D01*
X704049Y1186473D01*
X703492Y1185639D01*
X703297Y1184656D01*
Y1142492D01*
X703492Y1141509D01*
X704049Y1140675D01*
X740625Y1104099D01*
X741459Y1103542D01*
X742442Y1103347D01*
X1171933D01*
X1172032Y1103198D01*
X1173279Y1102365D01*
X1174750Y1102072D01*
X1176221Y1102365D01*
X1177468Y1103198D01*
X1178301Y1104445D01*
X1178594Y1105916D01*
X1178301Y1107387D01*
X1177468Y1108634D01*
X1176221Y1109467D01*
X1174750Y1109760D01*
X1173279Y1109467D01*
X1172032Y1108634D01*
X1171933Y1108485D01*
X1152764D01*
X1152441Y1108978D01*
X1152207Y1109755D01*
X1152901Y1110795D01*
X1153194Y1112266D01*
X1152901Y1113737D01*
X1152376Y1114523D01*
X1152970Y1115793D01*
X1189942D01*
X1197581Y1108154D01*
Y1098740D01*
X554990D01*
Y1236627D01*
X556260Y1237013D01*
X556561Y1236562D01*
X558139Y1235507D01*
X560000Y1235137D01*
X561861Y1235507D01*
X563439Y1236562D01*
X564493Y1238139D01*
X564864Y1240001D01*
X564493Y1241862D01*
X563439Y1243440D01*
X561861Y1244494D01*
X560000Y1244864D01*
X558139Y1244494D01*
X556561Y1243440D01*
X556260Y1242989D01*
X554990Y1243374D01*
Y1276627D01*
X556260Y1277013D01*
X556561Y1276562D01*
X558139Y1275508D01*
X560000Y1275137D01*
X561861Y1275508D01*
X563439Y1276562D01*
X564493Y1278139D01*
X564864Y1280001D01*
X564493Y1281862D01*
X563439Y1283440D01*
X561861Y1284494D01*
X560000Y1284864D01*
X558139Y1284494D01*
X556561Y1283440D01*
X556260Y1282989D01*
X554990Y1283374D01*
Y1348740D01*
X1316990D01*
Y1098740D01*
D02*
G37*
G36*
X1138559Y1191231D02*
X1138179Y1190661D01*
X1137886Y1189190D01*
X1138179Y1187719D01*
X1139012Y1186472D01*
X1140259Y1185639D01*
X1140537Y1185583D01*
Y1184289D01*
X1140299Y1184241D01*
X1139052Y1183408D01*
X1138219Y1182161D01*
X1137926Y1180690D01*
X1136695Y1180367D01*
X1119934D01*
X1109071Y1191231D01*
X1109597Y1192501D01*
X1137880D01*
X1138559Y1191231D01*
D02*
G37*
G36*
X752405Y1208786D02*
X752260Y1208569D01*
X752065Y1207586D01*
Y1176005D01*
X750795Y1175619D01*
X750408Y1176198D01*
X749161Y1177031D01*
X747690Y1177324D01*
X746219Y1177031D01*
X744972Y1176198D01*
X744757Y1175877D01*
X743487Y1176262D01*
Y1201664D01*
X751419Y1209596D01*
X752405Y1208786D01*
D02*
G37*
G36*
X752065Y1170955D02*
Y1143254D01*
X752260Y1142271D01*
X752817Y1141437D01*
X768565Y1125689D01*
X769399Y1125132D01*
X770382Y1124937D01*
X1119075D01*
X1120106Y1124244D01*
X1120399Y1122773D01*
X1120781Y1122201D01*
X1120102Y1120931D01*
X757222D01*
X743487Y1134666D01*
Y1170698D01*
X744757Y1171083D01*
X744972Y1170762D01*
X746219Y1169929D01*
X747690Y1169636D01*
X749161Y1169929D01*
X750408Y1170762D01*
X750795Y1171341D01*
X752065Y1170955D01*
D02*
G37*
G36*
X760657Y1227897D02*
X761079Y1226523D01*
X739101Y1204546D01*
X738544Y1203712D01*
X738349Y1202729D01*
Y1157488D01*
X737079Y1157404D01*
X736950Y1158382D01*
X735814Y1161124D01*
X734008Y1163478D01*
X731654Y1165284D01*
X728912Y1166420D01*
X725970Y1166807D01*
X723028Y1166420D01*
X720286Y1165284D01*
X717932Y1163478D01*
X716563Y1161694D01*
X715293Y1162125D01*
Y1183084D01*
X760195Y1227986D01*
X760657Y1227897D01*
D02*
G37*
G36*
X738349Y1153392D02*
Y1133602D01*
X738544Y1132619D01*
X739101Y1131785D01*
X754341Y1116545D01*
X754999Y1116105D01*
X754975Y1115393D01*
X754788Y1114835D01*
X747316D01*
X715293Y1146858D01*
Y1148755D01*
X716563Y1149186D01*
X717932Y1147402D01*
X720286Y1145596D01*
X723028Y1144460D01*
X725970Y1144073D01*
X728912Y1144460D01*
X731654Y1145596D01*
X734008Y1147402D01*
X735814Y1149756D01*
X736950Y1152498D01*
X737079Y1153475D01*
X738349Y1153392D01*
D02*
G37*
G36*
X1254397Y1138445D02*
X1254436Y1138182D01*
X1251156Y1134901D01*
X1232916D01*
X1231933Y1134706D01*
X1231099Y1134149D01*
X1223554Y1126604D01*
X1223171Y1126661D01*
X1222975Y1126851D01*
X1222344Y1128067D01*
X1222536Y1129030D01*
X1222243Y1130501D01*
X1221410Y1131748D01*
X1221261Y1131847D01*
Y1133602D01*
X1221066Y1134585D01*
X1220509Y1135419D01*
X1217783Y1138145D01*
X1218309Y1139415D01*
X1253873D01*
X1254397Y1138445D01*
D02*
G37*
G36*
X710155Y1182522D02*
Y1145794D01*
X710350Y1144811D01*
X710907Y1143977D01*
X744435Y1110449D01*
X745269Y1109892D01*
X745957Y1109755D01*
X745832Y1108485D01*
X743506D01*
X708435Y1143556D01*
Y1182852D01*
X708885Y1183175D01*
X710155Y1182522D01*
D02*
G37*
%LPC*%
G36*
X747910Y1342270D02*
X730370D01*
Y1324730D01*
X747910D01*
Y1342270D01*
D02*
G37*
G36*
X840740Y1342346D02*
X838451Y1342044D01*
X836317Y1341161D01*
X834485Y1339755D01*
X833079Y1337923D01*
X832196Y1335789D01*
X831894Y1333500D01*
X832196Y1331211D01*
X833079Y1329077D01*
X834485Y1327245D01*
X836317Y1325839D01*
X838451Y1324956D01*
X840740Y1324654D01*
X843029Y1324956D01*
X845163Y1325839D01*
X846995Y1327245D01*
X848401Y1329077D01*
X849284Y1331211D01*
X849586Y1333500D01*
X849284Y1335789D01*
X848401Y1337923D01*
X846995Y1339755D01*
X845163Y1341161D01*
X843029Y1342044D01*
X840740Y1342346D01*
D02*
G37*
G36*
X815340D02*
X813051Y1342044D01*
X810917Y1341161D01*
X809085Y1339755D01*
X807679Y1337923D01*
X806796Y1335789D01*
X806494Y1333500D01*
X806796Y1331211D01*
X807679Y1329077D01*
X809085Y1327245D01*
X810917Y1325839D01*
X813051Y1324956D01*
X815340Y1324654D01*
X817629Y1324956D01*
X819763Y1325839D01*
X821595Y1327245D01*
X823001Y1329077D01*
X823884Y1331211D01*
X824186Y1333500D01*
X823884Y1335789D01*
X823001Y1337923D01*
X821595Y1339755D01*
X819763Y1341161D01*
X817629Y1342044D01*
X815340Y1342346D01*
D02*
G37*
G36*
X789940D02*
X787651Y1342044D01*
X785517Y1341161D01*
X783685Y1339755D01*
X782279Y1337923D01*
X781396Y1335789D01*
X781094Y1333500D01*
X781396Y1331211D01*
X782279Y1329077D01*
X783685Y1327245D01*
X785517Y1325839D01*
X787651Y1324956D01*
X789940Y1324654D01*
X792229Y1324956D01*
X794363Y1325839D01*
X796195Y1327245D01*
X797601Y1329077D01*
X798484Y1331211D01*
X798786Y1333500D01*
X798484Y1335789D01*
X797601Y1337923D01*
X796195Y1339755D01*
X794363Y1341161D01*
X792229Y1342044D01*
X789940Y1342346D01*
D02*
G37*
G36*
X764540D02*
X762251Y1342044D01*
X760117Y1341161D01*
X758285Y1339755D01*
X756879Y1337923D01*
X755996Y1335789D01*
X755694Y1333500D01*
X755996Y1331211D01*
X756879Y1329077D01*
X758285Y1327245D01*
X760117Y1325839D01*
X762251Y1324956D01*
X764540Y1324654D01*
X766829Y1324956D01*
X768963Y1325839D01*
X770795Y1327245D01*
X772201Y1329077D01*
X773084Y1331211D01*
X773386Y1333500D01*
X773084Y1335789D01*
X772201Y1337923D01*
X770795Y1339755D01*
X768963Y1341161D01*
X766829Y1342044D01*
X764540Y1342346D01*
D02*
G37*
G36*
X1173275Y1316008D02*
X1171804Y1315715D01*
X1170557Y1314882D01*
X1169724Y1313635D01*
X1169431Y1312164D01*
X1169724Y1310693D01*
X1170557Y1309446D01*
X1171804Y1308613D01*
X1173275Y1308320D01*
X1174746Y1308613D01*
X1175993Y1309446D01*
X1176826Y1310693D01*
X1177119Y1312164D01*
X1176826Y1313635D01*
X1175993Y1314882D01*
X1174746Y1315715D01*
X1173275Y1316008D01*
D02*
G37*
G36*
X1099820Y1306864D02*
X1098349Y1306571D01*
X1097102Y1305738D01*
X1096269Y1304491D01*
X1095976Y1303020D01*
X1096269Y1301549D01*
X1097102Y1300302D01*
X1098349Y1299469D01*
X1099820Y1299176D01*
X1101291Y1299469D01*
X1102538Y1300302D01*
X1103371Y1301549D01*
X1103664Y1303020D01*
X1103371Y1304491D01*
X1102538Y1305738D01*
X1101291Y1306571D01*
X1099820Y1306864D01*
D02*
G37*
G36*
X630000Y1304864D02*
X628139Y1304494D01*
X626561Y1303440D01*
X625507Y1301862D01*
X625137Y1300001D01*
X625507Y1298139D01*
X626561Y1296562D01*
X628139Y1295508D01*
X630000Y1295137D01*
X631861Y1295508D01*
X633439Y1296562D01*
X634494Y1298139D01*
X634864Y1300001D01*
X634494Y1301862D01*
X633439Y1303440D01*
X631861Y1304494D01*
X630000Y1304864D01*
D02*
G37*
G36*
X610000D02*
X608139Y1304494D01*
X606561Y1303440D01*
X605507Y1301862D01*
X605137Y1300001D01*
X605507Y1298139D01*
X606561Y1296562D01*
X608139Y1295508D01*
X610000Y1295137D01*
X611861Y1295508D01*
X613439Y1296562D01*
X614494Y1298139D01*
X614864Y1300001D01*
X614494Y1301862D01*
X613439Y1303440D01*
X611861Y1304494D01*
X610000Y1304864D01*
D02*
G37*
G36*
X590000D02*
X588139Y1304494D01*
X586561Y1303440D01*
X585507Y1301862D01*
X585137Y1300001D01*
X585507Y1298139D01*
X586561Y1296562D01*
X588139Y1295508D01*
X590000Y1295137D01*
X591861Y1295508D01*
X593439Y1296562D01*
X594494Y1298139D01*
X594864Y1300001D01*
X594494Y1301862D01*
X593439Y1303440D01*
X591861Y1304494D01*
X590000Y1304864D01*
D02*
G37*
G36*
X570000D02*
X568139Y1304494D01*
X566561Y1303440D01*
X565507Y1301862D01*
X565137Y1300001D01*
X565507Y1298139D01*
X566561Y1296562D01*
X568139Y1295508D01*
X570000Y1295137D01*
X571861Y1295508D01*
X573439Y1296562D01*
X574493Y1298139D01*
X574864Y1300001D01*
X574493Y1301862D01*
X573439Y1303440D01*
X571861Y1304494D01*
X570000Y1304864D01*
D02*
G37*
G36*
X1000970Y1303568D02*
X998816Y1303140D01*
X996990Y1301920D01*
X995770Y1300094D01*
X995342Y1297940D01*
X995770Y1295786D01*
X996990Y1293960D01*
X998816Y1292740D01*
X1000970Y1292312D01*
X1003124Y1292740D01*
X1004950Y1293960D01*
X1006170Y1295786D01*
X1006598Y1297940D01*
X1006170Y1300094D01*
X1004950Y1301920D01*
X1003124Y1303140D01*
X1000970Y1303568D01*
D02*
G37*
G36*
X950970D02*
X948816Y1303140D01*
X946990Y1301920D01*
X945770Y1300094D01*
X945342Y1297940D01*
X945770Y1295786D01*
X946990Y1293960D01*
X948816Y1292740D01*
X950970Y1292312D01*
X953124Y1292740D01*
X954950Y1293960D01*
X956170Y1295786D01*
X956598Y1297940D01*
X956170Y1300094D01*
X954950Y1301920D01*
X953124Y1303140D01*
X950970Y1303568D01*
D02*
G37*
G36*
X903970D02*
X901816Y1303140D01*
X899990Y1301920D01*
X898770Y1300094D01*
X898342Y1297940D01*
X898770Y1295786D01*
X899990Y1293960D01*
X901816Y1292740D01*
X903970Y1292312D01*
X906124Y1292740D01*
X907950Y1293960D01*
X909170Y1295786D01*
X909598Y1297940D01*
X909170Y1300094D01*
X907950Y1301920D01*
X906124Y1303140D01*
X903970Y1303568D01*
D02*
G37*
G36*
X1231249Y1298085D02*
X1229778Y1297793D01*
X1228531Y1296959D01*
X1227698Y1295712D01*
X1227405Y1294241D01*
X1227698Y1292770D01*
X1228531Y1291523D01*
X1229778Y1290690D01*
X1231249Y1290397D01*
X1232720Y1290690D01*
X1233967Y1291523D01*
X1234800Y1292770D01*
X1235093Y1294241D01*
X1234800Y1295712D01*
X1233967Y1296959D01*
X1232720Y1297793D01*
X1231249Y1298085D01*
D02*
G37*
G36*
X1214120Y1292666D02*
Y1289050D01*
X1217736D01*
X1217598Y1289747D01*
X1216484Y1291414D01*
X1214817Y1292528D01*
X1214120Y1292666D01*
D02*
G37*
G36*
X1211580D02*
X1210883Y1292528D01*
X1209216Y1291414D01*
X1208102Y1289747D01*
X1207964Y1289050D01*
X1211580D01*
Y1292666D01*
D02*
G37*
G36*
X1090930Y1296704D02*
X1089459Y1296411D01*
X1088212Y1295578D01*
X1087379Y1294331D01*
X1087086Y1292860D01*
X1087379Y1291389D01*
X1088212Y1290142D01*
X1089459Y1289309D01*
X1090930Y1289016D01*
X1092401Y1289309D01*
X1093648Y1290142D01*
X1094481Y1291389D01*
X1094774Y1292860D01*
X1094481Y1294331D01*
X1093648Y1295578D01*
X1092401Y1296411D01*
X1090930Y1296704D01*
D02*
G37*
G36*
X975970Y1309307D02*
X973028Y1308920D01*
X970286Y1307784D01*
X967932Y1305978D01*
X966126Y1303624D01*
X964990Y1300882D01*
X964603Y1297940D01*
X964990Y1294998D01*
X966126Y1292256D01*
X967932Y1289902D01*
X970286Y1288096D01*
X973028Y1286960D01*
X975970Y1286573D01*
X978912Y1286960D01*
X981654Y1288096D01*
X984008Y1289902D01*
X985814Y1292256D01*
X986950Y1294998D01*
X987337Y1297940D01*
X986950Y1300882D01*
X985814Y1303624D01*
X984008Y1305978D01*
X981654Y1307784D01*
X978912Y1308920D01*
X975970Y1309307D01*
D02*
G37*
G36*
X875970D02*
X873028Y1308920D01*
X870286Y1307784D01*
X867932Y1305978D01*
X866126Y1303624D01*
X864990Y1300882D01*
X864603Y1297940D01*
X864990Y1294998D01*
X866126Y1292256D01*
X867932Y1289902D01*
X870286Y1288096D01*
X873028Y1286960D01*
X875970Y1286573D01*
X878912Y1286960D01*
X881654Y1288096D01*
X884008Y1289902D01*
X885814Y1292256D01*
X886950Y1294998D01*
X887337Y1297940D01*
X886950Y1300882D01*
X885814Y1303624D01*
X884008Y1305978D01*
X881654Y1307784D01*
X878912Y1308920D01*
X875970Y1309307D01*
D02*
G37*
G36*
X775970D02*
X773028Y1308920D01*
X770286Y1307784D01*
X767932Y1305978D01*
X766126Y1303624D01*
X764990Y1300882D01*
X764603Y1297940D01*
X764990Y1294998D01*
X766126Y1292256D01*
X767932Y1289902D01*
X770286Y1288096D01*
X773028Y1286960D01*
X775970Y1286573D01*
X778912Y1286960D01*
X781654Y1288096D01*
X784008Y1289902D01*
X785814Y1292256D01*
X786950Y1294998D01*
X787337Y1297940D01*
X786950Y1300882D01*
X785814Y1303624D01*
X784008Y1305978D01*
X781654Y1307784D01*
X778912Y1308920D01*
X775970Y1309307D01*
D02*
G37*
G36*
X675970D02*
X673028Y1308920D01*
X670286Y1307784D01*
X667932Y1305978D01*
X666126Y1303624D01*
X664990Y1300882D01*
X664603Y1297940D01*
X664990Y1294998D01*
X666126Y1292256D01*
X667932Y1289902D01*
X670286Y1288096D01*
X673028Y1286960D01*
X675970Y1286573D01*
X678912Y1286960D01*
X681654Y1288096D01*
X684008Y1289902D01*
X685814Y1292256D01*
X686950Y1294998D01*
X687337Y1297940D01*
X686950Y1300882D01*
X685814Y1303624D01*
X684008Y1305978D01*
X681654Y1307784D01*
X678912Y1308920D01*
X675970Y1309307D01*
D02*
G37*
G36*
X1011682Y1291774D02*
X1010211Y1291481D01*
X1008964Y1290648D01*
X1008131Y1289401D01*
X1007838Y1287930D01*
X1008131Y1286459D01*
X1008964Y1285212D01*
X1010211Y1284379D01*
X1011682Y1284086D01*
X1013153Y1284379D01*
X1014400Y1285212D01*
X1015233Y1286459D01*
X1015526Y1287930D01*
X1015233Y1289401D01*
X1014400Y1290648D01*
X1013153Y1291481D01*
X1011682Y1291774D01*
D02*
G37*
G36*
X1246430Y1290734D02*
X1244959Y1290441D01*
X1243712Y1289608D01*
X1242879Y1288361D01*
X1242586Y1286890D01*
X1242879Y1285419D01*
X1243712Y1284172D01*
X1244959Y1283339D01*
X1246430Y1283046D01*
X1247901Y1283339D01*
X1249148Y1284172D01*
X1249981Y1285419D01*
X1250274Y1286890D01*
X1249981Y1288361D01*
X1249148Y1289608D01*
X1247901Y1290441D01*
X1246430Y1290734D01*
D02*
G37*
G36*
X1217736Y1286510D02*
X1214120D01*
Y1282894D01*
X1214817Y1283032D01*
X1216484Y1284146D01*
X1217598Y1285813D01*
X1217736Y1286510D01*
D02*
G37*
G36*
X1211580D02*
X1207964D01*
X1208102Y1285813D01*
X1209216Y1284146D01*
X1210883Y1283032D01*
X1211580Y1282894D01*
Y1286510D01*
D02*
G37*
G36*
X1177930Y1287814D02*
X1176459Y1287521D01*
X1175212Y1286688D01*
X1174379Y1285441D01*
X1174086Y1283970D01*
X1174379Y1282499D01*
X1175212Y1281252D01*
X1176459Y1280419D01*
X1177930Y1280126D01*
X1179401Y1280419D01*
X1180648Y1281252D01*
X1181481Y1282499D01*
X1181774Y1283970D01*
X1181481Y1285441D01*
X1180648Y1286688D01*
X1179401Y1287521D01*
X1177930Y1287814D01*
D02*
G37*
G36*
X1059180Y1282506D02*
Y1278890D01*
X1062796D01*
X1062658Y1279586D01*
X1061544Y1281254D01*
X1059876Y1282368D01*
X1059180Y1282506D01*
D02*
G37*
G36*
X1056640D02*
X1055944Y1282368D01*
X1054276Y1281254D01*
X1053162Y1279586D01*
X1052865Y1278090D01*
X1051543Y1277782D01*
X1050950Y1278670D01*
X1049124Y1279890D01*
X1046970Y1280318D01*
X1044816Y1279890D01*
X1042990Y1278670D01*
X1041770Y1276844D01*
X1041342Y1274690D01*
X1041770Y1272536D01*
X1042990Y1270710D01*
X1044076Y1269985D01*
X1043808Y1268637D01*
X1042977Y1268471D01*
X1041730Y1267638D01*
X1040897Y1266391D01*
X1040604Y1264920D01*
X1040897Y1263449D01*
X1041730Y1262202D01*
X1042977Y1261369D01*
X1044448Y1261076D01*
X1045919Y1261369D01*
X1047166Y1262202D01*
X1047999Y1263449D01*
X1048292Y1264920D01*
X1047999Y1266391D01*
X1047166Y1267638D01*
X1046859Y1267843D01*
X1046895Y1268238D01*
X1047241Y1269116D01*
X1049124Y1269490D01*
X1050950Y1270710D01*
X1052170Y1272536D01*
X1052525Y1274322D01*
X1053751Y1274703D01*
X1053797Y1274704D01*
X1054276Y1273986D01*
X1055944Y1272872D01*
X1056640Y1272734D01*
Y1277620D01*
Y1282506D01*
D02*
G37*
G36*
X640000Y1284864D02*
X638139Y1284494D01*
X636561Y1283440D01*
X635507Y1281862D01*
X635137Y1280001D01*
X635507Y1278139D01*
X636561Y1276562D01*
X638139Y1275508D01*
X640000Y1275137D01*
X641861Y1275508D01*
X643439Y1276562D01*
X644494Y1278139D01*
X644864Y1280001D01*
X644494Y1281862D01*
X643439Y1283440D01*
X641861Y1284494D01*
X640000Y1284864D01*
D02*
G37*
G36*
X620000D02*
X618139Y1284494D01*
X616561Y1283440D01*
X615507Y1281862D01*
X615137Y1280001D01*
X615507Y1278139D01*
X616561Y1276562D01*
X618139Y1275508D01*
X620000Y1275137D01*
X621861Y1275508D01*
X623439Y1276562D01*
X624494Y1278139D01*
X624864Y1280001D01*
X624494Y1281862D01*
X623439Y1283440D01*
X621861Y1284494D01*
X620000Y1284864D01*
D02*
G37*
G36*
X600000D02*
X598139Y1284494D01*
X596561Y1283440D01*
X595507Y1281862D01*
X595137Y1280001D01*
X595507Y1278139D01*
X596561Y1276562D01*
X598139Y1275508D01*
X600000Y1275137D01*
X601861Y1275508D01*
X603439Y1276562D01*
X604494Y1278139D01*
X604864Y1280001D01*
X604494Y1281862D01*
X603439Y1283440D01*
X601861Y1284494D01*
X600000Y1284864D01*
D02*
G37*
G36*
X580000D02*
X578139Y1284494D01*
X576561Y1283440D01*
X575507Y1281862D01*
X575137Y1280001D01*
X575507Y1278139D01*
X576561Y1276562D01*
X578139Y1275508D01*
X580000Y1275137D01*
X581861Y1275508D01*
X583439Y1276562D01*
X584493Y1278139D01*
X584864Y1280001D01*
X584493Y1281862D01*
X583439Y1283440D01*
X581861Y1284494D01*
X580000Y1284864D01*
D02*
G37*
G36*
X1062796Y1276350D02*
X1059180D01*
Y1272734D01*
X1059876Y1272872D01*
X1061544Y1273986D01*
X1062658Y1275654D01*
X1062796Y1276350D01*
D02*
G37*
G36*
X984970Y1283788D02*
X982615Y1283478D01*
X980421Y1282569D01*
X978537Y1281123D01*
X977091Y1279239D01*
X976182Y1277045D01*
X975872Y1274690D01*
X976182Y1272335D01*
X977091Y1270141D01*
X978537Y1268257D01*
X980421Y1266811D01*
X982615Y1265902D01*
X984970Y1265592D01*
X987325Y1265902D01*
X989519Y1266811D01*
X991403Y1268257D01*
X992849Y1270141D01*
X993758Y1272335D01*
X994068Y1274690D01*
X993758Y1277045D01*
X992849Y1279239D01*
X991403Y1281123D01*
X989519Y1282569D01*
X987325Y1283478D01*
X984970Y1283788D01*
D02*
G37*
G36*
X1259840Y1268034D02*
X1258369Y1267741D01*
X1257122Y1266908D01*
X1256289Y1265661D01*
X1255996Y1264190D01*
X1256289Y1262719D01*
X1257122Y1261472D01*
X1258369Y1260639D01*
X1259840Y1260346D01*
X1261311Y1260639D01*
X1262558Y1261472D01*
X1263391Y1262719D01*
X1263684Y1264190D01*
X1263391Y1265661D01*
X1262558Y1266908D01*
X1261311Y1267741D01*
X1259840Y1268034D01*
D02*
G37*
G36*
X957018Y1264700D02*
X955547Y1264407D01*
X954300Y1263574D01*
X953466Y1262327D01*
X953174Y1260856D01*
X953466Y1259385D01*
X954300Y1258138D01*
X955547Y1257305D01*
X957018Y1257012D01*
X958489Y1257305D01*
X959736Y1258138D01*
X960569Y1259385D01*
X960862Y1260856D01*
X960569Y1262327D01*
X959736Y1263574D01*
X958489Y1264407D01*
X957018Y1264700D01*
D02*
G37*
G36*
X844550Y1263684D02*
X843079Y1263391D01*
X841832Y1262558D01*
X840999Y1261311D01*
X840706Y1259840D01*
X840999Y1258369D01*
X841832Y1257122D01*
X843079Y1256289D01*
X844550Y1255996D01*
X846021Y1256289D01*
X847268Y1257122D01*
X848101Y1258369D01*
X848394Y1259840D01*
X848101Y1261311D01*
X847268Y1262558D01*
X846021Y1263391D01*
X844550Y1263684D01*
D02*
G37*
G36*
X610000Y1264864D02*
X608139Y1264494D01*
X606561Y1263440D01*
X605507Y1261862D01*
X605137Y1260001D01*
X605507Y1258139D01*
X606561Y1256562D01*
X608139Y1255507D01*
X610000Y1255137D01*
X611861Y1255507D01*
X613439Y1256562D01*
X614494Y1258139D01*
X614864Y1260001D01*
X614494Y1261862D01*
X613439Y1263440D01*
X611861Y1264494D01*
X610000Y1264864D01*
D02*
G37*
G36*
X928370Y1256534D02*
X926899Y1256241D01*
X925652Y1255408D01*
X924819Y1254161D01*
X924526Y1252690D01*
X924819Y1251219D01*
X925652Y1249972D01*
X926899Y1249139D01*
X928370Y1248846D01*
X929841Y1249139D01*
X931088Y1249972D01*
X931921Y1251219D01*
X932214Y1252690D01*
X931921Y1254161D01*
X931088Y1255408D01*
X929841Y1256241D01*
X928370Y1256534D01*
D02*
G37*
G36*
X1222430Y1252534D02*
X1220959Y1252241D01*
X1219712Y1251408D01*
X1218879Y1250161D01*
X1218586Y1248690D01*
X1218879Y1247219D01*
X1219712Y1245972D01*
X1220959Y1245139D01*
X1222430Y1244846D01*
X1223901Y1245139D01*
X1225148Y1245972D01*
X1225981Y1247219D01*
X1226274Y1248690D01*
X1225981Y1250161D01*
X1225148Y1251408D01*
X1223901Y1252241D01*
X1222430Y1252534D01*
D02*
G37*
G36*
X1211430D02*
X1209959Y1252241D01*
X1208712Y1251408D01*
X1207879Y1250161D01*
X1207586Y1248690D01*
X1207879Y1247219D01*
X1208712Y1245972D01*
X1209959Y1245139D01*
X1211430Y1244846D01*
X1212901Y1245139D01*
X1214148Y1245972D01*
X1214981Y1247219D01*
X1215274Y1248690D01*
X1214981Y1250161D01*
X1214148Y1251408D01*
X1212901Y1252241D01*
X1211430Y1252534D01*
D02*
G37*
G36*
X1200430D02*
X1198959Y1252241D01*
X1197712Y1251408D01*
X1196879Y1250161D01*
X1196586Y1248690D01*
X1196879Y1247219D01*
X1197712Y1245972D01*
X1198959Y1245139D01*
X1200430Y1244846D01*
X1201901Y1245139D01*
X1203148Y1245972D01*
X1203981Y1247219D01*
X1204274Y1248690D01*
X1203981Y1250161D01*
X1203148Y1251408D01*
X1201901Y1252241D01*
X1200430Y1252534D01*
D02*
G37*
G36*
X1189430D02*
X1187959Y1252241D01*
X1186712Y1251408D01*
X1185879Y1250161D01*
X1185586Y1248690D01*
X1185879Y1247219D01*
X1186712Y1245972D01*
X1187959Y1245139D01*
X1189430Y1244846D01*
X1190901Y1245139D01*
X1192148Y1245972D01*
X1192981Y1247219D01*
X1193274Y1248690D01*
X1192981Y1250161D01*
X1192148Y1251408D01*
X1190901Y1252241D01*
X1189430Y1252534D01*
D02*
G37*
G36*
X956901Y1248698D02*
X955430Y1248405D01*
X954183Y1247572D01*
X953350Y1246325D01*
X953057Y1244854D01*
X953350Y1243383D01*
X954183Y1242136D01*
X955430Y1241303D01*
X956901Y1241010D01*
X958372Y1241303D01*
X959619Y1242136D01*
X960452Y1243383D01*
X960745Y1244854D01*
X960452Y1246325D01*
X959619Y1247572D01*
X958372Y1248405D01*
X956901Y1248698D01*
D02*
G37*
G36*
X875970Y1246768D02*
X873816Y1246340D01*
X871990Y1245120D01*
X870770Y1243294D01*
X870342Y1241140D01*
X870770Y1238986D01*
X871990Y1237160D01*
X873816Y1235940D01*
X875970Y1235512D01*
X878124Y1235940D01*
X879950Y1237160D01*
X881170Y1238986D01*
X881598Y1241140D01*
X881170Y1243294D01*
X879950Y1245120D01*
X878124Y1246340D01*
X875970Y1246768D01*
D02*
G37*
G36*
X1074420Y1242094D02*
X1072949Y1241801D01*
X1071702Y1240968D01*
X1070869Y1239721D01*
X1070576Y1238250D01*
X1070869Y1236779D01*
X1071702Y1235532D01*
X1072949Y1234699D01*
X1074420Y1234406D01*
X1075891Y1234699D01*
X1077138Y1235532D01*
X1077971Y1236779D01*
X1078264Y1238250D01*
X1077971Y1239721D01*
X1077138Y1240968D01*
X1075891Y1241801D01*
X1074420Y1242094D01*
D02*
G37*
G36*
X1222430Y1241534D02*
X1220959Y1241241D01*
X1219712Y1240408D01*
X1218879Y1239161D01*
X1218586Y1237690D01*
X1218879Y1236219D01*
X1219712Y1234972D01*
X1220959Y1234139D01*
X1222430Y1233846D01*
X1223901Y1234139D01*
X1225148Y1234972D01*
X1225981Y1236219D01*
X1226274Y1237690D01*
X1225981Y1239161D01*
X1225148Y1240408D01*
X1223901Y1241241D01*
X1222430Y1241534D01*
D02*
G37*
G36*
X1211430D02*
X1209959Y1241241D01*
X1208712Y1240408D01*
X1207879Y1239161D01*
X1207586Y1237690D01*
X1207879Y1236219D01*
X1208712Y1234972D01*
X1209959Y1234139D01*
X1211430Y1233846D01*
X1212901Y1234139D01*
X1214148Y1234972D01*
X1214981Y1236219D01*
X1215274Y1237690D01*
X1214981Y1239161D01*
X1214148Y1240408D01*
X1212901Y1241241D01*
X1211430Y1241534D01*
D02*
G37*
G36*
X1200430D02*
X1198959Y1241241D01*
X1197712Y1240408D01*
X1196879Y1239161D01*
X1196586Y1237690D01*
X1196879Y1236219D01*
X1197712Y1234972D01*
X1198959Y1234139D01*
X1200430Y1233846D01*
X1201901Y1234139D01*
X1203148Y1234972D01*
X1203981Y1236219D01*
X1204274Y1237690D01*
X1203981Y1239161D01*
X1203148Y1240408D01*
X1201901Y1241241D01*
X1200430Y1241534D01*
D02*
G37*
G36*
X1189430D02*
X1187959Y1241241D01*
X1186712Y1240408D01*
X1185879Y1239161D01*
X1185586Y1237690D01*
X1185879Y1236219D01*
X1186712Y1234972D01*
X1187959Y1234139D01*
X1189430Y1233846D01*
X1190901Y1234139D01*
X1192148Y1234972D01*
X1192981Y1236219D01*
X1193274Y1237690D01*
X1192981Y1239161D01*
X1192148Y1240408D01*
X1190901Y1241241D01*
X1189430Y1241534D01*
D02*
G37*
G36*
X1260680Y1229076D02*
Y1225460D01*
X1264296D01*
X1264158Y1226156D01*
X1263044Y1227824D01*
X1261376Y1228938D01*
X1260680Y1229076D01*
D02*
G37*
G36*
X1258140D02*
X1257443Y1228938D01*
X1255776Y1227824D01*
X1254662Y1226156D01*
X1254524Y1225460D01*
X1258140D01*
Y1229076D01*
D02*
G37*
G36*
X928370Y1240629D02*
X926899Y1240336D01*
X925652Y1239503D01*
X924819Y1238256D01*
X924526Y1236785D01*
X924819Y1235314D01*
X925652Y1234067D01*
X926586Y1233443D01*
X926664Y1233143D01*
Y1232332D01*
X926586Y1232032D01*
X925652Y1231408D01*
X924819Y1230161D01*
X924526Y1228690D01*
X924819Y1227219D01*
X925652Y1225972D01*
X926899Y1225139D01*
X928370Y1224846D01*
X929841Y1225139D01*
X931088Y1225972D01*
X931921Y1227219D01*
X932214Y1228690D01*
X931921Y1230161D01*
X931088Y1231408D01*
X930154Y1232032D01*
X930076Y1232332D01*
Y1233143D01*
X930154Y1233443D01*
X931088Y1234067D01*
X931921Y1235314D01*
X932214Y1236785D01*
X931921Y1238256D01*
X931088Y1239503D01*
X929841Y1240336D01*
X928370Y1240629D01*
D02*
G37*
G36*
X1222430Y1230534D02*
X1220959Y1230241D01*
X1219712Y1229408D01*
X1218879Y1228161D01*
X1218586Y1226690D01*
X1218879Y1225219D01*
X1219712Y1223972D01*
X1220959Y1223139D01*
X1222430Y1222846D01*
X1223901Y1223139D01*
X1225148Y1223972D01*
X1225981Y1225219D01*
X1226274Y1226690D01*
X1225981Y1228161D01*
X1225148Y1229408D01*
X1223901Y1230241D01*
X1222430Y1230534D01*
D02*
G37*
G36*
X1211430D02*
X1209959Y1230241D01*
X1208712Y1229408D01*
X1207879Y1228161D01*
X1207586Y1226690D01*
X1207879Y1225219D01*
X1208712Y1223972D01*
X1209959Y1223139D01*
X1211430Y1222846D01*
X1212901Y1223139D01*
X1214148Y1223972D01*
X1214981Y1225219D01*
X1215274Y1226690D01*
X1214981Y1228161D01*
X1214148Y1229408D01*
X1212901Y1230241D01*
X1211430Y1230534D01*
D02*
G37*
G36*
X1200430D02*
X1198959Y1230241D01*
X1197712Y1229408D01*
X1196879Y1228161D01*
X1196586Y1226690D01*
X1196879Y1225219D01*
X1197712Y1223972D01*
X1198959Y1223139D01*
X1200430Y1222846D01*
X1201901Y1223139D01*
X1203148Y1223972D01*
X1203981Y1225219D01*
X1204274Y1226690D01*
X1203981Y1228161D01*
X1203148Y1229408D01*
X1201901Y1230241D01*
X1200430Y1230534D01*
D02*
G37*
G36*
X1189430D02*
X1187959Y1230241D01*
X1186712Y1229408D01*
X1185879Y1228161D01*
X1185586Y1226690D01*
X1185879Y1225219D01*
X1186712Y1223972D01*
X1187959Y1223139D01*
X1189430Y1222846D01*
X1190901Y1223139D01*
X1192148Y1223972D01*
X1192981Y1225219D01*
X1193274Y1226690D01*
X1192981Y1228161D01*
X1192148Y1229408D01*
X1190901Y1230241D01*
X1189430Y1230534D01*
D02*
G37*
G36*
X1264296Y1222920D02*
X1260680D01*
Y1219304D01*
X1261376Y1219442D01*
X1263044Y1220556D01*
X1264158Y1222224D01*
X1264296Y1222920D01*
D02*
G37*
G36*
X1258140D02*
X1254524D01*
X1254662Y1222224D01*
X1255776Y1220556D01*
X1257443Y1219442D01*
X1258140Y1219304D01*
Y1222920D01*
D02*
G37*
G36*
X610000Y1224864D02*
X608139Y1224494D01*
X606561Y1223440D01*
X605507Y1221862D01*
X605137Y1220001D01*
X605507Y1218139D01*
X606561Y1216562D01*
X608139Y1215507D01*
X610000Y1215137D01*
X611861Y1215507D01*
X613439Y1216562D01*
X614494Y1218139D01*
X614864Y1220001D01*
X614494Y1221862D01*
X613439Y1223440D01*
X611861Y1224494D01*
X610000Y1224864D01*
D02*
G37*
G36*
X1222430Y1219534D02*
X1220959Y1219241D01*
X1219712Y1218408D01*
X1218879Y1217161D01*
X1218586Y1215690D01*
X1218879Y1214219D01*
X1219712Y1212972D01*
X1220959Y1212139D01*
X1222430Y1211846D01*
X1223901Y1212139D01*
X1225148Y1212972D01*
X1225981Y1214219D01*
X1226274Y1215690D01*
X1225981Y1217161D01*
X1225148Y1218408D01*
X1223901Y1219241D01*
X1222430Y1219534D01*
D02*
G37*
G36*
X1211430D02*
X1209959Y1219241D01*
X1208712Y1218408D01*
X1207879Y1217161D01*
X1207586Y1215690D01*
X1207879Y1214219D01*
X1208712Y1212972D01*
X1209959Y1212139D01*
X1211430Y1211846D01*
X1212901Y1212139D01*
X1214148Y1212972D01*
X1214981Y1214219D01*
X1215274Y1215690D01*
X1214981Y1217161D01*
X1214148Y1218408D01*
X1212901Y1219241D01*
X1211430Y1219534D01*
D02*
G37*
G36*
X1200430D02*
X1198959Y1219241D01*
X1197712Y1218408D01*
X1196879Y1217161D01*
X1196586Y1215690D01*
X1196879Y1214219D01*
X1197712Y1212972D01*
X1198959Y1212139D01*
X1200430Y1211846D01*
X1201901Y1212139D01*
X1203148Y1212972D01*
X1203981Y1214219D01*
X1204274Y1215690D01*
X1203981Y1217161D01*
X1203148Y1218408D01*
X1201901Y1219241D01*
X1200430Y1219534D01*
D02*
G37*
G36*
X1189430D02*
X1187959Y1219241D01*
X1186712Y1218408D01*
X1185879Y1217161D01*
X1185586Y1215690D01*
X1185879Y1214219D01*
X1186712Y1212972D01*
X1187959Y1212139D01*
X1189430Y1211846D01*
X1190901Y1212139D01*
X1192148Y1212972D01*
X1192981Y1214219D01*
X1193274Y1215690D01*
X1192981Y1217161D01*
X1192148Y1218408D01*
X1190901Y1219241D01*
X1189430Y1219534D01*
D02*
G37*
G36*
X1222430Y1208534D02*
X1220959Y1208241D01*
X1219712Y1207408D01*
X1218879Y1206161D01*
X1218586Y1204690D01*
X1218879Y1203219D01*
X1219712Y1201972D01*
X1220959Y1201139D01*
X1222430Y1200846D01*
X1223901Y1201139D01*
X1225148Y1201972D01*
X1225981Y1203219D01*
X1226274Y1204690D01*
X1225981Y1206161D01*
X1225148Y1207408D01*
X1223901Y1208241D01*
X1222430Y1208534D01*
D02*
G37*
G36*
X1211430D02*
X1209959Y1208241D01*
X1208712Y1207408D01*
X1207879Y1206161D01*
X1207586Y1204690D01*
X1207879Y1203219D01*
X1208712Y1201972D01*
X1209959Y1201139D01*
X1211430Y1200846D01*
X1212901Y1201139D01*
X1214148Y1201972D01*
X1214981Y1203219D01*
X1215274Y1204690D01*
X1214981Y1206161D01*
X1214148Y1207408D01*
X1212901Y1208241D01*
X1211430Y1208534D01*
D02*
G37*
G36*
X1200430D02*
X1198959Y1208241D01*
X1197712Y1207408D01*
X1196879Y1206161D01*
X1196586Y1204690D01*
X1196879Y1203219D01*
X1197712Y1201972D01*
X1198959Y1201139D01*
X1200430Y1200846D01*
X1201901Y1201139D01*
X1203148Y1201972D01*
X1203981Y1203219D01*
X1204274Y1204690D01*
X1203981Y1206161D01*
X1203148Y1207408D01*
X1201901Y1208241D01*
X1200430Y1208534D01*
D02*
G37*
G36*
X1189430D02*
X1187959Y1208241D01*
X1186712Y1207408D01*
X1185879Y1206161D01*
X1185586Y1204690D01*
X1185879Y1203219D01*
X1186712Y1201972D01*
X1187959Y1201139D01*
X1189430Y1200846D01*
X1190901Y1201139D01*
X1192148Y1201972D01*
X1192981Y1203219D01*
X1193274Y1204690D01*
X1192981Y1206161D01*
X1192148Y1207408D01*
X1190901Y1208241D01*
X1189430Y1208534D01*
D02*
G37*
G36*
X1259840Y1208034D02*
X1258369Y1207741D01*
X1257122Y1206908D01*
X1256289Y1205661D01*
X1255996Y1204190D01*
X1256289Y1202719D01*
X1257122Y1201472D01*
X1258369Y1200639D01*
X1259840Y1200346D01*
X1261311Y1200639D01*
X1262558Y1201472D01*
X1263391Y1202719D01*
X1263684Y1204190D01*
X1263391Y1205661D01*
X1262558Y1206908D01*
X1261311Y1207741D01*
X1259840Y1208034D01*
D02*
G37*
G36*
X1059180Y1197416D02*
Y1193800D01*
X1062796D01*
X1062658Y1194497D01*
X1061544Y1196164D01*
X1059876Y1197278D01*
X1059180Y1197416D01*
D02*
G37*
G36*
X1056640D02*
X1055944Y1197278D01*
X1054276Y1196164D01*
X1053162Y1194497D01*
X1053024Y1193800D01*
X1056640D01*
Y1197416D01*
D02*
G37*
G36*
X922274Y1197390D02*
X920803Y1197097D01*
X919556Y1196264D01*
X918723Y1195017D01*
X918430Y1193546D01*
X918723Y1192075D01*
X919556Y1190828D01*
X920803Y1189995D01*
X922274Y1189702D01*
X923745Y1189995D01*
X924992Y1190828D01*
X925825Y1192075D01*
X926118Y1193546D01*
X925825Y1195017D01*
X924992Y1196264D01*
X923745Y1197097D01*
X922274Y1197390D01*
D02*
G37*
G36*
X1040588Y1196374D02*
X1039117Y1196081D01*
X1037870Y1195248D01*
X1037037Y1194001D01*
X1036744Y1192530D01*
X1037037Y1191059D01*
X1037870Y1189812D01*
X1039117Y1188979D01*
X1040588Y1188686D01*
X1042059Y1188979D01*
X1043306Y1189812D01*
X1044139Y1191059D01*
X1044432Y1192530D01*
X1044139Y1194001D01*
X1043306Y1195248D01*
X1042059Y1196081D01*
X1040588Y1196374D01*
D02*
G37*
G36*
X1062796Y1191260D02*
X1059180D01*
Y1187644D01*
X1059876Y1187782D01*
X1061544Y1188896D01*
X1062658Y1190564D01*
X1062796Y1191260D01*
D02*
G37*
G36*
X1056640D02*
X1053024D01*
X1053162Y1190564D01*
X1054276Y1188896D01*
X1055944Y1187782D01*
X1056640Y1187644D01*
Y1191260D01*
D02*
G37*
G36*
X957248Y1192818D02*
X955777Y1192525D01*
X954530Y1191692D01*
X953697Y1190445D01*
X953404Y1188974D01*
X953697Y1187503D01*
X954530Y1186256D01*
X955777Y1185423D01*
X957248Y1185130D01*
X958719Y1185423D01*
X959966Y1186256D01*
X960800Y1187503D01*
X961092Y1188974D01*
X960800Y1190445D01*
X959966Y1191692D01*
X958719Y1192525D01*
X957248Y1192818D01*
D02*
G37*
G36*
X875970Y1192768D02*
X873816Y1192340D01*
X871990Y1191120D01*
X870770Y1189294D01*
X870342Y1187140D01*
X870770Y1184986D01*
X871990Y1183160D01*
X873816Y1181940D01*
X875970Y1181512D01*
X878124Y1181940D01*
X879950Y1183160D01*
X881170Y1184986D01*
X881598Y1187140D01*
X881170Y1189294D01*
X879950Y1191120D01*
X878124Y1192340D01*
X875970Y1192768D01*
D02*
G37*
G36*
X1060196Y1180880D02*
X1058725Y1180587D01*
X1057478Y1179754D01*
X1056645Y1178507D01*
X1056352Y1177036D01*
X1056645Y1175565D01*
X1057478Y1174318D01*
X1058725Y1173485D01*
X1060196Y1173192D01*
X1061667Y1173485D01*
X1062914Y1174318D01*
X1063747Y1175565D01*
X1064040Y1177036D01*
X1063747Y1178507D01*
X1062914Y1179754D01*
X1061667Y1180587D01*
X1060196Y1180880D01*
D02*
G37*
G36*
X1046970Y1184318D02*
X1044816Y1183890D01*
X1042990Y1182670D01*
X1041770Y1180844D01*
X1041342Y1178690D01*
X1041770Y1176536D01*
X1042990Y1174710D01*
X1044816Y1173490D01*
X1046970Y1173062D01*
X1049124Y1173490D01*
X1050950Y1174710D01*
X1052170Y1176536D01*
X1052598Y1178690D01*
X1052170Y1180844D01*
X1050950Y1182670D01*
X1049124Y1183890D01*
X1046970Y1184318D01*
D02*
G37*
G36*
X780190Y1177324D02*
X778719Y1177031D01*
X777472Y1176198D01*
X776639Y1174951D01*
X776346Y1173480D01*
X776639Y1172009D01*
X777472Y1170762D01*
X778719Y1169929D01*
X780190Y1169636D01*
X781661Y1169929D01*
X782908Y1170762D01*
X783741Y1172009D01*
X784034Y1173480D01*
X783741Y1174951D01*
X782908Y1176198D01*
X781661Y1177031D01*
X780190Y1177324D01*
D02*
G37*
G36*
X984970Y1187788D02*
X982615Y1187478D01*
X980421Y1186569D01*
X978537Y1185123D01*
X977091Y1183239D01*
X976182Y1181045D01*
X975872Y1178690D01*
X976182Y1176335D01*
X977091Y1174141D01*
X978537Y1172257D01*
X980421Y1170811D01*
X982615Y1169902D01*
X984970Y1169592D01*
X987325Y1169902D01*
X989519Y1170811D01*
X991403Y1172257D01*
X992849Y1174141D01*
X993758Y1176335D01*
X994068Y1178690D01*
X993758Y1181045D01*
X992849Y1183239D01*
X991403Y1185123D01*
X989519Y1186569D01*
X987325Y1187478D01*
X984970Y1187788D01*
D02*
G37*
G36*
X1011682Y1176034D02*
X1010211Y1175741D01*
X1008964Y1174908D01*
X1008131Y1173661D01*
X1007838Y1172190D01*
X1008131Y1170719D01*
X1008964Y1169472D01*
X1010211Y1168639D01*
X1011682Y1168346D01*
X1013153Y1168639D01*
X1014400Y1169472D01*
X1015233Y1170719D01*
X1015526Y1172190D01*
X1015233Y1173661D01*
X1014400Y1174908D01*
X1013153Y1175741D01*
X1011682Y1176034D01*
D02*
G37*
G36*
X1222756Y1173260D02*
X1221285Y1172967D01*
X1220038Y1172134D01*
X1219205Y1170887D01*
X1218912Y1169416D01*
X1219205Y1167945D01*
X1220038Y1166698D01*
X1221285Y1165865D01*
X1222756Y1165572D01*
X1224227Y1165865D01*
X1225474Y1166698D01*
X1226307Y1167945D01*
X1226600Y1169416D01*
X1226307Y1170887D01*
X1225474Y1172134D01*
X1224227Y1172967D01*
X1222756Y1173260D01*
D02*
G37*
G36*
X1090930Y1172394D02*
X1089459Y1172101D01*
X1088212Y1171268D01*
X1087379Y1170021D01*
X1087086Y1168550D01*
X1087379Y1167079D01*
X1088212Y1165832D01*
X1089459Y1164999D01*
X1090930Y1164706D01*
X1092401Y1164999D01*
X1093648Y1165832D01*
X1094481Y1167079D01*
X1094774Y1168550D01*
X1094481Y1170021D01*
X1093648Y1171268D01*
X1092401Y1172101D01*
X1090930Y1172394D01*
D02*
G37*
G36*
X1258145Y1172244D02*
X1256674Y1171951D01*
X1255427Y1171118D01*
X1254594Y1169871D01*
X1254301Y1168400D01*
X1254594Y1166929D01*
X1255427Y1165682D01*
X1256674Y1164849D01*
X1258145Y1164556D01*
X1259616Y1164849D01*
X1260863Y1165682D01*
X1261696Y1166929D01*
X1261989Y1168400D01*
X1261696Y1169871D01*
X1260863Y1171118D01*
X1259616Y1171951D01*
X1258145Y1172244D01*
D02*
G37*
G36*
X1075690Y1165894D02*
X1074219Y1165601D01*
X1072972Y1164768D01*
X1072139Y1163521D01*
X1071846Y1162050D01*
X1072139Y1160579D01*
X1072972Y1159332D01*
X1074219Y1158499D01*
X1075690Y1158206D01*
X1077161Y1158499D01*
X1078408Y1159332D01*
X1079241Y1160579D01*
X1079534Y1162050D01*
X1079241Y1163521D01*
X1078408Y1164768D01*
X1077161Y1165601D01*
X1075690Y1165894D01*
D02*
G37*
G36*
X1226499Y1162204D02*
X1225028Y1161911D01*
X1223781Y1161078D01*
X1222948Y1159831D01*
X1222655Y1158360D01*
X1222948Y1156889D01*
X1223781Y1155642D01*
X1225028Y1154809D01*
X1226499Y1154516D01*
X1227970Y1154809D01*
X1229217Y1155642D01*
X1230050Y1156889D01*
X1230343Y1158360D01*
X1230050Y1159831D01*
X1229217Y1161078D01*
X1227970Y1161911D01*
X1226499Y1162204D01*
D02*
G37*
G36*
X1212816Y1157598D02*
X1209200D01*
Y1153982D01*
X1209896Y1154120D01*
X1211564Y1155234D01*
X1212678Y1156901D01*
X1212816Y1157598D01*
D02*
G37*
G36*
X1206660D02*
X1203044D01*
X1203182Y1156901D01*
X1204296Y1155234D01*
X1205964Y1154120D01*
X1206660Y1153982D01*
Y1157598D01*
D02*
G37*
G36*
X1000970Y1161068D02*
X998816Y1160640D01*
X996990Y1159420D01*
X995770Y1157594D01*
X995342Y1155440D01*
X995770Y1153286D01*
X996990Y1151460D01*
X998816Y1150240D01*
X1000970Y1149812D01*
X1003124Y1150240D01*
X1004950Y1151460D01*
X1006170Y1153286D01*
X1006598Y1155440D01*
X1006170Y1157594D01*
X1004950Y1159420D01*
X1003124Y1160640D01*
X1000970Y1161068D01*
D02*
G37*
G36*
X950970D02*
X948816Y1160640D01*
X946990Y1159420D01*
X945770Y1157594D01*
X945342Y1155440D01*
X945770Y1153286D01*
X946990Y1151460D01*
X948816Y1150240D01*
X950970Y1149812D01*
X953124Y1150240D01*
X954950Y1151460D01*
X956170Y1153286D01*
X956598Y1155440D01*
X956170Y1157594D01*
X954950Y1159420D01*
X953124Y1160640D01*
X950970Y1161068D01*
D02*
G37*
G36*
X903970D02*
X901816Y1160640D01*
X899990Y1159420D01*
X898770Y1157594D01*
X898342Y1155440D01*
X898770Y1153286D01*
X899990Y1151460D01*
X901816Y1150240D01*
X903970Y1149812D01*
X906124Y1150240D01*
X907950Y1151460D01*
X909170Y1153286D01*
X909598Y1155440D01*
X909170Y1157594D01*
X907950Y1159420D01*
X906124Y1160640D01*
X903970Y1161068D01*
D02*
G37*
G36*
X1098804Y1153604D02*
X1097333Y1153311D01*
X1096086Y1152478D01*
X1095253Y1151231D01*
X1094960Y1149760D01*
X1095253Y1148289D01*
X1096086Y1147042D01*
X1097333Y1146209D01*
X1098804Y1145916D01*
X1100275Y1146209D01*
X1101522Y1147042D01*
X1102355Y1148289D01*
X1102648Y1149760D01*
X1102355Y1151231D01*
X1101522Y1152478D01*
X1100275Y1153311D01*
X1098804Y1153604D01*
D02*
G37*
G36*
X622290Y1130445D02*
X620819Y1130152D01*
X619572Y1129319D01*
X618739Y1128072D01*
X618446Y1126601D01*
X618739Y1125130D01*
X619572Y1123883D01*
X620819Y1123050D01*
X622290Y1122757D01*
X623761Y1123050D01*
X625008Y1123883D01*
X625841Y1125130D01*
X626134Y1126601D01*
X625841Y1128072D01*
X625008Y1129319D01*
X623761Y1130152D01*
X622290Y1130445D01*
D02*
G37*
G36*
X567070Y1130334D02*
X565599Y1130041D01*
X564352Y1129208D01*
X563519Y1127961D01*
X563226Y1126490D01*
X563519Y1125019D01*
X564352Y1123772D01*
X565599Y1122939D01*
X567070Y1122646D01*
X568541Y1122939D01*
X569788Y1123772D01*
X570621Y1125019D01*
X570914Y1126490D01*
X570621Y1127961D01*
X569788Y1129208D01*
X568541Y1130041D01*
X567070Y1130334D01*
D02*
G37*
G36*
X594311Y1112554D02*
X592840Y1112261D01*
X591593Y1111428D01*
X590760Y1110181D01*
X590467Y1108710D01*
X590760Y1107239D01*
X591593Y1105992D01*
X592840Y1105159D01*
X594311Y1104866D01*
X595782Y1105159D01*
X597029Y1105992D01*
X597862Y1107239D01*
X598155Y1108710D01*
X597862Y1110181D01*
X597029Y1111428D01*
X595782Y1112261D01*
X594311Y1112554D01*
D02*
G37*
%LPD*%
D10*
X742442Y1105916D02*
X1174750D01*
X705866Y1142492D02*
X742442Y1105916D01*
X1168530Y1268690D02*
X1171200Y1266020D01*
Y1177790D02*
Y1266020D01*
X1166770Y1173360D02*
X1171200Y1177790D01*
X620268Y1181100D02*
X654304D01*
X610357Y1171189D02*
X620268Y1181100D01*
X610357Y1161752D02*
Y1171189D01*
X598798Y1191380D02*
X650868D01*
X578264Y1170846D02*
X598798Y1191380D01*
X578264Y1162050D02*
Y1170846D01*
X609346Y1186180D02*
X652272D01*
X594355Y1171189D02*
X609346Y1186180D01*
X594355Y1161796D02*
Y1171189D01*
X667004Y1193800D02*
Y1227328D01*
X654304Y1181100D02*
X667004Y1193800D01*
X656336Y1196848D02*
Y1229360D01*
X650868Y1191380D02*
X656336Y1196848D01*
X667716Y1240740D02*
X773690D01*
X656336Y1229360D02*
X667716Y1240740D01*
X668935Y1235609D02*
X777189D01*
X661924Y1228598D02*
X668935Y1235609D01*
X661924Y1195832D02*
Y1228598D01*
X1136142Y1220978D02*
X1137920Y1219200D01*
X1097382Y1220978D02*
X1136142D01*
X1093670Y1224690D02*
X1097382Y1220978D01*
X1124712Y1214374D02*
X1126490Y1212596D01*
X1095956Y1214374D02*
X1124712D01*
X1093670Y1216660D02*
X1095956Y1214374D01*
X1132840Y1288159D02*
Y1304290D01*
X1119632Y1317498D02*
X1132840Y1304290D01*
X870393Y1317498D02*
X1119632D01*
X1150430Y1290690D02*
Y1303096D01*
X1125867Y1327658D02*
X1150430Y1303096D01*
X863838Y1327658D02*
X1125867D01*
X705866Y1184656D02*
X744220Y1223010D01*
X705866Y1142492D02*
Y1184656D01*
X712724Y1145794D02*
X746252Y1112266D01*
X712724Y1145794D02*
Y1184148D01*
X746252Y1112266D02*
X1149350D01*
X712724Y1184148D02*
X759714Y1231138D01*
X770382Y1127506D02*
X1120688D01*
X754634Y1143254D02*
X770382Y1127506D01*
X754634Y1143254D02*
Y1207586D01*
X772922Y1132332D02*
X1205334D01*
X760690Y1144564D02*
X772922Y1132332D01*
X760690Y1144564D02*
Y1170940D01*
X774954Y1137158D02*
X1215136D01*
X770382Y1141730D02*
X774954Y1137158D01*
X770382Y1141730D02*
Y1170940D01*
X811276Y1163776D02*
X819190Y1171690D01*
X811276Y1147826D02*
Y1163776D01*
Y1147826D02*
X817118Y1141984D01*
X1254252D01*
X1120688Y1127506D02*
X1123950Y1124244D01*
X1254252Y1141984D02*
X1269238Y1156970D01*
X740918Y1202729D02*
X764635Y1226446D01*
X740918Y1133602D02*
Y1202729D01*
Y1133602D02*
X756158Y1118362D01*
X1114552Y1169416D02*
X1197356D01*
X1077468Y1206500D02*
X1114552Y1169416D01*
X829056Y1206500D02*
X1077468D01*
X1276350Y1156462D02*
Y1191380D01*
X1252220Y1132332D02*
X1276350Y1156462D01*
X1232916Y1132332D02*
X1252220D01*
X1112266Y1165352D02*
X1204189D01*
X1075944Y1201674D02*
X1112266Y1165352D01*
X960628Y1201674D02*
X1075944D01*
X1204189Y1165352D02*
X1207770Y1168933D01*
X1081786Y1214882D02*
X1118870Y1177798D01*
X820166Y1214882D02*
X1081786D01*
X1118870Y1177798D02*
X1138878D01*
X1108202Y1195070D02*
X1145540D01*
X1084326Y1218946D02*
X1108202Y1195070D01*
X823214Y1218946D02*
X1084326Y1218946D01*
X823656Y1270762D02*
X870393Y1317498D01*
X811784Y1270762D02*
X823656D01*
X806450Y1265428D02*
X811784Y1270762D01*
X820674Y1276350D02*
X866902Y1322578D01*
X760690Y1276350D02*
X820674D01*
X818537Y1282357D02*
X863838Y1327658D01*
X754190Y1282357D02*
X818537D01*
X866902Y1322578D02*
X1122652D01*
X1139310Y1305920D01*
X667004Y1227328D02*
X670814Y1231138D01*
X652272Y1186180D02*
X661924Y1195832D01*
X759714Y1231138D02*
X795448D01*
X670814D02*
X759714D01*
X1191006Y1118362D02*
X1200150Y1109218D01*
X756158Y1118362D02*
X1191006D01*
X1200150Y1063180D02*
Y1109218D01*
X754634Y1207586D02*
X764692Y1217644D01*
X799690D01*
X795448Y1231138D02*
X799690Y1235380D01*
Y1226446D02*
X800175D01*
X764635D02*
X799690D01*
Y1235380D02*
Y1240790D01*
X777189Y1235609D02*
X782320Y1240740D01*
X806450Y1212140D02*
Y1265428D01*
X812690Y1222358D02*
Y1235964D01*
Y1222358D02*
X820166Y1214882D01*
X1079754Y1210564D02*
X1116958Y1173360D01*
X826262Y1210564D02*
X1079754D01*
X820488Y1204790D02*
X826262Y1210564D01*
X825500Y1202944D02*
X829056Y1206500D01*
X817880Y1224280D02*
X823214Y1218946D01*
X815944Y1243076D02*
X817880Y1241140D01*
Y1224280D02*
Y1241140D01*
X812546Y1243076D02*
X815944D01*
X1223772Y1123188D02*
X1232916Y1132332D01*
X1214478Y1123188D02*
X1223772D01*
X1205334Y1132332D02*
X1214478Y1123188D01*
X825500Y1197864D02*
Y1202944D01*
X1197356Y1169416D02*
X1202944Y1175004D01*
Y1188212D01*
X1205738Y1191006D01*
X1212850D01*
X1126490Y1208690D02*
Y1212596D01*
X1145540Y1195070D02*
X1151890Y1188720D01*
Y1180690D02*
Y1188720D01*
X1116958Y1173360D02*
X1166770D01*
X1138878Y1177798D02*
X1141770Y1180690D01*
X767190Y1204790D02*
X820488D01*
X1132840Y1288159D02*
X1139310Y1281689D01*
X1269238Y1156970D02*
Y1182370D01*
X1265428Y1186180D02*
X1269238Y1182370D01*
X1259840Y1186180D02*
X1265428D01*
X1215136Y1137158D02*
X1218692Y1133602D01*
Y1129030D02*
Y1133602D01*
X1139190Y1268690D02*
X1168530D01*
X1139310Y1290690D02*
Y1305920D01*
X1139960Y1290320D02*
X1140600D01*
X1101380Y1229190D02*
X1137920D01*
X1093260Y1237310D02*
Y1266190D01*
Y1237310D02*
X1101380Y1229190D01*
D41*
X1200150Y1063180D02*
D03*
D43*
X744220Y1223010D02*
D03*
X1174750Y1105916D02*
D03*
X1149350Y1112266D02*
D03*
X1123950Y1124244D02*
D03*
X799690Y1226446D02*
D03*
Y1217644D02*
D03*
X610357Y1161752D02*
D03*
X594355Y1161796D02*
D03*
X578264Y1162050D02*
D03*
X799690Y1240790D02*
D03*
X782320Y1240740D02*
D03*
X773690D02*
D03*
X812546Y1235964D02*
D03*
Y1243076D02*
D03*
X806450Y1212140D02*
D03*
X825500Y1197864D02*
D03*
X960628Y1201674D02*
D03*
X1212850Y1191006D02*
D03*
X1093670Y1216660D02*
D03*
X819190Y1171690D02*
D03*
X1259840Y1186180D02*
D03*
X1218692Y1129030D02*
D03*
X770382Y1170940D02*
D03*
X760690D02*
D03*
X1276350Y1191380D02*
D03*
X1151890Y1180690D02*
D03*
X1141770D02*
D03*
X767190Y1204790D02*
D03*
X1139190Y1268690D02*
D03*
X1139310Y1290690D02*
D03*
X760690Y1276350D02*
D03*
X1150430Y1290690D02*
D03*
X754190Y1282357D02*
D03*
X1139310Y1281689D02*
D03*
X1259410Y1224190D02*
D03*
X1212850Y1287780D02*
D03*
X1207930Y1158868D02*
D03*
X1057910Y1277620D02*
D03*
Y1192530D02*
D03*
X1207770Y1168933D02*
D03*
X1093260Y1266190D02*
D03*
X1093670Y1224690D02*
D03*
X1137920Y1219200D02*
D03*
Y1229190D02*
D03*
X1126490Y1208690D02*
D03*
M02*
