G04*
G04 #@! TF.GenerationSoftware,Altium Limited,Altium Designer,18.1.11 (251)*
G04*
G04 Layer_Physical_Order=4*
G04 Layer_Color=16711680*
%FSLAX25Y25*%
%MOIN*%
G70*
G01*
G75*
%ADD10C,0.00984*%
%ADD16R,0.02756X0.03740*%
%ADD21R,0.03740X0.02756*%
%ADD37C,0.03937*%
%ADD39C,0.07874*%
%ADD40R,0.05906X0.05906*%
%ADD41C,0.05906*%
%ADD42C,0.23622*%
%ADD43C,0.01968*%
%ADD44C,0.04724*%
%ADD45C,0.02756*%
%ADD46R,0.08465X0.12795*%
%ADD47R,0.08465X0.03937*%
%ADD48O,0.01575X0.06496*%
%ADD49R,0.05512X0.02441*%
%ADD50R,0.13200X0.18632*%
%ADD51R,0.23398X0.28400*%
%ADD52R,0.12000X0.26267*%
%ADD53R,0.04256X0.27898*%
%ADD54R,0.34000X0.13451*%
G36*
X257500Y512000D02*
Y500072D01*
X251520D01*
X251277Y500024D01*
X246787D01*
Y495087D01*
X251277D01*
X251520Y495038D01*
X257500D01*
Y477287D01*
X254500Y474287D01*
X253842D01*
Y476976D01*
X256252D01*
Y481913D01*
X251763D01*
X251520Y481962D01*
X251277Y481913D01*
X246787D01*
Y476976D01*
X248808D01*
Y474287D01*
X221713Y474287D01*
X219000Y477000D01*
Y485783D01*
X219441Y486019D01*
X219545Y485949D01*
X219973Y485864D01*
Y488189D01*
Y490514D01*
X219545Y490429D01*
X219441Y490360D01*
X219000Y490596D01*
X219000Y501531D01*
X219441Y501767D01*
X219545Y501697D01*
X219973Y501612D01*
Y503937D01*
Y506262D01*
X219545Y506177D01*
X219441Y506108D01*
X219000Y506344D01*
Y512500D01*
X220500Y514000D01*
X222551D01*
X222623Y513764D01*
X222678Y513500D01*
X222170Y512739D01*
X222084Y512311D01*
X226735D01*
X226649Y512739D01*
X226141Y513500D01*
X226196Y513764D01*
X226268Y514000D01*
X230425D01*
X230497Y513764D01*
X230552Y513500D01*
X230044Y512739D01*
X229959Y512311D01*
X234609D01*
X234524Y512739D01*
X234015Y513500D01*
X234070Y513764D01*
X234142Y514000D01*
X238299Y514000D01*
X238371Y513764D01*
X238426Y513500D01*
X237918Y512739D01*
X237832Y512311D01*
X242483D01*
X242398Y512739D01*
X241889Y513500D01*
X241945Y513764D01*
X242016Y514000D01*
X246173D01*
X246245Y513764D01*
X246300Y513500D01*
X245792Y512739D01*
X245707Y512311D01*
X250357D01*
X250272Y512739D01*
X249763Y513500D01*
X249818Y513764D01*
X249890Y514000D01*
X255500D01*
X257500Y512000D01*
D02*
G37*
G36*
X518500Y432575D02*
X463512D01*
Y434291D01*
X463570Y434330D01*
X463898Y434821D01*
X464013Y435400D01*
X463898Y435979D01*
X463570Y436470D01*
X463079Y436798D01*
X462500Y436913D01*
X461921Y436798D01*
X461430Y436470D01*
X461102Y435979D01*
X460987Y435400D01*
X461102Y434821D01*
X461430Y434330D01*
X461488Y434291D01*
Y432575D01*
X453512D01*
Y436791D01*
X453570Y436830D01*
X453898Y437321D01*
X454013Y437900D01*
X453898Y438479D01*
X453570Y438970D01*
X453079Y439298D01*
X452500Y439413D01*
X451921Y439298D01*
X451430Y438970D01*
X451102Y438479D01*
X450987Y437900D01*
X451102Y437321D01*
X451430Y436830D01*
X451488Y436791D01*
Y432575D01*
X443512D01*
Y441506D01*
X443570Y441546D01*
X443898Y442037D01*
X444013Y442616D01*
X443898Y443195D01*
X443570Y443686D01*
X443079Y444014D01*
X442500Y444129D01*
X441921Y444014D01*
X441430Y443686D01*
X441102Y443195D01*
X440987Y442616D01*
X441102Y442037D01*
X441430Y441546D01*
X441488Y441506D01*
Y432575D01*
X218500D01*
Y476027D01*
X219000Y476235D01*
X221330Y473905D01*
X221330Y473905D01*
X221713Y473746D01*
X221713Y473746D01*
X248293Y473746D01*
X248571Y473330D01*
X248536Y473247D01*
X248438Y472500D01*
X248536Y471753D01*
X248634Y471517D01*
X248300Y471017D01*
X243059D01*
X242321Y470870D01*
X241181D01*
Y470133D01*
X240819Y469591D01*
X240319Y469742D01*
Y471370D01*
X238441D01*
Y468500D01*
Y465630D01*
X240136Y465630D01*
X240342Y465272D01*
X240136Y464913D01*
X238441D01*
Y462043D01*
Y459173D01*
X239406D01*
X239558Y458673D01*
X239228Y458453D01*
X238900Y457962D01*
X238785Y457383D01*
X238900Y456804D01*
X239092Y456516D01*
X238841Y456016D01*
X237928D01*
Y452260D01*
X242668D01*
Y456016D01*
X241756D01*
X241504Y456516D01*
X241696Y456804D01*
X241811Y457383D01*
X241696Y457962D01*
X241368Y458453D01*
X240877Y458781D01*
X240673Y458821D01*
X240319Y459173D01*
X240319Y459371D01*
Y460801D01*
X240819Y460953D01*
X241181Y460411D01*
Y459673D01*
X242321D01*
X243059Y459526D01*
X243797Y459673D01*
X244937D01*
Y460411D01*
X245384Y461080D01*
X245576Y462043D01*
Y465983D01*
X249825D01*
X250788Y466175D01*
X251605Y466720D01*
X253105Y468220D01*
X253650Y469037D01*
X253842Y470000D01*
Y471097D01*
X254114Y471753D01*
X254212Y472500D01*
X254114Y473247D01*
X254079Y473330D01*
X254357Y473746D01*
X254500D01*
X254883Y473905D01*
X257883Y476905D01*
X258041Y477287D01*
X258041Y477287D01*
Y487488D01*
X258559D01*
X258946Y487565D01*
X259274Y487785D01*
X260053Y488563D01*
X262870D01*
Y492319D01*
X258347D01*
X258135Y492819D01*
X258332Y493181D01*
X260000D01*
Y495559D01*
Y497937D01*
X257630D01*
Y495666D01*
X257500Y495579D01*
X256752D01*
Y497055D01*
X251520D01*
Y498055D01*
X256752D01*
Y499531D01*
X257500D01*
X257883Y499689D01*
X258041Y500072D01*
Y512000D01*
X258041Y512000D01*
X257883Y512383D01*
X257883Y512383D01*
X255883Y514383D01*
X255500Y514541D01*
X255500Y514541D01*
X221500D01*
X221500Y514541D01*
X220500D01*
X220500Y514541D01*
X220117Y514383D01*
X219000Y513265D01*
X218500Y513473D01*
Y531000D01*
X518500D01*
Y432575D01*
D02*
G37*
%LPC*%
G36*
X250357Y511311D02*
X248532D01*
Y509486D01*
X248959Y509571D01*
X249746Y510097D01*
X250272Y510884D01*
X250357Y511311D01*
D02*
G37*
G36*
X247532D02*
X245707D01*
X245792Y510884D01*
X246317Y510097D01*
X247104Y509571D01*
X247532Y509486D01*
Y511311D01*
D02*
G37*
G36*
X242483D02*
X240658D01*
Y509486D01*
X241085Y509571D01*
X241872Y510097D01*
X242398Y510884D01*
X242483Y511311D01*
D02*
G37*
G36*
X239658D02*
X237832D01*
X237918Y510884D01*
X238443Y510097D01*
X239230Y509571D01*
X239658Y509486D01*
Y511311D01*
D02*
G37*
G36*
X234609D02*
X232784D01*
Y509486D01*
X233211Y509571D01*
X233998Y510097D01*
X234524Y510884D01*
X234609Y511311D01*
D02*
G37*
G36*
X231784D02*
X229959D01*
X230044Y510884D01*
X230569Y510097D01*
X231356Y509571D01*
X231784Y509486D01*
Y511311D01*
D02*
G37*
G36*
X226735D02*
X224910D01*
Y509486D01*
X225337Y509571D01*
X226124Y510097D01*
X226649Y510884D01*
X226735Y511311D01*
D02*
G37*
G36*
X223910D02*
X222084D01*
X222170Y510884D01*
X222695Y510097D01*
X223482Y509571D01*
X223910Y509486D01*
Y511311D01*
D02*
G37*
G36*
X252469Y506262D02*
Y504437D01*
X254294D01*
X254209Y504865D01*
X253683Y505652D01*
X252896Y506177D01*
X252469Y506262D01*
D02*
G37*
G36*
X251469D02*
X251041Y506177D01*
X250254Y505652D01*
X249729Y504865D01*
X249644Y504437D01*
X251469D01*
Y506262D01*
D02*
G37*
G36*
X244595D02*
Y504437D01*
X246420D01*
X246335Y504865D01*
X245809Y505652D01*
X245022Y506177D01*
X244595Y506262D01*
D02*
G37*
G36*
X243595D02*
X243167Y506177D01*
X242380Y505652D01*
X241855Y504865D01*
X241770Y504437D01*
X243595D01*
Y506262D01*
D02*
G37*
G36*
X236721D02*
Y504437D01*
X238546D01*
X238461Y504865D01*
X237935Y505652D01*
X237148Y506177D01*
X236721Y506262D01*
D02*
G37*
G36*
X235721D02*
X235293Y506177D01*
X234506Y505652D01*
X233981Y504865D01*
X233895Y504437D01*
X235721D01*
Y506262D01*
D02*
G37*
G36*
X228847D02*
Y504437D01*
X230672D01*
X230587Y504865D01*
X230061Y505652D01*
X229274Y506177D01*
X228847Y506262D01*
D02*
G37*
G36*
X227847D02*
X227419Y506177D01*
X226632Y505652D01*
X226107Y504865D01*
X226022Y504437D01*
X227847D01*
Y506262D01*
D02*
G37*
G36*
X220973D02*
Y504437D01*
X222798D01*
X222712Y504865D01*
X222187Y505652D01*
X221400Y506177D01*
X220973Y506262D01*
D02*
G37*
G36*
X254294Y503437D02*
X252469D01*
Y501612D01*
X252896Y501697D01*
X253683Y502223D01*
X254209Y503010D01*
X254294Y503437D01*
D02*
G37*
G36*
X251469D02*
X249644D01*
X249729Y503010D01*
X250254Y502223D01*
X251041Y501697D01*
X251469Y501612D01*
Y503437D01*
D02*
G37*
G36*
X246420D02*
X244595D01*
Y501612D01*
X245022Y501697D01*
X245809Y502223D01*
X246335Y503010D01*
X246420Y503437D01*
D02*
G37*
G36*
X243595D02*
X241770D01*
X241855Y503010D01*
X242380Y502223D01*
X243167Y501697D01*
X243595Y501612D01*
Y503437D01*
D02*
G37*
G36*
X238546D02*
X236721D01*
Y501612D01*
X237148Y501697D01*
X237935Y502223D01*
X238461Y503010D01*
X238546Y503437D01*
D02*
G37*
G36*
X235721D02*
X233895D01*
X233981Y503010D01*
X234506Y502223D01*
X235293Y501697D01*
X235721Y501612D01*
Y503437D01*
D02*
G37*
G36*
X230672D02*
X228847D01*
Y501612D01*
X229274Y501697D01*
X230061Y502223D01*
X230587Y503010D01*
X230672Y503437D01*
D02*
G37*
G36*
X227847D02*
X226022D01*
X226107Y503010D01*
X226632Y502223D01*
X227419Y501697D01*
X227847Y501612D01*
Y503437D01*
D02*
G37*
G36*
X222798D02*
X220973D01*
Y501612D01*
X221400Y501697D01*
X222187Y502223D01*
X222712Y503010D01*
X222798Y503437D01*
D02*
G37*
G36*
X240658Y498388D02*
Y496563D01*
X242483D01*
X242398Y496991D01*
X241872Y497778D01*
X241085Y498303D01*
X240658Y498388D01*
D02*
G37*
G36*
X239658D02*
X239230Y498303D01*
X238443Y497778D01*
X237918Y496991D01*
X237832Y496563D01*
X239658D01*
Y498388D01*
D02*
G37*
G36*
X242483Y495563D02*
X240658D01*
Y493738D01*
X241085Y493823D01*
X241872Y494349D01*
X242398Y495135D01*
X242483Y495563D01*
D02*
G37*
G36*
X239658D02*
X237832D01*
X237918Y495135D01*
X238443Y494349D01*
X239230Y493823D01*
X239658Y493738D01*
Y495563D01*
D02*
G37*
G36*
X256752Y491468D02*
X252020D01*
Y489000D01*
X256752D01*
Y491468D01*
D02*
G37*
G36*
X251020D02*
X246287D01*
Y489000D01*
X251020D01*
Y491468D01*
D02*
G37*
G36*
X233720Y495898D02*
X228988D01*
Y489000D01*
X233720D01*
Y495898D01*
D02*
G37*
G36*
X227988D02*
X223256D01*
Y488948D01*
X222756Y488899D01*
X222712Y489117D01*
X222187Y489904D01*
X221400Y490429D01*
X220973Y490514D01*
Y488189D01*
Y485864D01*
X221400Y485949D01*
X222187Y486475D01*
X222712Y487261D01*
X222756Y487479D01*
X223256Y487430D01*
Y481102D01*
X227988D01*
Y488500D01*
Y495898D01*
D02*
G37*
G36*
X256752Y488000D02*
X252020D01*
Y485532D01*
X256752D01*
Y488000D01*
D02*
G37*
G36*
X251020D02*
X246287D01*
Y485532D01*
X251020D01*
Y488000D01*
D02*
G37*
G36*
X233720Y488000D02*
X228988D01*
Y481102D01*
X233720D01*
Y488000D01*
D02*
G37*
G36*
X240658Y482640D02*
Y480815D01*
X242483D01*
X242398Y481243D01*
X241872Y482030D01*
X241085Y482555D01*
X240658Y482640D01*
D02*
G37*
G36*
X239658D02*
X239230Y482555D01*
X238443Y482030D01*
X237918Y481243D01*
X237832Y480815D01*
X239658D01*
Y482640D01*
D02*
G37*
G36*
X242483Y479815D02*
X240658D01*
Y477990D01*
X241085Y478075D01*
X241872Y478601D01*
X242398Y479387D01*
X242483Y479815D01*
D02*
G37*
G36*
X239658D02*
X237832D01*
X237918Y479387D01*
X238443Y478601D01*
X239230Y478075D01*
X239658Y477990D01*
Y479815D01*
D02*
G37*
G36*
X311500Y528921D02*
Y525500D01*
X314921D01*
X314851Y526032D01*
X314453Y526993D01*
X313819Y527819D01*
X312993Y528453D01*
X312032Y528851D01*
X311500Y528921D01*
D02*
G37*
G36*
X310500D02*
X309968Y528851D01*
X309007Y528453D01*
X308181Y527819D01*
X307547Y526993D01*
X307149Y526032D01*
X307079Y525500D01*
X310500D01*
Y528921D01*
D02*
G37*
G36*
X331000Y528482D02*
X330099Y528364D01*
X329259Y528016D01*
X328538Y527462D01*
X327984Y526741D01*
X327682Y526012D01*
X327500D01*
X327113Y525935D01*
X326785Y525715D01*
X324719Y523650D01*
X324295Y523933D01*
X324364Y524099D01*
X324482Y525000D01*
X324364Y525901D01*
X324016Y526741D01*
X323463Y527462D01*
X322741Y528016D01*
X321901Y528364D01*
X321000Y528482D01*
X320099Y528364D01*
X319259Y528016D01*
X318537Y527462D01*
X317984Y526741D01*
X317636Y525901D01*
X317517Y525000D01*
X317636Y524099D01*
X317984Y523259D01*
X318537Y522538D01*
X319025Y522163D01*
X319114Y521545D01*
X316785Y519215D01*
X316565Y518887D01*
X316488Y518500D01*
Y507171D01*
X314829Y505512D01*
X305500D01*
X305113Y505435D01*
X304785Y505215D01*
X301647Y502077D01*
X301289Y501783D01*
X301263Y501798D01*
X300921Y502113D01*
X300998Y502500D01*
X300882Y503079D01*
X300554Y503570D01*
X300063Y503898D01*
X299484Y504013D01*
X298905Y503898D01*
X298437Y503585D01*
X298145Y504020D01*
X298323Y504286D01*
X298439Y504865D01*
X298323Y505444D01*
X297995Y505935D01*
X297504Y506263D01*
X296925Y506378D01*
X296346Y506263D01*
X295878Y505950D01*
X295748Y505977D01*
X295378Y506121D01*
Y521634D01*
X295301Y522021D01*
X295081Y522349D01*
X294453Y522978D01*
Y528453D01*
X287547D01*
Y521547D01*
X292731D01*
X292859Y521370D01*
X292602Y520870D01*
X291563D01*
Y519512D01*
X289937D01*
Y520870D01*
X286181D01*
Y516130D01*
X289937D01*
Y517488D01*
X291563D01*
Y516130D01*
X293355D01*
Y498536D01*
X293153Y498235D01*
X293054Y497732D01*
Y492811D01*
X293153Y492309D01*
X293438Y491883D01*
X293864Y491598D01*
X294366Y491498D01*
X294868Y491598D01*
X295294Y491883D01*
X295345Y491959D01*
X295946D01*
X295997Y491883D01*
X296423Y491598D01*
X296925Y491498D01*
X297428Y491598D01*
X297853Y491883D01*
X297904Y491959D01*
X298505D01*
X298556Y491883D01*
X298982Y491598D01*
X299484Y491498D01*
X299987Y491598D01*
X300412Y491883D01*
X300463Y491959D01*
X301064D01*
X301115Y491883D01*
X301541Y491598D01*
X302043Y491498D01*
X302546Y491598D01*
X302972Y491883D01*
X303022Y491959D01*
X303624D01*
X303674Y491883D01*
X304100Y491598D01*
X304602Y491498D01*
X305105Y491598D01*
X305531Y491883D01*
X305813Y491764D01*
X305837Y491227D01*
X304603Y489993D01*
X304602Y489994D01*
X304023Y489878D01*
X303532Y489550D01*
X303204Y489059D01*
X303089Y488480D01*
X303204Y487901D01*
X303532Y487410D01*
X304023Y487082D01*
X304602Y486967D01*
X305182Y487082D01*
X305672Y487410D01*
X306000Y487901D01*
X306046Y488131D01*
X306556D01*
X306602Y487901D01*
X306930Y487410D01*
X307421Y487082D01*
X308000Y486967D01*
X308579Y487082D01*
X309070Y487410D01*
X309398Y487901D01*
X309513Y488480D01*
X309500Y488549D01*
X310436Y489486D01*
X310655Y489814D01*
X310732Y490201D01*
Y491094D01*
X311232Y491361D01*
X311582Y491127D01*
X311779Y491088D01*
Y495272D01*
Y499455D01*
X311582Y499416D01*
X310991Y499021D01*
X310977Y499000D01*
X310303Y498891D01*
X310223Y498945D01*
X309720Y499045D01*
X309218Y498945D01*
X308792Y498660D01*
X308742Y498585D01*
X308140D01*
X308090Y498660D01*
X307664Y498945D01*
X307161Y499045D01*
X306659Y498945D01*
X306233Y498660D01*
X305766Y498857D01*
X305614Y498989D01*
Y499727D01*
X307376Y501488D01*
X316500D01*
X316887Y501565D01*
X317215Y501785D01*
X320215Y504785D01*
X320435Y505113D01*
X320512Y505500D01*
Y516581D01*
X327433Y523502D01*
X327923Y523405D01*
X327984Y523259D01*
X328538Y522538D01*
X329259Y521984D01*
X330099Y521636D01*
X331000Y521518D01*
X331901Y521636D01*
X332741Y521984D01*
X333463Y522538D01*
X334016Y523259D01*
X334364Y524099D01*
X334483Y525000D01*
X334364Y525901D01*
X334016Y526741D01*
X333463Y527462D01*
X332741Y528016D01*
X331901Y528364D01*
X331000Y528482D01*
D02*
G37*
G36*
X301000D02*
X300099Y528364D01*
X299259Y528016D01*
X298537Y527462D01*
X297984Y526741D01*
X297636Y525901D01*
X297517Y525000D01*
X297636Y524099D01*
X297938Y523369D01*
X297844Y523274D01*
X297624Y522946D01*
X297548Y522559D01*
Y520870D01*
X296681D01*
Y516130D01*
X300437D01*
Y520870D01*
X299571D01*
Y521405D01*
X299986Y521683D01*
X300099Y521636D01*
X301000Y521518D01*
X301901Y521636D01*
X302741Y521984D01*
X303463Y522538D01*
X304016Y523259D01*
X304364Y524099D01*
X304483Y525000D01*
X304364Y525901D01*
X304016Y526741D01*
X303463Y527462D01*
X302741Y528016D01*
X301901Y528364D01*
X301000Y528482D01*
D02*
G37*
G36*
X314921Y524500D02*
X311500D01*
Y521079D01*
X312032Y521149D01*
X312993Y521547D01*
X313819Y522181D01*
X314453Y523007D01*
X314851Y523968D01*
X314921Y524500D01*
D02*
G37*
G36*
X310500D02*
X307079D01*
X307149Y523968D01*
X307547Y523007D01*
X308181Y522181D01*
X309007Y521547D01*
X309968Y521149D01*
X310500Y521079D01*
Y524500D01*
D02*
G37*
G36*
X285319Y521370D02*
X283441D01*
Y519000D01*
X285319D01*
Y521370D01*
D02*
G37*
G36*
X282441D02*
X280563D01*
Y519000D01*
X282441D01*
Y521370D01*
D02*
G37*
G36*
X429400Y517924D02*
Y516500D01*
X430824D01*
X430769Y516774D01*
X430331Y517431D01*
X429674Y517869D01*
X429400Y517924D01*
D02*
G37*
G36*
X428400D02*
X428126Y517869D01*
X427469Y517431D01*
X427031Y516774D01*
X426976Y516500D01*
X428400D01*
Y517924D01*
D02*
G37*
G36*
X285319Y518000D02*
X283441D01*
Y515630D01*
X285319D01*
Y518000D01*
D02*
G37*
G36*
X282441D02*
X280563D01*
Y515630D01*
X282441D01*
Y518000D01*
D02*
G37*
G36*
X440319Y516449D02*
X438441D01*
Y514079D01*
X440319D01*
Y516449D01*
D02*
G37*
G36*
X437441D02*
X435563D01*
Y514079D01*
X437441D01*
Y516449D01*
D02*
G37*
G36*
X469476Y515799D02*
X466221D01*
Y514079D01*
X469476D01*
Y515799D01*
D02*
G37*
G36*
X461919Y518113D02*
X461340Y517998D01*
X460849Y517670D01*
X460521Y517179D01*
X460406Y516600D01*
X460521Y516021D01*
X460849Y515530D01*
X461340Y515202D01*
X461919Y515087D01*
X461965Y515050D01*
Y514079D01*
X465220D01*
Y515799D01*
X463725D01*
X463373Y516299D01*
X463433Y516600D01*
X463317Y517179D01*
X462989Y517670D01*
X462498Y517998D01*
X461919Y518113D01*
D02*
G37*
G36*
X504909Y515799D02*
X501653D01*
Y514079D01*
X504909D01*
Y515799D01*
D02*
G37*
G36*
X500654D02*
X497398D01*
Y514079D01*
X500654D01*
Y515799D01*
D02*
G37*
G36*
X430824Y515500D02*
X429400D01*
Y514076D01*
X429674Y514131D01*
X430331Y514569D01*
X430769Y515226D01*
X430824Y515500D01*
D02*
G37*
G36*
X428400D02*
X426976D01*
X427031Y515226D01*
X427469Y514569D01*
X428126Y514131D01*
X428400Y514076D01*
Y515500D01*
D02*
G37*
G36*
X384740Y515914D02*
Y511500D01*
X389154D01*
X389050Y512289D01*
X388553Y513490D01*
X387761Y514521D01*
X386730Y515312D01*
X385529Y515810D01*
X384740Y515914D01*
D02*
G37*
G36*
X383740D02*
X382951Y515810D01*
X381750Y515312D01*
X380719Y514521D01*
X379928Y513490D01*
X379430Y512289D01*
X379326Y511500D01*
X383740D01*
Y515914D01*
D02*
G37*
G36*
X345370D02*
Y511500D01*
X349784D01*
X349680Y512289D01*
X349183Y513490D01*
X348391Y514521D01*
X347360Y515312D01*
X346159Y515810D01*
X345370Y515914D01*
D02*
G37*
G36*
X344370D02*
X343581Y515810D01*
X342380Y515312D01*
X341349Y514521D01*
X340558Y513490D01*
X340060Y512289D01*
X339956Y511500D01*
X344370D01*
Y515914D01*
D02*
G37*
G36*
X306000D02*
Y511500D01*
X310414D01*
X310310Y512289D01*
X309812Y513490D01*
X309021Y514521D01*
X307990Y515312D01*
X306789Y515810D01*
X306000Y515914D01*
D02*
G37*
G36*
X305000D02*
X304211Y515810D01*
X303010Y515312D01*
X301979Y514521D01*
X301187Y513490D01*
X300690Y512289D01*
X300586Y511500D01*
X305000D01*
Y515914D01*
D02*
G37*
G36*
X266630D02*
Y511500D01*
X271044D01*
X270940Y512289D01*
X270442Y513490D01*
X269651Y514521D01*
X268620Y515312D01*
X267419Y515810D01*
X266630Y515914D01*
D02*
G37*
G36*
X265630D02*
X264841Y515810D01*
X263640Y515312D01*
X262609Y514521D01*
X261818Y513490D01*
X261320Y512289D01*
X261216Y511500D01*
X265630D01*
Y515914D01*
D02*
G37*
G36*
X504909Y513079D02*
X501653D01*
Y511358D01*
X504909D01*
Y513079D01*
D02*
G37*
G36*
X500654D02*
X497398D01*
Y511358D01*
X500654D01*
Y513079D01*
D02*
G37*
G36*
X469476Y513079D02*
X466221D01*
Y511358D01*
X469476D01*
Y513079D01*
D02*
G37*
G36*
X465220D02*
X461965D01*
Y511358D01*
X465220D01*
Y513079D01*
D02*
G37*
G36*
X444937Y515949D02*
X441181D01*
Y511340D01*
X440319D01*
Y513079D01*
X437941D01*
X435563D01*
Y511406D01*
X435063Y511368D01*
X434243Y512188D01*
X434398Y512421D01*
X434513Y513000D01*
X434398Y513579D01*
X434070Y514070D01*
X433579Y514398D01*
X433000Y514513D01*
X432421Y514398D01*
X431930Y514070D01*
X431602Y513579D01*
X431487Y513000D01*
X431602Y512421D01*
X431930Y511930D01*
X432014Y511874D01*
X432065Y511613D01*
X432285Y511285D01*
X433956Y509614D01*
X434284Y509394D01*
X434671Y509317D01*
X435563D01*
Y507579D01*
X437941D01*
Y507079D01*
D01*
Y507579D01*
X440319D01*
Y509317D01*
X441181D01*
Y504709D01*
X444937D01*
X445261Y504343D01*
Y503506D01*
X444937Y503140D01*
X441181D01*
Y498400D01*
X442048D01*
Y496216D01*
X441181D01*
Y491476D01*
X444937D01*
Y492425D01*
X445437Y492632D01*
X445988Y492081D01*
Y487517D01*
X445527Y487325D01*
X445213Y487639D01*
X444937Y487823D01*
Y489293D01*
X441181D01*
Y484553D01*
X444410D01*
Y482953D01*
X444426Y482870D01*
X444062Y482370D01*
X441181D01*
Y477630D01*
X442574D01*
X442726Y477130D01*
X442430Y476932D01*
X442102Y476441D01*
X441987Y475862D01*
X442102Y475283D01*
X442378Y474870D01*
X442289Y474571D01*
X442162Y474370D01*
X441181D01*
Y469762D01*
X440319D01*
Y471500D01*
X437941D01*
X435563D01*
Y469762D01*
X427937D01*
Y471870D01*
X424181D01*
Y467130D01*
X427937D01*
Y467738D01*
X435563D01*
Y466000D01*
X437941D01*
X440319D01*
Y467738D01*
X441181D01*
Y463130D01*
X444937D01*
Y467870D01*
X444071D01*
Y469630D01*
X444937D01*
Y470988D01*
X448547D01*
X448934Y471065D01*
X449263Y471285D01*
X450488Y472511D01*
X450988Y472303D01*
Y469529D01*
X450794Y469402D01*
X450488Y469310D01*
X450079Y469583D01*
X449500Y469698D01*
X448921Y469583D01*
X448430Y469255D01*
X448391Y469197D01*
X447807D01*
X447420Y469120D01*
X447092Y468900D01*
X446285Y468093D01*
X446065Y467765D01*
X445988Y467378D01*
Y460129D01*
X445871Y460012D01*
X444937D01*
Y461370D01*
X441181D01*
Y456630D01*
X442048D01*
Y454870D01*
X441181D01*
Y450130D01*
X444937D01*
Y454870D01*
X444071D01*
Y456630D01*
X444937D01*
Y457988D01*
X446290D01*
X446677Y458065D01*
X447005Y458285D01*
X447715Y458995D01*
X447935Y459323D01*
X448012Y459710D01*
Y463518D01*
X448239Y463649D01*
X448512Y463725D01*
X448937Y463440D01*
X449516Y463325D01*
X450095Y463440D01*
X450586Y463768D01*
X450914Y464259D01*
X451029Y464839D01*
X451015Y464908D01*
X451609Y465501D01*
X452069Y465255D01*
X451987Y464839D01*
X452102Y464259D01*
X452430Y463768D01*
X452921Y463440D01*
X453500Y463325D01*
X454079Y463440D01*
X454570Y463768D01*
X454898Y464259D01*
X455013Y464839D01*
X454898Y465418D01*
X454657Y465778D01*
Y471779D01*
X461102D01*
Y475220D01*
X454657D01*
Y476110D01*
X461102D01*
Y479551D01*
X454591D01*
Y478842D01*
X454476D01*
X454089Y478765D01*
X453761Y478546D01*
X453474Y478258D01*
X453012Y478450D01*
Y479951D01*
X454090Y481030D01*
X454591Y480861D01*
Y480441D01*
X461102D01*
Y483882D01*
X454591D01*
Y483173D01*
X453791D01*
X453404Y483096D01*
X453076Y482877D01*
X451988Y481789D01*
X451677Y481904D01*
X451504Y482012D01*
X451398Y482544D01*
X451070Y483035D01*
X450579Y483363D01*
X450000Y483478D01*
X449930Y483464D01*
X449505Y483889D01*
X449513Y483933D01*
X449398Y484512D01*
X449085Y484981D01*
X449112Y485110D01*
X449256Y485481D01*
X454591D01*
Y484772D01*
X461102D01*
Y488213D01*
X454591D01*
Y487504D01*
X449559D01*
Y493354D01*
X449482Y493741D01*
X449263Y494070D01*
X447284Y496048D01*
Y497910D01*
X447784Y498177D01*
X447921Y498086D01*
X448500Y497971D01*
X449079Y498086D01*
X449321Y498248D01*
X450988Y496581D01*
Y492730D01*
X451065Y492343D01*
X451285Y492015D01*
X453192Y490107D01*
X453520Y489888D01*
X453907Y489811D01*
X454591D01*
Y489102D01*
X461102D01*
Y492433D01*
X461102Y492543D01*
X461369Y492933D01*
X461602D01*
Y494654D01*
X457846D01*
Y495653D01*
X461602D01*
Y497374D01*
X461369D01*
X461102Y497764D01*
X461102Y497874D01*
Y501205D01*
X454591D01*
Y500496D01*
X454065D01*
X453642Y500919D01*
Y504240D01*
X453565Y504627D01*
X453345Y504955D01*
X451769Y506532D01*
X452087Y506920D01*
X452346Y506747D01*
X452925Y506632D01*
X453504Y506747D01*
X453995Y507076D01*
X454034Y507134D01*
X454591D01*
Y506425D01*
X461102D01*
Y509866D01*
X454591D01*
Y509157D01*
X454034D01*
X453995Y509216D01*
X453504Y509544D01*
X452925Y509659D01*
X452346Y509544D01*
X451855Y509216D01*
X451527Y508725D01*
X451412Y508146D01*
X451527Y507566D01*
X451700Y507308D01*
X451312Y506989D01*
X450037Y508263D01*
X449945Y508725D01*
X449617Y509216D01*
X449126Y509544D01*
X448547Y509659D01*
X447968Y509544D01*
X447477Y509216D01*
X447149Y508725D01*
X447034Y508146D01*
X447149Y507566D01*
X447477Y507076D01*
X447968Y506747D01*
X448372Y506667D01*
X448416Y506599D01*
X448182Y506047D01*
X448170Y506040D01*
X447968Y506000D01*
X447648Y505786D01*
X447423Y505698D01*
X447022Y505891D01*
X446988Y505943D01*
X445136Y507794D01*
X444937Y507927D01*
Y509449D01*
X444071D01*
Y511209D01*
X444937D01*
Y515949D01*
D02*
G37*
G36*
X327870Y512067D02*
X325500D01*
Y510189D01*
X327870D01*
Y512067D01*
D02*
G37*
G36*
X324500D02*
X322130D01*
Y510189D01*
X324500D01*
Y512067D01*
D02*
G37*
G36*
X374398Y513216D02*
X373550Y513047D01*
X372831Y512567D01*
X372351Y511848D01*
X372182Y511000D01*
X372351Y510152D01*
X372831Y509433D01*
X373550Y508953D01*
X374398Y508784D01*
X375246Y508953D01*
X375964Y509433D01*
X376445Y510152D01*
X376613Y511000D01*
X376445Y511848D01*
X375964Y512567D01*
X375246Y513047D01*
X374398Y513216D01*
D02*
G37*
G36*
X355894D02*
X355046Y513047D01*
X354327Y512567D01*
X353847Y511848D01*
X353678Y511000D01*
X353847Y510152D01*
X354327Y509433D01*
X355046Y508953D01*
X355894Y508784D01*
X356742Y508953D01*
X357460Y509433D01*
X357941Y510152D01*
X358109Y511000D01*
X357941Y511848D01*
X357460Y512567D01*
X356742Y513047D01*
X355894Y513216D01*
D02*
G37*
G36*
X484744Y511057D02*
X484165Y510942D01*
X483674Y510614D01*
X483346Y510123D01*
X483230Y509544D01*
X483346Y508965D01*
X483674Y508474D01*
X484165Y508146D01*
X484744Y508031D01*
X485323Y508146D01*
X485814Y508474D01*
X486142Y508965D01*
X486257Y509544D01*
X486142Y510123D01*
X485814Y510614D01*
X485323Y510942D01*
X484744Y511057D01*
D02*
G37*
G36*
X429500Y510513D02*
X428921Y510398D01*
X428430Y510070D01*
X428102Y509579D01*
X427987Y509000D01*
X428102Y508421D01*
X428430Y507930D01*
X428921Y507602D01*
X429500Y507487D01*
X430079Y507602D01*
X430570Y507930D01*
X430898Y508421D01*
X431013Y509000D01*
X430898Y509579D01*
X430570Y510070D01*
X430079Y510398D01*
X429500Y510513D01*
D02*
G37*
G36*
X327870Y509189D02*
X325500D01*
Y507311D01*
X327870D01*
Y509189D01*
D02*
G37*
G36*
X324500D02*
X322130D01*
Y507311D01*
X324500D01*
Y509189D01*
D02*
G37*
G36*
X389154Y510500D02*
X384740D01*
Y506086D01*
X385529Y506190D01*
X386730Y506687D01*
X387761Y507479D01*
X388553Y508510D01*
X389050Y509711D01*
X389154Y510500D01*
D02*
G37*
G36*
X383740D02*
X379326D01*
X379430Y509711D01*
X379928Y508510D01*
X380719Y507479D01*
X381750Y506687D01*
X382951Y506190D01*
X383740Y506086D01*
Y510500D01*
D02*
G37*
G36*
X349784D02*
X345370D01*
Y506086D01*
X346159Y506190D01*
X347360Y506687D01*
X348391Y507479D01*
X349183Y508510D01*
X349680Y509711D01*
X349784Y510500D01*
D02*
G37*
G36*
X344370D02*
X339956D01*
X340060Y509711D01*
X340558Y508510D01*
X341349Y507479D01*
X342380Y506687D01*
X343581Y506190D01*
X344370Y506086D01*
Y510500D01*
D02*
G37*
G36*
X310414D02*
X306000D01*
Y506086D01*
X306789Y506190D01*
X307990Y506687D01*
X309021Y507479D01*
X309812Y508510D01*
X310310Y509711D01*
X310414Y510500D01*
D02*
G37*
G36*
X305000D02*
X300586D01*
X300690Y509711D01*
X301187Y508510D01*
X301979Y507479D01*
X303010Y506687D01*
X304211Y506190D01*
X305000Y506086D01*
Y510500D01*
D02*
G37*
G36*
X271044D02*
X266630D01*
Y506086D01*
X267419Y506190D01*
X268620Y506687D01*
X269651Y507479D01*
X270442Y508510D01*
X270940Y509711D01*
X271044Y510500D01*
D02*
G37*
G36*
X265630D02*
X261216D01*
X261320Y509711D01*
X261818Y508510D01*
X262609Y507479D01*
X263640Y506687D01*
X264841Y506190D01*
X265630Y506086D01*
Y510500D01*
D02*
G37*
G36*
X477500Y508513D02*
X476921Y508398D01*
X476430Y508070D01*
X476102Y507579D01*
X475987Y507000D01*
X476102Y506421D01*
X476430Y505930D01*
X476921Y505602D01*
X477500Y505487D01*
X478079Y505602D01*
X478570Y505930D01*
X478898Y506421D01*
X479013Y507000D01*
X478898Y507579D01*
X478570Y508070D01*
X478079Y508398D01*
X477500Y508513D01*
D02*
G37*
G36*
X394083Y513216D02*
X393235Y513047D01*
X392516Y512567D01*
X392036Y511848D01*
X391867Y511000D01*
X392036Y510152D01*
X392516Y509433D01*
X392535Y509420D01*
X392630Y508937D01*
X392630D01*
X392630Y508937D01*
Y505181D01*
X397370D01*
Y505340D01*
X397870Y505631D01*
X398300Y505546D01*
X398630Y505611D01*
X399130Y505273D01*
Y505181D01*
X403870D01*
Y508937D01*
X399130D01*
Y508845D01*
X398630Y508507D01*
X398300Y508572D01*
X397870Y508487D01*
X397370Y508778D01*
Y508937D01*
X395807D01*
X395650Y509433D01*
X396130Y510152D01*
X396299Y511000D01*
X396130Y511848D01*
X395650Y512567D01*
X394931Y513047D01*
X394083Y513216D01*
D02*
G37*
G36*
X440319Y506579D02*
X438441D01*
Y504209D01*
X440319D01*
Y506579D01*
D02*
G37*
G36*
X437441D02*
X435563D01*
Y504209D01*
X437441D01*
Y506579D01*
D02*
G37*
G36*
X463752Y507013D02*
X463173Y506898D01*
X462682Y506570D01*
X462354Y506079D01*
X462239Y505500D01*
X462354Y504921D01*
X462682Y504430D01*
X463173Y504102D01*
X463752Y503987D01*
X464331Y504102D01*
X464822Y504430D01*
X465150Y504921D01*
X465265Y505500D01*
X465150Y506079D01*
X464822Y506570D01*
X464331Y506898D01*
X463752Y507013D01*
D02*
G37*
G36*
X404370Y504319D02*
X402000D01*
Y502441D01*
X404370D01*
Y504319D01*
D02*
G37*
G36*
X401000D02*
X398630D01*
Y502441D01*
X401000D01*
Y504319D01*
D02*
G37*
G36*
X461102Y505535D02*
X454591D01*
Y502095D01*
X461102D01*
Y505535D01*
D02*
G37*
G36*
X440319Y503640D02*
X438441D01*
Y501270D01*
X440319D01*
Y503640D01*
D02*
G37*
G36*
X437441D02*
X435563D01*
Y501270D01*
X437441D01*
Y503640D01*
D02*
G37*
G36*
X404370Y501441D02*
X402000D01*
Y499563D01*
X404370D01*
Y501441D01*
D02*
G37*
G36*
X401000D02*
X398630D01*
Y499563D01*
X401000D01*
Y501441D01*
D02*
G37*
G36*
X387784Y505428D02*
X386856Y505306D01*
X385993Y504948D01*
X385251Y504379D01*
X384682Y503637D01*
X384324Y502774D01*
X384202Y501847D01*
X384324Y500919D01*
X384682Y500056D01*
X385176Y499412D01*
X385023Y498912D01*
X382019D01*
X380015Y500915D01*
X379687Y501135D01*
X379300Y501212D01*
X355400D01*
X355013Y501135D01*
X354685Y500915D01*
X352726Y498956D01*
X352506Y498628D01*
X352455Y498370D01*
X351563D01*
Y493630D01*
X352429D01*
Y491870D01*
X351563D01*
Y487130D01*
X352429D01*
Y485370D01*
X351563D01*
Y480630D01*
X352429D01*
Y478870D01*
X351563D01*
Y474130D01*
X352429D01*
Y472270D01*
X351563D01*
Y467530D01*
X355319D01*
Y472270D01*
X354452D01*
Y474130D01*
X355319D01*
Y478870D01*
X354452D01*
Y480630D01*
X355319D01*
Y485370D01*
X354452D01*
Y487130D01*
X355319D01*
Y491870D01*
X354452D01*
Y493630D01*
X355319D01*
Y498370D01*
X355319Y498370D01*
X355319D01*
X355457Y498827D01*
X355819Y499188D01*
X378881D01*
X380885Y497185D01*
X381213Y496965D01*
X381600Y496888D01*
X385504D01*
Y495100D01*
X387882D01*
X390260D01*
Y496888D01*
X391122D01*
Y492230D01*
X391988D01*
Y490570D01*
X391122D01*
Y485830D01*
X394878D01*
Y485849D01*
X395340Y486040D01*
X396000Y485380D01*
X395987Y485311D01*
X396102Y484732D01*
X396430Y484241D01*
X396769Y484014D01*
X396785Y483967D01*
Y483505D01*
X396769Y483458D01*
X396430Y483231D01*
X396102Y482740D01*
X395987Y482161D01*
X396000Y482092D01*
X395340Y481432D01*
X394878Y481623D01*
Y482270D01*
X391122D01*
Y477530D01*
X391988D01*
Y475870D01*
X391122D01*
Y471130D01*
X391988D01*
Y468610D01*
X392065Y468223D01*
X392285Y467895D01*
X392630Y467550D01*
Y464732D01*
X397370D01*
Y468488D01*
X394553D01*
X394012Y469029D01*
Y471130D01*
X394878D01*
Y475870D01*
X394012D01*
Y477530D01*
X394878D01*
Y478889D01*
X395239D01*
X395626Y478966D01*
X395954Y479185D01*
X397431Y480662D01*
X397500Y480648D01*
X398079Y480763D01*
X398570Y481091D01*
X398898Y481582D01*
X399013Y482161D01*
X398898Y482740D01*
X398570Y483231D01*
X398231Y483458D01*
X398215Y483505D01*
Y483967D01*
X398231Y484014D01*
X398570Y484241D01*
X398898Y484732D01*
X399013Y485311D01*
X398898Y485890D01*
X398570Y486381D01*
X398079Y486709D01*
X397500Y486824D01*
X397431Y486811D01*
X395326Y488915D01*
X394998Y489135D01*
X394878Y489158D01*
Y490570D01*
X394012D01*
Y492230D01*
X394878D01*
Y496970D01*
X394012D01*
Y499522D01*
X394553Y500063D01*
X397370D01*
Y503819D01*
X392630D01*
Y501001D01*
X392285Y500656D01*
X392065Y500328D01*
X391988Y499941D01*
Y498912D01*
X390544D01*
X390391Y499412D01*
X390885Y500056D01*
X391243Y500919D01*
X391365Y501847D01*
X391243Y502774D01*
X390885Y503637D01*
X390316Y504379D01*
X389574Y504948D01*
X388710Y505306D01*
X387784Y505428D01*
D02*
G37*
G36*
X416500Y504513D02*
X415921Y504398D01*
X415430Y504070D01*
X415102Y503579D01*
X414987Y503000D01*
X415102Y502421D01*
X415430Y501930D01*
X415551Y501849D01*
X415565Y501776D01*
X415785Y501448D01*
X416948Y500285D01*
X417276Y500065D01*
X417663Y499988D01*
X419063D01*
Y498630D01*
X422819D01*
Y503370D01*
X419063D01*
Y502012D01*
X418226D01*
X417973Y502327D01*
X417901Y502437D01*
X418013Y503000D01*
X417898Y503579D01*
X417570Y504070D01*
X417079Y504398D01*
X416500Y504513D01*
D02*
G37*
G36*
X412193Y504062D02*
X411345Y503894D01*
X410626Y503413D01*
X410146Y502694D01*
X409977Y501847D01*
X410146Y500998D01*
X410544Y500402D01*
X410444Y499950D01*
X410383Y499841D01*
X409769Y499431D01*
X409331Y498774D01*
X409276Y498500D01*
X413124D01*
X413069Y498774D01*
X412762Y499234D01*
X412940Y499779D01*
X413041Y499799D01*
X413760Y500280D01*
X414240Y500998D01*
X414409Y501847D01*
X414240Y502694D01*
X413760Y503413D01*
X413041Y503894D01*
X412193Y504062D01*
D02*
G37*
G36*
X440319Y500270D02*
X438441D01*
Y497900D01*
X440319D01*
Y500270D01*
D02*
G37*
G36*
X437441D02*
X435563D01*
Y497900D01*
X437441D01*
Y500270D01*
D02*
G37*
G36*
X427937Y503370D02*
X424181D01*
Y498630D01*
X427937D01*
Y498897D01*
X428399Y499088D01*
X428918Y498569D01*
X428904Y498500D01*
X429019Y497921D01*
X429347Y497430D01*
X429838Y497102D01*
X430417Y496987D01*
X430997Y497102D01*
X431487Y497430D01*
X431815Y497921D01*
X431931Y498500D01*
X431815Y499079D01*
X431487Y499570D01*
X430997Y499898D01*
X430417Y500013D01*
X430348Y500000D01*
X428633Y501715D01*
X428304Y501935D01*
X427937Y502008D01*
Y503370D01*
D02*
G37*
G36*
X377279Y498324D02*
Y496900D01*
X378702D01*
X378648Y497174D01*
X378209Y497831D01*
X377553Y498269D01*
X377279Y498324D01*
D02*
G37*
G36*
X376279D02*
X376004Y498269D01*
X375348Y497831D01*
X374909Y497174D01*
X374855Y496900D01*
X376279D01*
Y498324D01*
D02*
G37*
G36*
X496000Y499226D02*
X495421Y499111D01*
X494930Y498783D01*
X494602Y498292D01*
X494487Y497713D01*
X494602Y497133D01*
X494930Y496642D01*
X495421Y496314D01*
X496000Y496199D01*
X496579Y496314D01*
X497070Y496642D01*
X497398Y497133D01*
X497513Y497713D01*
X497398Y498292D01*
X497070Y498783D01*
X496579Y499111D01*
X496000Y499226D01*
D02*
G37*
G36*
X413124Y497500D02*
X411700D01*
Y496076D01*
X411974Y496131D01*
X412631Y496569D01*
X413069Y497226D01*
X413124Y497500D01*
D02*
G37*
G36*
X410700D02*
X409276D01*
X409331Y497226D01*
X409769Y496569D01*
X410426Y496131D01*
X410700Y496076D01*
Y497500D01*
D02*
G37*
G36*
X263370Y497937D02*
X261000D01*
Y496059D01*
X263370D01*
Y497937D01*
D02*
G37*
G36*
X327370Y506449D02*
X322630D01*
Y502693D01*
X324063D01*
Y498989D01*
X323911Y498857D01*
X323444Y498660D01*
X323018Y498945D01*
X322516Y499045D01*
X322013Y498945D01*
X321588Y498660D01*
X321537Y498585D01*
X320936D01*
X320885Y498660D01*
X320459Y498945D01*
X319957Y499045D01*
X319454Y498945D01*
X319028Y498660D01*
X318978Y498585D01*
X318376D01*
X318326Y498660D01*
X317900Y498945D01*
X317398Y499045D01*
X316895Y498945D01*
X316470Y498660D01*
X316419Y498585D01*
X315817D01*
X315767Y498660D01*
X315341Y498945D01*
X314839Y499045D01*
X314336Y498945D01*
X314256Y498891D01*
X313582Y499000D01*
X313568Y499021D01*
X312977Y499416D01*
X312779Y499455D01*
Y495272D01*
Y491088D01*
X312977Y491127D01*
X313327Y491361D01*
X313827Y491094D01*
Y489609D01*
X313769Y489570D01*
X313440Y489079D01*
X313325Y488500D01*
X313440Y487921D01*
X313769Y487430D01*
X314245Y487112D01*
X314254Y487073D01*
X314162Y486612D01*
X313700D01*
X313313Y486535D01*
X312985Y486315D01*
X310785Y484115D01*
X310565Y483787D01*
X310488Y483400D01*
Y480509D01*
X310430Y480470D01*
X310102Y479979D01*
X309987Y479400D01*
X310102Y478821D01*
X310430Y478330D01*
X310921Y478002D01*
X311500Y477887D01*
X312079Y478002D01*
X312570Y478330D01*
X312898Y478821D01*
X313013Y479400D01*
X312898Y479979D01*
X312570Y480470D01*
X312512Y480509D01*
Y482981D01*
X312923Y483392D01*
X313384Y483146D01*
X313325Y482853D01*
X313440Y482274D01*
X313769Y481783D01*
X314260Y481455D01*
X314839Y481340D01*
X315418Y481455D01*
X315909Y481783D01*
X315948Y481841D01*
X322035D01*
X322422Y481918D01*
X322751Y482137D01*
X328349Y487736D01*
X328568Y488064D01*
X328645Y488451D01*
Y492008D01*
X328847Y492309D01*
X328946Y492811D01*
Y497732D01*
X328847Y498235D01*
X328562Y498660D01*
X328136Y498945D01*
X327918Y498988D01*
X327967Y499488D01*
X330081D01*
X331488Y498081D01*
Y497109D01*
X331430Y497070D01*
X331102Y496579D01*
X330987Y496000D01*
X331102Y495421D01*
X331430Y494930D01*
X331921Y494602D01*
X332500Y494487D01*
X333079Y494602D01*
X333570Y494930D01*
X333898Y495421D01*
X334013Y496000D01*
X333898Y496579D01*
X333570Y497070D01*
X333512Y497109D01*
Y498500D01*
X333435Y498887D01*
X333215Y499215D01*
X331215Y501215D01*
X330887Y501435D01*
X330500Y501512D01*
X326086D01*
Y502693D01*
X327370D01*
Y506449D01*
D02*
G37*
G36*
X378702Y495900D02*
X377279D01*
Y494476D01*
X377553Y494531D01*
X378209Y494969D01*
X378648Y495626D01*
X378702Y495900D01*
D02*
G37*
G36*
X376279D02*
X374855D01*
X374909Y495626D01*
X375348Y494969D01*
X376004Y494531D01*
X376279Y494476D01*
Y495900D01*
D02*
G37*
G36*
X440319Y496716D02*
X438441D01*
Y494346D01*
X440319D01*
Y496716D01*
D02*
G37*
G36*
X437441D02*
X435563D01*
Y494346D01*
X437441D01*
Y496716D01*
D02*
G37*
G36*
X263370Y495059D02*
X261000D01*
Y493181D01*
X263370D01*
Y495059D01*
D02*
G37*
G36*
X480772Y493534D02*
X480497Y493479D01*
X479841Y493041D01*
X479402Y492384D01*
X479361Y492177D01*
X478851D01*
X478810Y492384D01*
X478371Y493041D01*
X477715Y493479D01*
X477441Y493534D01*
Y491610D01*
X476441D01*
Y493534D01*
X476167Y493479D01*
X475510Y493041D01*
X475072Y492384D01*
X475031Y492177D01*
X474521D01*
X474479Y492384D01*
X474041Y493041D01*
X473385Y493479D01*
X473110Y493534D01*
Y491610D01*
X472110D01*
Y493534D01*
X471836Y493479D01*
X471180Y493041D01*
X470741Y492384D01*
X470700Y492177D01*
X470190D01*
X470149Y492384D01*
X469710Y493041D01*
X469054Y493479D01*
X468780Y493534D01*
Y491610D01*
X467779D01*
Y493534D01*
X467505Y493479D01*
X466849Y493041D01*
X466410Y492384D01*
X466369Y492177D01*
X465859D01*
X465818Y492384D01*
X465379Y493041D01*
X464723Y493479D01*
X464449Y493534D01*
Y491610D01*
X463949D01*
Y491110D01*
X462025D01*
X462080Y490836D01*
X462518Y490180D01*
X463175Y489741D01*
X463382Y489700D01*
Y489190D01*
X463175Y489149D01*
X462518Y488710D01*
X462080Y488054D01*
X462025Y487780D01*
X463949D01*
Y486779D01*
X462025D01*
X462080Y486505D01*
X462518Y485849D01*
X463175Y485410D01*
X463382Y485369D01*
Y484859D01*
X463175Y484818D01*
X462518Y484379D01*
X462080Y483723D01*
X462025Y483449D01*
X463949D01*
Y482449D01*
X462025D01*
X462080Y482175D01*
X462518Y481518D01*
X463175Y481080D01*
X463382Y481038D01*
Y480529D01*
X463175Y480487D01*
X462518Y480049D01*
X462080Y479392D01*
X462025Y479118D01*
X463949D01*
Y478118D01*
X462025D01*
X462080Y477844D01*
X462518Y477188D01*
X463175Y476749D01*
X463382Y476708D01*
Y476198D01*
X463175Y476157D01*
X462518Y475718D01*
X462080Y475062D01*
X462025Y474787D01*
X463949D01*
Y474287D01*
X464449D01*
Y472364D01*
X464723Y472418D01*
X465379Y472857D01*
X465818Y473513D01*
X465859Y473721D01*
X466369D01*
X466410Y473513D01*
X466849Y472857D01*
X467505Y472418D01*
X467779Y472364D01*
Y474287D01*
X468780D01*
Y472364D01*
X469054Y472418D01*
X469710Y472857D01*
X470149Y473513D01*
X470190Y473721D01*
X470700D01*
X470741Y473513D01*
X471180Y472857D01*
X471836Y472418D01*
X472110Y472364D01*
Y474287D01*
X473110D01*
Y472364D01*
X473385Y472418D01*
X474041Y472857D01*
X474479Y473513D01*
X474521Y473721D01*
X475031D01*
X475072Y473513D01*
X475510Y472857D01*
X476167Y472418D01*
X476441Y472364D01*
Y474287D01*
X477441D01*
Y472364D01*
X477715Y472418D01*
X478371Y472857D01*
X478810Y473513D01*
X478851Y473721D01*
X479361D01*
X479402Y473513D01*
X479841Y472857D01*
X480497Y472418D01*
X480772Y472364D01*
Y474287D01*
X481272D01*
Y474787D01*
X483195D01*
X483141Y475062D01*
X482702Y475718D01*
X482046Y476157D01*
X481838Y476198D01*
Y476708D01*
X482046Y476749D01*
X482702Y477188D01*
X483141Y477844D01*
X483195Y478118D01*
X481272D01*
Y479118D01*
X483195D01*
X483141Y479392D01*
X482702Y480049D01*
X482046Y480487D01*
X481838Y480529D01*
Y481038D01*
X482046Y481080D01*
X482702Y481518D01*
X483141Y482175D01*
X483195Y482449D01*
X481272D01*
Y483449D01*
X483195D01*
X483141Y483723D01*
X482702Y484379D01*
X482046Y484818D01*
X481838Y484859D01*
Y485369D01*
X482046Y485410D01*
X482702Y485849D01*
X483141Y486505D01*
X483195Y486779D01*
X481272D01*
Y487780D01*
X483195D01*
X483141Y488054D01*
X482702Y488710D01*
X482046Y489149D01*
X481838Y489190D01*
Y489700D01*
X482046Y489741D01*
X482702Y490180D01*
X483141Y490836D01*
X483195Y491110D01*
X481272D01*
Y491610D01*
X480772D01*
Y493534D01*
D02*
G37*
G36*
X481772D02*
Y492110D01*
X483195D01*
X483141Y492384D01*
X482702Y493041D01*
X482046Y493479D01*
X481772Y493534D01*
D02*
G37*
G36*
X463449D02*
X463175Y493479D01*
X462518Y493041D01*
X462080Y492384D01*
X462025Y492110D01*
X463449D01*
Y493534D01*
D02*
G37*
G36*
X390260Y494100D02*
X388382D01*
Y491730D01*
X390260D01*
Y494100D01*
D02*
G37*
G36*
X387382D02*
X385504D01*
Y491730D01*
X387382D01*
Y494100D01*
D02*
G37*
G36*
X360437Y498370D02*
X356681D01*
Y493630D01*
X360437D01*
Y494988D01*
X362266D01*
X364000Y493254D01*
X363987Y493185D01*
X364102Y492606D01*
X364430Y492115D01*
X364921Y491787D01*
X365500Y491672D01*
X366079Y491787D01*
X366570Y492115D01*
X366898Y492606D01*
X367013Y493185D01*
X366898Y493764D01*
X366570Y494255D01*
X366079Y494583D01*
X365500Y494698D01*
X365431Y494685D01*
X363400Y496715D01*
X363072Y496935D01*
X362685Y497012D01*
X360437D01*
Y498370D01*
D02*
G37*
G36*
X440319Y493346D02*
X438441D01*
Y490976D01*
X440319D01*
Y493346D01*
D02*
G37*
G36*
X437441D02*
X435563D01*
Y490976D01*
X437441D01*
Y493346D01*
D02*
G37*
G36*
X377233Y492024D02*
Y490600D01*
X378656D01*
X378602Y490874D01*
X378163Y491531D01*
X377507Y491969D01*
X377233Y492024D01*
D02*
G37*
G36*
X376233D02*
X375958Y491969D01*
X375302Y491531D01*
X374864Y490874D01*
X374809Y490600D01*
X376233D01*
Y492024D01*
D02*
G37*
G36*
X390260Y491070D02*
X388382D01*
Y488700D01*
X390260D01*
Y491070D01*
D02*
G37*
G36*
X387382D02*
X385504D01*
Y488700D01*
X387382D01*
Y491070D01*
D02*
G37*
G36*
X378656Y489600D02*
X377233D01*
Y488176D01*
X377507Y488231D01*
X378163Y488669D01*
X378602Y489326D01*
X378656Y489600D01*
D02*
G37*
G36*
X376233D02*
X374809D01*
X374864Y489326D01*
X375302Y488669D01*
X375958Y488231D01*
X376233Y488176D01*
Y489600D01*
D02*
G37*
G36*
X437441Y489793D02*
X435563D01*
Y488168D01*
X435152Y487894D01*
X435063Y487907D01*
X434500Y488019D01*
X433921Y487903D01*
X433430Y487575D01*
X433102Y487084D01*
X432987Y486505D01*
X433102Y485926D01*
X433430Y485435D01*
X433921Y485107D01*
X434500Y484992D01*
X435063Y485104D01*
X435152Y485116D01*
X435563Y484842D01*
Y484053D01*
X437441D01*
Y486923D01*
Y489793D01*
D02*
G37*
G36*
X440319D02*
X438441D01*
Y487423D01*
X440319D01*
Y489793D01*
D02*
G37*
G36*
X344870Y490854D02*
X344022Y490685D01*
X343303Y490205D01*
X342823Y489486D01*
X342654Y488638D01*
X342823Y487790D01*
X343303Y487071D01*
X344022Y486591D01*
X344870Y486422D01*
X345718Y486591D01*
X346437Y487071D01*
X346917Y487790D01*
X347086Y488638D01*
X346917Y489486D01*
X346437Y490205D01*
X345718Y490685D01*
X344870Y490854D01*
D02*
G37*
G36*
X423000Y489013D02*
X422421Y488898D01*
X421930Y488570D01*
X421602Y488079D01*
X421487Y487500D01*
X421500Y487431D01*
X420285Y486215D01*
X420065Y485887D01*
X419988Y485500D01*
Y484531D01*
X419122D01*
Y484065D01*
X418622Y483798D01*
X418274Y484030D01*
X418000Y484085D01*
Y482161D01*
Y480238D01*
X418274Y480292D01*
X418622Y480525D01*
X419122Y480257D01*
Y479791D01*
X422878D01*
Y484531D01*
X422012D01*
Y485081D01*
X422931Y486000D01*
X423000Y485987D01*
X423579Y486102D01*
X424070Y486430D01*
X424398Y486921D01*
X424513Y487500D01*
X424398Y488079D01*
X424070Y488570D01*
X423579Y488898D01*
X423000Y489013D01*
D02*
G37*
G36*
X390260Y487700D02*
X388382D01*
Y485330D01*
X390260D01*
Y487700D01*
D02*
G37*
G36*
X387382D02*
X385504D01*
Y485330D01*
X387382D01*
Y487700D01*
D02*
G37*
G36*
X440319Y486423D02*
X438441D01*
Y484053D01*
X440319D01*
Y486423D01*
D02*
G37*
G36*
X360437Y491870D02*
X356681D01*
Y487130D01*
X360437D01*
Y488488D01*
X362504D01*
X364000Y486992D01*
X363987Y486923D01*
X364102Y486344D01*
X364430Y485853D01*
X364798Y485607D01*
X364828Y485489D01*
Y485170D01*
X364798Y485052D01*
X364430Y484806D01*
X364102Y484315D01*
X364041Y484012D01*
X360437D01*
Y485370D01*
X356681D01*
Y480630D01*
X360437D01*
Y481988D01*
X364764D01*
X365151Y482065D01*
X365413Y482240D01*
X365500Y482223D01*
X366079Y482338D01*
X366570Y482666D01*
X366898Y483157D01*
X367013Y483736D01*
X366898Y484315D01*
X366570Y484806D01*
X366202Y485052D01*
X366172Y485170D01*
Y485489D01*
X366202Y485607D01*
X366570Y485853D01*
X366898Y486344D01*
X367013Y486923D01*
X366898Y487502D01*
X366570Y487993D01*
X366079Y488321D01*
X365500Y488437D01*
X365431Y488423D01*
X363638Y490215D01*
X363310Y490435D01*
X362923Y490512D01*
X360437D01*
Y491870D01*
D02*
G37*
G36*
X417000Y484085D02*
X416726Y484030D01*
X416069Y483592D01*
X415631Y482936D01*
X415576Y482661D01*
X417000D01*
Y484085D01*
D02*
G37*
G36*
X412193Y485165D02*
X411345Y484996D01*
X410626Y484516D01*
X410146Y483797D01*
X409977Y482949D01*
X410146Y482101D01*
X410626Y481382D01*
X411345Y480902D01*
X412193Y480733D01*
X413041Y480902D01*
X413760Y481382D01*
X414240Y482101D01*
X414409Y482949D01*
X414240Y483797D01*
X413760Y484516D01*
X413041Y484996D01*
X412193Y485165D01*
D02*
G37*
G36*
X440319Y482870D02*
X438441D01*
Y480500D01*
X440319D01*
Y482870D01*
D02*
G37*
G36*
X437441D02*
X435563D01*
Y480500D01*
X437441D01*
Y482870D01*
D02*
G37*
G36*
X495831Y483478D02*
X495252Y483363D01*
X494761Y483035D01*
X494433Y482544D01*
X494317Y481965D01*
X494433Y481385D01*
X494761Y480895D01*
X495252Y480566D01*
X495831Y480451D01*
X496410Y480566D01*
X496901Y480895D01*
X497229Y481385D01*
X497344Y481965D01*
X497229Y482544D01*
X496901Y483035D01*
X496410Y483363D01*
X495831Y483478D01*
D02*
G37*
G36*
X390260Y482770D02*
X388382D01*
Y480400D01*
X390260D01*
Y482770D01*
D02*
G37*
G36*
X387382D02*
X385504D01*
Y480400D01*
X387382D01*
Y482770D01*
D02*
G37*
G36*
X417000Y481661D02*
X415576D01*
X415631Y481387D01*
X416069Y480731D01*
X416726Y480292D01*
X417000Y480238D01*
Y481661D01*
D02*
G37*
G36*
X293000Y483013D02*
X292421Y482898D01*
X291930Y482570D01*
X291602Y482079D01*
X291487Y481500D01*
X291602Y480921D01*
X291930Y480430D01*
X292421Y480102D01*
X293000Y479987D01*
X293579Y480102D01*
X294070Y480430D01*
X294398Y480921D01*
X294513Y481500D01*
X294398Y482079D01*
X294070Y482570D01*
X293579Y482898D01*
X293000Y483013D01*
D02*
G37*
G36*
X378163Y483947D02*
X377584Y483832D01*
X377093Y483504D01*
X376765Y483013D01*
X376650Y482434D01*
X376765Y481855D01*
X377093Y481364D01*
X377152Y481324D01*
Y480674D01*
X373990Y477512D01*
X360437D01*
Y478870D01*
X356681D01*
Y474130D01*
X360437D01*
Y475488D01*
X374409D01*
X374796Y475565D01*
X375124Y475785D01*
X378878Y479539D01*
X379098Y479868D01*
X379175Y480255D01*
Y481324D01*
X379233Y481364D01*
X379561Y481855D01*
X379677Y482434D01*
X379561Y483013D01*
X379233Y483504D01*
X378742Y483832D01*
X378163Y483947D01*
D02*
G37*
G36*
X427996Y484531D02*
X424240D01*
Y479791D01*
X427996D01*
Y481150D01*
X429469D01*
X429509Y481091D01*
X429857Y480859D01*
X429878Y480793D01*
Y480369D01*
X429857Y480303D01*
X429509Y480070D01*
X429181Y479579D01*
X429065Y479000D01*
X429181Y478421D01*
X429509Y477930D01*
X430000Y477602D01*
X430579Y477487D01*
X431158Y477602D01*
X431649Y477930D01*
X431977Y478421D01*
X432092Y479000D01*
X431977Y479579D01*
X431649Y480070D01*
X431300Y480303D01*
X431280Y480369D01*
Y480793D01*
X431300Y480859D01*
X431649Y481091D01*
X431977Y481582D01*
X432092Y482161D01*
X431977Y482740D01*
X431649Y483231D01*
X431158Y483560D01*
X430579Y483675D01*
X430000Y483560D01*
X429509Y483231D01*
X429469Y483173D01*
X427996D01*
Y484531D01*
D02*
G37*
G36*
X440319Y479500D02*
X438441D01*
Y477130D01*
X440319D01*
Y479500D01*
D02*
G37*
G36*
X437441D02*
X435563D01*
Y477130D01*
X437441D01*
Y479500D01*
D02*
G37*
G36*
X390260Y479400D02*
X388382D01*
Y477030D01*
X390260D01*
Y479400D01*
D02*
G37*
G36*
X387382D02*
X385504D01*
Y477030D01*
X387382D01*
Y479400D01*
D02*
G37*
G36*
X265736Y479436D02*
X264888Y479268D01*
X264169Y478787D01*
X263689Y478068D01*
X263520Y477220D01*
X263689Y476372D01*
X264169Y475654D01*
X264888Y475173D01*
X265736Y475005D01*
X266584Y475173D01*
X267303Y475654D01*
X267783Y476372D01*
X267952Y477220D01*
X267783Y478068D01*
X267303Y478787D01*
X266584Y479268D01*
X265736Y479436D01*
D02*
G37*
G36*
X390260Y476370D02*
X388382D01*
Y474000D01*
X390260D01*
Y476370D01*
D02*
G37*
G36*
X387382D02*
X385504D01*
Y474000D01*
X387382D01*
Y476370D01*
D02*
G37*
G36*
X496000Y475604D02*
X495421Y475489D01*
X494930Y475161D01*
X494602Y474670D01*
X494487Y474090D01*
X494602Y473511D01*
X494930Y473021D01*
X495421Y472692D01*
X496000Y472577D01*
X496579Y472692D01*
X497070Y473021D01*
X497398Y473511D01*
X497513Y474090D01*
X497398Y474670D01*
X497070Y475161D01*
X496579Y475489D01*
X496000Y475604D01*
D02*
G37*
G36*
X440319Y474870D02*
X438441D01*
Y472500D01*
X440319D01*
Y474870D01*
D02*
G37*
G36*
X437441D02*
X435563D01*
Y472500D01*
X437441D01*
Y474870D01*
D02*
G37*
G36*
X483195Y473787D02*
X481772D01*
Y472364D01*
X482046Y472418D01*
X482702Y472857D01*
X483141Y473513D01*
X483195Y473787D01*
D02*
G37*
G36*
X463449D02*
X462025D01*
X462080Y473513D01*
X462518Y472857D01*
X463175Y472418D01*
X463449Y472364D01*
Y473787D01*
D02*
G37*
G36*
X378200Y474613D02*
X377621Y474498D01*
X377130Y474170D01*
X376802Y473679D01*
X376687Y473100D01*
X376802Y472521D01*
X377130Y472030D01*
X377621Y471702D01*
X378200Y471587D01*
X378779Y471702D01*
X379270Y472030D01*
X379598Y472521D01*
X379713Y473100D01*
X379598Y473679D01*
X379270Y474170D01*
X378779Y474498D01*
X378200Y474613D01*
D02*
G37*
G36*
X317500Y478734D02*
X316921Y478619D01*
X316430Y478291D01*
X316102Y477800D01*
X315987Y477220D01*
X316102Y476641D01*
X316430Y476150D01*
X316921Y475822D01*
X317500Y475707D01*
X317569Y475721D01*
X318945Y474345D01*
Y470906D01*
X318445Y470639D01*
X318095Y470873D01*
X317898Y470912D01*
Y466728D01*
Y462545D01*
X318095Y462584D01*
X318686Y462979D01*
X318700Y463000D01*
X319374Y463109D01*
X319454Y463055D01*
X319957Y462955D01*
X320459Y463055D01*
X320885Y463340D01*
X321352Y463143D01*
X321504Y463011D01*
Y462404D01*
X321446Y462365D01*
X321118Y461874D01*
X321002Y461295D01*
X321118Y460716D01*
X321446Y460225D01*
X321937Y459897D01*
X322516Y459782D01*
X323003Y459879D01*
X323149Y459398D01*
X322695Y459210D01*
X321664Y458419D01*
X320873Y457387D01*
X320375Y456186D01*
X320271Y455398D01*
X324685D01*
Y459811D01*
X323896Y459708D01*
X323409Y459506D01*
X323172Y459949D01*
X323586Y460225D01*
X323914Y460716D01*
X324029Y461295D01*
X323914Y461874D01*
X323586Y462365D01*
X323527Y462404D01*
Y463011D01*
X323679Y463143D01*
X324147Y463340D01*
X324572Y463055D01*
X325075Y462955D01*
X325577Y463055D01*
X326003Y463340D01*
X326054Y463415D01*
X326655D01*
X326706Y463340D01*
X327132Y463055D01*
X327634Y462955D01*
X328136Y463055D01*
X328562Y463340D01*
X328847Y463765D01*
X328946Y464268D01*
Y469189D01*
X328847Y469691D01*
X328562Y470117D01*
X328136Y470402D01*
X327634Y470502D01*
X327132Y470402D01*
X326706Y470117D01*
X326223Y470239D01*
X326113Y470352D01*
X326078Y470541D01*
X326398Y471021D01*
X326513Y471600D01*
X326398Y472179D01*
X326070Y472670D01*
X325579Y472998D01*
X325000Y473113D01*
X324421Y472998D01*
X323930Y472670D01*
X323602Y472179D01*
X323487Y471600D01*
X323602Y471021D01*
X323832Y470677D01*
X323783Y470446D01*
X323777Y470441D01*
X323298Y470256D01*
X323224Y470264D01*
X323018Y470402D01*
X322516Y470502D01*
X322013Y470402D01*
X321588Y470117D01*
X321120Y470314D01*
X320968Y470445D01*
Y474764D01*
X320891Y475151D01*
X320672Y475479D01*
X319000Y477151D01*
X319013Y477220D01*
X318898Y477800D01*
X318570Y478291D01*
X318079Y478619D01*
X317500Y478734D01*
D02*
G37*
G36*
X390260Y473000D02*
X388382D01*
Y470630D01*
X390260D01*
Y473000D01*
D02*
G37*
G36*
X387382D02*
X385504D01*
Y470630D01*
X387382D01*
Y473000D01*
D02*
G37*
G36*
X422819Y471870D02*
X419063D01*
Y470512D01*
X417609D01*
X417570Y470570D01*
X417079Y470898D01*
X416500Y471013D01*
X415921Y470898D01*
X415430Y470570D01*
X415102Y470079D01*
X414987Y469500D01*
X415102Y468921D01*
X415430Y468430D01*
X415921Y468102D01*
X416500Y467987D01*
X417079Y468102D01*
X417570Y468430D01*
X417609Y468488D01*
X419063D01*
Y467130D01*
X422819D01*
Y471870D01*
D02*
G37*
G36*
X296425Y470912D02*
X296228Y470873D01*
X295637Y470478D01*
X295623Y470457D01*
X294949Y470348D01*
X294868Y470402D01*
X294366Y470502D01*
X293864Y470402D01*
X293438Y470117D01*
X293153Y469691D01*
X293054Y469189D01*
Y464268D01*
X293153Y463765D01*
X293286Y463567D01*
X293296Y463070D01*
X292968Y462579D01*
X292853Y462000D01*
X292965Y461437D01*
X292977Y461347D01*
X292703Y460937D01*
X291996D01*
Y457181D01*
X296736D01*
Y460937D01*
X296029D01*
X295755Y461347D01*
X295767Y461437D01*
X295880Y462000D01*
X295830Y462248D01*
X296073Y462453D01*
X296275Y462575D01*
X296425Y462545D01*
Y466728D01*
Y470912D01*
D02*
G37*
G36*
X302043Y475840D02*
X301464Y475725D01*
X300973Y475397D01*
X300645Y474906D01*
X300530Y474327D01*
X300645Y473748D01*
X300973Y473257D01*
X301032Y473218D01*
Y470445D01*
X300880Y470314D01*
X300412Y470117D01*
X299987Y470402D01*
X299484Y470502D01*
X298982Y470402D01*
X298902Y470348D01*
X298228Y470457D01*
X298214Y470478D01*
X297623Y470873D01*
X297425Y470912D01*
Y466728D01*
Y462545D01*
X297623Y462584D01*
X297973Y462818D01*
X298432Y462572D01*
X298443Y462089D01*
X298414Y462070D01*
X298086Y461579D01*
X297971Y461000D01*
X298086Y460421D01*
X298414Y459930D01*
X298905Y459602D01*
X299484Y459487D01*
X300063Y459602D01*
X300554Y459930D01*
X300882Y460421D01*
X300998Y461000D01*
X300882Y461579D01*
X300554Y462070D01*
X300496Y462109D01*
Y463011D01*
X300648Y463143D01*
X301115Y463340D01*
X301541Y463055D01*
X302043Y462955D01*
X302546Y463055D01*
X302972Y463340D01*
X303439Y463143D01*
X303574Y463026D01*
X303587Y462902D01*
X303300Y462513D01*
X302721Y462398D01*
X302230Y462070D01*
X301902Y461579D01*
X301787Y461000D01*
X301902Y460421D01*
X302230Y459930D01*
X302721Y459602D01*
X303300Y459487D01*
X303879Y459602D01*
X304291Y459877D01*
X304592Y459788D01*
X304791Y459660D01*
Y457181D01*
X309531D01*
Y460937D01*
X308824D01*
X308551Y461347D01*
X308563Y461437D01*
X308675Y462000D01*
X308559Y462579D01*
X308315Y462945D01*
X308315Y462960D01*
X308366Y463078D01*
X308491Y463155D01*
X308880Y463281D01*
X309218Y463055D01*
X309720Y462955D01*
X310223Y463055D01*
X310649Y463340D01*
X310699Y463415D01*
X311301D01*
X311351Y463340D01*
X311777Y463055D01*
X312280Y462955D01*
X312782Y463055D01*
X313208Y463340D01*
X313675Y463143D01*
X313827Y463011D01*
Y460937D01*
X312469D01*
Y457181D01*
X317209D01*
Y460937D01*
X315850D01*
Y462551D01*
X316350Y462818D01*
X316700Y462584D01*
X316898Y462545D01*
Y466728D01*
Y470912D01*
X316700Y470873D01*
X316109Y470478D01*
X316095Y470457D01*
X315421Y470348D01*
X315341Y470402D01*
X314839Y470502D01*
X314336Y470402D01*
X313910Y470117D01*
X313860Y470041D01*
X313258D01*
X313208Y470117D01*
X312782Y470402D01*
X312280Y470502D01*
X311777Y470402D01*
X311351Y470117D01*
X311301Y470041D01*
X310699D01*
X310649Y470117D01*
X310223Y470402D01*
X309720Y470502D01*
X309218Y470402D01*
X308792Y470117D01*
X308742Y470041D01*
X308140D01*
X308090Y470117D01*
X307664Y470402D01*
X307161Y470502D01*
X306659Y470402D01*
X306233Y470117D01*
X306183Y470041D01*
X305581D01*
X305531Y470117D01*
X305105Y470402D01*
X304602Y470502D01*
X304100Y470402D01*
X303674Y470117D01*
X303207Y470314D01*
X303055Y470445D01*
Y473218D01*
X303113Y473257D01*
X303441Y473748D01*
X303557Y474327D01*
X303441Y474906D01*
X303113Y475397D01*
X302622Y475725D01*
X302043Y475840D01*
D02*
G37*
G36*
X410180Y471424D02*
Y470000D01*
X411604D01*
X411549Y470274D01*
X411111Y470931D01*
X410455Y471369D01*
X410180Y471424D01*
D02*
G37*
G36*
X409180D02*
X408906Y471369D01*
X408250Y470931D01*
X407811Y470274D01*
X407757Y470000D01*
X409180D01*
Y471424D01*
D02*
G37*
G36*
X237441Y471370D02*
X235563D01*
Y469000D01*
X237441D01*
Y471370D01*
D02*
G37*
G36*
X377369Y470024D02*
Y468600D01*
X378793D01*
X378739Y468874D01*
X378300Y469531D01*
X377644Y469969D01*
X377369Y470024D01*
D02*
G37*
G36*
X376369D02*
X376095Y469969D01*
X375439Y469531D01*
X375000Y468874D01*
X374946Y468600D01*
X376369D01*
Y470024D01*
D02*
G37*
G36*
X360437Y472270D02*
X356681D01*
Y467530D01*
X360437D01*
Y468888D01*
X361991D01*
X362030Y468830D01*
X362521Y468502D01*
X363100Y468387D01*
X363679Y468502D01*
X364170Y468830D01*
X364498Y469321D01*
X364613Y469900D01*
X364498Y470479D01*
X364170Y470970D01*
X363679Y471298D01*
X363100Y471413D01*
X362521Y471298D01*
X362030Y470970D01*
X361991Y470912D01*
X360437D01*
Y472270D01*
D02*
G37*
G36*
X411604Y469000D02*
X410180D01*
Y467576D01*
X410455Y467631D01*
X411111Y468069D01*
X411549Y468726D01*
X411604Y469000D01*
D02*
G37*
G36*
X409180D02*
X407757D01*
X407811Y468726D01*
X408250Y468069D01*
X408906Y467631D01*
X409180Y467576D01*
Y469000D01*
D02*
G37*
G36*
X502500Y470561D02*
X501921Y470445D01*
X501430Y470117D01*
X501102Y469626D01*
X500987Y469047D01*
X501102Y468468D01*
X501430Y467977D01*
X501921Y467649D01*
X502500Y467534D01*
X503079Y467649D01*
X503570Y467977D01*
X503898Y468468D01*
X504013Y469047D01*
X503898Y469626D01*
X503570Y470117D01*
X503079Y470445D01*
X502500Y470561D01*
D02*
G37*
G36*
X477500Y470413D02*
X476921Y470298D01*
X476430Y469970D01*
X476102Y469479D01*
X475987Y468900D01*
X476102Y468321D01*
X476430Y467830D01*
X476921Y467502D01*
X477500Y467387D01*
X478079Y467502D01*
X478570Y467830D01*
X478898Y468321D01*
X479013Y468900D01*
X478898Y469479D01*
X478570Y469970D01*
X478079Y470298D01*
X477500Y470413D01*
D02*
G37*
G36*
X404370Y468988D02*
X402000D01*
Y467110D01*
X404370D01*
Y468988D01*
D02*
G37*
G36*
X401000D02*
X398630D01*
Y467110D01*
X401000D01*
Y468988D01*
D02*
G37*
G36*
X378793Y467600D02*
X377369D01*
Y466176D01*
X377644Y466231D01*
X378300Y466669D01*
X378739Y467326D01*
X378793Y467600D01*
D02*
G37*
G36*
X376369D02*
X374946D01*
X375000Y467326D01*
X375439Y466669D01*
X376095Y466231D01*
X376369Y466176D01*
Y467600D01*
D02*
G37*
G36*
X237441Y468000D02*
X235563D01*
Y465630D01*
X237441D01*
Y468000D01*
D02*
G37*
G36*
X429500Y465954D02*
X428921Y465839D01*
X428430Y465511D01*
X427937Y465673D01*
Y465870D01*
X424181D01*
Y461130D01*
X426999D01*
X428000Y460128D01*
X427987Y460059D01*
X428102Y459480D01*
X428430Y458989D01*
X428921Y458661D01*
X429500Y458546D01*
X430079Y458661D01*
X430570Y458989D01*
X430898Y459480D01*
X431013Y460059D01*
X430898Y460638D01*
X430570Y461129D01*
X430079Y461457D01*
X429500Y461572D01*
X429431Y461559D01*
X428216Y462774D01*
X428244Y462894D01*
X428811Y463116D01*
X428921Y463043D01*
X429500Y462928D01*
X430079Y463043D01*
X430570Y463371D01*
X430898Y463862D01*
X431013Y464441D01*
X430898Y465020D01*
X430570Y465511D01*
X430079Y465839D01*
X429500Y465954D01*
D02*
G37*
G36*
X496000Y468513D02*
X495421Y468398D01*
X494930Y468070D01*
X494602Y467579D01*
X494487Y467000D01*
X494602Y466421D01*
X494930Y465930D01*
X495421Y465602D01*
X496000Y465487D01*
X496579Y465602D01*
X497070Y465930D01*
X497398Y466421D01*
X497513Y467000D01*
X497398Y467579D01*
X497070Y468070D01*
X496579Y468398D01*
X496000Y468513D01*
D02*
G37*
G36*
X344870Y469594D02*
X344022Y469425D01*
X343303Y468945D01*
X342823Y468226D01*
X342654Y467378D01*
X342823Y466530D01*
X343303Y465811D01*
X344022Y465331D01*
X344870Y465162D01*
X345718Y465331D01*
X346437Y465811D01*
X346917Y466530D01*
X347086Y467378D01*
X346917Y468226D01*
X346437Y468945D01*
X345718Y469425D01*
X344870Y469594D01*
D02*
G37*
G36*
X422819Y465870D02*
X419063D01*
Y465277D01*
X418563Y465009D01*
X418174Y465269D01*
X417900Y465324D01*
Y463400D01*
Y461476D01*
X418174Y461531D01*
X418563Y461791D01*
X419063Y461523D01*
Y461130D01*
X419929D01*
Y460059D01*
X420006Y459672D01*
X420226Y459344D01*
X422000Y457569D01*
X421987Y457500D01*
X422102Y456921D01*
X422430Y456430D01*
X422921Y456102D01*
X423500Y455987D01*
X424079Y456102D01*
X424570Y456430D01*
X424898Y456921D01*
X425013Y457500D01*
X424898Y458079D01*
X424570Y458570D01*
X424079Y458898D01*
X423500Y459013D01*
X423431Y459000D01*
X421952Y460478D01*
Y461130D01*
X422819D01*
Y465870D01*
D02*
G37*
G36*
X404370Y466110D02*
X402000D01*
Y464232D01*
X404370D01*
Y466110D01*
D02*
G37*
G36*
X401000D02*
X398630D01*
Y464232D01*
X401000D01*
Y466110D01*
D02*
G37*
G36*
X416900Y465324D02*
X416626Y465269D01*
X415969Y464831D01*
X415531Y464174D01*
X415476Y463900D01*
X416900D01*
Y465324D01*
D02*
G37*
G36*
X403870Y463370D02*
X399130D01*
Y463278D01*
X398630Y462940D01*
X398300Y463005D01*
X397870Y462920D01*
X397370Y463211D01*
Y463370D01*
X392630D01*
Y459614D01*
X397370D01*
Y459773D01*
X397870Y460064D01*
X398300Y459979D01*
X398630Y460044D01*
X399130Y459706D01*
Y459614D01*
X401159D01*
X401310Y459114D01*
X400404Y458419D01*
X399613Y457387D01*
X399115Y456186D01*
X399011Y455398D01*
X408839D01*
X408735Y456186D01*
X408238Y457387D01*
X407446Y458419D01*
X406415Y459210D01*
X405214Y459708D01*
X403925Y459877D01*
X403870Y459926D01*
Y463370D01*
D02*
G37*
G36*
X440319Y465000D02*
X438441D01*
Y462630D01*
X440319D01*
Y465000D01*
D02*
G37*
G36*
X437441D02*
X435563D01*
Y462630D01*
X437441D01*
Y465000D01*
D02*
G37*
G36*
X237441Y464913D02*
X235563D01*
Y462543D01*
X237441D01*
Y464913D01*
D02*
G37*
G36*
X412193Y466267D02*
X411345Y466098D01*
X410626Y465618D01*
X410146Y464899D01*
X409977Y464051D01*
X410146Y463203D01*
X410626Y462484D01*
X411345Y462004D01*
X412193Y461835D01*
X413041Y462004D01*
X413760Y462484D01*
X414240Y463203D01*
X414409Y464051D01*
X414240Y464899D01*
X413760Y465618D01*
X413041Y466098D01*
X412193Y466267D01*
D02*
G37*
G36*
X416900Y462900D02*
X415476D01*
X415531Y462626D01*
X415969Y461969D01*
X416626Y461531D01*
X416900Y461476D01*
Y462900D01*
D02*
G37*
G36*
X387784Y467633D02*
X386856Y467511D01*
X385993Y467153D01*
X385251Y466584D01*
X384682Y465842D01*
X384324Y464978D01*
X384202Y464051D01*
X384324Y463124D01*
X384682Y462260D01*
X385251Y461518D01*
X385993Y460949D01*
X386856Y460591D01*
X387784Y460469D01*
X388710Y460591D01*
X389574Y460949D01*
X390316Y461518D01*
X390885Y462260D01*
X391243Y463124D01*
X391365Y464051D01*
X391243Y464978D01*
X390885Y465842D01*
X390316Y466584D01*
X389574Y467153D01*
X388710Y467511D01*
X387784Y467633D01*
D02*
G37*
G36*
X440319Y461870D02*
X438441D01*
Y459500D01*
X440319D01*
Y461870D01*
D02*
G37*
G36*
X437441D02*
X435563D01*
Y459500D01*
X437441D01*
Y461870D01*
D02*
G37*
G36*
X237441Y461543D02*
X235563D01*
Y459173D01*
X237441D01*
Y461543D01*
D02*
G37*
G36*
X481400Y461913D02*
X480821Y461798D01*
X480330Y461470D01*
X480002Y460979D01*
X479887Y460400D01*
X480002Y459821D01*
X480330Y459330D01*
X480821Y459002D01*
X481400Y458887D01*
X481979Y459002D01*
X482470Y459330D01*
X482798Y459821D01*
X482913Y460400D01*
X482798Y460979D01*
X482470Y461470D01*
X481979Y461798D01*
X481400Y461913D01*
D02*
G37*
G36*
X475500Y461723D02*
X474921Y461608D01*
X474430Y461280D01*
X474102Y460789D01*
X473987Y460210D01*
X474102Y459631D01*
X474430Y459140D01*
X474921Y458812D01*
X475500Y458697D01*
X476079Y458812D01*
X476570Y459140D01*
X476898Y459631D01*
X477013Y460210D01*
X476898Y460789D01*
X476570Y461280D01*
X476079Y461608D01*
X475500Y461723D01*
D02*
G37*
G36*
X495333Y461513D02*
X494754Y461398D01*
X494263Y461070D01*
X493935Y460579D01*
X493819Y460000D01*
X493935Y459421D01*
X494263Y458930D01*
X494754Y458602D01*
X495333Y458487D01*
X495912Y458602D01*
X496403Y458930D01*
X496731Y459421D01*
X496846Y460000D01*
X496731Y460579D01*
X496403Y461070D01*
X495912Y461398D01*
X495333Y461513D01*
D02*
G37*
G36*
X440319Y458500D02*
X438441D01*
Y456130D01*
X440319D01*
Y458500D01*
D02*
G37*
G36*
X437441D02*
X435563D01*
Y456130D01*
X437441D01*
Y458500D01*
D02*
G37*
G36*
X365055Y459811D02*
Y455398D01*
X369469D01*
X369365Y456186D01*
X368868Y457387D01*
X368076Y458419D01*
X367045Y459210D01*
X365844Y459708D01*
X365055Y459811D01*
D02*
G37*
G36*
X364055D02*
X363266Y459708D01*
X362065Y459210D01*
X361034Y458419D01*
X360243Y457387D01*
X359745Y456186D01*
X359641Y455398D01*
X364055D01*
Y459811D01*
D02*
G37*
G36*
X325685D02*
Y455398D01*
X330099D01*
X329995Y456186D01*
X329498Y457387D01*
X328706Y458419D01*
X327675Y459210D01*
X326474Y459708D01*
X325685Y459811D01*
D02*
G37*
G36*
X286315D02*
Y455398D01*
X290729D01*
X290625Y456186D01*
X290127Y457387D01*
X289336Y458419D01*
X288305Y459210D01*
X287104Y459708D01*
X286315Y459811D01*
D02*
G37*
G36*
X285315D02*
X284526Y459708D01*
X283325Y459210D01*
X282294Y458419D01*
X281503Y457387D01*
X281005Y456186D01*
X280901Y455398D01*
X285315D01*
Y459811D01*
D02*
G37*
G36*
X465721Y458013D02*
X465141Y457898D01*
X464650Y457570D01*
X464322Y457079D01*
X464207Y456500D01*
X464322Y455921D01*
X464650Y455430D01*
X465141Y455102D01*
X465721Y454987D01*
X466300Y455102D01*
X466791Y455430D01*
X467119Y455921D01*
X467234Y456500D01*
X467119Y457079D01*
X466791Y457570D01*
X466300Y457898D01*
X465721Y458013D01*
D02*
G37*
G36*
X475563Y457761D02*
X474984Y457645D01*
X474493Y457317D01*
X474165Y456826D01*
X474050Y456247D01*
X474165Y455668D01*
X474493Y455177D01*
X474984Y454849D01*
X475563Y454734D01*
X476142Y454849D01*
X476633Y455177D01*
X476961Y455668D01*
X477076Y456247D01*
X476961Y456826D01*
X476633Y457317D01*
X476142Y457645D01*
X475563Y457761D01*
D02*
G37*
G36*
X482874Y457561D02*
X482295Y457445D01*
X481804Y457117D01*
X481475Y456626D01*
X481360Y456047D01*
X481475Y455468D01*
X481804Y454977D01*
X482295Y454649D01*
X482874Y454534D01*
X483453Y454649D01*
X483944Y454977D01*
X484272Y455468D01*
X484387Y456047D01*
X484272Y456626D01*
X483944Y457117D01*
X483453Y457445D01*
X482874Y457561D01*
D02*
G37*
G36*
X317709Y456319D02*
X315339D01*
Y454441D01*
X317709D01*
Y456319D01*
D02*
G37*
G36*
X314339D02*
X311968D01*
Y454441D01*
X314339D01*
Y456319D01*
D02*
G37*
G36*
X310032D02*
X307661D01*
Y454441D01*
X310032D01*
Y456319D01*
D02*
G37*
G36*
X306661D02*
X304291D01*
Y454441D01*
X306661D01*
Y456319D01*
D02*
G37*
G36*
X297236D02*
X294866D01*
Y454441D01*
X297236D01*
Y456319D01*
D02*
G37*
G36*
X293866D02*
X291496D01*
Y454441D01*
X293866D01*
Y456319D01*
D02*
G37*
G36*
X433100Y454585D02*
Y453161D01*
X434524D01*
X434469Y453436D01*
X434031Y454092D01*
X433374Y454531D01*
X433100Y454585D01*
D02*
G37*
G36*
X432100D02*
X431826Y454531D01*
X431169Y454092D01*
X430731Y453436D01*
X430676Y453161D01*
X432100D01*
Y454585D01*
D02*
G37*
G36*
X440319Y455370D02*
X438441D01*
Y453000D01*
X440319D01*
Y455370D01*
D02*
G37*
G36*
X437441D02*
X435563D01*
Y453000D01*
X437441D01*
Y455370D01*
D02*
G37*
G36*
X394083Y457114D02*
X393235Y456945D01*
X392516Y456464D01*
X392036Y455746D01*
X391867Y454898D01*
X392036Y454050D01*
X392516Y453331D01*
X393235Y452850D01*
X394083Y452682D01*
X394931Y452850D01*
X395650Y453331D01*
X396130Y454050D01*
X396299Y454898D01*
X396130Y455746D01*
X395650Y456464D01*
X394931Y456945D01*
X394083Y457114D01*
D02*
G37*
G36*
X374398D02*
X373550Y456945D01*
X372831Y456464D01*
X372351Y455746D01*
X372182Y454898D01*
X372351Y454050D01*
X372831Y453331D01*
X373550Y452850D01*
X374398Y452682D01*
X375246Y452850D01*
X375964Y453331D01*
X376445Y454050D01*
X376613Y454898D01*
X376445Y455746D01*
X375964Y456464D01*
X375246Y456945D01*
X374398Y457114D01*
D02*
G37*
G36*
X355894D02*
X355046Y456945D01*
X354327Y456464D01*
X353847Y455746D01*
X353678Y454898D01*
X353847Y454050D01*
X354327Y453331D01*
X355046Y452850D01*
X355894Y452682D01*
X356742Y452850D01*
X357460Y453331D01*
X357941Y454050D01*
X358109Y454898D01*
X357941Y455746D01*
X357460Y456464D01*
X356742Y456945D01*
X355894Y457114D01*
D02*
G37*
G36*
X233998Y458913D02*
X233419Y458798D01*
X232928Y458470D01*
X232600Y457979D01*
X232485Y457400D01*
X232600Y456821D01*
X232804Y456516D01*
X232567Y456016D01*
X231610D01*
Y452260D01*
X236351D01*
Y456016D01*
X235429D01*
X235192Y456516D01*
X235396Y456821D01*
X235511Y457400D01*
X235396Y457979D01*
X235068Y458470D01*
X234577Y458798D01*
X233998Y458913D01*
D02*
G37*
G36*
X227663Y459013D02*
X227084Y458898D01*
X226593Y458570D01*
X226265Y458079D01*
X226150Y457500D01*
X226265Y456921D01*
X226536Y456516D01*
X226438Y456200D01*
X226314Y456016D01*
X225293D01*
Y452260D01*
X230033D01*
Y456016D01*
X229012D01*
X228888Y456200D01*
X228790Y456516D01*
X229061Y456921D01*
X229176Y457500D01*
X229061Y458079D01*
X228733Y458570D01*
X228242Y458898D01*
X227663Y459013D01*
D02*
G37*
G36*
X317709Y453441D02*
X315339D01*
Y451563D01*
X317709D01*
Y453441D01*
D02*
G37*
G36*
X314339D02*
X311968D01*
Y451563D01*
X314339D01*
Y453441D01*
D02*
G37*
G36*
X310032D02*
X307661D01*
Y451563D01*
X310032D01*
Y453441D01*
D02*
G37*
G36*
X306661D02*
X304291D01*
Y451563D01*
X306661D01*
Y453441D01*
D02*
G37*
G36*
X297236D02*
X294866D01*
Y451563D01*
X297236D01*
Y453441D01*
D02*
G37*
G36*
X293866D02*
X291496D01*
Y451563D01*
X293866D01*
Y453441D01*
D02*
G37*
G36*
X434524Y452161D02*
X433100D01*
Y450738D01*
X433374Y450792D01*
X434031Y451231D01*
X434469Y451887D01*
X434524Y452161D01*
D02*
G37*
G36*
X432100D02*
X430676D01*
X430731Y451887D01*
X431169Y451231D01*
X431826Y450792D01*
X432100Y450738D01*
Y452161D01*
D02*
G37*
G36*
X469476Y452216D02*
X466221D01*
Y450496D01*
X469476D01*
Y452216D01*
D02*
G37*
G36*
X465220D02*
X461965D01*
Y450496D01*
X465220D01*
Y452216D01*
D02*
G37*
G36*
X504909D02*
X501653D01*
Y450496D01*
X504909D01*
Y452216D01*
D02*
G37*
G36*
X500654D02*
X497398D01*
Y450496D01*
X500654D01*
Y452216D01*
D02*
G37*
G36*
X501154Y449996D02*
D01*
D01*
D01*
D02*
G37*
G36*
X330099Y454398D02*
X325685D01*
Y449984D01*
X326474Y450088D01*
X327675Y450585D01*
X328706Y451376D01*
X329498Y452408D01*
X329995Y453609D01*
X330099Y454398D01*
D02*
G37*
G36*
X324685D02*
X320271D01*
X320375Y453609D01*
X320873Y452408D01*
X321664Y451376D01*
X322695Y450585D01*
X323896Y450088D01*
X324685Y449984D01*
Y454398D01*
D02*
G37*
G36*
X290729D02*
X286315D01*
Y449984D01*
X287104Y450088D01*
X288305Y450585D01*
X289336Y451376D01*
X290127Y452408D01*
X290625Y453609D01*
X290729Y454398D01*
D02*
G37*
G36*
X285315D02*
X280901D01*
X281005Y453609D01*
X281503Y452408D01*
X282294Y451376D01*
X283325Y450585D01*
X284526Y450088D01*
X285315Y449984D01*
Y454398D01*
D02*
G37*
G36*
X408839D02*
X404425D01*
Y449984D01*
X405214Y450088D01*
X406415Y450585D01*
X407446Y451376D01*
X408238Y452408D01*
X408735Y453609D01*
X408839Y454398D01*
D02*
G37*
G36*
X403425D02*
X399011D01*
X399115Y453609D01*
X399613Y452408D01*
X400404Y451376D01*
X401435Y450585D01*
X402636Y450088D01*
X403425Y449984D01*
Y454398D01*
D02*
G37*
G36*
X369469D02*
X365055D01*
Y449984D01*
X365844Y450088D01*
X367045Y450585D01*
X368076Y451376D01*
X368868Y452408D01*
X369365Y453609D01*
X369469Y454398D01*
D02*
G37*
G36*
X364055D02*
X359641D01*
X359745Y453609D01*
X360243Y452408D01*
X361034Y451376D01*
X362065Y450585D01*
X363266Y450088D01*
X364055Y449984D01*
Y454398D01*
D02*
G37*
G36*
X440319Y452000D02*
X438441D01*
Y449630D01*
X440319D01*
Y452000D01*
D02*
G37*
G36*
X437441D02*
X435563D01*
Y449630D01*
X437441D01*
Y452000D01*
D02*
G37*
G36*
X504909Y449496D02*
X501653D01*
Y447776D01*
X504909D01*
Y449496D01*
D02*
G37*
G36*
X500654D02*
X497398D01*
Y447776D01*
X500654D01*
Y449496D01*
D02*
G37*
G36*
X469476Y449496D02*
X466221D01*
Y447776D01*
X469476D01*
Y449496D01*
D02*
G37*
G36*
X465220D02*
X461965D01*
Y447776D01*
X465220D01*
Y449496D01*
D02*
G37*
G36*
X230033Y450898D02*
X225293D01*
Y447142D01*
X226877D01*
Y445808D01*
X225581Y444512D01*
X224365D01*
X224326Y444570D01*
X223835Y444898D01*
X223256Y445013D01*
X222677Y444898D01*
X222186Y444570D01*
X221858Y444079D01*
X221743Y443500D01*
X221858Y442921D01*
X222186Y442430D01*
X222677Y442102D01*
X223256Y441987D01*
X223835Y442102D01*
X224326Y442430D01*
X224365Y442488D01*
X226000D01*
X226387Y442565D01*
X226715Y442785D01*
X228604Y444674D01*
X228823Y445002D01*
X228900Y445389D01*
Y447142D01*
X230033D01*
Y450898D01*
D02*
G37*
G36*
X479800Y446013D02*
X479221Y445898D01*
X478730Y445570D01*
X478402Y445079D01*
X478287Y444500D01*
X478402Y443921D01*
X478730Y443430D01*
X479221Y443102D01*
X479800Y442987D01*
X480379Y443102D01*
X480870Y443430D01*
X481198Y443921D01*
X481313Y444500D01*
X481198Y445079D01*
X480870Y445570D01*
X480379Y445898D01*
X479800Y446013D01*
D02*
G37*
G36*
X242668Y450898D02*
X237928D01*
Y447142D01*
X239287D01*
Y445202D01*
X239364Y444815D01*
X239583Y444487D01*
X241241Y442828D01*
X241569Y442609D01*
X241956Y442532D01*
X243887D01*
X243926Y442474D01*
X244417Y442145D01*
X244996Y442030D01*
X245575Y442145D01*
X246066Y442474D01*
X246394Y442965D01*
X246509Y443544D01*
X246394Y444123D01*
X246066Y444614D01*
X245575Y444942D01*
X244996Y445057D01*
X244417Y444942D01*
X243926Y444614D01*
X243887Y444555D01*
X242375D01*
X241310Y445621D01*
Y447142D01*
X242668D01*
Y450898D01*
D02*
G37*
G36*
X236351D02*
X231610D01*
Y447142D01*
X232969D01*
Y437609D01*
X232910Y437570D01*
X232582Y437079D01*
X232467Y436500D01*
X232582Y435921D01*
X232910Y435430D01*
X233401Y435102D01*
X233981Y434987D01*
X234560Y435102D01*
X235051Y435430D01*
X235379Y435921D01*
X235494Y436500D01*
X235379Y437079D01*
X235051Y437570D01*
X234992Y437609D01*
Y447142D01*
X236351D01*
Y450898D01*
D02*
G37*
%LPD*%
G36*
X324572Y491598D02*
X325075Y491498D01*
X325577Y491598D01*
X326003Y491883D01*
X326470Y491686D01*
X326622Y491555D01*
Y488870D01*
X321616Y483864D01*
X316030D01*
X315741Y484165D01*
X315867Y484661D01*
X315887Y484665D01*
X316215Y484885D01*
X317912Y486581D01*
X318428Y486391D01*
X318502Y486021D01*
X318830Y485530D01*
X319321Y485202D01*
X319900Y485087D01*
X320479Y485202D01*
X320970Y485530D01*
X321026Y485613D01*
X321287Y485665D01*
X321615Y485885D01*
X323231Y487500D01*
X323450Y487829D01*
X323527Y488216D01*
Y491555D01*
X323679Y491686D01*
X324147Y491883D01*
X324572Y491598D01*
D02*
G37*
D10*
X327634Y488451D02*
Y495272D01*
X322035Y482853D02*
X327634Y488451D01*
X314839Y482853D02*
X322035D01*
X317398Y487498D02*
Y495272D01*
X315500Y485600D02*
X317398Y487498D01*
X313700Y485600D02*
X315500D01*
X311500Y483400D02*
X313700Y485600D01*
X311500Y479400D02*
Y483400D01*
X294366Y495272D02*
Y521634D01*
X288059Y518500D02*
X293441D01*
X378163Y480255D02*
Y482434D01*
X374409Y476500D02*
X378163Y480255D01*
X358559Y476500D02*
X374409D01*
X433000Y512000D02*
Y513000D01*
Y512000D02*
X434671Y510329D01*
X443059D01*
X358559Y469900D02*
X363100D01*
X358559D02*
X358759Y470100D01*
X353441Y469900D02*
Y476500D01*
X416500Y502163D02*
Y503000D01*
Y502163D02*
X417663Y501000D01*
X420941D01*
X426059Y482000D02*
X426221Y482161D01*
X251520Y488500D02*
X258559D01*
X260500Y490441D01*
X426059Y463500D02*
X429500Y460059D01*
X462500Y418575D02*
Y435400D01*
X452500Y418575D02*
Y437900D01*
X442500Y418575D02*
Y442616D01*
X240298Y454138D02*
X240298Y454138D01*
X240298Y454138D02*
Y457383D01*
X233981D02*
X233998Y457400D01*
X233981Y454138D02*
Y457383D01*
X227663Y454138D02*
Y457500D01*
X227500Y454301D02*
X227663Y454138D01*
X314839Y488500D02*
Y495272D01*
X308000Y488480D02*
X309720Y490201D01*
Y495272D01*
X304602Y488480D02*
Y488562D01*
X307161Y491121D01*
Y495272D01*
X233981Y436767D02*
X234248Y436500D01*
X233981Y436767D02*
Y449020D01*
X227889Y445389D02*
Y449241D01*
X226000Y443500D02*
X227889Y445389D01*
X240298Y445202D02*
Y449020D01*
Y445202D02*
X241956Y443544D01*
X227889Y449241D02*
X228043Y449087D01*
X393000Y497900D02*
Y499941D01*
Y494600D02*
Y497900D01*
X381600D02*
X393000D01*
X379300Y500200D02*
X381600Y497900D01*
X355400Y500200D02*
X379300D01*
X353441Y498241D02*
X355400Y500200D01*
X353441Y496000D02*
Y498241D01*
Y489500D02*
Y496000D01*
Y483000D02*
Y489500D01*
Y476500D02*
Y483000D01*
X319957Y486600D02*
X320900D01*
X322516Y488216D01*
Y495272D01*
X319900Y495215D02*
X319957Y495272D01*
X319900Y489400D02*
Y495215D01*
X319957Y466728D02*
Y474764D01*
X317500Y477220D02*
X319957Y474764D01*
X398300Y507059D02*
X401500D01*
X395000D02*
X398300D01*
Y461492D02*
X401500D01*
X395000D02*
X398300D01*
X443059Y468750D02*
Y472000D01*
Y465500D02*
Y468750D01*
X426809D02*
X443059D01*
X426059Y469500D02*
X426809Y468750D01*
X325000Y466803D02*
X325075Y466728D01*
X325000Y466803D02*
Y471600D01*
X322516Y461295D02*
Y466728D01*
X304602Y462302D02*
Y466728D01*
X303300Y461000D02*
X304602Y462302D01*
X299484Y461000D02*
Y466728D01*
X453500Y464839D02*
X453646Y464984D01*
Y477000D01*
X454476Y477831D01*
X457846D01*
X452000Y480370D02*
X453791Y482161D01*
X452000Y467323D02*
Y480370D01*
X449516Y464839D02*
X452000Y467323D01*
X447807Y468185D02*
X449500D01*
X447000Y467378D02*
X447807Y468185D01*
X447000Y459710D02*
Y467378D01*
X446290Y459000D02*
X447000Y459710D01*
X443059Y459000D02*
X446290D01*
X453791Y482161D02*
X457846D01*
X302043Y466728D02*
Y474327D01*
X448500Y499484D02*
X449516D01*
X452000Y497000D01*
Y492730D02*
Y497000D01*
Y492730D02*
X453907Y490823D01*
X457846D01*
X444421Y507079D02*
X446273Y505227D01*
Y495629D02*
Y505227D01*
Y495629D02*
X448547Y493354D01*
X453646Y499484D02*
X457846D01*
X448547Y508146D02*
X448724D01*
X452630Y504240D01*
Y500500D02*
Y504240D01*
Y500500D02*
X453646Y499484D01*
X299484Y495272D02*
Y502500D01*
X452925Y508146D02*
X457846D01*
X296925Y495272D02*
Y504865D01*
X443059Y510329D02*
Y513579D01*
Y507079D02*
Y510329D01*
X448547Y487000D02*
Y493354D01*
Y487000D02*
X449055Y486492D01*
X307161Y462000D02*
Y466728D01*
Y459059D02*
Y462000D01*
X294366D02*
Y466728D01*
Y459059D02*
Y462000D01*
X234248Y436500D02*
X234248Y436500D01*
X223256Y443500D02*
X226000D01*
X241956Y443544D02*
X244996D01*
X314839Y459059D02*
Y466728D01*
X325075Y500500D02*
Y504496D01*
Y495272D02*
Y500500D01*
X332500Y496000D02*
Y498500D01*
X330500Y500500D02*
X332500Y498500D01*
X325075Y500500D02*
X330500D01*
X325000Y504571D02*
X325075Y504496D01*
X327500Y525000D02*
X331000D01*
X319500Y517000D02*
X327500Y525000D01*
X319500Y505500D02*
Y517000D01*
X321000Y522000D02*
Y525000D01*
X317500Y518500D02*
X321000Y522000D01*
X317500Y506752D02*
Y518500D01*
X298559Y522559D02*
X301000Y525000D01*
X298559Y518500D02*
Y522559D01*
X291000Y525000D02*
X294366Y521634D01*
X316500Y502500D02*
X319500Y505500D01*
X306957Y502500D02*
X316500D01*
X304602Y500146D02*
X306957Y502500D01*
X304602Y495272D02*
Y500146D01*
X315248Y504500D02*
X317500Y506752D01*
X305500Y504500D02*
X315248D01*
X302043Y501043D02*
X305500Y504500D01*
X302043Y495272D02*
Y501043D01*
X416500Y469500D02*
X420941D01*
Y460059D02*
X423500Y457500D01*
X420941Y460059D02*
Y463500D01*
X421000Y485500D02*
X423000Y487500D01*
X421000Y482161D02*
Y485500D01*
X364764Y483000D02*
X365500Y483736D01*
X358559Y483000D02*
X364764D01*
X362923Y489500D02*
X365500Y486923D01*
X358559Y489500D02*
X362923D01*
X362685Y496000D02*
X365500Y493185D01*
X358559Y496000D02*
X362685D01*
X443059Y507079D02*
X444421D01*
X449055Y486492D02*
X457846D01*
X445654Y493846D02*
X447000Y492500D01*
Y484933D02*
Y492500D01*
Y484933D02*
X448000Y483933D01*
X393000Y468610D02*
X395000Y466610D01*
X393000Y468610D02*
Y473500D01*
Y499941D02*
X395000Y501941D01*
X393000Y473500D02*
Y479900D01*
Y488200D02*
Y494600D01*
X395239Y479900D02*
X397500Y482161D01*
X393000Y479900D02*
X395239D01*
X394611Y488200D02*
X397500Y485311D01*
X393000Y488200D02*
X394611D01*
X427917Y501000D02*
X430417Y498500D01*
X426059Y501000D02*
X427917D01*
X426221Y482161D02*
X430579D01*
X443059Y493846D02*
X445654D01*
X445421Y482953D02*
Y486000D01*
X444498Y486923D02*
X445421Y486000D01*
X443059Y486923D02*
X444498D01*
X443059Y493846D02*
Y500770D01*
X445421Y482953D02*
X446410Y481965D01*
X450000D01*
X443059Y480000D02*
X443059Y480000D01*
X448000D01*
X443059Y472000D02*
X448547D01*
X450000Y473453D01*
Y478028D01*
X443059Y452500D02*
Y459000D01*
D16*
X243059Y468500D02*
D03*
X237941D02*
D03*
X243059Y462043D02*
D03*
X237941D02*
D03*
X293441Y518500D02*
D03*
X298559D02*
D03*
X282941D02*
D03*
X288059D02*
D03*
X353441Y469900D02*
D03*
X358559D02*
D03*
X353441Y476500D02*
D03*
X358559D02*
D03*
X353441Y483000D02*
D03*
X358559D02*
D03*
X353441Y489500D02*
D03*
X358559D02*
D03*
X353441Y496000D02*
D03*
X358559D02*
D03*
X387882Y473500D02*
D03*
X393000D02*
D03*
X387882Y479900D02*
D03*
X393000D02*
D03*
X387882Y488200D02*
D03*
X393000D02*
D03*
X387882Y494600D02*
D03*
X393000D02*
D03*
X426059Y501000D02*
D03*
X420941D02*
D03*
X421000Y482161D02*
D03*
X426118D02*
D03*
X426059Y469500D02*
D03*
X420941D02*
D03*
X426059Y463500D02*
D03*
X420941D02*
D03*
X443059Y513579D02*
D03*
X437941D02*
D03*
Y507079D02*
D03*
X443059D02*
D03*
X437941Y500770D02*
D03*
X443059D02*
D03*
X437941Y493846D02*
D03*
X443059D02*
D03*
Y486923D02*
D03*
X437941D02*
D03*
X437941Y480000D02*
D03*
X443059D02*
D03*
X437941Y472000D02*
D03*
X443059D02*
D03*
X437941Y465500D02*
D03*
X443059D02*
D03*
X437941Y459000D02*
D03*
X443059D02*
D03*
X437941Y452500D02*
D03*
X443059D02*
D03*
D21*
X314839Y459059D02*
D03*
Y453941D02*
D03*
X307161Y459059D02*
D03*
Y453941D02*
D03*
X294366Y459059D02*
D03*
Y453941D02*
D03*
X227663Y449020D02*
D03*
Y454138D02*
D03*
X233981Y449020D02*
D03*
Y454138D02*
D03*
X240298Y449020D02*
D03*
Y454138D02*
D03*
X260500Y490441D02*
D03*
Y495559D02*
D03*
X325000Y504571D02*
D03*
Y509689D02*
D03*
X395000Y466610D02*
D03*
Y461492D02*
D03*
X401500Y466610D02*
D03*
Y461492D02*
D03*
X395000Y501941D02*
D03*
Y507059D02*
D03*
X401500Y501941D02*
D03*
Y507059D02*
D03*
D37*
X432500Y440104D02*
X433596Y441200D01*
X432500Y418575D02*
Y440104D01*
X251325Y472500D02*
Y479250D01*
Y470000D02*
Y472500D01*
Y479250D02*
X251520Y479445D01*
X249825Y468500D02*
X251325Y470000D01*
X243059Y468500D02*
X249825D01*
X243059Y462043D02*
Y468500D01*
X260445Y497555D02*
X260500Y497500D01*
X251520Y497555D02*
X260445D01*
D39*
X266130Y511000D02*
D03*
X305500D02*
D03*
X344870D02*
D03*
X384240D02*
D03*
X364555Y454898D02*
D03*
X403925D02*
D03*
X325185D02*
D03*
X285815D02*
D03*
D40*
X291000Y525000D02*
D03*
X432500Y418575D02*
D03*
D41*
X301000Y525000D02*
D03*
X311000D02*
D03*
X321000D02*
D03*
X331000D02*
D03*
X482500Y418575D02*
D03*
X472500D02*
D03*
X462500D02*
D03*
X452500D02*
D03*
X442500D02*
D03*
D42*
X234248Y416827D02*
D03*
X501965D02*
D03*
D43*
X311500Y479400D02*
D03*
X463949Y474287D02*
D03*
Y478618D02*
D03*
Y482949D02*
D03*
Y487280D02*
D03*
Y491610D02*
D03*
X468280Y474287D02*
D03*
Y478618D02*
D03*
Y482949D02*
D03*
Y487280D02*
D03*
Y491610D02*
D03*
X472610Y474287D02*
D03*
Y478618D02*
D03*
Y482949D02*
D03*
Y487280D02*
D03*
Y491610D02*
D03*
X476941Y474287D02*
D03*
Y478618D02*
D03*
Y482949D02*
D03*
Y487280D02*
D03*
Y491610D02*
D03*
X481272Y474287D02*
D03*
Y478618D02*
D03*
Y482949D02*
D03*
Y487280D02*
D03*
Y491610D02*
D03*
X378163Y482434D02*
D03*
X461919Y516600D02*
D03*
X484744Y509544D02*
D03*
X433000Y513000D02*
D03*
X363100Y469900D02*
D03*
X432600Y452661D02*
D03*
X429500Y460059D02*
D03*
X411200Y498000D02*
D03*
X428900Y516000D02*
D03*
X417400Y463400D02*
D03*
X417500Y482161D02*
D03*
X409680Y469500D02*
D03*
X376869Y468100D02*
D03*
X376733Y490100D02*
D03*
X376779Y496400D02*
D03*
X293000Y481500D02*
D03*
X462500Y435400D02*
D03*
X452500Y437900D02*
D03*
X442500Y442616D02*
D03*
X314839Y482853D02*
D03*
X240298Y457383D02*
D03*
X233998Y457400D02*
D03*
X227663Y457500D02*
D03*
X314839Y488500D02*
D03*
X308000Y488480D02*
D03*
X304602D02*
D03*
X319900Y486600D02*
D03*
Y489400D02*
D03*
X317500Y477220D02*
D03*
X398300Y507059D02*
D03*
Y461492D02*
D03*
X325000Y471600D02*
D03*
X378200Y473100D02*
D03*
X477500Y468900D02*
D03*
X429500Y464441D02*
D03*
X430579Y479000D02*
D03*
X322516Y461295D02*
D03*
X496000Y467000D02*
D03*
X479800Y444500D02*
D03*
X303300Y461000D02*
D03*
X481400Y460400D02*
D03*
X299484Y461000D02*
D03*
X502500Y469047D02*
D03*
X453500Y464839D02*
D03*
X449516D02*
D03*
X302043Y474327D02*
D03*
X448500Y499484D02*
D03*
X448547Y508146D02*
D03*
X299484Y502500D02*
D03*
X452925Y508146D02*
D03*
X296925Y504865D02*
D03*
X429500Y509000D02*
D03*
X463752Y505500D02*
D03*
X448547Y504602D02*
D03*
X307161Y462000D02*
D03*
X294366D02*
D03*
X233981Y436500D02*
D03*
X223256Y443500D02*
D03*
X244996Y443544D02*
D03*
X332500Y496000D02*
D03*
X465721Y456500D02*
D03*
X495831Y481965D02*
D03*
X477500Y507000D02*
D03*
X475563Y456247D02*
D03*
X416500Y503000D02*
D03*
Y469500D02*
D03*
X423500Y457500D02*
D03*
X423000Y487500D02*
D03*
X475500Y460210D02*
D03*
X365500Y483736D02*
D03*
Y486923D02*
D03*
Y493185D02*
D03*
X482874Y456047D02*
D03*
X495333Y460000D02*
D03*
X496000Y474090D02*
D03*
Y497713D02*
D03*
X434500Y486505D02*
D03*
X397500Y482161D02*
D03*
Y485311D02*
D03*
X430417Y498500D02*
D03*
X430579Y482161D02*
D03*
X449500Y468185D02*
D03*
X450000Y478028D02*
D03*
X448000Y480000D02*
D03*
X450000Y481965D02*
D03*
X448000Y483933D02*
D03*
X443500Y475862D02*
D03*
D44*
X251325Y472500D02*
D03*
D45*
X251969Y503937D02*
D03*
X248032Y511811D02*
D03*
X244095Y503937D02*
D03*
X240158Y511811D02*
D03*
X236221Y503937D02*
D03*
X240158Y496063D02*
D03*
Y480315D02*
D03*
X232284Y511811D02*
D03*
X228347Y503937D02*
D03*
X224410Y511811D02*
D03*
X220473Y503937D02*
D03*
Y488189D02*
D03*
D46*
X228488Y488500D02*
D03*
D47*
X251520Y479445D02*
D03*
Y488500D02*
D03*
Y497555D02*
D03*
D48*
X327634Y466728D02*
D03*
X325075D02*
D03*
X322516D02*
D03*
X319957D02*
D03*
X317398D02*
D03*
X314839D02*
D03*
X312280D02*
D03*
X309720D02*
D03*
X307161D02*
D03*
X304602D02*
D03*
X302043D02*
D03*
X299484D02*
D03*
X296925D02*
D03*
X294366D02*
D03*
X327634Y495272D02*
D03*
X325075D02*
D03*
X322516D02*
D03*
X319957D02*
D03*
X317398D02*
D03*
X314839D02*
D03*
X312280D02*
D03*
X309720D02*
D03*
X307161D02*
D03*
X304602D02*
D03*
X302043D02*
D03*
X299484D02*
D03*
X296925D02*
D03*
X294366D02*
D03*
D49*
X501154Y449996D02*
D03*
X465721D02*
D03*
X501154Y513579D02*
D03*
X465721D02*
D03*
X457846Y486492D02*
D03*
Y508146D02*
D03*
Y499484D02*
D03*
Y495154D02*
D03*
Y490823D02*
D03*
Y482161D02*
D03*
Y477831D02*
D03*
Y503815D02*
D03*
Y473500D02*
D03*
D50*
X228700Y488584D02*
D03*
D51*
X473301Y485500D02*
D03*
D52*
X240000Y488633D02*
D03*
D53*
X221128Y495051D02*
D03*
D54*
X238500Y507275D02*
D03*
M02*
