G04*
G04 #@! TF.GenerationSoftware,Altium Limited,Altium Designer,18.1.11 (251)*
G04*
G04 Layer_Physical_Order=2*
G04 Layer_Color=36540*
%FSLAX44Y44*%
%MOMM*%
G71*
G01*
G75*
%ADD10C,0.2500*%
%ADD37C,1.0000*%
%ADD38C,0.2032*%
%ADD41C,1.5000*%
%ADD43C,0.5000*%
%ADD44C,1.2000*%
%ADD45C,0.7000*%
G36*
X1316990Y1098740D02*
X1125435D01*
X1100784Y1123390D01*
X1098710Y1124776D01*
X1096264Y1125263D01*
X660508D01*
X644759Y1141012D01*
Y1196586D01*
X645449Y1198252D01*
X645698Y1200150D01*
X645449Y1202048D01*
X644716Y1203816D01*
X643551Y1205335D01*
X642032Y1206500D01*
X640264Y1207233D01*
X638366Y1207483D01*
X636468Y1207233D01*
X634699Y1206500D01*
X633181Y1205335D01*
X632015Y1203816D01*
X631283Y1202048D01*
X631033Y1200150D01*
X631283Y1198252D01*
X631973Y1196586D01*
Y1138364D01*
X632459Y1135918D01*
X633845Y1133844D01*
X653340Y1114350D01*
X655414Y1112964D01*
X657860Y1112477D01*
X1093616D01*
X1106180Y1099913D01*
X1105694Y1098740D01*
X554990D01*
Y1234557D01*
X556260Y1235236D01*
X557644Y1234311D01*
X558730Y1234095D01*
Y1240001D01*
Y1245906D01*
X557644Y1245690D01*
X556260Y1244766D01*
X554990Y1245445D01*
Y1274557D01*
X556260Y1275236D01*
X557644Y1274311D01*
X558730Y1274095D01*
Y1280001D01*
Y1285906D01*
X557644Y1285690D01*
X556260Y1284766D01*
X554990Y1285445D01*
Y1348740D01*
X1316990D01*
Y1098740D01*
D02*
G37*
%LPC*%
G36*
X765810Y1343459D02*
Y1334770D01*
X774499D01*
X774322Y1336121D01*
X773310Y1338563D01*
X771701Y1340661D01*
X769603Y1342270D01*
X767161Y1343282D01*
X765810Y1343459D01*
D02*
G37*
G36*
X763270D02*
X761919Y1343282D01*
X759477Y1342270D01*
X757379Y1340661D01*
X755770Y1338563D01*
X754758Y1336121D01*
X754581Y1334770D01*
X763270D01*
Y1343459D01*
D02*
G37*
G36*
X747910Y1342270D02*
X730370D01*
Y1324730D01*
X747910D01*
Y1342270D01*
D02*
G37*
G36*
X840740Y1342346D02*
X838451Y1342044D01*
X836317Y1341161D01*
X834485Y1339755D01*
X833079Y1337923D01*
X832196Y1335789D01*
X831894Y1333500D01*
X832196Y1331211D01*
X833079Y1329077D01*
X834485Y1327245D01*
X836317Y1325839D01*
X838451Y1324956D01*
X840740Y1324654D01*
X843029Y1324956D01*
X845163Y1325839D01*
X846995Y1327245D01*
X848401Y1329077D01*
X849284Y1331211D01*
X849586Y1333500D01*
X849284Y1335789D01*
X848401Y1337923D01*
X846995Y1339755D01*
X845163Y1341161D01*
X843029Y1342044D01*
X840740Y1342346D01*
D02*
G37*
G36*
X815340D02*
X813051Y1342044D01*
X810917Y1341161D01*
X809085Y1339755D01*
X807679Y1337923D01*
X806796Y1335789D01*
X806494Y1333500D01*
X806796Y1331211D01*
X807679Y1329077D01*
X809085Y1327245D01*
X810917Y1325839D01*
X813051Y1324956D01*
X815340Y1324654D01*
X817629Y1324956D01*
X819763Y1325839D01*
X821595Y1327245D01*
X823001Y1329077D01*
X823884Y1331211D01*
X824186Y1333500D01*
X823884Y1335789D01*
X823001Y1337923D01*
X821595Y1339755D01*
X819763Y1341161D01*
X817629Y1342044D01*
X815340Y1342346D01*
D02*
G37*
G36*
X789940D02*
X787651Y1342044D01*
X785517Y1341161D01*
X783685Y1339755D01*
X782279Y1337923D01*
X781396Y1335789D01*
X781094Y1333500D01*
X781396Y1331211D01*
X782279Y1329077D01*
X783685Y1327245D01*
X785517Y1325839D01*
X787651Y1324956D01*
X789940Y1324654D01*
X792229Y1324956D01*
X794363Y1325839D01*
X796195Y1327245D01*
X797601Y1329077D01*
X798484Y1331211D01*
X798786Y1333500D01*
X798484Y1335789D01*
X797601Y1337923D01*
X796195Y1339755D01*
X794363Y1341161D01*
X792229Y1342044D01*
X789940Y1342346D01*
D02*
G37*
G36*
X774499Y1332230D02*
X765810D01*
Y1323541D01*
X767161Y1323718D01*
X769603Y1324730D01*
X771701Y1326339D01*
X773310Y1328437D01*
X774322Y1330879D01*
X774499Y1332230D01*
D02*
G37*
G36*
X763270D02*
X754581D01*
X754758Y1330879D01*
X755770Y1328437D01*
X757379Y1326339D01*
X759477Y1324730D01*
X761919Y1323718D01*
X763270Y1323541D01*
Y1332230D01*
D02*
G37*
G36*
X1174545Y1317050D02*
Y1313434D01*
X1178161D01*
X1178023Y1314131D01*
X1176908Y1315798D01*
X1175241Y1316912D01*
X1174545Y1317050D01*
D02*
G37*
G36*
X1172005D02*
X1171308Y1316912D01*
X1169641Y1315798D01*
X1168527Y1314131D01*
X1168389Y1313434D01*
X1172005D01*
Y1317050D01*
D02*
G37*
G36*
X1178161Y1310894D02*
X1174545D01*
Y1307278D01*
X1175241Y1307416D01*
X1176908Y1308530D01*
X1178023Y1310197D01*
X1178161Y1310894D01*
D02*
G37*
G36*
X1172005D02*
X1168389D01*
X1168527Y1310197D01*
X1169641Y1308530D01*
X1171308Y1307416D01*
X1172005Y1307278D01*
Y1310894D01*
D02*
G37*
G36*
X1089406Y1314484D02*
X1087935Y1314191D01*
X1086688Y1313358D01*
X1085855Y1312111D01*
X1085562Y1310640D01*
X1085855Y1309169D01*
X1086688Y1307922D01*
X1087935Y1307089D01*
X1089406Y1306796D01*
X1090877Y1307089D01*
X1092124Y1307922D01*
X1092957Y1309169D01*
X1093250Y1310640D01*
X1092957Y1312111D01*
X1092124Y1313358D01*
X1090877Y1314191D01*
X1089406Y1314484D01*
D02*
G37*
G36*
X1101090Y1307906D02*
Y1304290D01*
X1104706D01*
X1104568Y1304987D01*
X1103454Y1306654D01*
X1101786Y1307768D01*
X1101090Y1307906D01*
D02*
G37*
G36*
X1098550D02*
X1097853Y1307768D01*
X1096186Y1306654D01*
X1095072Y1304987D01*
X1094934Y1304290D01*
X1098550D01*
Y1307906D01*
D02*
G37*
G36*
X631270Y1305906D02*
Y1301271D01*
X635906D01*
X635690Y1302357D01*
X634355Y1304355D01*
X632357Y1305690D01*
X631270Y1305906D01*
D02*
G37*
G36*
X628730D02*
X627644Y1305690D01*
X625646Y1304355D01*
X624311Y1302357D01*
X624095Y1301271D01*
X628730D01*
Y1305906D01*
D02*
G37*
G36*
X611270D02*
Y1301271D01*
X615906D01*
X615690Y1302357D01*
X614355Y1304355D01*
X612357Y1305690D01*
X611270Y1305906D01*
D02*
G37*
G36*
X608730D02*
X607644Y1305690D01*
X605646Y1304355D01*
X604311Y1302357D01*
X604095Y1301271D01*
X608730D01*
Y1305906D01*
D02*
G37*
G36*
X591270D02*
Y1301271D01*
X595906D01*
X595690Y1302357D01*
X594355Y1304355D01*
X592357Y1305690D01*
X591270Y1305906D01*
D02*
G37*
G36*
X588730D02*
X587644Y1305690D01*
X585646Y1304355D01*
X584311Y1302357D01*
X584095Y1301271D01*
X588730D01*
Y1305906D01*
D02*
G37*
G36*
X571270D02*
Y1301271D01*
X575906D01*
X575690Y1302357D01*
X574355Y1304355D01*
X572357Y1305690D01*
X571270Y1305906D01*
D02*
G37*
G36*
X568730D02*
X567644Y1305690D01*
X565646Y1304355D01*
X564311Y1302357D01*
X564095Y1301271D01*
X568730D01*
Y1305906D01*
D02*
G37*
G36*
X1104706Y1301750D02*
X1094934D01*
X1095072Y1301053D01*
X1095606Y1300255D01*
X1094927Y1298985D01*
X1094486D01*
X1093503Y1298790D01*
X1092669Y1298233D01*
X1091105Y1296669D01*
X1090930Y1296704D01*
X1089459Y1296411D01*
X1088212Y1295578D01*
X1087379Y1294331D01*
X1087086Y1292860D01*
X1087379Y1291389D01*
X1088212Y1290142D01*
X1089459Y1289309D01*
X1090930Y1289016D01*
X1092401Y1289309D01*
X1093648Y1290142D01*
X1094481Y1291389D01*
X1094774Y1292860D01*
X1094766Y1292902D01*
X1095608Y1293847D01*
X1135358D01*
X1136037Y1292577D01*
X1135759Y1292161D01*
X1135466Y1290690D01*
X1135759Y1289219D01*
X1136592Y1287972D01*
X1137839Y1287139D01*
X1139310Y1286846D01*
X1140781Y1287139D01*
X1142028Y1287972D01*
X1142861Y1289219D01*
X1143154Y1290690D01*
X1142861Y1292161D01*
X1142584Y1292577D01*
X1143262Y1293847D01*
X1146478D01*
X1147157Y1292577D01*
X1146879Y1292161D01*
X1146586Y1290690D01*
X1146879Y1289219D01*
X1147712Y1287972D01*
X1148959Y1287139D01*
X1150430Y1286846D01*
X1151901Y1287139D01*
X1153148Y1287972D01*
X1153981Y1289219D01*
X1154274Y1290690D01*
X1153981Y1292161D01*
X1153704Y1292577D01*
X1154382Y1293847D01*
X1164752D01*
X1174176Y1284423D01*
X1174086Y1283970D01*
X1174379Y1282499D01*
X1175212Y1281252D01*
X1176459Y1280419D01*
X1177930Y1280126D01*
X1179401Y1280419D01*
X1180648Y1281252D01*
X1181481Y1282499D01*
X1181774Y1283970D01*
X1181481Y1285441D01*
X1180648Y1286688D01*
X1179401Y1287521D01*
X1178083Y1287784D01*
X1167633Y1298233D01*
X1166800Y1298790D01*
X1165816Y1298985D01*
X1104713D01*
X1104034Y1300255D01*
X1104568Y1301053D01*
X1104706Y1301750D01*
D02*
G37*
G36*
X1232519Y1299127D02*
Y1295511D01*
X1236135D01*
X1235997Y1296208D01*
X1234883Y1297875D01*
X1233216Y1298989D01*
X1232519Y1299127D01*
D02*
G37*
G36*
X1229979D02*
X1229283Y1298989D01*
X1227616Y1297875D01*
X1226502Y1296208D01*
X1226363Y1295511D01*
X1229979D01*
Y1299127D01*
D02*
G37*
G36*
X635906Y1298731D02*
X631270D01*
Y1294095D01*
X632357Y1294311D01*
X634355Y1295646D01*
X635690Y1297644D01*
X635906Y1298731D01*
D02*
G37*
G36*
X628730D02*
X624095D01*
X624311Y1297644D01*
X625646Y1295646D01*
X627644Y1294311D01*
X628730Y1294095D01*
Y1298731D01*
D02*
G37*
G36*
X615906D02*
X611270D01*
Y1294095D01*
X612357Y1294311D01*
X614355Y1295646D01*
X615690Y1297644D01*
X615906Y1298731D01*
D02*
G37*
G36*
X608730D02*
X604095D01*
X604311Y1297644D01*
X605646Y1295646D01*
X607644Y1294311D01*
X608730Y1294095D01*
Y1298731D01*
D02*
G37*
G36*
X595906D02*
X591270D01*
Y1294095D01*
X592357Y1294311D01*
X594355Y1295646D01*
X595690Y1297644D01*
X595906Y1298731D01*
D02*
G37*
G36*
X588730D02*
X584095D01*
X584311Y1297644D01*
X585646Y1295646D01*
X587644Y1294311D01*
X588730Y1294095D01*
Y1298731D01*
D02*
G37*
G36*
X575906D02*
X571270D01*
Y1294095D01*
X572357Y1294311D01*
X574355Y1295646D01*
X575690Y1297644D01*
X575906Y1298731D01*
D02*
G37*
G36*
X568730D02*
X564095D01*
X564311Y1297644D01*
X565646Y1295646D01*
X567644Y1294311D01*
X568730Y1294095D01*
Y1298731D01*
D02*
G37*
G36*
X1000970Y1303568D02*
X998816Y1303140D01*
X996990Y1301920D01*
X995770Y1300094D01*
X995342Y1297940D01*
X995770Y1295786D01*
X996990Y1293960D01*
X998816Y1292740D01*
X1000970Y1292312D01*
X1003124Y1292740D01*
X1004950Y1293960D01*
X1006170Y1295786D01*
X1006598Y1297940D01*
X1006170Y1300094D01*
X1004950Y1301920D01*
X1003124Y1303140D01*
X1000970Y1303568D01*
D02*
G37*
G36*
X950970D02*
X948816Y1303140D01*
X946990Y1301920D01*
X945770Y1300094D01*
X945342Y1297940D01*
X945770Y1295786D01*
X946990Y1293960D01*
X948816Y1292740D01*
X950970Y1292312D01*
X953124Y1292740D01*
X954950Y1293960D01*
X956170Y1295786D01*
X956598Y1297940D01*
X956170Y1300094D01*
X954950Y1301920D01*
X953124Y1303140D01*
X950970Y1303568D01*
D02*
G37*
G36*
X903970D02*
X901816Y1303140D01*
X899990Y1301920D01*
X898770Y1300094D01*
X898342Y1297940D01*
X898770Y1295786D01*
X899990Y1293960D01*
X901816Y1292740D01*
X903970Y1292312D01*
X906124Y1292740D01*
X907950Y1293960D01*
X909170Y1295786D01*
X909598Y1297940D01*
X909170Y1300094D01*
X907950Y1301920D01*
X906124Y1303140D01*
X903970Y1303568D01*
D02*
G37*
G36*
X1236135Y1292971D02*
X1232519D01*
Y1289355D01*
X1233216Y1289494D01*
X1234883Y1290608D01*
X1235997Y1292275D01*
X1236135Y1292971D01*
D02*
G37*
G36*
X1229979D02*
X1226363D01*
X1226502Y1292275D01*
X1227616Y1290608D01*
X1229283Y1289494D01*
X1229979Y1289355D01*
Y1292971D01*
D02*
G37*
G36*
X1012952Y1292816D02*
Y1289200D01*
X1016568D01*
X1016430Y1289897D01*
X1015316Y1291564D01*
X1013649Y1292678D01*
X1012952Y1292816D01*
D02*
G37*
G36*
X1010412D02*
X1009715Y1292678D01*
X1008048Y1291564D01*
X1006934Y1289897D01*
X1006796Y1289200D01*
X1010412D01*
Y1292816D01*
D02*
G37*
G36*
X1247700Y1291776D02*
Y1288160D01*
X1251316D01*
X1251178Y1288857D01*
X1250064Y1290524D01*
X1248397Y1291638D01*
X1247700Y1291776D01*
D02*
G37*
G36*
X1245160D02*
X1244464Y1291638D01*
X1242796Y1290524D01*
X1241682Y1288857D01*
X1241544Y1288160D01*
X1245160D01*
Y1291776D01*
D02*
G37*
G36*
X975970Y1309307D02*
X973028Y1308920D01*
X970286Y1307784D01*
X967932Y1305978D01*
X966126Y1303624D01*
X964990Y1300882D01*
X964603Y1297940D01*
X964990Y1294998D01*
X966126Y1292256D01*
X967932Y1289902D01*
X970286Y1288096D01*
X973028Y1286960D01*
X975970Y1286573D01*
X978912Y1286960D01*
X981654Y1288096D01*
X984008Y1289902D01*
X985814Y1292256D01*
X986950Y1294998D01*
X987337Y1297940D01*
X986950Y1300882D01*
X985814Y1303624D01*
X984008Y1305978D01*
X981654Y1307784D01*
X978912Y1308920D01*
X975970Y1309307D01*
D02*
G37*
G36*
X875970D02*
X873028Y1308920D01*
X870286Y1307784D01*
X867932Y1305978D01*
X866126Y1303624D01*
X864990Y1300882D01*
X864603Y1297940D01*
X864990Y1294998D01*
X866126Y1292256D01*
X867932Y1289902D01*
X870286Y1288096D01*
X873028Y1286960D01*
X875970Y1286573D01*
X878912Y1286960D01*
X881654Y1288096D01*
X884008Y1289902D01*
X885814Y1292256D01*
X886950Y1294998D01*
X887337Y1297940D01*
X886950Y1300882D01*
X885814Y1303624D01*
X884008Y1305978D01*
X881654Y1307784D01*
X878912Y1308920D01*
X875970Y1309307D01*
D02*
G37*
G36*
X775970D02*
X773028Y1308920D01*
X770286Y1307784D01*
X767932Y1305978D01*
X766126Y1303624D01*
X764990Y1300882D01*
X764603Y1297940D01*
X764990Y1294998D01*
X766126Y1292256D01*
X767932Y1289902D01*
X770286Y1288096D01*
X773028Y1286960D01*
X775970Y1286573D01*
X778912Y1286960D01*
X781654Y1288096D01*
X784008Y1289902D01*
X785814Y1292256D01*
X786950Y1294998D01*
X787337Y1297940D01*
X786950Y1300882D01*
X785814Y1303624D01*
X784008Y1305978D01*
X781654Y1307784D01*
X778912Y1308920D01*
X775970Y1309307D01*
D02*
G37*
G36*
X675970D02*
X673028Y1308920D01*
X670286Y1307784D01*
X667932Y1305978D01*
X666126Y1303624D01*
X664990Y1300882D01*
X664603Y1297940D01*
X664990Y1294998D01*
X666126Y1292256D01*
X667932Y1289902D01*
X670286Y1288096D01*
X673028Y1286960D01*
X675970Y1286573D01*
X678912Y1286960D01*
X681654Y1288096D01*
X684008Y1289902D01*
X685814Y1292256D01*
X686950Y1294998D01*
X687337Y1297940D01*
X686950Y1300882D01*
X685814Y1303624D01*
X684008Y1305978D01*
X681654Y1307784D01*
X678912Y1308920D01*
X675970Y1309307D01*
D02*
G37*
G36*
X1212850Y1291624D02*
X1211379Y1291331D01*
X1210132Y1290498D01*
X1209299Y1289251D01*
X1209006Y1287780D01*
X1209299Y1286309D01*
X1210132Y1285062D01*
X1211379Y1284229D01*
X1212850Y1283936D01*
X1214321Y1284229D01*
X1215568Y1285062D01*
X1216401Y1286309D01*
X1216694Y1287780D01*
X1216401Y1289251D01*
X1215568Y1290498D01*
X1214321Y1291331D01*
X1212850Y1291624D01*
D02*
G37*
G36*
X1016568Y1286660D02*
X1012952D01*
Y1283044D01*
X1013649Y1283182D01*
X1015316Y1284296D01*
X1016430Y1285963D01*
X1016568Y1286660D01*
D02*
G37*
G36*
X1010412D02*
X1006796D01*
X1006934Y1285963D01*
X1008048Y1284296D01*
X1009715Y1283182D01*
X1010412Y1283044D01*
Y1286660D01*
D02*
G37*
G36*
X1251316Y1285620D02*
X1247700D01*
Y1282004D01*
X1248397Y1282142D01*
X1250064Y1283256D01*
X1251178Y1284924D01*
X1251316Y1285620D01*
D02*
G37*
G36*
X1245160D02*
X1241544D01*
X1241682Y1284924D01*
X1242796Y1283256D01*
X1244464Y1282142D01*
X1245160Y1282004D01*
Y1285620D01*
D02*
G37*
G36*
X641270Y1285906D02*
Y1281271D01*
X645906D01*
X645690Y1282357D01*
X644355Y1284355D01*
X642357Y1285690D01*
X641270Y1285906D01*
D02*
G37*
G36*
X638730D02*
X637644Y1285690D01*
X635646Y1284355D01*
X634311Y1282357D01*
X634095Y1281271D01*
X638730D01*
Y1285906D01*
D02*
G37*
G36*
X621270D02*
Y1281271D01*
X625906D01*
X625690Y1282357D01*
X624355Y1284355D01*
X622357Y1285690D01*
X621270Y1285906D01*
D02*
G37*
G36*
X618730D02*
X617644Y1285690D01*
X615646Y1284355D01*
X614311Y1282357D01*
X614095Y1281271D01*
X618730D01*
Y1285906D01*
D02*
G37*
G36*
X601270D02*
Y1281271D01*
X605906D01*
X605690Y1282357D01*
X604355Y1284355D01*
X602357Y1285690D01*
X601270Y1285906D01*
D02*
G37*
G36*
X598730D02*
X597644Y1285690D01*
X595646Y1284355D01*
X594311Y1282357D01*
X594095Y1281271D01*
X598730D01*
Y1285906D01*
D02*
G37*
G36*
X581270D02*
Y1281271D01*
X585906D01*
X585690Y1282357D01*
X584355Y1284355D01*
X582357Y1285690D01*
X581270Y1285906D01*
D02*
G37*
G36*
X578730D02*
X577644Y1285690D01*
X575646Y1284355D01*
X574311Y1282357D01*
X574095Y1281271D01*
X578730D01*
Y1285906D01*
D02*
G37*
G36*
X561270D02*
Y1281271D01*
X565906D01*
X565690Y1282357D01*
X564355Y1284355D01*
X562357Y1285690D01*
X561270Y1285906D01*
D02*
G37*
G36*
X1139310Y1285533D02*
X1137839Y1285241D01*
X1136592Y1284408D01*
X1135759Y1283161D01*
X1135466Y1281689D01*
X1135759Y1280219D01*
X1136592Y1278971D01*
X1137839Y1278138D01*
X1139310Y1277846D01*
X1140781Y1278138D01*
X1142028Y1278971D01*
X1142861Y1280219D01*
X1143154Y1281689D01*
X1142861Y1283161D01*
X1142028Y1284408D01*
X1140781Y1285241D01*
X1139310Y1285533D01*
D02*
G37*
G36*
X645906Y1278731D02*
X641270D01*
Y1274095D01*
X642357Y1274311D01*
X644355Y1275646D01*
X645690Y1277644D01*
X645906Y1278731D01*
D02*
G37*
G36*
X638730D02*
X634095D01*
X634311Y1277644D01*
X635646Y1275646D01*
X637644Y1274311D01*
X638730Y1274095D01*
Y1278731D01*
D02*
G37*
G36*
X625906D02*
X621270D01*
Y1274095D01*
X622357Y1274311D01*
X624355Y1275646D01*
X625690Y1277644D01*
X625906Y1278731D01*
D02*
G37*
G36*
X618730D02*
X614095D01*
X614311Y1277644D01*
X615646Y1275646D01*
X617644Y1274311D01*
X618730Y1274095D01*
Y1278731D01*
D02*
G37*
G36*
X605906D02*
X601270D01*
Y1274095D01*
X602357Y1274311D01*
X604355Y1275646D01*
X605690Y1277644D01*
X605906Y1278731D01*
D02*
G37*
G36*
X598730D02*
X594095D01*
X594311Y1277644D01*
X595646Y1275646D01*
X597644Y1274311D01*
X598730Y1274095D01*
Y1278731D01*
D02*
G37*
G36*
X585906D02*
X581270D01*
Y1274095D01*
X582357Y1274311D01*
X584355Y1275646D01*
X585690Y1277644D01*
X585906Y1278731D01*
D02*
G37*
G36*
X578730D02*
X574095D01*
X574311Y1277644D01*
X575646Y1275646D01*
X577644Y1274311D01*
X578730Y1274095D01*
Y1278731D01*
D02*
G37*
G36*
X565906D02*
X561270D01*
Y1274095D01*
X562357Y1274311D01*
X564355Y1275646D01*
X565690Y1277644D01*
X565906Y1278731D01*
D02*
G37*
G36*
X754190Y1286201D02*
X752719Y1285909D01*
X751472Y1285075D01*
X750639Y1283828D01*
X750346Y1282357D01*
X750639Y1280886D01*
X751472Y1279639D01*
X752719Y1278806D01*
X754190Y1278513D01*
X755661Y1278806D01*
X756908Y1279639D01*
X757816Y1278835D01*
X757139Y1277821D01*
X756846Y1276350D01*
X757139Y1274879D01*
X757972Y1273632D01*
X759219Y1272799D01*
X760690Y1272506D01*
X762161Y1272799D01*
X763408Y1273632D01*
X764241Y1274879D01*
X764534Y1276350D01*
X764241Y1277821D01*
X763408Y1279068D01*
X762161Y1279901D01*
X760690Y1280194D01*
X759219Y1279901D01*
X757972Y1279068D01*
X757064Y1279872D01*
X757741Y1280886D01*
X758034Y1282357D01*
X757741Y1283828D01*
X756908Y1285075D01*
X755661Y1285909D01*
X754190Y1286201D01*
D02*
G37*
G36*
X984970Y1283788D02*
X982615Y1283478D01*
X980421Y1282569D01*
X978537Y1281123D01*
X977091Y1279239D01*
X976182Y1277045D01*
X975872Y1274690D01*
X976182Y1272335D01*
X977091Y1270141D01*
X978537Y1268257D01*
X980421Y1266811D01*
X982615Y1265902D01*
X984970Y1265592D01*
X987325Y1265902D01*
X989519Y1266811D01*
X991403Y1268257D01*
X992849Y1270141D01*
X993758Y1272335D01*
X994068Y1274690D01*
X993758Y1277045D01*
X992849Y1279239D01*
X991403Y1281123D01*
X989519Y1282569D01*
X987325Y1283478D01*
X984970Y1283788D01*
D02*
G37*
G36*
X1261110Y1269076D02*
Y1265460D01*
X1264726D01*
X1264588Y1266156D01*
X1263474Y1267824D01*
X1261806Y1268938D01*
X1261110Y1269076D01*
D02*
G37*
G36*
X1258570D02*
X1257874Y1268938D01*
X1256206Y1267824D01*
X1255092Y1266156D01*
X1254954Y1265460D01*
X1258570D01*
Y1269076D01*
D02*
G37*
G36*
X1139190Y1272534D02*
X1137719Y1272241D01*
X1136472Y1271408D01*
X1135639Y1270161D01*
X1135346Y1268690D01*
X1135639Y1267219D01*
X1136472Y1265972D01*
X1137719Y1265139D01*
X1139190Y1264846D01*
X1140661Y1265139D01*
X1141908Y1265972D01*
X1142741Y1267219D01*
X1143034Y1268690D01*
X1142741Y1270161D01*
X1141908Y1271408D01*
X1140661Y1272241D01*
X1139190Y1272534D01*
D02*
G37*
G36*
X1093260Y1270034D02*
X1091789Y1269741D01*
X1090542Y1268908D01*
X1089709Y1267661D01*
X1089416Y1266190D01*
X1089709Y1264719D01*
X1090542Y1263472D01*
X1091789Y1262639D01*
X1093260Y1262346D01*
X1094731Y1262639D01*
X1095978Y1263472D01*
X1096811Y1264719D01*
X1097104Y1266190D01*
X1096811Y1267661D01*
X1095978Y1268908D01*
X1094731Y1269741D01*
X1093260Y1270034D01*
D02*
G37*
G36*
X611270Y1265906D02*
Y1261271D01*
X615906D01*
X615690Y1262357D01*
X614355Y1264355D01*
X612357Y1265690D01*
X611270Y1265906D01*
D02*
G37*
G36*
X608730D02*
X607644Y1265690D01*
X605646Y1264355D01*
X604311Y1262357D01*
X604095Y1261271D01*
X608730D01*
Y1265906D01*
D02*
G37*
G36*
X845820Y1264726D02*
Y1261110D01*
X849436D01*
X849298Y1261806D01*
X848184Y1263474D01*
X846516Y1264588D01*
X845820Y1264726D01*
D02*
G37*
G36*
X843280D02*
X842583Y1264588D01*
X840916Y1263474D01*
X839802Y1261806D01*
X839664Y1261110D01*
X843280D01*
Y1264726D01*
D02*
G37*
G36*
X1046970Y1280318D02*
X1044816Y1279890D01*
X1042990Y1278670D01*
X1041770Y1276844D01*
X1041342Y1274690D01*
X1041770Y1272536D01*
X1042990Y1270710D01*
X1044076Y1269985D01*
X1043808Y1268637D01*
X1042977Y1268471D01*
X1041730Y1267638D01*
X1040897Y1266391D01*
X1040604Y1264920D01*
X1040897Y1263449D01*
X1041730Y1262202D01*
X1042977Y1261369D01*
X1044448Y1261076D01*
X1045919Y1261369D01*
X1047166Y1262202D01*
X1047999Y1263449D01*
X1048292Y1264920D01*
X1047999Y1266391D01*
X1047166Y1267638D01*
X1046859Y1267843D01*
X1046895Y1268238D01*
X1047241Y1269116D01*
X1049124Y1269490D01*
X1050950Y1270710D01*
X1052170Y1272536D01*
X1052598Y1274690D01*
X1052170Y1276844D01*
X1050950Y1278670D01*
X1049124Y1279890D01*
X1046970Y1280318D01*
D02*
G37*
G36*
X1291302Y1268034D02*
X1289832Y1267741D01*
X1288584Y1266908D01*
X1287751Y1265661D01*
X1287459Y1264190D01*
X1287751Y1262719D01*
X1288584Y1261472D01*
X1289832Y1260639D01*
X1291302Y1260346D01*
X1292773Y1260639D01*
X1294021Y1261472D01*
X1294854Y1262719D01*
X1295146Y1264190D01*
X1294854Y1265661D01*
X1294021Y1266908D01*
X1292773Y1267741D01*
X1291302Y1268034D01*
D02*
G37*
G36*
X1264726Y1262920D02*
X1261110D01*
Y1259304D01*
X1261806Y1259442D01*
X1263474Y1260556D01*
X1264588Y1262224D01*
X1264726Y1262920D01*
D02*
G37*
G36*
X1258570D02*
X1254954D01*
X1255092Y1262224D01*
X1256206Y1260556D01*
X1257874Y1259442D01*
X1258570Y1259304D01*
Y1262920D01*
D02*
G37*
G36*
X957018Y1264700D02*
X955547Y1264407D01*
X954300Y1263574D01*
X953466Y1262327D01*
X953174Y1260856D01*
X953466Y1259385D01*
X954300Y1258138D01*
X955547Y1257305D01*
X957018Y1257012D01*
X958489Y1257305D01*
X959736Y1258138D01*
X960569Y1259385D01*
X960862Y1260856D01*
X960569Y1262327D01*
X959736Y1263574D01*
X958489Y1264407D01*
X957018Y1264700D01*
D02*
G37*
G36*
X849436Y1258570D02*
X845820D01*
Y1254954D01*
X846516Y1255092D01*
X848184Y1256206D01*
X849298Y1257874D01*
X849436Y1258570D01*
D02*
G37*
G36*
X843280D02*
X839664D01*
X839802Y1257874D01*
X840916Y1256206D01*
X842583Y1255092D01*
X843280Y1254954D01*
Y1258570D01*
D02*
G37*
G36*
X615906Y1258731D02*
X611270D01*
Y1254095D01*
X612357Y1254311D01*
X614355Y1255646D01*
X615690Y1257644D01*
X615906Y1258731D01*
D02*
G37*
G36*
X608730D02*
X604095D01*
X604311Y1257644D01*
X605646Y1255646D01*
X607644Y1254311D01*
X608730Y1254095D01*
Y1258731D01*
D02*
G37*
G36*
X928370Y1256534D02*
X926899Y1256241D01*
X925652Y1255408D01*
X924819Y1254161D01*
X924526Y1252690D01*
X924819Y1251219D01*
X925652Y1249972D01*
X926899Y1249139D01*
X928370Y1248846D01*
X929841Y1249139D01*
X931088Y1249972D01*
X931921Y1251219D01*
X932214Y1252690D01*
X931921Y1254161D01*
X931088Y1255408D01*
X929841Y1256241D01*
X928370Y1256534D01*
D02*
G37*
G36*
X1222430Y1252534D02*
X1220959Y1252241D01*
X1219712Y1251408D01*
X1218879Y1250161D01*
X1218586Y1248690D01*
X1218879Y1247219D01*
X1219712Y1245972D01*
X1220959Y1245139D01*
X1222430Y1244846D01*
X1223901Y1245139D01*
X1225148Y1245972D01*
X1225981Y1247219D01*
X1226274Y1248690D01*
X1225981Y1250161D01*
X1225148Y1251408D01*
X1223901Y1252241D01*
X1222430Y1252534D01*
D02*
G37*
G36*
X1211430D02*
X1209959Y1252241D01*
X1208712Y1251408D01*
X1207879Y1250161D01*
X1207586Y1248690D01*
X1207879Y1247219D01*
X1208712Y1245972D01*
X1209959Y1245139D01*
X1211430Y1244846D01*
X1212901Y1245139D01*
X1214148Y1245972D01*
X1214981Y1247219D01*
X1215274Y1248690D01*
X1214981Y1250161D01*
X1214148Y1251408D01*
X1212901Y1252241D01*
X1211430Y1252534D01*
D02*
G37*
G36*
X1200430D02*
X1198959Y1252241D01*
X1197712Y1251408D01*
X1196879Y1250161D01*
X1196586Y1248690D01*
X1196879Y1247219D01*
X1197712Y1245972D01*
X1198959Y1245139D01*
X1200430Y1244846D01*
X1201901Y1245139D01*
X1203148Y1245972D01*
X1203981Y1247219D01*
X1204274Y1248690D01*
X1203981Y1250161D01*
X1203148Y1251408D01*
X1201901Y1252241D01*
X1200430Y1252534D01*
D02*
G37*
G36*
X1189430D02*
X1187959Y1252241D01*
X1186712Y1251408D01*
X1185879Y1250161D01*
X1185586Y1248690D01*
X1185879Y1247219D01*
X1186712Y1245972D01*
X1187959Y1245139D01*
X1189430Y1244846D01*
X1190901Y1245139D01*
X1192148Y1245972D01*
X1192981Y1247219D01*
X1193274Y1248690D01*
X1192981Y1250161D01*
X1192148Y1251408D01*
X1190901Y1252241D01*
X1189430Y1252534D01*
D02*
G37*
G36*
X1178430D02*
X1176959Y1252241D01*
X1175712Y1251408D01*
X1174879Y1250161D01*
X1174586Y1248690D01*
X1174879Y1247219D01*
X1175712Y1245972D01*
X1176959Y1245139D01*
X1178430Y1244846D01*
X1179901Y1245139D01*
X1181148Y1245972D01*
X1181981Y1247219D01*
X1182274Y1248690D01*
X1181981Y1250161D01*
X1181148Y1251408D01*
X1179901Y1252241D01*
X1178430Y1252534D01*
D02*
G37*
G36*
X782320Y1244584D02*
X780849Y1244291D01*
X779602Y1243458D01*
X778769Y1242211D01*
X778652Y1241626D01*
X777358D01*
X777241Y1242211D01*
X776408Y1243458D01*
X775161Y1244291D01*
X773690Y1244584D01*
X772219Y1244291D01*
X770972Y1243458D01*
X770139Y1242211D01*
X769846Y1240740D01*
X770139Y1239269D01*
X770972Y1238022D01*
X772219Y1237189D01*
X773153Y1237003D01*
X773635Y1235689D01*
X763526Y1225579D01*
X747037D01*
X746938Y1225728D01*
X745691Y1226561D01*
X744220Y1226854D01*
X742749Y1226561D01*
X741502Y1225728D01*
X740669Y1224481D01*
X740376Y1223010D01*
X740669Y1221539D01*
X741502Y1220292D01*
X742749Y1219459D01*
X744220Y1219166D01*
X745691Y1219459D01*
X746938Y1220292D01*
X747037Y1220441D01*
X764590D01*
X765573Y1220636D01*
X766407Y1221193D01*
X782145Y1236931D01*
X782320Y1236896D01*
X783791Y1237189D01*
X785038Y1238022D01*
X785871Y1239269D01*
X786164Y1240740D01*
X785871Y1242211D01*
X785038Y1243458D01*
X783791Y1244291D01*
X782320Y1244584D01*
D02*
G37*
G36*
X621270Y1245906D02*
Y1241271D01*
X625906D01*
X625690Y1242357D01*
X624355Y1244355D01*
X622357Y1245690D01*
X621270Y1245906D01*
D02*
G37*
G36*
X618730D02*
X617644Y1245690D01*
X615646Y1244355D01*
X614311Y1242357D01*
X614095Y1241271D01*
X618730D01*
Y1245906D01*
D02*
G37*
G36*
X601270D02*
Y1241271D01*
X605906D01*
X605690Y1242357D01*
X604355Y1244355D01*
X602357Y1245690D01*
X601270Y1245906D01*
D02*
G37*
G36*
X598730D02*
X597644Y1245690D01*
X595646Y1244355D01*
X594311Y1242357D01*
X594095Y1241271D01*
X598730D01*
Y1245906D01*
D02*
G37*
G36*
X561270D02*
Y1241271D01*
X565906D01*
X565690Y1242357D01*
X564355Y1244355D01*
X562357Y1245690D01*
X561270Y1245906D01*
D02*
G37*
G36*
X956901Y1248698D02*
X955430Y1248405D01*
X954183Y1247572D01*
X953350Y1246325D01*
X953057Y1244854D01*
X953350Y1243383D01*
X954183Y1242136D01*
X955430Y1241303D01*
X956901Y1241010D01*
X958372Y1241303D01*
X959619Y1242136D01*
X960452Y1243383D01*
X960745Y1244854D01*
X960452Y1246325D01*
X959619Y1247572D01*
X958372Y1248405D01*
X956901Y1248698D01*
D02*
G37*
G36*
X1075690Y1243136D02*
Y1239520D01*
X1079306D01*
X1079168Y1240217D01*
X1078054Y1241884D01*
X1076386Y1242998D01*
X1075690Y1243136D01*
D02*
G37*
G36*
X1073150D02*
X1072454Y1242998D01*
X1070786Y1241884D01*
X1069672Y1240217D01*
X1069534Y1239520D01*
X1073150D01*
Y1243136D01*
D02*
G37*
G36*
X1104900Y1240610D02*
Y1236993D01*
X1108516D01*
X1108378Y1237690D01*
X1107264Y1239357D01*
X1105596Y1240471D01*
X1104900Y1240610D01*
D02*
G37*
G36*
X1102360D02*
X1101664Y1240471D01*
X1099996Y1239357D01*
X1098882Y1237690D01*
X1098744Y1236993D01*
X1102360D01*
Y1240610D01*
D02*
G37*
G36*
X799690Y1244634D02*
X798219Y1244341D01*
X796972Y1243508D01*
X796139Y1242261D01*
X795846Y1240790D01*
X796139Y1239319D01*
X796972Y1238072D01*
X798219Y1237239D01*
X799690Y1236946D01*
X801161Y1237239D01*
X802408Y1238072D01*
X803241Y1239319D01*
X803534Y1240790D01*
X803241Y1242261D01*
X802408Y1243508D01*
X801161Y1244341D01*
X799690Y1244634D01*
D02*
G37*
G36*
X875970Y1246768D02*
X873816Y1246340D01*
X871990Y1245120D01*
X870770Y1243294D01*
X870342Y1241140D01*
X870770Y1238986D01*
X871990Y1237160D01*
X873816Y1235940D01*
X875970Y1235512D01*
X878124Y1235940D01*
X879950Y1237160D01*
X881170Y1238986D01*
X881598Y1241140D01*
X881170Y1243294D01*
X879950Y1245120D01*
X878124Y1246340D01*
X875970Y1246768D01*
D02*
G37*
G36*
X625906Y1238731D02*
X621270D01*
Y1234095D01*
X622357Y1234311D01*
X624355Y1235646D01*
X625690Y1237644D01*
X625906Y1238731D01*
D02*
G37*
G36*
X618730D02*
X614095D01*
X614311Y1237644D01*
X615646Y1235646D01*
X617644Y1234311D01*
X618730Y1234095D01*
Y1238731D01*
D02*
G37*
G36*
X605906D02*
X601270D01*
Y1234095D01*
X602357Y1234311D01*
X604355Y1235646D01*
X605690Y1237644D01*
X605906Y1238731D01*
D02*
G37*
G36*
X598730D02*
X594095D01*
X594311Y1237644D01*
X595646Y1235646D01*
X597644Y1234311D01*
X598730Y1234095D01*
Y1238731D01*
D02*
G37*
G36*
X565906D02*
X561270D01*
Y1234095D01*
X562357Y1234311D01*
X564355Y1235646D01*
X565690Y1237644D01*
X565906Y1238731D01*
D02*
G37*
G36*
X1222430Y1241534D02*
X1220959Y1241241D01*
X1219712Y1240408D01*
X1218879Y1239161D01*
X1218586Y1237690D01*
X1218879Y1236219D01*
X1219712Y1234972D01*
X1220959Y1234139D01*
X1222430Y1233846D01*
X1223901Y1234139D01*
X1225148Y1234972D01*
X1225981Y1236219D01*
X1226274Y1237690D01*
X1225981Y1239161D01*
X1225148Y1240408D01*
X1223901Y1241241D01*
X1222430Y1241534D01*
D02*
G37*
G36*
X1211430D02*
X1209959Y1241241D01*
X1208712Y1240408D01*
X1207879Y1239161D01*
X1207586Y1237690D01*
X1207879Y1236219D01*
X1208712Y1234972D01*
X1209959Y1234139D01*
X1211430Y1233846D01*
X1212901Y1234139D01*
X1214148Y1234972D01*
X1214981Y1236219D01*
X1215274Y1237690D01*
X1214981Y1239161D01*
X1214148Y1240408D01*
X1212901Y1241241D01*
X1211430Y1241534D01*
D02*
G37*
G36*
X1200430D02*
X1198959Y1241241D01*
X1197712Y1240408D01*
X1196879Y1239161D01*
X1196586Y1237690D01*
X1196879Y1236219D01*
X1197712Y1234972D01*
X1198959Y1234139D01*
X1200430Y1233846D01*
X1201901Y1234139D01*
X1203148Y1234972D01*
X1203981Y1236219D01*
X1204274Y1237690D01*
X1203981Y1239161D01*
X1203148Y1240408D01*
X1201901Y1241241D01*
X1200430Y1241534D01*
D02*
G37*
G36*
X1189430D02*
X1187959Y1241241D01*
X1186712Y1240408D01*
X1185879Y1239161D01*
X1185586Y1237690D01*
X1185879Y1236219D01*
X1186712Y1234972D01*
X1187959Y1234139D01*
X1189430Y1233846D01*
X1190901Y1234139D01*
X1192148Y1234972D01*
X1192981Y1236219D01*
X1193274Y1237690D01*
X1192981Y1239161D01*
X1192148Y1240408D01*
X1190901Y1241241D01*
X1189430Y1241534D01*
D02*
G37*
G36*
X1178430D02*
X1176959Y1241241D01*
X1175712Y1240408D01*
X1174879Y1239161D01*
X1174586Y1237690D01*
X1174879Y1236219D01*
X1175712Y1234972D01*
X1176959Y1234139D01*
X1178430Y1233846D01*
X1179901Y1234139D01*
X1181148Y1234972D01*
X1181981Y1236219D01*
X1182274Y1237690D01*
X1181981Y1239161D01*
X1181148Y1240408D01*
X1179901Y1241241D01*
X1178430Y1241534D01*
D02*
G37*
G36*
X1079306Y1236980D02*
X1075690D01*
Y1233364D01*
X1076386Y1233502D01*
X1078054Y1234616D01*
X1079168Y1236283D01*
X1079306Y1236980D01*
D02*
G37*
G36*
X1073150D02*
X1069534D01*
X1069672Y1236283D01*
X1070786Y1234616D01*
X1072454Y1233502D01*
X1073150Y1233364D01*
Y1236980D01*
D02*
G37*
G36*
X1044057Y1240960D02*
X1042586Y1240668D01*
X1041339Y1239835D01*
X1040506Y1238588D01*
X1040213Y1237117D01*
X1040506Y1235646D01*
X1041339Y1234399D01*
X1042586Y1233565D01*
X1044057Y1233273D01*
X1045528Y1233565D01*
X1046775Y1234399D01*
X1047609Y1235646D01*
X1047901Y1237117D01*
X1047609Y1238588D01*
X1046775Y1239835D01*
X1045528Y1240668D01*
X1044057Y1240960D01*
D02*
G37*
G36*
X812546Y1246920D02*
X811075Y1246627D01*
X809828Y1245794D01*
X808995Y1244547D01*
X808702Y1243076D01*
X808995Y1241605D01*
X809828Y1240358D01*
X809939Y1240284D01*
Y1238756D01*
X809828Y1238682D01*
X808995Y1237435D01*
X808702Y1235964D01*
X808995Y1234493D01*
X809828Y1233246D01*
X811075Y1232413D01*
X812546Y1232120D01*
X814017Y1232413D01*
X815264Y1233246D01*
X816097Y1234493D01*
X816390Y1235964D01*
X816097Y1237435D01*
X815264Y1238682D01*
X815153Y1238756D01*
Y1240284D01*
X815264Y1240358D01*
X816097Y1241605D01*
X816390Y1243076D01*
X816097Y1244547D01*
X815264Y1245794D01*
X814017Y1246627D01*
X812546Y1246920D01*
D02*
G37*
G36*
X1108516Y1234454D02*
X1104900D01*
Y1230837D01*
X1105596Y1230976D01*
X1107264Y1232090D01*
X1108378Y1233757D01*
X1108516Y1234454D01*
D02*
G37*
G36*
X1102360D02*
X1098744D01*
X1098882Y1233757D01*
X1099996Y1232090D01*
X1101664Y1230976D01*
X1102360Y1230837D01*
Y1234454D01*
D02*
G37*
G36*
X1057910Y1281464D02*
X1056439Y1281171D01*
X1055192Y1280338D01*
X1054359Y1279091D01*
X1054066Y1277620D01*
X1054359Y1276149D01*
X1055192Y1274902D01*
X1055341Y1274803D01*
Y1232671D01*
X1053361Y1230691D01*
X1052912Y1230019D01*
X1052137Y1229848D01*
X1051505Y1229838D01*
X1050950Y1230670D01*
X1049124Y1231890D01*
X1046970Y1232318D01*
X1044816Y1231890D01*
X1042990Y1230670D01*
X1041770Y1228844D01*
X1041342Y1226690D01*
X1041770Y1224536D01*
X1042990Y1222710D01*
X1044816Y1221490D01*
X1046970Y1221062D01*
X1049124Y1221490D01*
X1050950Y1222710D01*
X1051338Y1223292D01*
X1052608Y1222906D01*
Y1220408D01*
X1052804Y1219425D01*
X1053361Y1218592D01*
X1055341Y1216612D01*
Y1195347D01*
X1055192Y1195248D01*
X1054359Y1194001D01*
X1054066Y1192530D01*
X1054359Y1191059D01*
X1055192Y1189812D01*
X1056439Y1188979D01*
X1057910Y1188686D01*
X1059381Y1188979D01*
X1060628Y1189812D01*
X1061461Y1191059D01*
X1061754Y1192530D01*
X1061461Y1194001D01*
X1060628Y1195248D01*
X1060479Y1195347D01*
Y1217676D01*
X1060284Y1218659D01*
X1059727Y1219493D01*
X1059474Y1219745D01*
X1060100Y1220916D01*
X1060450Y1220846D01*
X1061921Y1221139D01*
X1063168Y1221972D01*
X1064001Y1223219D01*
X1064294Y1224690D01*
X1064001Y1226161D01*
X1063168Y1227408D01*
X1061921Y1228241D01*
X1060450Y1228534D01*
X1060221Y1228488D01*
X1059596Y1229659D01*
X1059727Y1229790D01*
X1060284Y1230623D01*
X1060479Y1231607D01*
Y1274803D01*
X1060628Y1274902D01*
X1061461Y1276149D01*
X1061754Y1277620D01*
X1061461Y1279091D01*
X1060628Y1280338D01*
X1059381Y1281171D01*
X1057910Y1281464D01*
D02*
G37*
G36*
X928370Y1240629D02*
X926899Y1240336D01*
X925652Y1239503D01*
X924819Y1238256D01*
X924526Y1236785D01*
X924819Y1235314D01*
X925652Y1234067D01*
X926586Y1233443D01*
X926664Y1233143D01*
Y1232332D01*
X926586Y1232032D01*
X925652Y1231408D01*
X924819Y1230161D01*
X924526Y1228690D01*
X924819Y1227219D01*
X925652Y1225972D01*
X926899Y1225139D01*
X928370Y1224846D01*
X929841Y1225139D01*
X931088Y1225972D01*
X931921Y1227219D01*
X932214Y1228690D01*
X931921Y1230161D01*
X931088Y1231408D01*
X930154Y1232032D01*
X930076Y1232332D01*
Y1233143D01*
X930154Y1233443D01*
X931088Y1234067D01*
X931921Y1235314D01*
X932214Y1236785D01*
X931921Y1238256D01*
X931088Y1239503D01*
X929841Y1240336D01*
X928370Y1240629D01*
D02*
G37*
G36*
X1137920Y1233034D02*
X1136449Y1232741D01*
X1135202Y1231908D01*
X1134369Y1230661D01*
X1134076Y1229190D01*
X1134369Y1227719D01*
X1135202Y1226472D01*
X1136449Y1225639D01*
X1137920Y1225346D01*
X1138098Y1225382D01*
X1139178Y1224302D01*
X1139156Y1224190D01*
X1139176Y1224089D01*
X1138096Y1223009D01*
X1137920Y1223044D01*
X1136449Y1222751D01*
X1135202Y1221918D01*
X1134369Y1220671D01*
X1134076Y1219200D01*
X1134369Y1217729D01*
X1135202Y1216482D01*
X1136449Y1215649D01*
X1137920Y1215356D01*
X1138100Y1215392D01*
X1139180Y1214312D01*
X1139156Y1214190D01*
X1139449Y1212719D01*
X1140282Y1211472D01*
X1141529Y1210639D01*
X1143000Y1210346D01*
X1144471Y1210639D01*
X1145718Y1211472D01*
X1146551Y1212719D01*
X1146844Y1214190D01*
X1146551Y1215661D01*
X1145718Y1216908D01*
X1144471Y1217741D01*
X1143000Y1218034D01*
X1142482Y1219184D01*
Y1219198D01*
X1143000Y1220346D01*
X1144471Y1220639D01*
X1145718Y1221472D01*
X1146551Y1222719D01*
X1146844Y1224190D01*
X1146551Y1225661D01*
X1145718Y1226908D01*
X1144471Y1227741D01*
X1143000Y1228034D01*
X1142822Y1227998D01*
X1141742Y1229078D01*
X1141764Y1229190D01*
X1141471Y1230661D01*
X1140638Y1231908D01*
X1139391Y1232741D01*
X1137920Y1233034D01*
D02*
G37*
G36*
X1222430Y1230534D02*
X1220959Y1230241D01*
X1219712Y1229408D01*
X1218879Y1228161D01*
X1218586Y1226690D01*
X1218879Y1225219D01*
X1219712Y1223972D01*
X1220959Y1223139D01*
X1222430Y1222846D01*
X1223901Y1223139D01*
X1225148Y1223972D01*
X1225981Y1225219D01*
X1226274Y1226690D01*
X1225981Y1228161D01*
X1225148Y1229408D01*
X1223901Y1230241D01*
X1222430Y1230534D01*
D02*
G37*
G36*
X1211430D02*
X1209959Y1230241D01*
X1208712Y1229408D01*
X1207879Y1228161D01*
X1207586Y1226690D01*
X1207879Y1225219D01*
X1208712Y1223972D01*
X1209959Y1223139D01*
X1211430Y1222846D01*
X1212901Y1223139D01*
X1214148Y1223972D01*
X1214981Y1225219D01*
X1215274Y1226690D01*
X1214981Y1228161D01*
X1214148Y1229408D01*
X1212901Y1230241D01*
X1211430Y1230534D01*
D02*
G37*
G36*
X1200430D02*
X1198959Y1230241D01*
X1197712Y1229408D01*
X1196879Y1228161D01*
X1196586Y1226690D01*
X1196879Y1225219D01*
X1197712Y1223972D01*
X1198959Y1223139D01*
X1200430Y1222846D01*
X1201901Y1223139D01*
X1203148Y1223972D01*
X1203981Y1225219D01*
X1204274Y1226690D01*
X1203981Y1228161D01*
X1203148Y1229408D01*
X1201901Y1230241D01*
X1200430Y1230534D01*
D02*
G37*
G36*
X1189430D02*
X1187959Y1230241D01*
X1186712Y1229408D01*
X1185879Y1228161D01*
X1185586Y1226690D01*
X1185879Y1225219D01*
X1186712Y1223972D01*
X1187959Y1223139D01*
X1189430Y1222846D01*
X1190901Y1223139D01*
X1192148Y1223972D01*
X1192981Y1225219D01*
X1193274Y1226690D01*
X1192981Y1228161D01*
X1192148Y1229408D01*
X1190901Y1230241D01*
X1189430Y1230534D01*
D02*
G37*
G36*
X1178430D02*
X1176959Y1230241D01*
X1175712Y1229408D01*
X1174879Y1228161D01*
X1174586Y1226690D01*
X1174879Y1225219D01*
X1175712Y1223972D01*
X1176959Y1223139D01*
X1178430Y1222846D01*
X1179901Y1223139D01*
X1181148Y1223972D01*
X1181981Y1225219D01*
X1182274Y1226690D01*
X1181981Y1228161D01*
X1181148Y1229408D01*
X1179901Y1230241D01*
X1178430Y1230534D01*
D02*
G37*
G36*
X960535Y1229225D02*
X959064Y1228933D01*
X957817Y1228100D01*
X956983Y1226853D01*
X956691Y1225382D01*
X956983Y1223911D01*
X957817Y1222664D01*
X959064Y1221830D01*
X960535Y1221538D01*
X962006Y1221830D01*
X963253Y1222664D01*
X964086Y1223911D01*
X964379Y1225382D01*
X964086Y1226853D01*
X963253Y1228100D01*
X962006Y1228933D01*
X960535Y1229225D01*
D02*
G37*
G36*
X611270Y1225906D02*
Y1221271D01*
X615906D01*
X615690Y1222357D01*
X614355Y1224355D01*
X612357Y1225690D01*
X611270Y1225906D01*
D02*
G37*
G36*
X608730D02*
X607644Y1225690D01*
X605646Y1224355D01*
X604311Y1222357D01*
X604095Y1221271D01*
X608730D01*
Y1225906D01*
D02*
G37*
G36*
X1009650Y1236534D02*
X1008179Y1236241D01*
X1006932Y1235408D01*
X1006099Y1234161D01*
X1005806Y1232690D01*
X1006099Y1231219D01*
X1006932Y1229972D01*
X1007795Y1229396D01*
X1007834Y1229276D01*
Y1228104D01*
X1007795Y1227984D01*
X1006932Y1227408D01*
X1006099Y1226161D01*
X1005806Y1224690D01*
X1006099Y1223219D01*
X1006932Y1221972D01*
X1008179Y1221139D01*
X1009650Y1220846D01*
X1011121Y1221139D01*
X1012368Y1221972D01*
X1013201Y1223219D01*
X1013494Y1224690D01*
X1013201Y1226161D01*
X1012368Y1227408D01*
X1011505Y1227984D01*
X1011466Y1228104D01*
Y1229276D01*
X1011505Y1229396D01*
X1012368Y1229972D01*
X1013201Y1231219D01*
X1013494Y1232690D01*
X1013201Y1234161D01*
X1012368Y1235408D01*
X1011121Y1236241D01*
X1009650Y1236534D01*
D02*
G37*
G36*
X1259410Y1228034D02*
X1257939Y1227741D01*
X1256692Y1226908D01*
X1255859Y1225661D01*
X1255566Y1224190D01*
X1255859Y1222719D01*
X1256692Y1221472D01*
X1257939Y1220639D01*
X1259410Y1220346D01*
X1260881Y1220639D01*
X1262128Y1221472D01*
X1262961Y1222719D01*
X1263254Y1224190D01*
X1262961Y1225661D01*
X1262128Y1226908D01*
X1260881Y1227741D01*
X1259410Y1228034D01*
D02*
G37*
G36*
X615906Y1218731D02*
X611270D01*
Y1214095D01*
X612357Y1214311D01*
X614355Y1215646D01*
X615690Y1217644D01*
X615906Y1218731D01*
D02*
G37*
G36*
X608730D02*
X604095D01*
X604311Y1217644D01*
X605646Y1215646D01*
X607644Y1214311D01*
X608730Y1214095D01*
Y1218731D01*
D02*
G37*
G36*
X1093670Y1228534D02*
X1092199Y1228241D01*
X1090952Y1227408D01*
X1090119Y1226161D01*
X1089826Y1224690D01*
X1090119Y1223219D01*
X1090952Y1221972D01*
X1091837Y1221381D01*
X1091889Y1221213D01*
Y1220137D01*
X1091837Y1219969D01*
X1090952Y1219378D01*
X1090119Y1218131D01*
X1089826Y1216660D01*
X1090119Y1215189D01*
X1090952Y1213942D01*
X1092199Y1213109D01*
X1093670Y1212816D01*
X1095141Y1213109D01*
X1096388Y1213942D01*
X1097221Y1215189D01*
X1097514Y1216660D01*
X1097221Y1218131D01*
X1096388Y1219378D01*
X1095503Y1219969D01*
X1095451Y1220137D01*
Y1221213D01*
X1095503Y1221381D01*
X1096388Y1221972D01*
X1097221Y1223219D01*
X1097514Y1224690D01*
X1097221Y1226161D01*
X1096388Y1227408D01*
X1095141Y1228241D01*
X1093670Y1228534D01*
D02*
G37*
G36*
X1222430Y1219534D02*
X1220959Y1219241D01*
X1219712Y1218408D01*
X1218879Y1217161D01*
X1218586Y1215690D01*
X1218879Y1214219D01*
X1219712Y1212972D01*
X1220959Y1212139D01*
X1222430Y1211846D01*
X1223901Y1212139D01*
X1225148Y1212972D01*
X1225981Y1214219D01*
X1226274Y1215690D01*
X1225981Y1217161D01*
X1225148Y1218408D01*
X1223901Y1219241D01*
X1222430Y1219534D01*
D02*
G37*
G36*
X1211430D02*
X1209959Y1219241D01*
X1208712Y1218408D01*
X1207879Y1217161D01*
X1207586Y1215690D01*
X1207879Y1214219D01*
X1208712Y1212972D01*
X1209959Y1212139D01*
X1211430Y1211846D01*
X1212901Y1212139D01*
X1214148Y1212972D01*
X1214981Y1214219D01*
X1215274Y1215690D01*
X1214981Y1217161D01*
X1214148Y1218408D01*
X1212901Y1219241D01*
X1211430Y1219534D01*
D02*
G37*
G36*
X1200430D02*
X1198959Y1219241D01*
X1197712Y1218408D01*
X1196879Y1217161D01*
X1196586Y1215690D01*
X1196879Y1214219D01*
X1197712Y1212972D01*
X1198959Y1212139D01*
X1200430Y1211846D01*
X1201901Y1212139D01*
X1203148Y1212972D01*
X1203981Y1214219D01*
X1204274Y1215690D01*
X1203981Y1217161D01*
X1203148Y1218408D01*
X1201901Y1219241D01*
X1200430Y1219534D01*
D02*
G37*
G36*
X1189430D02*
X1187959Y1219241D01*
X1186712Y1218408D01*
X1185879Y1217161D01*
X1185586Y1215690D01*
X1185879Y1214219D01*
X1186712Y1212972D01*
X1187959Y1212139D01*
X1189430Y1211846D01*
X1190901Y1212139D01*
X1192148Y1212972D01*
X1192981Y1214219D01*
X1193274Y1215690D01*
X1192981Y1217161D01*
X1192148Y1218408D01*
X1190901Y1219241D01*
X1189430Y1219534D01*
D02*
G37*
G36*
X1178430D02*
X1176959Y1219241D01*
X1175712Y1218408D01*
X1174879Y1217161D01*
X1174586Y1215690D01*
X1174879Y1214219D01*
X1175712Y1212972D01*
X1176959Y1212139D01*
X1178430Y1211846D01*
X1179901Y1212139D01*
X1181148Y1212972D01*
X1181981Y1214219D01*
X1182274Y1215690D01*
X1181981Y1217161D01*
X1181148Y1218408D01*
X1179901Y1219241D01*
X1178430Y1219534D01*
D02*
G37*
G36*
X1285390Y1217456D02*
X1283919Y1217163D01*
X1282672Y1216330D01*
X1281839Y1215083D01*
X1281546Y1213612D01*
X1281839Y1212141D01*
X1282672Y1210894D01*
X1283919Y1210061D01*
X1285390Y1209768D01*
X1286861Y1210061D01*
X1288108Y1210894D01*
X1288941Y1212141D01*
X1289234Y1213612D01*
X1288941Y1215083D01*
X1288108Y1216330D01*
X1286861Y1217163D01*
X1285390Y1217456D01*
D02*
G37*
G36*
X799690Y1230290D02*
X798219Y1229997D01*
X796972Y1229164D01*
X796139Y1227917D01*
X795846Y1226446D01*
X796139Y1224975D01*
X796972Y1223728D01*
X798219Y1222895D01*
X798901Y1222759D01*
X799236Y1222692D01*
Y1221398D01*
X798901Y1221331D01*
X798219Y1221195D01*
X796972Y1220362D01*
X796139Y1219115D01*
X795846Y1217644D01*
X796139Y1216173D01*
X796972Y1214926D01*
X798219Y1214093D01*
X799690Y1213800D01*
X801161Y1214093D01*
X802122Y1214735D01*
X803038Y1213820D01*
X802899Y1213611D01*
X802606Y1212140D01*
X802899Y1210669D01*
X803732Y1209422D01*
X804979Y1208589D01*
X806450Y1208296D01*
X807921Y1208589D01*
X809168Y1209422D01*
X810001Y1210669D01*
X810294Y1212140D01*
X810001Y1213611D01*
X809168Y1214858D01*
X807921Y1215691D01*
X806450Y1215984D01*
X804979Y1215691D01*
X804017Y1215049D01*
X803102Y1215964D01*
X803241Y1216173D01*
X803534Y1217644D01*
X803241Y1219115D01*
X802408Y1220362D01*
X801161Y1221195D01*
X800479Y1221331D01*
X800144Y1221398D01*
Y1222692D01*
X800479Y1222759D01*
X801161Y1222895D01*
X802408Y1223728D01*
X803241Y1224975D01*
X803534Y1226446D01*
X803241Y1227917D01*
X802408Y1229164D01*
X801161Y1229997D01*
X799690Y1230290D01*
D02*
G37*
G36*
X674970Y1217768D02*
X672816Y1217340D01*
X670990Y1216120D01*
X669770Y1214294D01*
X669342Y1212140D01*
X669770Y1209986D01*
X670990Y1208160D01*
X672816Y1206940D01*
X674970Y1206512D01*
X677124Y1206940D01*
X678950Y1208160D01*
X680170Y1209986D01*
X680598Y1212140D01*
X680170Y1214294D01*
X678950Y1216120D01*
X677124Y1217340D01*
X674970Y1217768D01*
D02*
G37*
G36*
X1261110Y1209076D02*
Y1205460D01*
X1264726D01*
X1264588Y1206156D01*
X1263474Y1207824D01*
X1261806Y1208938D01*
X1261110Y1209076D01*
D02*
G37*
G36*
X1258570D02*
X1257874Y1208938D01*
X1256206Y1207824D01*
X1255092Y1206156D01*
X1254954Y1205460D01*
X1258570D01*
Y1209076D01*
D02*
G37*
G36*
X1126490Y1212534D02*
X1125019Y1212241D01*
X1123772Y1211408D01*
X1122939Y1210161D01*
X1122646Y1208690D01*
X1122939Y1207219D01*
X1123772Y1205972D01*
X1125019Y1205139D01*
X1126490Y1204846D01*
X1127961Y1205139D01*
X1129208Y1205972D01*
X1130041Y1207219D01*
X1130334Y1208690D01*
X1130041Y1210161D01*
X1129208Y1211408D01*
X1127961Y1212241D01*
X1126490Y1212534D01*
D02*
G37*
G36*
X767190Y1208634D02*
X765719Y1208341D01*
X764472Y1207508D01*
X763639Y1206261D01*
X763346Y1204790D01*
X763639Y1203319D01*
X764472Y1202072D01*
X765719Y1201239D01*
X767190Y1200946D01*
X768661Y1201239D01*
X769908Y1202072D01*
X770741Y1203319D01*
X771034Y1204790D01*
X770741Y1206261D01*
X769908Y1207508D01*
X768661Y1208341D01*
X767190Y1208634D01*
D02*
G37*
G36*
X1222430Y1208534D02*
X1220959Y1208241D01*
X1219712Y1207408D01*
X1218879Y1206161D01*
X1218586Y1204690D01*
X1218879Y1203219D01*
X1219712Y1201972D01*
X1220959Y1201139D01*
X1222430Y1200846D01*
X1223901Y1201139D01*
X1225148Y1201972D01*
X1225981Y1203219D01*
X1226274Y1204690D01*
X1225981Y1206161D01*
X1225148Y1207408D01*
X1223901Y1208241D01*
X1222430Y1208534D01*
D02*
G37*
G36*
X1211430D02*
X1209959Y1208241D01*
X1208712Y1207408D01*
X1207879Y1206161D01*
X1207586Y1204690D01*
X1207879Y1203219D01*
X1208712Y1201972D01*
X1209959Y1201139D01*
X1211430Y1200846D01*
X1212901Y1201139D01*
X1214148Y1201972D01*
X1214981Y1203219D01*
X1215274Y1204690D01*
X1214981Y1206161D01*
X1214148Y1207408D01*
X1212901Y1208241D01*
X1211430Y1208534D01*
D02*
G37*
G36*
X1200430D02*
X1198959Y1208241D01*
X1197712Y1207408D01*
X1196879Y1206161D01*
X1196586Y1204690D01*
X1196879Y1203219D01*
X1197712Y1201972D01*
X1198959Y1201139D01*
X1200430Y1200846D01*
X1201901Y1201139D01*
X1203148Y1201972D01*
X1203981Y1203219D01*
X1204274Y1204690D01*
X1203981Y1206161D01*
X1203148Y1207408D01*
X1201901Y1208241D01*
X1200430Y1208534D01*
D02*
G37*
G36*
X1189430D02*
X1187959Y1208241D01*
X1186712Y1207408D01*
X1185879Y1206161D01*
X1185586Y1204690D01*
X1185879Y1203219D01*
X1186712Y1201972D01*
X1187959Y1201139D01*
X1189430Y1200846D01*
X1190901Y1201139D01*
X1192148Y1201972D01*
X1192981Y1203219D01*
X1193274Y1204690D01*
X1192981Y1206161D01*
X1192148Y1207408D01*
X1190901Y1208241D01*
X1189430Y1208534D01*
D02*
G37*
G36*
X1178430D02*
X1176959Y1208241D01*
X1175712Y1207408D01*
X1174879Y1206161D01*
X1174586Y1204690D01*
X1174879Y1203219D01*
X1175712Y1201972D01*
X1176959Y1201139D01*
X1178430Y1200846D01*
X1179901Y1201139D01*
X1181148Y1201972D01*
X1181981Y1203219D01*
X1182274Y1204690D01*
X1181981Y1206161D01*
X1181148Y1207408D01*
X1179901Y1208241D01*
X1178430Y1208534D01*
D02*
G37*
G36*
X1264726Y1202920D02*
X1261110D01*
Y1199304D01*
X1261806Y1199442D01*
X1263474Y1200556D01*
X1264588Y1202224D01*
X1264726Y1202920D01*
D02*
G37*
G36*
X1258570D02*
X1254954D01*
X1255092Y1202224D01*
X1256206Y1200556D01*
X1257874Y1199442D01*
X1258570Y1199304D01*
Y1202920D01*
D02*
G37*
G36*
X960628Y1205518D02*
X959157Y1205225D01*
X957910Y1204392D01*
X957077Y1203145D01*
X956784Y1201674D01*
X957077Y1200203D01*
X957910Y1198956D01*
X959157Y1198123D01*
X960628Y1197830D01*
X962099Y1198123D01*
X963346Y1198956D01*
X964179Y1200203D01*
X964472Y1201674D01*
X964179Y1203145D01*
X963346Y1204392D01*
X962099Y1205225D01*
X960628Y1205518D01*
D02*
G37*
G36*
X825500Y1201708D02*
X824029Y1201415D01*
X822782Y1200582D01*
X821949Y1199335D01*
X821656Y1197864D01*
X821949Y1196393D01*
X822782Y1195146D01*
X824029Y1194313D01*
X825500Y1194020D01*
X826971Y1194313D01*
X828218Y1195146D01*
X829051Y1196393D01*
X829344Y1197864D01*
X829051Y1199335D01*
X828218Y1200582D01*
X826971Y1201415D01*
X825500Y1201708D01*
D02*
G37*
G36*
X922274Y1197390D02*
X920803Y1197097D01*
X919556Y1196264D01*
X918723Y1195017D01*
X918430Y1193546D01*
X918723Y1192075D01*
X919556Y1190828D01*
X920803Y1189995D01*
X922274Y1189702D01*
X923745Y1189995D01*
X924992Y1190828D01*
X925825Y1192075D01*
X926118Y1193546D01*
X925825Y1195017D01*
X924992Y1196264D01*
X923745Y1197097D01*
X922274Y1197390D01*
D02*
G37*
G36*
X1040588Y1196374D02*
X1039117Y1196081D01*
X1037870Y1195248D01*
X1037037Y1194001D01*
X1036744Y1192530D01*
X1037037Y1191059D01*
X1037870Y1189812D01*
X1039117Y1188979D01*
X1040588Y1188686D01*
X1042059Y1188979D01*
X1043306Y1189812D01*
X1044139Y1191059D01*
X1044432Y1192530D01*
X1044139Y1194001D01*
X1043306Y1195248D01*
X1042059Y1196081D01*
X1040588Y1196374D01*
D02*
G37*
G36*
X1276350Y1195224D02*
X1274879Y1194931D01*
X1273632Y1194098D01*
X1272799Y1192851D01*
X1272506Y1191380D01*
X1272799Y1189909D01*
X1273632Y1188662D01*
X1274879Y1187829D01*
X1276350Y1187536D01*
X1277821Y1187829D01*
X1279068Y1188662D01*
X1279901Y1189909D01*
X1280194Y1191380D01*
X1279901Y1192851D01*
X1279068Y1194098D01*
X1277821Y1194931D01*
X1276350Y1195224D01*
D02*
G37*
G36*
X1212850Y1194850D02*
X1211379Y1194557D01*
X1210132Y1193724D01*
X1209299Y1192477D01*
X1209006Y1191006D01*
X1209299Y1189535D01*
X1210132Y1188288D01*
X1211379Y1187455D01*
X1212850Y1187162D01*
X1214321Y1187455D01*
X1215568Y1188288D01*
X1216401Y1189535D01*
X1216694Y1191006D01*
X1216401Y1192477D01*
X1215568Y1193724D01*
X1214321Y1194557D01*
X1212850Y1194850D01*
D02*
G37*
G36*
X957248Y1192818D02*
X955777Y1192525D01*
X954530Y1191692D01*
X953697Y1190445D01*
X953404Y1188974D01*
X953697Y1187503D01*
X954530Y1186256D01*
X955777Y1185423D01*
X957248Y1185130D01*
X958719Y1185423D01*
X959966Y1186256D01*
X960800Y1187503D01*
X961092Y1188974D01*
X960800Y1190445D01*
X959966Y1191692D01*
X958719Y1192525D01*
X957248Y1192818D01*
D02*
G37*
G36*
X1259840Y1190024D02*
X1258369Y1189731D01*
X1257122Y1188898D01*
X1256289Y1187651D01*
X1255996Y1186180D01*
X1256289Y1184709D01*
X1257122Y1183462D01*
X1258369Y1182629D01*
X1259840Y1182336D01*
X1261311Y1182629D01*
X1262558Y1183462D01*
X1263391Y1184709D01*
X1263684Y1186180D01*
X1263391Y1187651D01*
X1262558Y1188898D01*
X1261311Y1189731D01*
X1259840Y1190024D01*
D02*
G37*
G36*
X875970Y1192768D02*
X873816Y1192340D01*
X871990Y1191120D01*
X870770Y1189294D01*
X870342Y1187140D01*
X870770Y1184986D01*
X871990Y1183160D01*
X873816Y1181940D01*
X875970Y1181512D01*
X878124Y1181940D01*
X879950Y1183160D01*
X881170Y1184986D01*
X881598Y1187140D01*
X881170Y1189294D01*
X879950Y1191120D01*
X878124Y1192340D01*
X875970Y1192768D01*
D02*
G37*
G36*
X1092200Y1184566D02*
Y1180950D01*
X1095816D01*
X1095678Y1181646D01*
X1094564Y1183314D01*
X1092896Y1184428D01*
X1092200Y1184566D01*
D02*
G37*
G36*
X1089660D02*
X1088963Y1184428D01*
X1087296Y1183314D01*
X1086182Y1181646D01*
X1086044Y1180950D01*
X1089660D01*
Y1184566D01*
D02*
G37*
G36*
X1151890Y1184534D02*
X1150419Y1184241D01*
X1149172Y1183408D01*
X1148339Y1182161D01*
X1148046Y1180690D01*
X1148339Y1179219D01*
X1149172Y1177972D01*
X1150419Y1177139D01*
X1151890Y1176846D01*
X1153361Y1177139D01*
X1154608Y1177972D01*
X1155441Y1179219D01*
X1155734Y1180690D01*
X1155441Y1182161D01*
X1154608Y1183408D01*
X1153361Y1184241D01*
X1151890Y1184534D01*
D02*
G37*
G36*
X1141730Y1193034D02*
X1140259Y1192741D01*
X1139012Y1191908D01*
X1138913Y1191759D01*
X1137430D01*
X1136447Y1191564D01*
X1135613Y1191007D01*
X1129553Y1184947D01*
X1128996Y1184113D01*
X1128801Y1183130D01*
Y1173328D01*
X1126592Y1171119D01*
X1093747D01*
X1093648Y1171268D01*
X1092401Y1172101D01*
X1090930Y1172394D01*
X1089459Y1172101D01*
X1088212Y1171268D01*
X1087379Y1170021D01*
X1087086Y1168550D01*
X1087379Y1167079D01*
X1088212Y1165832D01*
X1089459Y1164999D01*
X1090930Y1164706D01*
X1092401Y1164999D01*
X1093648Y1165832D01*
X1093747Y1165981D01*
X1127656D01*
X1128639Y1166176D01*
X1129473Y1166733D01*
X1133187Y1170447D01*
X1133744Y1171281D01*
X1133939Y1172264D01*
Y1182066D01*
X1137845Y1185972D01*
X1139012Y1186472D01*
X1140259Y1185639D01*
X1140537Y1185583D01*
Y1184289D01*
X1140299Y1184241D01*
X1139052Y1183408D01*
X1138219Y1182161D01*
X1137926Y1180690D01*
X1138219Y1179219D01*
X1139052Y1177972D01*
X1140299Y1177139D01*
X1141770Y1176846D01*
X1143241Y1177139D01*
X1144488Y1177972D01*
X1145321Y1179219D01*
X1145614Y1180690D01*
X1145321Y1182161D01*
X1144488Y1183408D01*
X1143241Y1184241D01*
X1142963Y1184296D01*
Y1185591D01*
X1143201Y1185639D01*
X1144448Y1186472D01*
X1145281Y1187719D01*
X1145574Y1189190D01*
X1145281Y1190661D01*
X1144448Y1191908D01*
X1143201Y1192741D01*
X1141730Y1193034D01*
D02*
G37*
G36*
X1095816Y1178410D02*
X1092200D01*
Y1174794D01*
X1092896Y1174932D01*
X1094564Y1176046D01*
X1095678Y1177713D01*
X1095816Y1178410D01*
D02*
G37*
G36*
X1089660D02*
X1086044D01*
X1086182Y1177713D01*
X1087296Y1176046D01*
X1088963Y1174932D01*
X1089660Y1174794D01*
Y1178410D01*
D02*
G37*
G36*
X781460Y1178366D02*
Y1174750D01*
X785076D01*
X784938Y1175446D01*
X783824Y1177114D01*
X782157Y1178228D01*
X781460Y1178366D01*
D02*
G37*
G36*
X778920D02*
X778223Y1178228D01*
X776556Y1177114D01*
X775442Y1175446D01*
X775304Y1174750D01*
X778920D01*
Y1178366D01*
D02*
G37*
G36*
X748960D02*
Y1174750D01*
X752576D01*
X752438Y1175446D01*
X751324Y1177114D01*
X749657Y1178228D01*
X748960Y1178366D01*
D02*
G37*
G36*
X746420D02*
X745723Y1178228D01*
X744056Y1177114D01*
X742942Y1175446D01*
X742804Y1174750D01*
X746420D01*
Y1178366D01*
D02*
G37*
G36*
X1012952Y1177076D02*
Y1173460D01*
X1016568D01*
X1016430Y1174156D01*
X1015316Y1175824D01*
X1013649Y1176938D01*
X1012952Y1177076D01*
D02*
G37*
G36*
X1010412D02*
X1009715Y1176938D01*
X1008048Y1175824D01*
X1006934Y1174156D01*
X1006796Y1173460D01*
X1010412D01*
Y1177076D01*
D02*
G37*
G36*
X1060196Y1180880D02*
X1058725Y1180587D01*
X1057478Y1179754D01*
X1056645Y1178507D01*
X1056352Y1177036D01*
X1056645Y1175565D01*
X1057478Y1174318D01*
X1058725Y1173485D01*
X1060196Y1173192D01*
X1061667Y1173485D01*
X1062914Y1174318D01*
X1063747Y1175565D01*
X1064040Y1177036D01*
X1063747Y1178507D01*
X1062914Y1179754D01*
X1061667Y1180587D01*
X1060196Y1180880D01*
D02*
G37*
G36*
X1046970Y1184318D02*
X1044816Y1183890D01*
X1042990Y1182670D01*
X1041770Y1180844D01*
X1041342Y1178690D01*
X1041770Y1176536D01*
X1042990Y1174710D01*
X1044816Y1173490D01*
X1046970Y1173062D01*
X1049124Y1173490D01*
X1050950Y1174710D01*
X1052170Y1176536D01*
X1052598Y1178690D01*
X1052170Y1180844D01*
X1050950Y1182670D01*
X1049124Y1183890D01*
X1046970Y1184318D01*
D02*
G37*
G36*
X1259415Y1173286D02*
Y1169670D01*
X1263031D01*
X1262893Y1170367D01*
X1261779Y1172034D01*
X1260111Y1173148D01*
X1259415Y1173286D01*
D02*
G37*
G36*
X1256875D02*
X1256179Y1173148D01*
X1254511Y1172034D01*
X1253397Y1170367D01*
X1253259Y1169670D01*
X1256875D01*
Y1173286D01*
D02*
G37*
G36*
X984970Y1187788D02*
X982615Y1187478D01*
X980421Y1186569D01*
X978537Y1185123D01*
X977091Y1183239D01*
X976182Y1181045D01*
X975872Y1178690D01*
X976182Y1176335D01*
X977091Y1174141D01*
X978537Y1172257D01*
X980421Y1170811D01*
X982615Y1169902D01*
X984970Y1169592D01*
X987325Y1169902D01*
X989519Y1170811D01*
X991403Y1172257D01*
X992849Y1174141D01*
X993758Y1176335D01*
X994068Y1178690D01*
X993758Y1181045D01*
X992849Y1183239D01*
X991403Y1185123D01*
X989519Y1186569D01*
X987325Y1187478D01*
X984970Y1187788D01*
D02*
G37*
G36*
X785076Y1172210D02*
X781460D01*
Y1168594D01*
X782157Y1168732D01*
X783824Y1169846D01*
X784938Y1171514D01*
X785076Y1172210D01*
D02*
G37*
G36*
X778920D02*
X775304D01*
X775442Y1171514D01*
X776556Y1169846D01*
X778223Y1168732D01*
X778920Y1168594D01*
Y1172210D01*
D02*
G37*
G36*
X752576D02*
X748960D01*
Y1168594D01*
X749657Y1168732D01*
X751324Y1169846D01*
X752438Y1171514D01*
X752576Y1172210D01*
D02*
G37*
G36*
X746420D02*
X742804D01*
X742942Y1171514D01*
X744056Y1169846D01*
X745723Y1168732D01*
X746420Y1168594D01*
Y1172210D01*
D02*
G37*
G36*
X819190Y1175534D02*
X817719Y1175241D01*
X816472Y1174408D01*
X815639Y1173161D01*
X815346Y1171690D01*
X815639Y1170219D01*
X816472Y1168972D01*
X817719Y1168139D01*
X819190Y1167846D01*
X820661Y1168139D01*
X821908Y1168972D01*
X822741Y1170219D01*
X823034Y1171690D01*
X822741Y1173161D01*
X821908Y1174408D01*
X820661Y1175241D01*
X819190Y1175534D01*
D02*
G37*
G36*
X1016568Y1170920D02*
X1012952D01*
Y1167304D01*
X1013649Y1167442D01*
X1015316Y1168556D01*
X1016430Y1170223D01*
X1016568Y1170920D01*
D02*
G37*
G36*
X1010412D02*
X1006796D01*
X1006934Y1170223D01*
X1008048Y1168556D01*
X1009715Y1167442D01*
X1010412Y1167304D01*
Y1170920D01*
D02*
G37*
G36*
X770382Y1174784D02*
X768911Y1174491D01*
X767664Y1173658D01*
X766831Y1172411D01*
X766538Y1170940D01*
X766831Y1169469D01*
X767664Y1168222D01*
X768911Y1167389D01*
X770382Y1167096D01*
X771853Y1167389D01*
X773100Y1168222D01*
X773933Y1169469D01*
X774226Y1170940D01*
X773933Y1172411D01*
X773100Y1173658D01*
X771853Y1174491D01*
X770382Y1174784D01*
D02*
G37*
G36*
X760690D02*
X759219Y1174491D01*
X757972Y1173658D01*
X757139Y1172411D01*
X756846Y1170940D01*
X757139Y1169469D01*
X757972Y1168222D01*
X759219Y1167389D01*
X760690Y1167096D01*
X762161Y1167389D01*
X763408Y1168222D01*
X764241Y1169469D01*
X764534Y1170940D01*
X764241Y1172411D01*
X763408Y1173658D01*
X762161Y1174491D01*
X760690Y1174784D01*
D02*
G37*
G36*
X1222756Y1173260D02*
X1221285Y1172967D01*
X1220038Y1172134D01*
X1219205Y1170887D01*
X1218912Y1169416D01*
X1218947Y1169241D01*
X1216875Y1167169D01*
X1216318Y1166335D01*
X1216123Y1165352D01*
Y1131847D01*
X1215974Y1131748D01*
X1215141Y1130501D01*
X1214848Y1129030D01*
X1215141Y1127559D01*
X1215974Y1126312D01*
X1217221Y1125479D01*
X1218692Y1125186D01*
X1220163Y1125479D01*
X1221410Y1126312D01*
X1222243Y1127559D01*
X1222536Y1129030D01*
X1222243Y1130501D01*
X1221410Y1131748D01*
X1221261Y1131847D01*
Y1154841D01*
X1222531Y1155226D01*
X1222865Y1154726D01*
X1224532Y1153613D01*
X1225229Y1153474D01*
Y1158360D01*
Y1163246D01*
X1224532Y1163108D01*
X1222865Y1161994D01*
X1222531Y1161494D01*
X1221261Y1161879D01*
Y1164288D01*
X1222581Y1165607D01*
X1222756Y1165572D01*
X1224227Y1165865D01*
X1225474Y1166698D01*
X1226307Y1167945D01*
X1226600Y1169416D01*
X1226307Y1170887D01*
X1225474Y1172134D01*
X1224227Y1172967D01*
X1222756Y1173260D01*
D02*
G37*
G36*
X1207770Y1172777D02*
X1206299Y1172484D01*
X1205052Y1171651D01*
X1204219Y1170404D01*
X1203926Y1168933D01*
X1204219Y1167462D01*
X1205052Y1166215D01*
X1206299Y1165382D01*
X1207770Y1165089D01*
X1209241Y1165382D01*
X1210488Y1166215D01*
X1211321Y1167462D01*
X1211614Y1168933D01*
X1211321Y1170404D01*
X1210488Y1171651D01*
X1209241Y1172484D01*
X1207770Y1172777D01*
D02*
G37*
G36*
X1263031Y1167130D02*
X1259415D01*
Y1163514D01*
X1260111Y1163652D01*
X1261779Y1164766D01*
X1262893Y1166433D01*
X1263031Y1167130D01*
D02*
G37*
G36*
X1256875D02*
X1253259D01*
X1253397Y1166433D01*
X1254511Y1164766D01*
X1256179Y1163652D01*
X1256875Y1163514D01*
Y1167130D01*
D02*
G37*
G36*
X1076960Y1166936D02*
Y1163320D01*
X1080576D01*
X1080438Y1164016D01*
X1079324Y1165684D01*
X1077656Y1166798D01*
X1076960Y1166936D01*
D02*
G37*
G36*
X1074420D02*
X1073724Y1166798D01*
X1072056Y1165684D01*
X1070942Y1164016D01*
X1070804Y1163320D01*
X1074420D01*
Y1166936D01*
D02*
G37*
G36*
X1184200Y1164396D02*
Y1160780D01*
X1187816D01*
X1187678Y1161477D01*
X1186564Y1163144D01*
X1184896Y1164258D01*
X1184200Y1164396D01*
D02*
G37*
G36*
X1181660D02*
X1180964Y1164258D01*
X1179296Y1163144D01*
X1178182Y1161477D01*
X1178044Y1160780D01*
X1181660D01*
Y1164396D01*
D02*
G37*
G36*
X1227769Y1163246D02*
Y1159630D01*
X1231385D01*
X1231247Y1160327D01*
X1230133Y1161994D01*
X1228465Y1163108D01*
X1227769Y1163246D01*
D02*
G37*
G36*
X578264Y1165894D02*
X576793Y1165601D01*
X575546Y1164768D01*
X574713Y1163521D01*
X574420Y1162050D01*
X574713Y1160579D01*
X575546Y1159332D01*
X576793Y1158499D01*
X578264Y1158206D01*
X579735Y1158499D01*
X580982Y1159332D01*
X581815Y1160579D01*
X582108Y1162050D01*
X581815Y1163521D01*
X580982Y1164768D01*
X579735Y1165601D01*
X578264Y1165894D01*
D02*
G37*
G36*
X594355Y1165640D02*
X592884Y1165347D01*
X591637Y1164514D01*
X590804Y1163267D01*
X590511Y1161796D01*
X590804Y1160325D01*
X591637Y1159078D01*
X592884Y1158245D01*
X594355Y1157952D01*
X595826Y1158245D01*
X597073Y1159078D01*
X597906Y1160325D01*
X598199Y1161796D01*
X597906Y1163267D01*
X597073Y1164514D01*
X595826Y1165347D01*
X594355Y1165640D01*
D02*
G37*
G36*
X610357Y1165596D02*
X608886Y1165303D01*
X607639Y1164470D01*
X606806Y1163223D01*
X606513Y1161752D01*
X606806Y1160281D01*
X607639Y1159034D01*
X608886Y1158201D01*
X610357Y1157908D01*
X611828Y1158201D01*
X613075Y1159034D01*
X613909Y1160281D01*
X614201Y1161752D01*
X613909Y1163223D01*
X613075Y1164470D01*
X611828Y1165303D01*
X610357Y1165596D01*
D02*
G37*
G36*
X1080576Y1160780D02*
X1076960D01*
Y1157164D01*
X1077656Y1157302D01*
X1079324Y1158416D01*
X1080438Y1160083D01*
X1080576Y1160780D01*
D02*
G37*
G36*
X1074420D02*
X1070804D01*
X1070942Y1160083D01*
X1072056Y1158416D01*
X1073724Y1157302D01*
X1074420Y1157164D01*
Y1160780D01*
D02*
G37*
G36*
X1207930Y1162712D02*
X1206459Y1162419D01*
X1205212Y1161586D01*
X1204379Y1160339D01*
X1204086Y1158868D01*
X1204379Y1157397D01*
X1205212Y1156150D01*
X1206459Y1155317D01*
X1207930Y1155024D01*
X1209401Y1155317D01*
X1210648Y1156150D01*
X1211481Y1157397D01*
X1211774Y1158868D01*
X1211481Y1160339D01*
X1210648Y1161586D01*
X1209401Y1162419D01*
X1207930Y1162712D01*
D02*
G37*
G36*
X1187816Y1158240D02*
X1184200D01*
Y1154624D01*
X1184896Y1154762D01*
X1186564Y1155876D01*
X1187678Y1157543D01*
X1187816Y1158240D01*
D02*
G37*
G36*
X1181660D02*
X1178044D01*
X1178182Y1157543D01*
X1179296Y1155876D01*
X1180964Y1154762D01*
X1181660Y1154624D01*
Y1158240D01*
D02*
G37*
G36*
X1231385Y1157090D02*
X1227769D01*
Y1153474D01*
X1228465Y1153613D01*
X1230133Y1154726D01*
X1231247Y1156394D01*
X1231385Y1157090D01*
D02*
G37*
G36*
X1000970Y1161068D02*
X998816Y1160640D01*
X996990Y1159420D01*
X995770Y1157594D01*
X995342Y1155440D01*
X995770Y1153286D01*
X996990Y1151460D01*
X998816Y1150240D01*
X1000970Y1149812D01*
X1003124Y1150240D01*
X1004950Y1151460D01*
X1006170Y1153286D01*
X1006598Y1155440D01*
X1006170Y1157594D01*
X1004950Y1159420D01*
X1003124Y1160640D01*
X1000970Y1161068D01*
D02*
G37*
G36*
X950970D02*
X948816Y1160640D01*
X946990Y1159420D01*
X945770Y1157594D01*
X945342Y1155440D01*
X945770Y1153286D01*
X946990Y1151460D01*
X948816Y1150240D01*
X950970Y1149812D01*
X953124Y1150240D01*
X954950Y1151460D01*
X956170Y1153286D01*
X956598Y1155440D01*
X956170Y1157594D01*
X954950Y1159420D01*
X953124Y1160640D01*
X950970Y1161068D01*
D02*
G37*
G36*
X903970D02*
X901816Y1160640D01*
X899990Y1159420D01*
X898770Y1157594D01*
X898342Y1155440D01*
X898770Y1153286D01*
X899990Y1151460D01*
X901816Y1150240D01*
X903970Y1149812D01*
X906124Y1150240D01*
X907950Y1151460D01*
X909170Y1153286D01*
X909598Y1155440D01*
X909170Y1157594D01*
X907950Y1159420D01*
X906124Y1160640D01*
X903970Y1161068D01*
D02*
G37*
G36*
X1098804Y1153604D02*
X1097333Y1153311D01*
X1096086Y1152478D01*
X1095253Y1151231D01*
X1094960Y1149760D01*
X1095253Y1148289D01*
X1096086Y1147042D01*
X1097333Y1146209D01*
X1098804Y1145916D01*
X1100275Y1146209D01*
X1101522Y1147042D01*
X1102355Y1148289D01*
X1102648Y1149760D01*
X1102355Y1151231D01*
X1101522Y1152478D01*
X1100275Y1153311D01*
X1098804Y1153604D01*
D02*
G37*
G36*
X1025970Y1166807D02*
X1023028Y1166420D01*
X1020286Y1165284D01*
X1017932Y1163478D01*
X1016126Y1161124D01*
X1014990Y1158382D01*
X1014603Y1155440D01*
X1014990Y1152498D01*
X1016126Y1149756D01*
X1017932Y1147402D01*
X1020286Y1145596D01*
X1023028Y1144460D01*
X1025970Y1144073D01*
X1028912Y1144460D01*
X1031654Y1145596D01*
X1034008Y1147402D01*
X1035814Y1149756D01*
X1036950Y1152498D01*
X1037337Y1155440D01*
X1036950Y1158382D01*
X1035814Y1161124D01*
X1034008Y1163478D01*
X1031654Y1165284D01*
X1028912Y1166420D01*
X1025970Y1166807D01*
D02*
G37*
G36*
X925970D02*
X923028Y1166420D01*
X920286Y1165284D01*
X917932Y1163478D01*
X916126Y1161124D01*
X914990Y1158382D01*
X914603Y1155440D01*
X914990Y1152498D01*
X916126Y1149756D01*
X917932Y1147402D01*
X920286Y1145596D01*
X923028Y1144460D01*
X925970Y1144073D01*
X928912Y1144460D01*
X931654Y1145596D01*
X934008Y1147402D01*
X935814Y1149756D01*
X936950Y1152498D01*
X937337Y1155440D01*
X936950Y1158382D01*
X935814Y1161124D01*
X934008Y1163478D01*
X931654Y1165284D01*
X928912Y1166420D01*
X925970Y1166807D01*
D02*
G37*
G36*
X825970D02*
X823028Y1166420D01*
X820286Y1165284D01*
X817932Y1163478D01*
X816126Y1161124D01*
X814990Y1158382D01*
X814603Y1155440D01*
X814990Y1152498D01*
X816126Y1149756D01*
X817932Y1147402D01*
X820286Y1145596D01*
X823028Y1144460D01*
X825970Y1144073D01*
X828912Y1144460D01*
X831654Y1145596D01*
X834008Y1147402D01*
X835814Y1149756D01*
X836950Y1152498D01*
X837337Y1155440D01*
X836950Y1158382D01*
X835814Y1161124D01*
X834008Y1163478D01*
X831654Y1165284D01*
X828912Y1166420D01*
X825970Y1166807D01*
D02*
G37*
G36*
X725970D02*
X723028Y1166420D01*
X720286Y1165284D01*
X717932Y1163478D01*
X716126Y1161124D01*
X714990Y1158382D01*
X714603Y1155440D01*
X714990Y1152498D01*
X716126Y1149756D01*
X717932Y1147402D01*
X720286Y1145596D01*
X723028Y1144460D01*
X725970Y1144073D01*
X728912Y1144460D01*
X731654Y1145596D01*
X734008Y1147402D01*
X735814Y1149756D01*
X736950Y1152498D01*
X737337Y1155440D01*
X736950Y1158382D01*
X735814Y1161124D01*
X734008Y1163478D01*
X731654Y1165284D01*
X728912Y1166420D01*
X725970Y1166807D01*
D02*
G37*
G36*
X1270000Y1130907D02*
X1268529Y1130615D01*
X1267282Y1129781D01*
X1266449Y1128534D01*
X1266156Y1127064D01*
X1266449Y1125592D01*
X1267282Y1124345D01*
X1268529Y1123512D01*
X1270000Y1123220D01*
X1271471Y1123512D01*
X1272718Y1124345D01*
X1273551Y1125592D01*
X1273844Y1127064D01*
X1273551Y1128534D01*
X1272718Y1129781D01*
X1271471Y1130615D01*
X1270000Y1130907D01*
D02*
G37*
G36*
X622290Y1130445D02*
X620819Y1130152D01*
X619572Y1129319D01*
X618739Y1128072D01*
X618446Y1126601D01*
X618739Y1125130D01*
X619572Y1123883D01*
X620819Y1123050D01*
X622290Y1122757D01*
X623761Y1123050D01*
X625008Y1123883D01*
X625841Y1125130D01*
X626134Y1126601D01*
X625841Y1128072D01*
X625008Y1129319D01*
X623761Y1130152D01*
X622290Y1130445D01*
D02*
G37*
G36*
X567070Y1130334D02*
X565599Y1130041D01*
X564352Y1129208D01*
X563519Y1127961D01*
X563226Y1126490D01*
X563519Y1125019D01*
X564352Y1123772D01*
X565599Y1122939D01*
X567070Y1122646D01*
X568541Y1122939D01*
X569788Y1123772D01*
X570621Y1125019D01*
X570914Y1126490D01*
X570621Y1127961D01*
X569788Y1129208D01*
X568541Y1130041D01*
X567070Y1130334D01*
D02*
G37*
G36*
X1123950Y1128088D02*
X1122479Y1127795D01*
X1121232Y1126962D01*
X1120399Y1125715D01*
X1120106Y1124244D01*
X1120399Y1122773D01*
X1121232Y1121526D01*
X1122479Y1120693D01*
X1123950Y1120400D01*
X1125421Y1120693D01*
X1126668Y1121526D01*
X1127501Y1122773D01*
X1127794Y1124244D01*
X1127501Y1125715D01*
X1126668Y1126962D01*
X1125421Y1127795D01*
X1123950Y1128088D01*
D02*
G37*
G36*
X1202944Y1126931D02*
X1201473Y1126638D01*
X1200226Y1125805D01*
X1199393Y1124558D01*
X1199100Y1123087D01*
X1199393Y1121616D01*
X1200226Y1120369D01*
X1201473Y1119536D01*
X1202944Y1119243D01*
X1204415Y1119536D01*
X1205662Y1120369D01*
X1206495Y1121616D01*
X1206788Y1123087D01*
X1206495Y1124558D01*
X1205662Y1125805D01*
X1204415Y1126638D01*
X1202944Y1126931D01*
D02*
G37*
G36*
X1149350Y1116110D02*
X1147879Y1115817D01*
X1146632Y1114984D01*
X1145799Y1113737D01*
X1145506Y1112266D01*
X1145799Y1110795D01*
X1146632Y1109548D01*
X1147879Y1108715D01*
X1149350Y1108422D01*
X1150821Y1108715D01*
X1152068Y1109548D01*
X1152901Y1110795D01*
X1153194Y1112266D01*
X1152901Y1113737D01*
X1152068Y1114984D01*
X1150821Y1115817D01*
X1149350Y1116110D01*
D02*
G37*
G36*
X594311Y1112554D02*
X592840Y1112261D01*
X591593Y1111428D01*
X590760Y1110181D01*
X590467Y1108710D01*
X590760Y1107239D01*
X591593Y1105992D01*
X592840Y1105159D01*
X594311Y1104866D01*
X595782Y1105159D01*
X597029Y1105992D01*
X597862Y1107239D01*
X598155Y1108710D01*
X597862Y1110181D01*
X597029Y1111428D01*
X595782Y1112261D01*
X594311Y1112554D01*
D02*
G37*
G36*
X1174750Y1109760D02*
X1173279Y1109467D01*
X1172032Y1108634D01*
X1171199Y1107387D01*
X1170906Y1105916D01*
X1171199Y1104445D01*
X1172032Y1103198D01*
X1173279Y1102365D01*
X1174750Y1102072D01*
X1176221Y1102365D01*
X1177468Y1103198D01*
X1178301Y1104445D01*
X1178594Y1105916D01*
X1178301Y1107387D01*
X1177468Y1108634D01*
X1176221Y1109467D01*
X1174750Y1109760D01*
D02*
G37*
%LPD*%
D10*
X1090930Y1168550D02*
X1127656D01*
X1137430Y1189190D02*
X1141730D01*
X1131370Y1183130D02*
X1137430Y1189190D01*
X1131370Y1172264D02*
Y1183130D01*
X1127656Y1168550D02*
X1131370Y1172264D01*
X1057910Y1192530D02*
Y1217676D01*
X1055178Y1220408D02*
X1057910Y1217676D01*
X1055178Y1220408D02*
Y1228874D01*
X1057910Y1231607D02*
Y1277620D01*
X1055178Y1228874D02*
X1057910Y1231607D01*
X764590Y1223010D02*
X782320Y1240740D01*
X744220Y1223010D02*
X764590D01*
X1165816Y1296416D02*
X1177930Y1284302D01*
X1094486Y1296416D02*
X1165816D01*
X1090930Y1292860D02*
X1094486Y1296416D01*
X1218692Y1129030D02*
Y1165352D01*
X1222756Y1169416D01*
X1177930Y1283970D02*
Y1284302D01*
D37*
X657860Y1118870D02*
X1096264D01*
X1130808Y1084326D01*
X1219708D01*
X1225550Y1078484D01*
Y1063180D02*
Y1078484D01*
X638366Y1138364D02*
Y1200150D01*
Y1138364D02*
X657860Y1118870D01*
D38*
X1261110Y1264190D02*
Y1264920D01*
X1259840Y1264190D02*
X1261110D01*
D41*
X764540Y1333500D02*
D03*
X1225550Y1063180D02*
D03*
D43*
X1173275Y1312164D02*
D03*
X1231249Y1294241D02*
D03*
X1099820Y1303020D02*
D03*
X1090930Y1168550D02*
D03*
X744220Y1223010D02*
D03*
X782320Y1240740D02*
D03*
X1011682Y1287930D02*
D03*
Y1172190D02*
D03*
X1090930Y1179680D02*
D03*
X1218692Y1129030D02*
D03*
X1222756Y1169416D02*
D03*
X1090930Y1292860D02*
D03*
X1177930Y1283970D02*
D03*
X780190Y1173480D02*
D03*
X747690D02*
D03*
X844550Y1259840D02*
D03*
X1182930Y1159510D02*
D03*
X1057910Y1277620D02*
D03*
Y1192530D02*
D03*
X1075690Y1162050D02*
D03*
X1074420Y1238250D02*
D03*
X1226499Y1158360D02*
D03*
X1258145Y1168400D02*
D03*
X1259840Y1204190D02*
D03*
Y1264190D02*
D03*
X1246430Y1286890D02*
D03*
X1103630Y1235723D02*
D03*
X1141730Y1189190D02*
D03*
D44*
X638366Y1200150D02*
D03*
D45*
X640000Y1280001D02*
D03*
X630000Y1300001D02*
D03*
X620000Y1280001D02*
D03*
X610000Y1300001D02*
D03*
X600000Y1280001D02*
D03*
X610000Y1260001D02*
D03*
Y1220001D02*
D03*
X590000Y1300001D02*
D03*
X580000Y1280001D02*
D03*
X570000Y1300001D02*
D03*
X560000Y1280001D02*
D03*
Y1240001D02*
D03*
M02*
