G04*
G04 #@! TF.GenerationSoftware,Altium Limited,Altium Designer,22.8.2 (66)*
G04*
G04 Layer_Physical_Order=3*
G04 Layer_Color=128*
%FSLAX44Y44*%
%MOMM*%
G71*
G04*
G04 #@! TF.SameCoordinates,0D078035-4FBF-4C44-B062-B1887B6B3753*
G04*
G04*
G04 #@! TF.FilePolarity,Negative*
G04*
G01*
G75*
%ADD12C,0.3000*%
%ADD45C,1.0160*%
%ADD46C,2.5660*%
%ADD47C,1.8660*%
G04:AMPARAMS|DCode=48|XSize=2.574mm|YSize=2.574mm|CornerRadius=0mm|HoleSize=0mm|Usage=FLASHONLY|Rotation=0.000|XOffset=0mm|YOffset=0mm|HoleType=Round|Shape=Relief|Width=0.254mm|Gap=0.254mm|Entries=4|*
%AMTHD48*
7,0,0,2.5740,2.0660,0.2540,45*
%
%ADD48THD48*%
G04:AMPARAMS|DCode=49|XSize=2.474mm|YSize=2.474mm|CornerRadius=0mm|HoleSize=0mm|Usage=FLASHONLY|Rotation=0.000|XOffset=0mm|YOffset=0mm|HoleType=Round|Shape=Relief|Width=0.254mm|Gap=0.254mm|Entries=4|*
%AMTHD49*
7,0,0,2.4740,1.9660,0.2540,45*
%
%ADD49THD49*%
%ADD50C,1.9160*%
G04:AMPARAMS|DCode=51|XSize=2.424mm|YSize=2.424mm|CornerRadius=0mm|HoleSize=0mm|Usage=FLASHONLY|Rotation=0.000|XOffset=0mm|YOffset=0mm|HoleType=Round|Shape=Relief|Width=0.254mm|Gap=0.254mm|Entries=4|*
%AMTHD51*
7,0,0,2.4240,1.9160,0.2540,45*
%
%ADD51THD51*%
%ADD52C,4.1160*%
%ADD53C,1.3160*%
%ADD54C,1.7160*%
D12*
X1370330Y839470D02*
X1370754D01*
Y839990D01*
D45*
X742310Y676080D02*
G03*
X755010Y688780I0J12700D01*
G01*
X1205870Y690050D02*
G03*
X1218570Y677350I12700J0D01*
G01*
X1424310D02*
G03*
X1437010Y690050I0J12700D01*
G01*
X675010Y688780D02*
G03*
X687710Y676080I12700J0D01*
G01*
X742310D01*
X755010Y688780D02*
Y753740D01*
X1205870D01*
Y690050D02*
Y753740D01*
X1218570Y677350D02*
X1424310D01*
X1437010Y690050D02*
Y1003740D01*
X675010D02*
X1437010D01*
X675010Y688780D02*
Y1003740D01*
D46*
X1099580Y830740D02*
D03*
Y926740D02*
D03*
D47*
X1115580Y949990D02*
D03*
X1065580D02*
D03*
X1018580D02*
D03*
X1161580Y926740D02*
D03*
Y878740D02*
D03*
Y830740D02*
D03*
X1115580Y807490D02*
D03*
X1065580D02*
D03*
X1018580D02*
D03*
X990580Y893190D02*
D03*
Y839190D02*
D03*
X789580Y864190D02*
D03*
D48*
X790580Y949990D02*
D03*
X890580D02*
D03*
X990580D02*
D03*
X1090580D02*
D03*
X1040580Y807490D02*
D03*
X1140580D02*
D03*
X940580D02*
D03*
X840580D02*
D03*
D49*
X1370754Y907990D02*
D03*
Y839990D02*
D03*
D50*
X1243970Y718180D02*
D03*
X1269370D02*
D03*
X1294770D02*
D03*
X1320170D02*
D03*
X1247140Y982980D02*
D03*
X1323340D02*
D03*
X1348740D02*
D03*
X1272540D02*
D03*
X1345570Y718180D02*
D03*
D51*
X1297940Y982980D02*
D03*
X1218570Y718180D02*
D03*
D52*
X1395010Y713740D02*
D03*
X715010D02*
D03*
D53*
X1220470Y895350D02*
D03*
X1247140Y964946D02*
D03*
X1247648Y763016D02*
D03*
X1238250Y759460D02*
D03*
X1212088Y836930D02*
D03*
X1153414Y876808D02*
D03*
X1118870Y910590D02*
D03*
Y899160D02*
D03*
X1123950Y862330D02*
D03*
Y850900D02*
D03*
Y886460D02*
D03*
Y875030D02*
D03*
X1153610Y884740D02*
D03*
X1042160Y868740D02*
D03*
Y880740D02*
D03*
Y889510D02*
D03*
Y904740D02*
D03*
Y859280D02*
D03*
X700182Y958850D02*
D03*
X1235710Y875890D02*
D03*
X1242060Y811530D02*
D03*
X914400Y822960D02*
D03*
Y830580D02*
D03*
X808990Y891540D02*
D03*
X1210570Y801110D02*
D03*
X820420Y919480D02*
D03*
X929640Y852170D02*
D03*
Y842010D02*
D03*
X1217930Y830390D02*
D03*
X1218040Y843390D02*
D03*
X754380Y786130D02*
D03*
Y775970D02*
D03*
Y765810D02*
D03*
X1393190Y784860D02*
D03*
X1247140Y944118D02*
D03*
Y933704D02*
D03*
Y923290D02*
D03*
Y954532D02*
D03*
X1226820Y889000D02*
D03*
X923290Y869950D02*
D03*
X803910Y784860D02*
D03*
D54*
X697230Y887290D02*
D03*
M02*
