G04*
G04 #@! TF.GenerationSoftware,Altium Limited,Altium Designer,22.8.2 (66)*
G04*
G04 Layer_Physical_Order=4*
G04 Layer_Color=16711680*
%FSLAX44Y44*%
%MOMM*%
G71*
G04*
G04 #@! TF.SameCoordinates,0D078035-4FBF-4C44-B062-B1887B6B3753*
G04*
G04*
G04 #@! TF.FilePolarity,Positive*
G04*
G01*
G75*
%ADD11C,0.2000*%
%ADD12C,0.3000*%
%ADD35C,1.0000*%
%ADD36C,2.0000*%
%ADD37C,1.5000*%
%ADD38R,1.8000X1.8000*%
%ADD39C,1.8000*%
%ADD40R,1.5000X1.5000*%
%ADD41C,6.0000*%
%ADD42C,0.3500*%
%ADD43C,0.5000*%
%ADD44C,1.2700*%
%ADD55R,0.7000X0.9500*%
%ADD56R,0.3000X0.5500*%
%ADD57O,1.6500X0.4000*%
%ADD58R,2.2200X1.2300*%
%ADD59R,0.5500X0.3000*%
%ADD60O,0.2500X1.3000*%
%ADD61O,1.3000X0.2500*%
%ADD62R,6.0000X6.0000*%
%ADD63R,1.4000X1.2000*%
%ADD64R,1.0000X0.5500*%
%ADD65C,0.5000*%
%ADD66C,0.1520*%
%ADD67C,0.1600*%
D11*
X890580Y962990D02*
G03*
X878589Y955012I0J-13000D01*
G01*
X1179980Y878840D02*
Y891540D01*
Y866140D02*
Y878840D01*
X1174750D02*
X1179980D01*
X837200Y985139D02*
X847961Y995900D01*
X1098949D02*
X1107660Y987189D01*
X849630Y991870D02*
X1097280D01*
X841230Y983470D02*
X849630Y991870D01*
X847961Y995900D02*
X1098949D01*
X1097280Y991870D02*
X1103630Y985520D01*
X850900Y979170D02*
X854710Y982980D01*
X1065530D02*
X1073150Y975360D01*
X854710Y982980D02*
X1065530D01*
X1067199Y987010D02*
X1077180Y977029D01*
X853041Y987010D02*
X1067199D01*
X846870Y980839D02*
X853041Y987010D01*
X1388110Y770890D02*
Y852170D01*
X1355240Y830580D02*
X1365250D01*
X1362710Y760730D02*
X1377950Y775970D01*
X1286520Y760730D02*
X1362710D01*
X1377950Y775970D02*
Y836899D01*
Y843081D02*
Y843280D01*
Y836899D02*
X1378028Y836977D01*
Y843003D01*
X1322760Y849890D02*
X1371340D01*
X1377950Y843280D01*
Y843081D02*
X1378028Y843003D01*
X1383030Y773430D02*
Y845820D01*
X1365250Y755650D02*
X1383030Y773430D01*
X1372460Y856390D02*
X1383030Y845820D01*
X1367790Y750570D02*
X1388110Y770890D01*
X1370890Y869390D02*
X1388110Y852170D01*
X1393190Y784860D02*
Y854710D01*
X1372010Y875890D02*
X1393190Y854710D01*
X1166980Y891540D02*
X1166980Y891540D01*
Y906780D01*
X1158000Y884740D02*
X1158774Y885514D01*
X1153610Y884740D02*
X1158000D01*
X1160954Y885514D02*
X1166980Y891540D01*
X1158774Y885514D02*
X1160954D01*
X1164082Y866140D02*
X1166980D01*
X1153414Y876808D02*
X1164082Y866140D01*
X1166980Y850900D02*
X1166980Y850900D01*
X1166980Y850900D02*
Y866140D01*
X1179980Y843430D02*
Y850900D01*
X1174750Y838200D02*
X1179980Y843430D01*
X1123315Y874395D02*
X1123950Y875030D01*
X1119032Y874395D02*
X1123315D01*
X1101344Y874268D02*
X1101471Y874395D01*
X1107532D01*
X1198880Y859536D02*
X1209398D01*
X1234284Y856390D02*
X1250260D01*
X1231138Y859536D02*
X1234284Y856390D01*
X1222398Y859536D02*
X1231138D01*
X902442Y974852D02*
X926238D01*
X890580Y962990D02*
X902442Y974852D01*
X926238D02*
X928370Y972720D01*
X954948Y978662D02*
X958850Y974760D01*
X881452Y978662D02*
X954948D01*
X878820Y976030D02*
X881452Y978662D01*
X798850Y896640D02*
X820950D01*
X796290Y894080D02*
X798850Y896640D01*
X797560Y883920D02*
X800041Y886401D01*
X820911D01*
X1220470Y895096D02*
X1220764Y895390D01*
X1228130D01*
X1261034Y912698D02*
X1263650Y910082D01*
Y891540D02*
Y910082D01*
X1247140Y923290D02*
X1250442D01*
X1261034Y912698D01*
X1254030Y926814D02*
X1267174Y913670D01*
X1290320Y890524D01*
X1247140Y933704D02*
X1254030Y926814D01*
X1290320Y847090D02*
Y890524D01*
X1247140Y944118D02*
X1296670Y894588D01*
Y850900D02*
Y894588D01*
X1306282Y895390D02*
X1322760D01*
X1247140Y954532D02*
X1306282Y895390D01*
X1246886Y964946D02*
X1247394D01*
X1252220Y960120D01*
X1234694Y775970D02*
X1247648Y763016D01*
X772830Y775970D02*
X1234694D01*
X1231900Y765810D02*
X1238250Y759460D01*
X772830Y765810D02*
X1231900D01*
X1212088Y836930D02*
X1250220D01*
X804070Y881540D02*
X821050D01*
X796290Y873760D02*
X804070Y881540D01*
X924226Y896540D02*
X927354Y899668D01*
X913050Y896540D02*
X924226D01*
X929640Y842010D02*
Y844634D01*
X922734Y851540D02*
X929640Y844634D01*
X913050Y851540D02*
X922734D01*
X1322760Y869390D02*
X1370890D01*
X1231900Y731520D02*
X1266190Y765810D01*
X1310640D01*
X1322760Y777930D01*
Y823890D01*
X1243970Y718180D02*
X1286520Y760730D01*
X1269370Y718180D02*
X1306840Y755650D01*
X1365250D01*
X1231900Y712470D02*
Y731520D01*
X1322760Y856390D02*
X1372460D01*
X1322760Y875890D02*
X1372010D01*
X1312840Y908390D02*
X1322760D01*
X1247140Y974090D02*
Y982980D01*
Y974090D02*
X1312840Y908390D01*
X1354980Y888890D02*
X1357630Y891540D01*
X1323340Y982980D02*
X1357630Y948690D01*
Y891540D02*
Y948690D01*
X1322760Y888890D02*
X1354980D01*
X1358640Y882390D02*
X1362710Y886460D01*
X1322760Y882390D02*
X1358640D01*
X1362710Y886460D02*
Y969010D01*
X1348740Y982980D02*
X1362710Y969010D01*
X1319234Y742644D02*
X1327160Y750570D01*
X1367790D01*
X802640Y786130D02*
X803910Y784860D01*
X772830Y786130D02*
X802640D01*
X1105570Y899160D02*
Y902770D01*
X1101546Y906795D02*
X1105570Y902770D01*
X1239520Y704850D02*
X1306840D01*
X1320170Y718180D01*
X1231900Y712470D02*
X1239520Y704850D01*
X913050Y871540D02*
X921700D01*
X923290Y869950D01*
X958850Y969470D02*
Y974760D01*
X837200Y958840D02*
Y985139D01*
X841230Y959340D02*
Y983470D01*
X850900Y953100D02*
Y979170D01*
X845220Y951230D02*
X846870Y952880D01*
X850900Y953100D02*
X852770Y951230D01*
X846870Y952880D02*
Y980839D01*
X857250Y976030D02*
X862330D01*
X867410D01*
Y964530D02*
X877570D01*
X858520Y964550D02*
X867410D01*
X857250Y964530D02*
X858020D01*
X858520Y934720D02*
Y964030D01*
X858020Y964530D02*
X858520Y964030D01*
Y934720D02*
X864550Y928690D01*
Y920040D02*
Y928690D01*
X875477Y951900D02*
X878589Y955012D01*
X873760Y951900D02*
X875477D01*
X1252220Y960120D02*
X1310450Y901890D01*
X1322760D01*
X1105570Y899160D02*
X1113120D01*
X1103630Y941721D02*
Y985520D01*
X1105570Y910590D02*
X1113120D01*
X1107660Y943390D02*
Y987189D01*
X1101546Y914386D02*
X1103025Y915864D01*
X1105094D01*
X1101546Y912316D02*
Y914386D01*
Y906795D02*
Y908915D01*
X1101540Y912310D02*
X1101546Y912316D01*
X1101540Y908921D02*
X1101546Y908915D01*
X1101540Y908921D02*
Y912310D01*
X1105570Y910590D02*
Y910641D01*
X1116550Y921621D01*
X1105094Y915864D02*
X1112520Y923290D01*
X1116550Y921621D02*
Y934500D01*
X1107660Y943390D02*
X1116550Y934500D01*
X1112520Y923290D02*
Y932831D01*
X1103630Y941721D02*
X1112520Y932831D01*
X1226820Y886460D02*
Y889000D01*
Y886460D02*
X1230890Y882390D01*
X833050Y940400D02*
X833720Y941070D01*
X829310Y940400D02*
X833050D01*
X867100Y796710D02*
Y801790D01*
X856940Y796710D02*
Y801790D01*
X889550Y796710D02*
Y801790D01*
X757520Y934720D02*
X762600D01*
X996900Y925320D02*
X999900D01*
X980900Y909320D02*
X996900Y925320D01*
X977900Y909320D02*
X980900D01*
X966470D02*
X977900D01*
X948090Y854710D02*
Y864870D01*
Y844760D02*
Y854710D01*
Y844760D02*
X953170D01*
X948090Y877570D02*
X953170D01*
X1308660Y862890D02*
X1322760D01*
X780380Y848360D02*
Y853440D01*
Y843280D02*
Y848360D01*
X806690Y876540D02*
X821050D01*
X803910Y873760D02*
X806690Y876540D01*
X856050Y863040D02*
X867050Y874040D01*
X845050Y852040D02*
X856050Y863040D01*
X834550Y841540D02*
X845050Y852040D01*
X821050Y841540D02*
X834550D01*
X822960Y796890D02*
Y801970D01*
X775300Y914400D02*
X780380D01*
X775300Y924560D02*
X780380D01*
X824230Y940400D02*
X829310D01*
X774700Y904910D02*
X779780D01*
X769620D02*
X774700D01*
X803910Y937930D02*
X808990D01*
X814070D01*
X1226820Y901890D02*
X1250260D01*
X1226630D02*
X1226820D01*
X864270Y940400D02*
X868680D01*
X873760D01*
X913130Y969470D02*
X918210D01*
X908050D02*
X913130D01*
X943610D02*
X948690D01*
X938530D02*
X943610D01*
X923290Y943010D02*
X928370D01*
X933450D01*
X943010Y916940D02*
X948090D01*
Y890778D02*
X953170D01*
X943010Y901065D02*
X948090D01*
X1235970Y849890D02*
X1250260D01*
X1339820Y895390D02*
X1341050Y896620D01*
X1322760Y895390D02*
X1339820D01*
X1261000Y888890D02*
X1263650Y891540D01*
X1250260Y888890D02*
X1261000D01*
X1230890Y882390D02*
X1250260D01*
X1228090Y895350D02*
X1228130Y895390D01*
X1228090D02*
X1250220D01*
Y895350D02*
X1250260Y895390D01*
X1304180Y843390D02*
X1322760D01*
X1296670Y850900D02*
X1304180Y843390D01*
X1300520Y836890D02*
X1322760D01*
X1290320Y847090D02*
X1300520Y836890D01*
X1212180Y914400D02*
X1217260D01*
X1212180Y875890D02*
X1217260D01*
X1073750Y910590D02*
X1078830D01*
X1073750Y899160D02*
X1078830D01*
X1102290Y886460D02*
X1107370D01*
X1218040Y843390D02*
X1250260D01*
X1217930Y830580D02*
X1218120Y830390D01*
X1250260D01*
X1250220Y836930D02*
X1250260Y836890D01*
X924080Y861540D02*
X926783Y858838D01*
Y855027D02*
X929640Y852170D01*
X926783Y855027D02*
Y858838D01*
X932180Y854710D02*
X936590D01*
X929640Y852170D02*
X932180Y854710D01*
X913050Y861540D02*
X924080D01*
X1114846Y842224D02*
X1118870Y838200D01*
X1174750D01*
X820420Y919480D02*
Y923290D01*
X826770Y929640D01*
X831850D01*
X834550Y926940D01*
Y920040D02*
Y926940D01*
X1210570Y801110D02*
X1217260D01*
X808990Y891540D02*
X821050D01*
X911860Y828040D02*
X914400Y830580D01*
X904550Y828040D02*
X911860D01*
X909320Y817880D02*
X914400Y822960D01*
X896620Y817880D02*
X909320D01*
X894550Y819950D02*
X896620Y817880D01*
X894550Y819950D02*
Y828040D01*
X1314756Y738166D02*
X1319234Y742644D01*
X1294770Y718180D02*
X1314756Y738166D01*
X1114846Y842224D02*
Y889234D01*
X1111270Y892810D02*
X1114846Y889234D01*
X1096010Y892810D02*
X1111270D01*
X1094070Y894750D02*
X1096010Y892810D01*
X1094070Y894750D02*
Y899160D01*
X1226220Y982980D02*
X1247140D01*
X700182Y933038D02*
X706120Y927100D01*
X700182Y933038D02*
Y958850D01*
X745490Y927100D02*
X751840Y920750D01*
X706120Y927100D02*
X745490D01*
X763270Y894080D02*
X780380D01*
X751840Y905510D02*
Y920750D01*
Y905510D02*
X763270Y894080D01*
X791880D02*
X796290D01*
X928370Y969470D02*
Y972720D01*
X918210Y954944D02*
Y957970D01*
X907764Y944498D02*
X918210Y954944D01*
X907764Y939610D02*
Y944498D01*
X901318Y933164D02*
X907764Y939610D01*
X879824Y933164D02*
X901318D01*
X874550Y927890D02*
X879824Y933164D01*
X874550Y920040D02*
Y927890D01*
X908050Y949767D02*
Y957970D01*
X904240Y945957D02*
X908050Y949767D01*
X904240Y941070D02*
Y945957D01*
X899858Y936688D02*
X904240Y941070D01*
X878268Y936688D02*
X899858D01*
X869646Y928066D02*
X878268Y936688D01*
X869646Y920136D02*
Y928066D01*
X869550Y920040D02*
X869646Y920136D01*
X938530Y952500D02*
Y957970D01*
X935797Y949767D02*
X938530Y952500D01*
X918017Y949767D02*
X935797D01*
X911288Y943038D02*
X918017Y949767D01*
X911288Y938151D02*
Y943038D01*
X902777Y929640D02*
X911288Y938151D01*
X881380Y929640D02*
X902777D01*
X879550Y927810D02*
X881380Y929640D01*
X879550Y920040D02*
Y927810D01*
X923290Y931510D02*
X943610D01*
X909920D02*
X923290D01*
X904550Y926140D02*
X909920Y931510D01*
X904550Y920040D02*
Y926140D01*
X919210Y881540D02*
X935880Y864870D01*
X936590D01*
X913050Y881540D02*
X919210D01*
X937260Y911540D02*
X953450D01*
X913050D02*
X937260D01*
X936590Y912210D02*
X937260Y911540D01*
X936590Y912210D02*
Y916940D01*
X935990Y906540D02*
X951470D01*
X913050D02*
X935990D01*
X936590Y905940D01*
Y901065D02*
Y905940D01*
X953450Y911540D02*
X967230Y925320D01*
X791880Y873760D02*
X796290D01*
X791880Y883920D02*
X797560D01*
X798990Y901540D02*
X821050D01*
X796290Y904240D02*
X798990Y901540D01*
X791880Y904240D02*
X796290D01*
X800170Y926430D02*
X803910D01*
X791880Y934720D02*
X800170Y926430D01*
X806770Y911540D02*
X821050D01*
X793750Y924560D02*
X806770Y911540D01*
X791880Y924560D02*
X793750D01*
X814070Y926430D02*
X815940D01*
X822960Y933450D01*
X833120D01*
X839550Y927020D01*
Y920040D02*
Y927020D01*
X803910Y926430D02*
X814070D01*
X1035720Y856740D02*
X1039620D01*
X1042160Y859280D01*
X913050Y876540D02*
Y881540D01*
X951470Y906540D02*
X958850Y899160D01*
X986790D01*
X996950Y909320D02*
X999900D01*
X986790Y899160D02*
X996950Y909320D01*
X967230Y925320D02*
X977900D01*
X948690Y957970D02*
X958850D01*
X938530D02*
X948690D01*
X918210D02*
X928370D01*
X1035720Y904740D02*
X1042160D01*
X1038930Y892740D02*
X1042160Y889510D01*
X1035720Y892740D02*
X1038930D01*
X1035720Y880740D02*
X1042160D01*
X1035720Y868740D02*
X1042160D01*
X1118870Y886460D02*
X1123950D01*
X1118870Y850900D02*
X1123950D01*
X1118870Y862330D02*
X1123950D01*
X1085451Y864650D02*
X1105050D01*
X1107370Y862330D01*
X1087120Y868680D02*
X1108839D01*
X1107370Y850900D02*
Y852150D01*
X1066800Y889000D02*
X1087120Y868680D01*
X1066800Y889000D02*
Y920131D01*
X1077180Y930511D01*
Y977029D01*
X1062770Y887331D02*
X1085451Y864650D01*
X1062770Y887331D02*
Y921800D01*
X1073150Y932180D01*
Y975360D01*
X1118870Y899160D02*
X1124620D01*
X1118870Y910590D02*
X1124620D01*
X854550Y920040D02*
Y927260D01*
X845220Y936590D02*
X854550Y927260D01*
X845220Y941070D02*
Y951230D01*
Y936590D02*
Y941070D01*
X859550Y920040D02*
Y927959D01*
X852480Y940780D02*
X852770Y941070D01*
X852480Y935030D02*
X859550Y927959D01*
X852770Y941070D02*
Y951230D01*
X852480Y935030D02*
Y940780D01*
D12*
X748030Y899160D02*
X773430Y873760D01*
X739290Y899160D02*
X748030D01*
X1339483Y830580D02*
X1342240D01*
X1339293Y830390D02*
X1339483Y830580D01*
X1322760Y830390D02*
X1339293D01*
X1089660Y899160D02*
X1090820D01*
X1179980Y850900D02*
X1187450D01*
X1191260Y854710D01*
Y902970D01*
X1187450Y906780D02*
X1191260Y902970D01*
X1179980Y906780D02*
X1187450D01*
X1179980D02*
Y920900D01*
X1182205Y923125D01*
X1214720D01*
X1213612Y891038D02*
Y899252D01*
X1222750Y908390D01*
X1213612Y891038D02*
X1228760Y875890D01*
X816864Y789686D02*
X869696D01*
X877570Y797560D01*
X786130Y820420D02*
X816864Y789686D01*
X1085250Y899160D02*
X1089660D01*
X1260250Y875890D02*
X1270000Y866140D01*
Y836930D02*
X1276540Y830390D01*
X1270000Y836930D02*
Y866140D01*
X1276540Y830390D02*
X1309370D01*
X1214720Y923125D02*
X1223175D01*
X1228760Y917540D01*
Y914400D02*
Y917540D01*
X1214720Y923125D02*
Y982980D01*
X1001570Y969470D02*
X1009650Y961390D01*
Y946150D02*
Y961390D01*
Y946150D02*
X1017270Y938530D01*
X958850Y969470D02*
X1001570D01*
X998430Y963720D02*
X1004570Y957580D01*
Y943610D02*
Y957580D01*
Y943610D02*
X1012190Y935990D01*
X967740Y963720D02*
X998430D01*
X812800Y784860D02*
X899160D01*
X773430Y824230D02*
Y873760D01*
Y824230D02*
X812800Y784860D01*
X786130Y820420D02*
Y850690D01*
X877570Y976030D02*
X878820D01*
X864270Y951230D02*
X864940Y951900D01*
X873760D01*
X781050Y963930D02*
X812200D01*
X824230Y951900D01*
X769020D02*
X781050Y963930D01*
X769020Y934720D02*
Y951900D01*
X1222750Y908390D02*
X1228760D01*
Y914400D01*
Y908390D02*
X1250260D01*
X1228760Y875890D02*
X1235710D01*
X754380Y765810D02*
X761330D01*
X754380Y775970D02*
X761330D01*
X754380Y786130D02*
X761330D01*
X877570Y797560D02*
Y810260D01*
X899160Y784860D02*
Y813290D01*
X1223010Y784860D02*
Y808780D01*
X899160Y784860D02*
X1223010D01*
X1301750D01*
X1309370Y792480D01*
X923290Y836930D02*
Y844623D01*
Y822775D02*
Y836930D01*
X924145Y836075D01*
X936590D01*
X913805Y813290D02*
X923290Y822775D01*
X921373Y846540D02*
X923290Y844623D01*
X913050Y846540D02*
X921373D01*
X936590Y836075D02*
Y844760D01*
X1250260Y875890D02*
X1260250D01*
X1220260Y811530D02*
X1223010Y808780D01*
X1217260Y811530D02*
X1220260D01*
X1352550Y896620D02*
Y902970D01*
X1272540Y982980D02*
X1352550Y902970D01*
X1272540Y982980D02*
Y989330D01*
X1264920Y996950D02*
X1272540Y989330D01*
X1217930Y996950D02*
X1264920D01*
X1214720Y993740D02*
X1217930Y996950D01*
X1309370Y830390D02*
X1322760D01*
X1309370Y792480D02*
Y830390D01*
X1214720Y982980D02*
Y993740D01*
X1228760Y811530D02*
X1242060D01*
X1228760Y801110D02*
Y811530D01*
X1235710Y875890D02*
X1250260D01*
X1090820Y899160D02*
X1094070D01*
X1089660Y910590D02*
X1094070D01*
X1085250D02*
X1089660D01*
Y900320D02*
X1090820Y899160D01*
X1089660Y900320D02*
Y910590D01*
X773430Y873760D02*
X773430Y873760D01*
X780380D01*
X744220Y876990D02*
X757500D01*
X760730Y873760D01*
Y830580D02*
Y873760D01*
X756920Y826770D02*
X760730Y830580D01*
X725840Y826770D02*
X756920D01*
X725840Y822360D02*
Y826770D01*
X723900Y820420D02*
X725840Y822360D01*
X706120Y820420D02*
X723900D01*
X704250Y822290D02*
X706120Y820420D01*
X704250Y822290D02*
Y826770D01*
X692750Y833120D02*
Y839470D01*
Y826770D02*
Y833120D01*
X709240D01*
X714340Y828020D01*
Y826770D02*
Y828020D01*
X692750Y839470D02*
Y846420D01*
X697670Y851340D01*
Y856640D01*
X744220Y843280D02*
Y855290D01*
X740410Y839470D02*
X744220Y843280D01*
X725840Y839470D02*
X740410D01*
X714340D02*
Y845150D01*
X719650Y850460D01*
Y856640D01*
X899160Y813290D02*
X913805D01*
X936590Y836075D02*
X954185D01*
X974850Y856740D01*
X1024220D01*
Y892740D02*
Y904740D01*
Y880740D02*
Y892740D01*
Y868740D02*
Y880740D01*
Y856740D02*
Y868740D01*
X942340Y849260D02*
Y860370D01*
X937840Y844760D02*
X942340Y849260D01*
X936590Y844760D02*
X937840D01*
X937840Y864870D02*
X942340Y860370D01*
X936590Y864870D02*
X937840D01*
X889550Y813290D02*
X899160D01*
X889550D02*
Y828040D01*
X833050Y951900D02*
X833720Y951230D01*
X824230Y951900D02*
X833050D01*
X791880Y843280D02*
X808990D01*
Y853440D01*
Y830580D02*
Y843280D01*
X780380Y934720D02*
X783380D01*
X786130Y931970D01*
Y914400D02*
Y931970D01*
Y914400D02*
X791880D01*
X786130Y886670D02*
Y914400D01*
X769020Y934720D02*
X780380D01*
Y873760D02*
Y883920D01*
X783380D01*
X786130Y886670D01*
Y850690D02*
X788880Y853440D01*
X791880D01*
X796290D02*
X804390Y861540D01*
X874540Y813290D02*
X877570Y810260D01*
X867100Y813290D02*
X874540D01*
X928370Y966470D02*
X931120Y963720D01*
X967740D01*
X928370Y966470D02*
Y969470D01*
X1017270Y882650D02*
Y938530D01*
X1005840Y871220D02*
X1017270Y882650D01*
X942940Y871220D02*
X1005840D01*
X936590Y877570D02*
X942940Y871220D01*
X1012190Y890270D02*
Y935990D01*
X1005840Y883920D02*
X1012190Y890270D01*
X944698Y883920D02*
X1005840D01*
X937840Y890778D02*
X944698Y883920D01*
X936590Y890778D02*
X937840D01*
X967740Y947420D02*
Y963720D01*
X963330Y943010D02*
X967740Y947420D01*
X943610Y943010D02*
X963330D01*
X901700Y843280D02*
Y883920D01*
X897890Y839470D02*
X901700Y843280D01*
X872490Y839470D02*
X897890D01*
X869550Y836530D02*
X872490Y839470D01*
X869550Y828040D02*
Y836530D01*
X822050Y828040D02*
X829550D01*
X811530D02*
X822050D01*
X822960Y827130D01*
Y813470D02*
Y827130D01*
X808990Y830580D02*
X811530Y828040D01*
X808990Y853440D02*
X812090Y856540D01*
X821050D01*
X831850Y859790D02*
Y906540D01*
X828600Y856540D02*
X831850Y859790D01*
X821050Y856540D02*
X828600D01*
X901700Y883920D02*
X904320Y886540D01*
X904240Y891540D02*
X913050D01*
X901700Y894080D02*
X904240Y891540D01*
X901700Y894080D02*
Y906780D01*
X899160Y909320D02*
X901700Y906780D01*
X834630Y909320D02*
X899160D01*
X831850Y906540D02*
X834630Y909320D01*
X821050Y906540D02*
X831850D01*
X923210Y886540D02*
X932180Y877570D01*
X936590D01*
X913050Y886540D02*
X923210D01*
X935828Y891540D02*
X936590Y890778D01*
X913050Y891540D02*
X935828D01*
X869550Y818990D02*
Y828040D01*
X867100Y816540D02*
X869550Y818990D01*
X867100Y813290D02*
Y816540D01*
X802880Y906540D02*
X821050D01*
X795020Y914400D02*
X802880Y906540D01*
X791880Y914400D02*
X795020D01*
X804390Y861540D02*
X821050D01*
X791880Y853440D02*
X796290D01*
X856940Y813290D02*
X867100D01*
X904320Y886540D02*
X913050D01*
D35*
X739290Y899160D02*
Y915670D01*
X739290Y915670D02*
X739290Y915670D01*
X739290Y899160D02*
X739290Y899160D01*
X739290Y881920D02*
Y899160D01*
Y881920D02*
X744220Y876990D01*
X697080Y868680D02*
Y915670D01*
X738560Y855290D02*
X744220D01*
X727710Y866140D02*
X738560Y855290D01*
X719650Y866140D02*
X727710D01*
D36*
X790580Y949990D02*
D03*
X890580D02*
D03*
X990580D02*
D03*
X1090580D02*
D03*
X1040580Y807490D02*
D03*
X1140580D02*
D03*
X940580D02*
D03*
X840580D02*
D03*
D37*
X1243970Y718180D02*
D03*
X1269370D02*
D03*
X1294770D02*
D03*
X1320170D02*
D03*
X1345570D02*
D03*
D38*
X1247140Y982980D02*
D03*
D39*
X1323340D02*
D03*
X1348740D02*
D03*
X1297940D02*
D03*
X1272540D02*
D03*
D40*
X1218570Y718180D02*
D03*
D41*
X1395010Y713740D02*
D03*
X715010D02*
D03*
D42*
X1174750Y878840D02*
D03*
D43*
X1365250Y830580D02*
D03*
X1198880Y859536D02*
D03*
X1220470Y895350D02*
D03*
X1247140Y964946D02*
D03*
X1247648Y763016D02*
D03*
X1238250Y759460D02*
D03*
X1212088Y836930D02*
D03*
X1153414Y876808D02*
D03*
X927354Y899668D02*
D03*
X1118870Y910590D02*
D03*
Y899160D02*
D03*
X1123950Y862330D02*
D03*
Y850900D02*
D03*
Y886460D02*
D03*
Y875030D02*
D03*
X1153610Y884740D02*
D03*
Y892740D02*
D03*
Y844740D02*
D03*
Y868740D02*
D03*
X1045550Y896740D02*
D03*
Y912740D02*
D03*
Y848740D02*
D03*
Y840740D02*
D03*
X1042160Y868740D02*
D03*
Y880740D02*
D03*
Y889510D02*
D03*
Y904740D02*
D03*
Y859280D02*
D03*
X700182Y958850D02*
D03*
X1235710Y875890D02*
D03*
X1242060Y811530D02*
D03*
X914400Y822960D02*
D03*
Y830580D02*
D03*
X808990Y891540D02*
D03*
X1210570Y801110D02*
D03*
X820420Y919480D02*
D03*
X929640Y852170D02*
D03*
Y842010D02*
D03*
X1217930Y830390D02*
D03*
X1218040Y843390D02*
D03*
X754380Y786130D02*
D03*
Y775970D02*
D03*
Y765810D02*
D03*
X1101344Y874268D02*
D03*
X1102290Y886460D02*
D03*
X1078830Y899160D02*
D03*
Y910590D02*
D03*
X1212180Y875890D02*
D03*
Y914400D02*
D03*
X1393190Y784860D02*
D03*
X1247140Y944118D02*
D03*
Y933704D02*
D03*
Y923290D02*
D03*
Y954532D02*
D03*
X1235970Y849890D02*
D03*
X1226820Y901890D02*
D03*
X1153610Y916740D02*
D03*
X943010Y901065D02*
D03*
X953170Y890778D02*
D03*
X943010Y916940D02*
D03*
X928370Y943010D02*
D03*
X943610Y969470D02*
D03*
X913130D02*
D03*
X868680Y940400D02*
D03*
X808990Y937930D02*
D03*
X774700Y904910D02*
D03*
X829310Y940400D02*
D03*
X775300Y924560D02*
D03*
Y914400D02*
D03*
X822960Y796890D02*
D03*
X803910Y873760D02*
D03*
X780380Y848360D02*
D03*
X774700Y980440D02*
D03*
X1308660Y862890D02*
D03*
X1349170Y797990D02*
D03*
X1259170D02*
D03*
X1386410Y959490D02*
D03*
X953170Y844760D02*
D03*
X966470Y909320D02*
D03*
X762600Y934720D02*
D03*
X889550Y796710D02*
D03*
X856940D02*
D03*
X867100D02*
D03*
X1226820Y889000D02*
D03*
X1277620Y969010D02*
D03*
X862330Y976030D02*
D03*
X923290Y869950D02*
D03*
X803910Y784860D02*
D03*
X953170Y877570D02*
D03*
X889050Y896040D02*
D03*
X878050D02*
D03*
X867050D02*
D03*
X856050D02*
D03*
X845050D02*
D03*
X889050Y885040D02*
D03*
X878050D02*
D03*
X867050D02*
D03*
X856050D02*
D03*
X845050D02*
D03*
X889050Y874040D02*
D03*
X878050D02*
D03*
X867050D02*
D03*
X856050D02*
D03*
X845050D02*
D03*
X889050Y863040D02*
D03*
X878050D02*
D03*
X867050D02*
D03*
X856050D02*
D03*
X845050D02*
D03*
X889050Y852040D02*
D03*
X878050D02*
D03*
X867050D02*
D03*
X856050D02*
D03*
X845050D02*
D03*
D44*
X697230Y887290D02*
D03*
X719650D02*
D03*
D55*
X726290Y915670D02*
D03*
X739290D02*
D03*
X726290Y899160D02*
D03*
X739290D02*
D03*
X1355240Y830580D02*
D03*
X1342240D02*
D03*
X1179980Y866140D02*
D03*
X1166980D02*
D03*
X1179980Y891540D02*
D03*
X1166980D02*
D03*
X1222398Y859536D02*
D03*
X1209398D02*
D03*
X697080Y915670D02*
D03*
X710080D02*
D03*
X710080Y899160D02*
D03*
X697080D02*
D03*
X1179980Y906780D02*
D03*
X1166980D02*
D03*
X1179980Y850900D02*
D03*
X1166980D02*
D03*
D56*
X1217260Y914400D02*
D03*
X1228760D02*
D03*
X780380D02*
D03*
X791880D02*
D03*
X1217260Y811530D02*
D03*
X1228760D02*
D03*
X936590Y901065D02*
D03*
X948090D02*
D03*
X936590Y890778D02*
D03*
X948090D02*
D03*
X780380Y894080D02*
D03*
X791880D02*
D03*
X772830Y786130D02*
D03*
X761330D02*
D03*
X772830Y765810D02*
D03*
X761330D02*
D03*
X772830Y775970D02*
D03*
X761330D02*
D03*
X704250Y839470D02*
D03*
X692750D02*
D03*
X714340Y826770D02*
D03*
X725840D02*
D03*
X704250D02*
D03*
X692750D02*
D03*
X714340Y839470D02*
D03*
X725840D02*
D03*
X1217260Y801110D02*
D03*
X1228760D02*
D03*
X936590Y854710D02*
D03*
X948090D02*
D03*
X1035720Y856740D02*
D03*
X1024220D02*
D03*
X1035720Y892740D02*
D03*
X1024220D02*
D03*
X1035720Y880740D02*
D03*
X1024220D02*
D03*
X1035720Y868740D02*
D03*
X1024220D02*
D03*
X1118870Y886460D02*
D03*
X1107370D02*
D03*
X1119032Y874395D02*
D03*
X1107532D02*
D03*
X1217260Y875890D02*
D03*
X1228760D02*
D03*
X791880Y843280D02*
D03*
X780380D02*
D03*
X1352550Y896620D02*
D03*
X1341050D02*
D03*
X948090Y844760D02*
D03*
X936590D02*
D03*
Y864870D02*
D03*
X948090D02*
D03*
X769020Y934720D02*
D03*
X757520D02*
D03*
X852770Y941070D02*
D03*
X864270D02*
D03*
X845220D02*
D03*
X833720D02*
D03*
Y951230D02*
D03*
X845220D02*
D03*
X864270D02*
D03*
X852770D02*
D03*
X1073750Y899160D02*
D03*
X1085250D02*
D03*
X1073750Y910590D02*
D03*
X1085250D02*
D03*
X1024220Y904740D02*
D03*
X1035720D02*
D03*
X936590Y916940D02*
D03*
X948090D02*
D03*
X1105570Y899160D02*
D03*
X1094070D02*
D03*
X1105570Y910590D02*
D03*
X1094070D02*
D03*
X1118870Y850900D02*
D03*
X1107370D02*
D03*
X1124620Y910590D02*
D03*
X1113120D02*
D03*
X1124620Y899160D02*
D03*
X1113120D02*
D03*
X1118870Y862330D02*
D03*
X1107370D02*
D03*
X780380Y934720D02*
D03*
X791880D02*
D03*
X780380Y853440D02*
D03*
X791880D02*
D03*
X948090Y877570D02*
D03*
X936590D02*
D03*
X1226220Y982980D02*
D03*
X1214720D02*
D03*
X791880Y883920D02*
D03*
X780380D02*
D03*
X791880Y873760D02*
D03*
X780380D02*
D03*
X791880Y924560D02*
D03*
X780380D02*
D03*
X791880Y904240D02*
D03*
X780380D02*
D03*
D57*
X1322760Y875890D02*
D03*
Y862890D02*
D03*
Y830390D02*
D03*
X1250260Y908390D02*
D03*
Y901890D02*
D03*
Y875890D02*
D03*
Y869390D02*
D03*
Y862890D02*
D03*
Y856390D02*
D03*
Y849890D02*
D03*
Y823890D02*
D03*
X1322760Y882390D02*
D03*
Y888890D02*
D03*
Y908390D02*
D03*
Y823890D02*
D03*
Y869390D02*
D03*
Y856390D02*
D03*
Y849890D02*
D03*
Y895390D02*
D03*
X1250260Y888890D02*
D03*
X1322760Y836890D02*
D03*
Y843390D02*
D03*
X1250260D02*
D03*
X1322760Y901890D02*
D03*
X1250260Y895390D02*
D03*
Y836890D02*
D03*
Y882390D02*
D03*
Y830390D02*
D03*
D58*
X744220Y855290D02*
D03*
Y876990D02*
D03*
D59*
X822960Y813470D02*
D03*
Y801970D02*
D03*
X889550Y813290D02*
D03*
Y801790D02*
D03*
X873760Y951900D02*
D03*
Y940400D02*
D03*
X824230Y951900D02*
D03*
Y940400D02*
D03*
X857250Y964530D02*
D03*
Y976030D02*
D03*
X867410Y964530D02*
D03*
Y976030D02*
D03*
X938530Y957970D02*
D03*
Y969470D02*
D03*
X803910Y937930D02*
D03*
Y926430D02*
D03*
X814070Y937930D02*
D03*
Y926430D02*
D03*
X933450Y943010D02*
D03*
Y931510D02*
D03*
X943610Y943010D02*
D03*
Y931510D02*
D03*
X923290Y943010D02*
D03*
Y931510D02*
D03*
X958850Y969470D02*
D03*
Y957970D02*
D03*
X928370D02*
D03*
Y969470D02*
D03*
X877570Y976030D02*
D03*
Y964530D02*
D03*
X918210Y969470D02*
D03*
Y957970D02*
D03*
X908050D02*
D03*
Y969470D02*
D03*
X948690D02*
D03*
Y957970D02*
D03*
X856940Y801790D02*
D03*
Y813290D02*
D03*
X867100Y801790D02*
D03*
Y813290D02*
D03*
X769620Y893410D02*
D03*
Y904910D02*
D03*
D60*
X844550Y920040D02*
D03*
X849550D02*
D03*
X889550Y828040D02*
D03*
X884550D02*
D03*
X879550D02*
D03*
X874550D02*
D03*
X869550D02*
D03*
X864550D02*
D03*
X859550D02*
D03*
X854550D02*
D03*
X849550D02*
D03*
X844550D02*
D03*
X839550D02*
D03*
X834550D02*
D03*
X829550D02*
D03*
Y920040D02*
D03*
X839550D02*
D03*
X864550D02*
D03*
X869550D02*
D03*
X874550D02*
D03*
X879550D02*
D03*
X884550D02*
D03*
X889550D02*
D03*
X894550D02*
D03*
X899550D02*
D03*
X904550D02*
D03*
X859550D02*
D03*
X854550D02*
D03*
X834550D02*
D03*
X894550Y828040D02*
D03*
X904550D02*
D03*
X899550D02*
D03*
D61*
X913050Y911540D02*
D03*
Y906540D02*
D03*
Y901540D02*
D03*
Y896540D02*
D03*
Y891540D02*
D03*
Y886540D02*
D03*
Y881540D02*
D03*
Y876540D02*
D03*
Y866540D02*
D03*
Y856540D02*
D03*
Y846540D02*
D03*
Y841540D02*
D03*
Y836540D02*
D03*
X821050D02*
D03*
Y841540D02*
D03*
Y846540D02*
D03*
Y851540D02*
D03*
Y856540D02*
D03*
Y861540D02*
D03*
Y866540D02*
D03*
Y871540D02*
D03*
Y876540D02*
D03*
Y881540D02*
D03*
Y886540D02*
D03*
Y896540D02*
D03*
Y901540D02*
D03*
Y906540D02*
D03*
Y911540D02*
D03*
Y891540D02*
D03*
X913050Y851540D02*
D03*
Y861540D02*
D03*
Y871540D02*
D03*
D62*
X867050Y874040D02*
D03*
D63*
X977900Y909320D02*
D03*
Y925320D02*
D03*
X999900Y909320D02*
D03*
Y925320D02*
D03*
D64*
X719650Y856640D02*
D03*
Y866140D02*
D03*
Y875640D02*
D03*
X697670D02*
D03*
Y866140D02*
D03*
Y856640D02*
D03*
D65*
X726290Y915670D02*
X726290Y915670D01*
Y899160D02*
Y915670D01*
X726290Y893930D02*
Y899160D01*
X726290Y899160D01*
X719650Y887290D02*
X726290Y893930D01*
X710080Y896860D02*
Y915670D01*
Y896860D02*
X719650Y887290D01*
Y875640D02*
Y887290D01*
X711810Y875640D02*
X719650D01*
X708660Y872490D02*
X711810Y875640D01*
X708660Y851140D02*
Y872490D01*
X704250Y846730D02*
X708660Y851140D01*
X704250Y839470D02*
Y846730D01*
D66*
X840740Y935930D02*
Y958850D01*
X841230Y959340D01*
X840740Y935930D02*
X849550Y927121D01*
Y920040D02*
Y927121D01*
X837200Y958840D02*
X837690Y958350D01*
X844550Y920040D02*
Y927100D01*
X837690Y933960D02*
Y958350D01*
Y933960D02*
X844550Y927100D01*
D67*
X1108839Y868680D02*
X1111400Y866120D01*
Y856180D02*
Y866120D01*
X1107370Y852150D02*
X1111400Y856180D01*
M02*
