M48
;Layer_Color=9474304
;FILE_FORMAT=4:4
METRIC,LZ
;TYPE=PLATED
T1F00S00C0.2000
T2F00S00C0.3000
T3F00S00C0.7000
T4F00S00C0.8500
T5F00S00C0.9000
T6F00S00C0.9500
T7F00S00C1.0500
T8F00S00C1.5500
T9F00S00C3.1000
%
T01
X0084505Y0085204
Y0086304
Y0087404
Y0088504
Y0089604
X0085605
X0086705
X0087805
X0088905
Y0088504
X0087805
X0086705
X0085605
Y0087404
X0086705
Y0086304
X0085605
Y0085204
X0086705
X0087805
Y0086304
Y0087404
X0088905
Y0086304
Y0085204
X0117475Y0087884
T02
X0123825Y0075946
X01247648Y00763016
X0139319Y0078486
X0080391
X0075438Y0078613
Y0077597
Y0076581
X0078038Y0084836
X007747Y0090491
X007753Y009144
Y0092456
X007626Y0093472
X007747Y0098044
X00700182Y0095885
X0080899Y0093793
X0082931Y009404
X0082042Y0091948
X0080899Y0089154
X0080391Y0087376
X0082296Y0079689
X0085694Y0079671
X008671
X0088955
X009144Y0082296
Y0083058
X0092964Y0084201
Y0085217
X0092329Y0086995
X00927354Y00899668
X0094301Y00901065
Y0091694
X0096647Y0090932
X0095317Y00890778
Y0087757
Y0084476
X0104555Y0084874
Y0084074
X0104216Y0085928
Y0086874
Y0088074
Y0088951
X0104555Y0089674
X0104216Y0090474
X0104555Y0091274
X0107883Y0091059
Y0089916
X0110229Y0088646
X01101344Y00874268
X0112395Y0087503
Y0088646
X0111887Y0089916
Y0091059
X0115361Y0091674
Y0089274
Y0088474
X01153414Y00876808
X0115361Y0086874
Y0084474
X0112395Y008509
Y0086233
X0092837Y0094301
X0094361Y0096947
X0091313
X0086233Y0097603
X0086868Y009404
X0121218Y009144
X0122682Y0090189
X0122047Y0089535
X0122682Y00889
X0123571Y0087589
X0121218
X0119888Y00859536
X0121804Y0084339
X01212088Y0083693
X0121793Y0083039
X0121057Y0080111
X0124206Y0081153
X0125917Y0079799
X0123597Y0084989
X0124714Y0092329
Y00933704
Y00944118
Y00954532
Y00964946
X0127762Y0096901
X0138641Y0095949
X0136525Y0083058
X0134917Y0079799
X0130866Y0086289
T03
X0069723Y0088729
X0071965
T04
X0078958Y0086419
X0099058Y0083919
Y0089319
X0101858Y0094999
X0106558
X0111558
X0116158Y0092674
Y0087874
Y0083074
X0111558Y0080749
X0106558
X0101858
T05
X0121857Y0071818
X0124397
X0126937
X0129477
X0132017
X0134557
X0134874Y0098298
X0132334
X0129794
X0127254
X0124714
T06
X01370754Y0083999
Y0090799
T07
X0079058Y0094999
X0089058
X0099058
X0109058
X0104058Y0080749
X0114058
X0094058
X0084058
T08
X0109958Y0083074
Y0092674
T09
X0139501Y0071374
X0071501
M30
