%FSTAX23Y23*%
%MOIN*%
%SFA1B1*%

%IPPOS*%
%ADD24R,0.035559X0.045401*%
%ADD29R,0.045401X0.035559*%
%ADD31C,0.008000*%
%ADD32C,0.086740*%
%ADD33R,0.067055X0.067055*%
%ADD34C,0.067055*%
%ADD35C,0.244220*%
%ADD36C,0.027685*%
%ADD54R,0.092645X0.135952*%
%ADD55R,0.092645X0.047370*%
%ADD56O,0.023748X0.072960*%
%ADD57R,0.063118X0.032409*%
%LNboard-1*%
%LPD*%
G54D24*
X0243Y04685D03*
X02379D03*
X0243Y0462D03*
X02379D03*
X02934Y05185D03*
X02985D03*
X02829D03*
X0288D03*
X03534Y04699D03*
X03585D03*
X03534Y04765D03*
X03585D03*
X03534Y0483D03*
X03585D03*
X03534Y04895D03*
X03585D03*
X03534Y0496D03*
X03585D03*
X03878Y04735D03*
X0393D03*
X03878Y04799D03*
X0393D03*
X03878Y04882D03*
X0393D03*
X03878Y04946D03*
X0393D03*
X0426Y0501D03*
X04209D03*
X0421Y04821D03*
X04261D03*
X0426Y04695D03*
X04209D03*
X0426Y04635D03*
X04209D03*
X0443Y05135D03*
X04379D03*
Y0507D03*
X0443D03*
X04379Y05007D03*
X0443D03*
X04379Y04938D03*
X0443D03*
Y04869D03*
X04379D03*
Y048D03*
X0443D03*
X04379Y0472D03*
X0443D03*
X04379Y04655D03*
X0443D03*
X04379Y0459D03*
X0443D03*
X04379Y04525D03*
X0443D03*
G54D29*
X03148Y0459D03*
Y04539D03*
X03071Y0459D03*
Y04539D03*
X02943Y0459D03*
Y04539D03*
X02276Y0449D03*
Y04541D03*
X02339Y0449D03*
Y04541D03*
X02402Y0449D03*
Y04541D03*
X02605Y04904D03*
Y04955D03*
X0325Y05045D03*
Y05096D03*
X0395Y04666D03*
Y04614D03*
X04015Y04666D03*
Y04614D03*
X0395Y05019D03*
Y0507D03*
X04015Y05019D03*
Y0507D03*
G54D31*
X03877Y0464D03*
Y05018D03*
X0394Y0511D03*
X03743D03*
X03558D03*
X04121Y05018D03*
Y04829D03*
Y0464D03*
X0394Y04548D03*
X03743D03*
X03558D03*
X03448Y04886D03*
Y04673D03*
X02657Y04772D03*
G54D32*
X02661Y0511D03*
X03055D03*
X03448D03*
X03842D03*
X03645Y04548D03*
X04039D03*
X03251D03*
X02858D03*
G54D33*
X0291Y0525D03*
X04325Y04185D03*
G54D34*
X0301Y0525D03*
X0311D03*
X0321D03*
X0331D03*
X04825Y04185D03*
X04725D03*
X04625D03*
X04525D03*
X04425D03*
G54D35*
X02342Y04168D03*
X05019D03*
G54D36*
X04639Y04742D03*
Y04786D03*
Y04829D03*
Y04872D03*
Y04916D03*
X04682Y04742D03*
Y04786D03*
Y04829D03*
Y04872D03*
Y04916D03*
X04726Y04742D03*
Y04786D03*
Y04829D03*
Y04872D03*
Y04916D03*
X04769Y04742D03*
Y04786D03*
Y04829D03*
Y04872D03*
Y04916D03*
X04812Y04742D03*
Y04786D03*
Y04829D03*
Y04872D03*
Y04916D03*
G54D54*
X02284Y04885D03*
G54D55*
X02515Y04794D03*
Y04885D03*
Y04975D03*
G54D56*
X03276Y04667D03*
X0325D03*
X03225D03*
X03199D03*
X03173D03*
X03148D03*
X03122D03*
X03097D03*
X03071D03*
X03046D03*
X0302D03*
X02994D03*
X02969D03*
X02943D03*
X03276Y04952D03*
X0325D03*
X03225D03*
X03199D03*
X03173D03*
X03148D03*
X03122D03*
X03097D03*
X03071D03*
X03046D03*
X0302D03*
X02994D03*
X02969D03*
X02943D03*
G54D57*
X05011Y04499D03*
X04657D03*
X05011Y05135D03*
X04657D03*
X04578Y04864D03*
Y05081D03*
Y04994D03*
Y04951D03*
Y04908D03*
Y04821D03*
Y04778D03*
Y05038D03*
Y04735D03*
M02*