%FSTAX23Y23*%
%MOIN*%
%SFA1B1*%

%IPPOS*%
%ADD15R,0.078740X0.019685*%
%ADD16R,0.027559X0.037401*%
%ADD17R,0.059055X0.035433*%
%ADD18O,0.009843X0.051181*%
%ADD19O,0.051181X0.009843*%
%ADD20R,0.236220X0.236220*%
%ADD21R,0.037401X0.027559*%
%ADD22R,0.055118X0.047244*%
%LNboard-1*%
%LPD*%
G54D15*
X04039Y04979D03*
Y04947D03*
Y04916D03*
Y04884D03*
Y04853D03*
X03716Y04679D03*
Y04711D03*
Y04742D03*
Y04774D03*
Y04805D03*
Y04837D03*
Y04868D03*
Y049D03*
Y04931D03*
X04039Y04821D03*
Y0479D03*
Y04758D03*
Y04727D03*
Y04695D03*
X03716Y04963D03*
G54D16*
X04604Y041D03*
X04552D03*
X04261Y04633D03*
X0421D03*
X04261Y04695D03*
X0421D03*
X04261Y04758D03*
X0421D03*
X04261Y04821D03*
X0421D03*
X04209Y0516D03*
X0426D03*
Y0509D03*
X04209D03*
X04261Y0501D03*
X0421D03*
X04261Y04946D03*
X0421D03*
X05009Y0474D03*
X0506D03*
X05009Y04819D03*
X0506D03*
X05009Y04977D03*
X0506D03*
G54D17*
X02278Y04364D03*
Y04435D03*
X024Y04364D03*
Y04435D03*
G54D18*
X04578Y04648D03*
X04598D03*
X04617D03*
X04637D03*
X04657D03*
X04676D03*
X04696D03*
X04716D03*
X04735D03*
X04755D03*
X04775D03*
X04795D03*
X04814D03*
X04834D03*
X04854D03*
X04873D03*
Y0501D03*
X04854D03*
X04834D03*
X04814D03*
X04795D03*
X04775D03*
X04755D03*
X04735D03*
X04716D03*
X04696D03*
X04676D03*
X04657D03*
X04637D03*
X04617D03*
X04598D03*
X04578D03*
G54D19*
X04907Y04681D03*
Y04701D03*
Y04721D03*
Y0474D03*
Y0476D03*
Y0478D03*
Y04799D03*
Y04819D03*
Y04839D03*
Y04859D03*
Y04878D03*
Y04898D03*
Y04918D03*
Y04937D03*
Y04957D03*
Y04977D03*
X04545D03*
Y04957D03*
Y04937D03*
Y04918D03*
Y04898D03*
Y04878D03*
Y04859D03*
Y04839D03*
Y04819D03*
Y04799D03*
Y0478D03*
Y0476D03*
Y0474D03*
Y04721D03*
Y04701D03*
Y04681D03*
G54D20*
X04726Y04829D03*
G54D21*
X04963Y05201D03*
Y05252D03*
X04886Y05201D03*
Y05252D03*
X04808Y05201D03*
Y05252D03*
X04731D03*
Y05201D03*
X04654D03*
Y05252D03*
X04577D03*
Y05201D03*
X045D03*
Y05252D03*
X04423Y05201D03*
Y05252D03*
X04346D03*
Y05201D03*
X04371Y04526D03*
Y04475D03*
X04355Y04644D03*
Y04695D03*
Y0481D03*
Y04759D03*
Y0506D03*
Y05009D03*
Y04894D03*
Y04945D03*
X04641Y04475D03*
Y04526D03*
X04704D03*
Y04475D03*
X04766Y04526D03*
Y04475D03*
X04828Y04526D03*
Y04475D03*
X04891Y04526D03*
Y04475D03*
X04953Y04526D03*
Y04475D03*
G54D22*
X0455Y04469D03*
Y04532D03*
X04463Y04469D03*
Y04532D03*
M02*