%FSTAX23Y23*%
%MOIN*%
%SFA1B1*%

%IPPOS*%
%ADD23R,0.086740X0.027685*%
%ADD24R,0.035559X0.045401*%
%ADD25R,0.067055X0.043433*%
%ADD26O,0.017842X0.059181*%
%ADD27O,0.059181X0.017842*%
%ADD28R,0.244220X0.244220*%
%ADD29R,0.045401X0.035559*%
%ADD30R,0.063118X0.055244*%
%ADD31C,0.008000*%
%ADD32C,0.086740*%
%ADD33R,0.067055X0.067055*%
%ADD34C,0.067055*%
%ADD35C,0.244220*%
%ADD36C,0.027685*%
%LNboard-1*%
%LPD*%
G54D23*
X04039Y04979D03*
Y04947D03*
Y04916D03*
Y04884D03*
Y04853D03*
X03716Y04679D03*
Y04711D03*
Y04742D03*
Y04774D03*
Y04805D03*
Y04837D03*
Y04868D03*
Y049D03*
Y04931D03*
X04039Y04821D03*
Y0479D03*
Y04758D03*
Y04727D03*
Y04695D03*
X03716Y04963D03*
G54D24*
X04604Y041D03*
X04552D03*
X04261Y04633D03*
X0421D03*
X04261Y04695D03*
X0421D03*
X04261Y04758D03*
X0421D03*
X04261Y04821D03*
X0421D03*
X04209Y0516D03*
X0426D03*
Y0509D03*
X04209D03*
X04261Y0501D03*
X0421D03*
X04261Y04946D03*
X0421D03*
X05009Y0474D03*
X0506D03*
X05009Y04819D03*
X0506D03*
X05009Y04977D03*
X0506D03*
G54D25*
X02278Y04364D03*
Y04435D03*
X024Y04364D03*
Y04435D03*
G54D26*
X04578Y04648D03*
X04598D03*
X04617D03*
X04637D03*
X04657D03*
X04676D03*
X04696D03*
X04716D03*
X04735D03*
X04755D03*
X04775D03*
X04795D03*
X04814D03*
X04834D03*
X04854D03*
X04873D03*
Y0501D03*
X04854D03*
X04834D03*
X04814D03*
X04795D03*
X04775D03*
X04755D03*
X04735D03*
X04716D03*
X04696D03*
X04676D03*
X04657D03*
X04637D03*
X04617D03*
X04598D03*
X04578D03*
G54D27*
X04907Y04681D03*
Y04701D03*
Y04721D03*
Y0474D03*
Y0476D03*
Y0478D03*
Y04799D03*
Y04819D03*
Y04839D03*
Y04859D03*
Y04878D03*
Y04898D03*
Y04918D03*
Y04937D03*
Y04957D03*
Y04977D03*
X04545D03*
Y04957D03*
Y04937D03*
Y04918D03*
Y04898D03*
Y04878D03*
Y04859D03*
Y04839D03*
Y04819D03*
Y04799D03*
Y0478D03*
Y0476D03*
Y0474D03*
Y04721D03*
Y04701D03*
Y04681D03*
G54D28*
X04726Y04829D03*
G54D29*
X04963Y05201D03*
Y05252D03*
X04886Y05201D03*
Y05252D03*
X04808Y05201D03*
Y05252D03*
X04731D03*
Y05201D03*
X04654D03*
Y05252D03*
X04577D03*
Y05201D03*
X045D03*
Y05252D03*
X04423Y05201D03*
Y05252D03*
X04346D03*
Y05201D03*
X04371Y04526D03*
Y04475D03*
X04355Y04644D03*
Y04695D03*
Y0481D03*
Y04759D03*
Y0506D03*
Y05009D03*
Y04894D03*
Y04945D03*
X04641Y04475D03*
Y04526D03*
X04704D03*
Y04475D03*
X04766Y04526D03*
Y04475D03*
X04828Y04526D03*
Y04475D03*
X04891Y04526D03*
Y04475D03*
X04953Y04526D03*
Y04475D03*
G54D30*
X0455Y04469D03*
Y04532D03*
X04463Y04469D03*
Y04532D03*
G54D31*
X03877Y0464D03*
Y05018D03*
X0394Y0511D03*
X03743D03*
X03558D03*
X04121Y05018D03*
Y04829D03*
Y0464D03*
X0394Y04548D03*
X03743D03*
X03558D03*
X03448Y04886D03*
Y04673D03*
X02657Y04772D03*
G54D32*
X02661Y0511D03*
X03055D03*
X03448D03*
X03842D03*
X03645Y04548D03*
X04039D03*
X03251D03*
X02858D03*
G54D33*
X0291Y0525D03*
X04325Y04185D03*
G54D34*
X0301Y0525D03*
X0311D03*
X0321D03*
X0331D03*
X04825Y04185D03*
X04725D03*
X04625D03*
X04525D03*
X04425D03*
G54D35*
X02342Y04168D03*
X05019D03*
G54D36*
X04639Y04742D03*
Y04786D03*
Y04829D03*
Y04872D03*
Y04916D03*
X04682Y04742D03*
Y04786D03*
Y04829D03*
Y04872D03*
Y04916D03*
X04726Y04742D03*
Y04786D03*
Y04829D03*
Y04872D03*
Y04916D03*
X04769Y04742D03*
Y04786D03*
Y04829D03*
Y04872D03*
Y04916D03*
X04812Y04742D03*
Y04786D03*
Y04829D03*
Y04872D03*
Y04916D03*
M02*