G04*
G04 #@! TF.GenerationSoftware,Altium Limited,Altium Designer,22.8.2 (66)*
G04*
G04 Layer_Physical_Order=4*
G04 Layer_Color=16711680*
%FSLAX44Y44*%
%MOMM*%
G71*
G04*
G04 #@! TF.SameCoordinates,69D5640E-4D3D-4872-97FD-B36DD4CC5FE0*
G04*
G04*
G04 #@! TF.FilePolarity,Positive*
G04*
G01*
G75*
%ADD10C,0.2500*%
%ADD11C,0.2000*%
%ADD12C,0.3000*%
%ADD35C,1.0000*%
%ADD36C,2.0000*%
%ADD37C,1.5000*%
%ADD38R,1.8000X1.8000*%
%ADD39C,1.8000*%
%ADD40R,1.5000X1.5000*%
%ADD41C,6.0000*%
%ADD42C,0.3500*%
%ADD43C,0.5000*%
%ADD44C,1.2700*%
%ADD55R,0.4000X0.8000*%
%ADD56R,0.8000X0.4000*%
%ADD57R,2.2200X1.2300*%
%ADD58R,0.7000X0.9500*%
%ADD59O,1.6500X0.4000*%
%ADD60O,0.2500X1.3000*%
%ADD61O,1.3000X0.2500*%
%ADD62R,6.0000X6.0000*%
%ADD63R,1.4000X1.2000*%
%ADD64R,1.0000X0.5500*%
%ADD65C,0.1000*%
%ADD66C,0.5000*%
D10*
X943936Y884682D02*
X1006602D01*
X937840Y890778D02*
X943936Y884682D01*
D11*
X890580Y962990D02*
G03*
X880552Y958263I0J-13000D01*
G01*
X1105320Y876721D02*
Y881888D01*
Y871554D02*
Y876721D01*
X1099312Y876808D02*
X1099399Y876721D01*
X1105320D01*
X1073746Y907288D02*
Y914488D01*
Y895858D02*
Y907288D01*
X913050Y871540D02*
X925002D01*
X926084Y870458D01*
X890580Y962990D02*
X906284Y978694D01*
X880552Y958263D02*
X880552Y958263D01*
X880289Y958000D02*
X880552Y958263D01*
X780288Y861060D02*
X780380Y860968D01*
Y853440D02*
Y860968D01*
Y843280D02*
Y853190D01*
X780630Y853440D01*
X1145990Y884740D02*
X1153610D01*
X1124116Y895858D02*
X1124204Y895770D01*
Y887476D02*
Y895770D01*
X1124116Y907288D02*
Y912788D01*
X1126236Y914908D01*
Y924306D01*
X1127252Y925322D01*
X1084746Y895858D02*
X1094066D01*
X1084746Y907288D02*
X1094066D01*
Y895858D02*
Y907288D01*
Y891198D02*
Y895858D01*
Y891198D02*
X1096264Y889000D01*
X1117346D01*
X1118362Y890016D01*
Y913638D01*
X1120648Y915924D01*
Y930656D01*
X1127252Y937260D01*
X1105066Y895858D02*
X1113116D01*
X1101598D02*
X1105066D01*
X1099566Y897890D02*
X1101598Y895858D01*
X1099566Y897890D02*
Y913384D01*
X1101344Y915162D01*
X1106932D01*
X1112520Y920750D01*
Y932831D01*
X1105066Y907288D02*
X1113116D01*
Y914234D01*
X1116550Y917668D01*
X1121025Y881888D02*
X1124204Y878709D01*
X1116320Y881888D02*
X1121025D01*
X1116550Y917668D02*
Y934500D01*
X1116320Y844790D02*
X1124204D01*
X1122129Y858172D02*
X1124204Y856096D01*
X1116320Y858172D02*
X1122129D01*
X1120053Y871554D02*
X1124204Y867403D01*
X1116320Y871554D02*
X1120053D01*
X1105320Y844790D02*
X1110234Y849704D01*
Y862838D01*
X1108202Y864870D02*
X1110234Y862838D01*
X1090930Y864870D02*
X1108202D01*
X1056640Y899160D02*
X1090930Y864870D01*
X1091929Y858172D02*
X1105320D01*
X1052830Y897271D02*
X1091929Y858172D01*
X845220Y936590D02*
Y941070D01*
Y936590D02*
Y979189D01*
X927954Y947674D02*
X928370D01*
X928786D01*
X933450Y943010D01*
X923290D02*
X927954Y947674D01*
X911288Y943038D02*
X921101Y952851D01*
X936087D02*
X938530Y955294D01*
X921101Y952851D02*
X936087D01*
X938530Y955294D02*
Y957970D01*
X943610Y969220D02*
X948690D01*
X938530D02*
X943610D01*
Y974852D01*
X913130Y969220D02*
X918210D01*
X908050D02*
X913130D01*
Y973582D01*
X906284Y978694D02*
X922396D01*
X928370Y972720D01*
X951392Y982218D02*
X958850Y974760D01*
X885008Y982218D02*
X951392D01*
X878820Y976030D02*
X885008Y982218D01*
X861914Y980694D02*
X862330D01*
X857250Y976030D02*
X861914Y980694D01*
X862330D02*
X862746D01*
X867410Y976030D01*
X1047861Y989838D02*
X1056640Y981059D01*
X855869Y989838D02*
X1047861D01*
X849250Y977520D02*
X857538Y985808D01*
X845220Y979189D02*
X855869Y989838D01*
X857538Y985808D02*
X1046192D01*
X1052830Y979170D01*
X869858Y940400D02*
X869950Y940308D01*
X872998D01*
X873760Y941070D01*
X864270Y940400D02*
X869858D01*
X827750D02*
X833050D01*
X824926Y943224D02*
X827750Y940400D01*
X803910Y937930D02*
Y940562D01*
X808990Y945642D01*
X814070Y940562D01*
Y937930D02*
Y940562D01*
X764124Y904910D02*
X769620D01*
X760222Y908812D02*
X764124Y904910D01*
X769620Y904660D02*
X769870Y904910D01*
X779780D01*
X778856Y912876D02*
X780380Y914400D01*
X774446Y912876D02*
X778856D01*
X774446Y923036D02*
X778856D01*
X780380Y924560D01*
X751332Y934720D02*
X757520D01*
X954830Y842220D02*
X955040Y842010D01*
X947840Y842220D02*
X954830D01*
X947840Y852170D02*
Y862330D01*
Y842220D02*
Y852170D01*
X837438Y958596D02*
Y992124D01*
X843534Y998220D01*
X845203Y994190D02*
X1094960D01*
X841248Y990235D02*
X845203Y994190D01*
X841248Y958596D02*
Y990235D01*
X843534Y998220D02*
X1096629D01*
X873760Y941070D02*
Y947000D01*
Y958000D02*
X880289D01*
X928370Y969470D02*
Y972720D01*
X819880Y948270D02*
X824926Y943224D01*
X817880Y948270D02*
X819880D01*
X948090Y891540D02*
X955040D01*
X948090Y877570D02*
X955040D01*
X920270Y861540D02*
X929640Y852170D01*
X913050Y861540D02*
X920270D01*
X929640Y852170D02*
X936840D01*
X795020Y923290D02*
X806770Y911540D01*
X791630Y923290D02*
X795020D01*
X797560Y902970D02*
X798990Y901540D01*
X791630Y902970D02*
X797560D01*
X798990Y901540D02*
X821050D01*
X791630Y892810D02*
X795020D01*
X798850Y896640D01*
X791630Y882650D02*
X796290D01*
X800041Y886401D01*
X806770Y911540D02*
X821050D01*
X795516Y931084D02*
X800170Y926430D01*
X792630Y931084D02*
X795516D01*
X791630Y932084D02*
X792630Y931084D01*
X791630Y932084D02*
Y933450D01*
X800170Y926430D02*
X803910D01*
X791630Y882920D02*
X792630Y883920D01*
X791630Y882650D02*
Y882920D01*
X800041Y886401D02*
X820911D01*
X853020Y951230D02*
Y955460D01*
X849250Y959230D02*
Y977520D01*
Y959230D02*
X853020Y955460D01*
X1094960Y994190D02*
X1103630Y985520D01*
X1096629Y998220D02*
X1107660Y987189D01*
X783740Y873760D02*
X796290D01*
X782740Y872760D02*
X783740Y873760D01*
X782740Y872490D02*
Y872760D01*
X804070Y881540D02*
X821050D01*
X796290Y873760D02*
X804070Y881540D01*
X957830Y909070D02*
X966330Y900570D01*
X936523Y909070D02*
X957830D01*
X936240D02*
X936840Y908470D01*
Y901700D02*
Y908470D01*
X930670Y906540D02*
X933200Y909070D01*
X936240D01*
X954405Y901700D02*
X955040Y902335D01*
X948090Y901700D02*
X954405D01*
X986943Y900570D02*
X995693Y909320D01*
X966330Y900570D02*
X986943D01*
X913050Y906540D02*
X930670D01*
X913050Y911540D02*
X928050D01*
X932180Y915670D02*
X936590D01*
X928050Y911540D02*
X932180Y915670D01*
X936590D02*
X957580D01*
X967230Y925320D01*
X936590Y915670D02*
Y923040D01*
X936840Y923290D01*
X951230D02*
X955040Y927100D01*
X948090Y923290D02*
X951230D01*
X1144270Y886460D02*
Y901700D01*
X1149350Y906780D02*
X1166980D01*
X1144270Y901700D02*
X1149350Y906780D01*
X1144270Y886460D02*
X1145990Y884740D01*
X1166980Y858520D02*
Y866140D01*
Y850900D02*
Y858520D01*
X1147031Y876808D02*
X1153414D01*
X1144270Y874047D02*
X1147031Y876808D01*
X1144270Y862330D02*
Y874047D01*
Y862330D02*
X1148080Y858520D01*
X1166980D01*
Y850900D02*
X1166980Y850900D01*
X1056640Y899160D02*
Y981059D01*
X1052830Y897271D02*
Y979170D01*
X995693Y909320D02*
X999900D01*
X1373976Y849890D02*
X1375586Y848280D01*
X1322760Y849890D02*
X1373976D01*
X1375586Y848280D02*
X1379220Y844646D01*
Y777240D02*
Y844646D01*
X1362710Y760730D02*
X1379220Y777240D01*
X1348740Y982980D02*
X1361440Y970280D01*
Y885190D02*
Y970280D01*
X1358640Y882390D02*
X1361440Y885190D01*
X1323340Y982980D02*
X1357630Y948690D01*
Y891540D02*
Y948690D01*
X1354980Y888890D02*
X1357630Y891540D01*
X1179980Y878840D02*
Y891540D01*
Y866140D02*
Y878840D01*
X1174750D02*
X1179980D01*
X1388110Y770890D02*
Y852170D01*
X1355240Y830580D02*
X1365250D01*
X1286520Y760730D02*
X1362710D01*
X1383030Y773430D02*
Y845820D01*
X1365250Y755650D02*
X1383030Y773430D01*
X1372460Y856390D02*
X1383030Y845820D01*
X1367790Y750570D02*
X1388110Y770890D01*
X1370890Y869390D02*
X1388110Y852170D01*
X1393190Y784860D02*
Y854710D01*
X1372010Y875890D02*
X1393190Y854710D01*
X1166980Y891540D02*
X1166980Y891540D01*
Y906780D01*
X1198880Y859536D02*
X1209398D01*
X1234284Y856390D02*
X1250260D01*
X1231138Y859536D02*
X1234284Y856390D01*
X1222398Y859536D02*
X1231138D01*
X798850Y896640D02*
X820950D01*
X1220470Y895096D02*
X1220764Y895390D01*
X1228130D01*
X1261034Y912698D02*
X1263650Y910082D01*
Y891540D02*
Y910082D01*
X1247140Y923290D02*
X1250442D01*
X1261034Y912698D01*
X1254030Y926814D02*
X1267174Y913670D01*
X1290320Y890524D01*
X1247140Y933704D02*
X1254030Y926814D01*
X1290320Y847090D02*
Y890524D01*
X1247140Y944118D02*
X1296670Y894588D01*
Y850900D02*
Y894588D01*
X1306282Y895390D02*
X1322760D01*
X1247140Y954532D02*
X1306282Y895390D01*
X1246886Y964946D02*
X1247394D01*
X1252220Y960120D01*
X1234694Y775970D02*
X1247648Y763016D01*
X772830Y775970D02*
X1234694D01*
X1231900Y765810D02*
X1238250Y759460D01*
X772830Y765810D02*
X1231900D01*
X1212088Y836930D02*
X1250220D01*
X924226Y896540D02*
X927354Y899668D01*
X913050Y896540D02*
X924226D01*
X929640Y842010D02*
Y844634D01*
X922734Y851540D02*
X929640Y844634D01*
X913050Y851540D02*
X922734D01*
X1322760Y869390D02*
X1370890D01*
X1231900Y731520D02*
X1266190Y765810D01*
X1310640D01*
X1322760Y777930D01*
Y823890D01*
X1243970Y718180D02*
X1286520Y760730D01*
X1269370Y718180D02*
X1306840Y755650D01*
X1365250D01*
X1231900Y712470D02*
Y731520D01*
X1322760Y856390D02*
X1372460D01*
X1322760Y875890D02*
X1372010D01*
X1312840Y908390D02*
X1322760D01*
X1247140Y974090D02*
Y982980D01*
Y974090D02*
X1312840Y908390D01*
X1322760Y888890D02*
X1354980D01*
X1322760Y882390D02*
X1358640D01*
X1319234Y742644D02*
X1327160Y750570D01*
X1367790D01*
X802640Y786130D02*
X803910Y784860D01*
X772830Y786130D02*
X802640D01*
X1239520Y704850D02*
X1306840D01*
X1320170Y718180D01*
X1231900Y712470D02*
X1239520Y704850D01*
X958850Y969470D02*
Y974760D01*
X867410Y964530D02*
X877570D01*
X858520Y964550D02*
X867410D01*
X857250Y964530D02*
X858020D01*
X858520Y934720D02*
Y964030D01*
X858020Y964530D02*
X858520Y964030D01*
Y934720D02*
X864550Y928690D01*
Y920040D02*
Y928690D01*
X1252220Y960120D02*
X1310450Y901890D01*
X1322760D01*
X1103630Y941721D02*
Y985520D01*
X1107660Y943390D02*
Y987189D01*
Y943390D02*
X1116550Y934500D01*
X1103630Y941721D02*
X1112520Y932831D01*
X1226820Y886460D02*
Y889000D01*
Y886460D02*
X1230890Y882390D01*
X833050Y940400D02*
X833720Y941070D01*
X867100Y796710D02*
Y801790D01*
X856940Y796710D02*
Y801790D01*
X889550Y796710D02*
Y801790D01*
X996900Y925320D02*
X999900D01*
X980900Y909320D02*
X996900Y925320D01*
X977900Y909320D02*
X980900D01*
X966470D02*
X977900D01*
X1308660Y862890D02*
X1322760D01*
X806690Y876540D02*
X821050D01*
X803910Y873760D02*
X806690Y876540D01*
X856050Y863040D02*
X867050Y874040D01*
X845050Y852040D02*
X856050Y863040D01*
X834550Y841540D02*
X845050Y852040D01*
X821050Y841540D02*
X834550D01*
X822960Y796890D02*
Y801970D01*
X1226820Y901890D02*
X1250260D01*
X1226630D02*
X1226820D01*
X1235970Y849890D02*
X1250260D01*
X1339820Y895390D02*
X1341050Y896620D01*
X1322760Y895390D02*
X1339820D01*
X1261000Y888890D02*
X1263650Y891540D01*
X1250260Y888890D02*
X1261000D01*
X1230890Y882390D02*
X1250260D01*
X1228090Y895350D02*
X1228130Y895390D01*
X1228090D02*
X1250220D01*
Y895350D02*
X1250260Y895390D01*
X1304180Y843390D02*
X1322760D01*
X1296670Y850900D02*
X1304180Y843390D01*
X1300520Y836890D02*
X1322760D01*
X1290320Y847090D02*
X1300520Y836890D01*
X1212180Y914400D02*
X1217260D01*
X1212180Y875890D02*
X1217260D01*
X1218040Y843390D02*
X1250260D01*
X1217930Y830580D02*
X1218120Y830390D01*
X1250260D01*
X1250220Y836930D02*
X1250260Y836890D01*
X820420Y919480D02*
Y923290D01*
X826770Y929640D01*
X831850D01*
X834550Y926940D01*
Y920040D02*
Y926940D01*
X1210570Y801110D02*
X1217260D01*
X808990Y891540D02*
X821050D01*
X911860Y828040D02*
X914400Y830580D01*
X904550Y828040D02*
X911860D01*
X909320Y817880D02*
X914400Y822960D01*
X896620Y817880D02*
X909320D01*
X894550Y819950D02*
X896620Y817880D01*
X894550Y819950D02*
Y828040D01*
X1314756Y738166D02*
X1319234Y742644D01*
X1294770Y718180D02*
X1314756Y738166D01*
X1226220Y982980D02*
X1247140D01*
X700182Y933038D02*
X706120Y927100D01*
X700182Y933038D02*
Y958850D01*
X745490Y927100D02*
X751840Y920750D01*
X706120Y927100D02*
X745490D01*
X763270Y894080D02*
X780380D01*
X751840Y905510D02*
Y920750D01*
Y905510D02*
X763270Y894080D01*
X918210Y954944D02*
Y957970D01*
X907764Y944498D02*
X918210Y954944D01*
X907764Y939610D02*
Y944498D01*
X901318Y933164D02*
X907764Y939610D01*
X879824Y933164D02*
X901318D01*
X874550Y927890D02*
X879824Y933164D01*
X874550Y920040D02*
Y927890D01*
X908050Y949767D02*
Y957970D01*
X904240Y945957D02*
X908050Y949767D01*
X904240Y941070D02*
Y945957D01*
X899858Y936688D02*
X904240Y941070D01*
X878268Y936688D02*
X899858D01*
X869646Y928066D02*
X878268Y936688D01*
X869646Y920136D02*
Y928066D01*
X869550Y920040D02*
X869646Y920136D01*
X911288Y938151D02*
Y943038D01*
X902777Y929640D02*
X911288Y938151D01*
X881380Y929640D02*
X902777D01*
X879550Y927810D02*
X881380Y929640D01*
X879550Y920040D02*
Y927810D01*
X923290Y931510D02*
X943610D01*
X909920D02*
X923290D01*
X904550Y926140D02*
X909920Y931510D01*
X904550Y920040D02*
Y926140D01*
X913050Y881540D02*
X919210D01*
X814070Y926430D02*
X815940D01*
X822960Y933450D01*
X833120D01*
X839550Y927020D01*
Y920040D02*
Y927020D01*
X803910Y926430D02*
X814070D01*
X1035720Y856740D02*
X1039620D01*
X1042160Y859280D01*
X913050Y876540D02*
Y881540D01*
X967230Y925320D02*
X977900D01*
X948690Y957970D02*
X958850D01*
X938530D02*
X948690D01*
X918210D02*
X928370D01*
X1035720Y904740D02*
X1042160D01*
X1038930Y892740D02*
X1042160Y889510D01*
X1035720Y892740D02*
X1038930D01*
X1035720Y880740D02*
X1042160D01*
X1035720Y868740D02*
X1042160D01*
X854550Y920040D02*
Y927260D01*
X845220Y936590D02*
X854550Y927260D01*
X859550Y920040D02*
Y927959D01*
X852480Y940780D02*
X852770Y941070D01*
X852480Y935030D02*
X859550Y927959D01*
X852770Y941070D02*
Y951230D01*
X852480Y935030D02*
Y940780D01*
D12*
X931816Y871885D02*
Y873011D01*
X936840Y862330D02*
Y866861D01*
X931816Y871885D02*
X936840Y866861D01*
X931816Y873011D02*
Y874378D01*
X929654Y876540D02*
X931816Y874378D01*
X913050Y876540D02*
X929654D01*
X1214720Y923125D02*
Y993740D01*
X1228760Y908390D02*
Y917540D01*
X1352550Y896620D02*
Y909320D01*
X943610Y943010D02*
X963330D01*
X1213612Y891038D02*
X1228760Y875890D01*
X1024220Y880740D02*
Y904740D01*
Y868740D02*
Y880740D01*
Y856740D02*
Y868740D01*
X769020Y934335D02*
Y951900D01*
X780630Y883920D02*
X783380D01*
X889550Y813290D02*
X899160D01*
X725840Y813470D02*
Y817880D01*
X704250Y813400D02*
Y817880D01*
X927620Y886540D02*
X936590Y877570D01*
X913050Y886540D02*
X927620D01*
X1127252Y937260D02*
X1173480D01*
X1179980Y930760D01*
Y923125D02*
Y930760D01*
Y906780D02*
Y923125D01*
X1214720D01*
X1006602Y884682D02*
X1012190Y890270D01*
X811110Y959270D02*
X817880D01*
X781050Y963930D02*
X806450D01*
X811110Y959270D01*
X769020Y951900D02*
X781050Y963930D01*
X829310Y951230D02*
X833720D01*
X821690Y958850D02*
X829310Y951230D01*
X817880Y959270D02*
X820000D01*
X820420Y958850D02*
X821690D01*
X820000Y959270D02*
X820420Y958850D01*
X873260Y957500D02*
X873760Y958000D01*
X868290Y957500D02*
X873260D01*
X864270Y953480D02*
X868290Y957500D01*
X936804Y834390D02*
Y842184D01*
Y834390D02*
X967740D01*
X923290D02*
X936804D01*
X967740D02*
X969010Y835660D01*
Y850900D01*
X974850Y856740D01*
X942340Y844550D02*
Y859790D01*
X936840Y842220D02*
X940010D01*
X942340Y844550D01*
X923290Y822775D02*
Y834390D01*
X939800Y862330D02*
X942340Y859790D01*
X936840Y862330D02*
X939800D01*
X1004570Y869950D02*
X1017270Y882650D01*
X936590Y877570D02*
X944210Y869950D01*
X1004570D01*
X791630Y913130D02*
X796290D01*
X802880Y906540D01*
X786130Y913130D02*
Y931970D01*
Y913130D02*
X791630D01*
X786130Y886670D02*
Y913130D01*
X783829Y934270D02*
X786130Y931970D01*
X781079Y934270D02*
X783829D01*
X780630Y934720D02*
X781079Y934270D01*
X768770Y934585D02*
Y934720D01*
Y934585D02*
X769020Y934335D01*
X780630Y933450D02*
Y933585D01*
X780130Y934085D02*
X780630Y933585D01*
X769270Y934085D02*
X780130D01*
X769020Y934335D02*
X769270Y934085D01*
X783380Y883920D02*
X786130Y886670D01*
X771320Y883920D02*
X780130D01*
X780630Y883420D01*
Y882650D02*
Y883420D01*
X725840Y817880D02*
X734730Y826770D01*
X756920D01*
X692750Y818130D02*
Y839470D01*
Y828040D02*
X706430D01*
X714340Y820130D01*
X693000Y846670D02*
X697670Y851340D01*
X693000Y839470D02*
Y846670D01*
X692750Y818130D02*
X693000Y817880D01*
X721360Y808990D02*
X725840Y813470D01*
X708660Y808990D02*
X721360D01*
X704250Y813400D02*
X708660Y808990D01*
X714340Y819130D02*
Y820130D01*
X771740Y872490D02*
Y883500D01*
X765810Y883920D02*
X771320D01*
X771740Y883500D01*
X750570Y899160D02*
X765810Y883920D01*
X739290Y899160D02*
X750570D01*
X771740Y810680D02*
X785813Y796608D01*
X771740Y810680D02*
Y872490D01*
X785813Y796608D02*
X801052D01*
X1217510Y811530D02*
X1220260D01*
X928370Y969220D02*
Y969470D01*
Y966470D02*
Y969220D01*
X801052Y796608D02*
X812800Y784860D01*
X899160D01*
X967740Y963720D02*
X998430D01*
X1004570Y957580D01*
Y943610D02*
Y957580D01*
Y943610D02*
X1012190Y935990D01*
Y890270D02*
Y935990D01*
X913050Y891540D02*
X936840D01*
X1272540Y982980D02*
X1278890D01*
X1352550Y909320D01*
X1339483Y830580D02*
X1342240D01*
X1339293Y830390D02*
X1339483Y830580D01*
X1322760Y830390D02*
X1339293D01*
X1179980Y850900D02*
X1187450D01*
X1191260Y854710D01*
Y902970D01*
X1187450Y906780D02*
X1191260Y902970D01*
X1179980Y906780D02*
X1187450D01*
X1213612Y891038D02*
Y899252D01*
X1222750Y908390D01*
X816864Y789686D02*
X869696D01*
X877570Y797560D01*
X786130Y820420D02*
X816864Y789686D01*
X1260250Y875890D02*
X1270000Y866140D01*
Y836930D02*
X1276540Y830390D01*
X1270000Y836930D02*
Y866140D01*
X1276540Y830390D02*
X1309370D01*
X1214720Y923125D02*
X1223175D01*
X1228760Y917540D01*
X1001570Y969470D02*
X1009650Y961390D01*
Y946150D02*
Y961390D01*
Y946150D02*
X1017270Y938530D01*
X958850Y969470D02*
X1001570D01*
X786130Y820420D02*
Y850690D01*
X1222750Y908390D02*
X1228760D01*
X1250260D01*
X1228760Y875890D02*
X1235710D01*
X754380Y765810D02*
X761330D01*
X754380Y775970D02*
X761330D01*
X754380Y786130D02*
X761330D01*
X877570Y797560D02*
Y810260D01*
X899160Y784860D02*
Y813290D01*
X1223010Y784860D02*
Y808780D01*
X899160Y784860D02*
X1223010D01*
X1301750D01*
X1309370Y792480D01*
X923290Y834390D02*
Y844623D01*
X913805Y813290D02*
X923290Y822775D01*
X921373Y846540D02*
X923290Y844623D01*
X913050Y846540D02*
X921373D01*
X1250260Y875890D02*
X1260250D01*
X1220260Y811530D02*
X1223010Y808780D01*
X1272540Y982980D02*
Y989330D01*
X1264920Y996950D02*
X1272540Y989330D01*
X1217930Y996950D02*
X1264920D01*
X1214720Y993740D02*
X1217930Y996950D01*
X1309370Y830390D02*
X1322760D01*
X1309370Y792480D02*
Y830390D01*
X1228760Y811530D02*
X1242060D01*
X1228760Y801110D02*
Y811530D01*
X1235710Y875890D02*
X1250260D01*
X744220Y876990D02*
X757500D01*
X760730Y873760D01*
Y830580D02*
Y873760D01*
X756920Y826770D02*
X760730Y830580D01*
X697670Y851340D02*
Y856640D01*
X744220Y843280D02*
Y855290D01*
X740410Y839470D02*
X744220Y843280D01*
X725840Y839470D02*
X740410D01*
X714340D02*
Y845150D01*
X719650Y850460D01*
Y856640D01*
X899160Y813290D02*
X913805D01*
X974850Y856740D02*
X1024220D01*
X889550Y813290D02*
Y828040D01*
X791880Y843280D02*
X808990D01*
Y853440D01*
Y830580D02*
Y843280D01*
X786130Y850690D02*
X788880Y853440D01*
X791880D01*
X796290D02*
X804390Y861540D01*
X874540Y813290D02*
X877570Y810260D01*
X867100Y813290D02*
X874540D01*
X928370Y966470D02*
X931120Y963720D01*
X967740D01*
X1017270Y882650D02*
Y938530D01*
X967740Y947420D02*
Y963720D01*
X963330Y943010D02*
X967740Y947420D01*
X901700Y843280D02*
Y883920D01*
X897890Y839470D02*
X901700Y843280D01*
X872490Y839470D02*
X897890D01*
X869550Y836530D02*
X872490Y839470D01*
X869550Y828040D02*
Y836530D01*
X822050Y828040D02*
X829550D01*
X811530D02*
X822050D01*
X822960Y827130D01*
Y813470D02*
Y827130D01*
X808990Y830580D02*
X811530Y828040D01*
X808990Y853440D02*
X812090Y856540D01*
X821050D01*
X831850Y859790D02*
Y906540D01*
X828600Y856540D02*
X831850Y859790D01*
X821050Y856540D02*
X828600D01*
X901700Y883920D02*
X904320Y886540D01*
X904240Y891540D02*
X913050D01*
X901700Y894080D02*
X904240Y891540D01*
X901700Y894080D02*
Y906780D01*
X899160Y909320D02*
X901700Y906780D01*
X834630Y909320D02*
X899160D01*
X831850Y906540D02*
X834630Y909320D01*
X821050Y906540D02*
X831850D01*
X869550Y818990D02*
Y828040D01*
X867100Y816540D02*
X869550Y818990D01*
X867100Y813290D02*
Y816540D01*
X802880Y906540D02*
X821050D01*
X804390Y861540D02*
X821050D01*
X791880Y853440D02*
X796290D01*
X856940Y813290D02*
X867100D01*
X904320Y886540D02*
X913050D01*
D35*
X739290Y899160D02*
Y915670D01*
X739290Y915670D02*
X739290Y915670D01*
X739290Y899160D02*
X739290Y899160D01*
X739290Y881920D02*
Y899160D01*
Y881920D02*
X744220Y876990D01*
X697080Y868680D02*
Y915670D01*
X738560Y855290D02*
X744220D01*
X727710Y866140D02*
X738560Y855290D01*
X719650Y866140D02*
X727710D01*
D36*
X790580Y949990D02*
D03*
X890580D02*
D03*
X990580D02*
D03*
X1090580D02*
D03*
X1040580Y807490D02*
D03*
X1140580D02*
D03*
X940580D02*
D03*
X840580D02*
D03*
D37*
X1243970Y718180D02*
D03*
X1269370D02*
D03*
X1294770D02*
D03*
X1320170D02*
D03*
X1345570D02*
D03*
D38*
X1247140Y982980D02*
D03*
D39*
X1323340D02*
D03*
X1348740D02*
D03*
X1297940D02*
D03*
X1272540D02*
D03*
D40*
X1218570Y718180D02*
D03*
D41*
X1395010Y713740D02*
D03*
X715010D02*
D03*
D42*
X1073746Y914488D02*
D03*
X1099312Y876808D02*
D03*
X1174750Y878840D02*
D03*
D43*
X926084Y870458D02*
D03*
X780288Y861060D02*
D03*
X1153610Y884740D02*
D03*
X1153414Y876808D02*
D03*
X1127252Y925322D02*
D03*
X1124204Y887476D02*
D03*
Y856096D02*
D03*
X928370Y947674D02*
D03*
X943610Y974852D02*
D03*
X913130Y973582D02*
D03*
X862330Y980694D02*
D03*
X869950Y940308D02*
D03*
X824926Y943224D02*
D03*
X808990Y945642D02*
D03*
X760222Y908812D02*
D03*
X774446Y912876D02*
D03*
Y923036D02*
D03*
X751332Y934720D02*
D03*
X955040Y891540D02*
D03*
Y877570D02*
D03*
Y902335D02*
D03*
Y927100D02*
D03*
X1365250Y830580D02*
D03*
X1198880Y859536D02*
D03*
X1220470Y895350D02*
D03*
X1247140Y964946D02*
D03*
X1247648Y763016D02*
D03*
X1238250Y759460D02*
D03*
X1212088Y836930D02*
D03*
X927354Y899668D02*
D03*
X1124204Y844790D02*
D03*
Y878709D02*
D03*
Y867403D02*
D03*
X1153610Y892740D02*
D03*
Y844740D02*
D03*
Y868740D02*
D03*
X1045550Y896740D02*
D03*
Y912740D02*
D03*
Y848740D02*
D03*
Y840740D02*
D03*
X1042160Y868740D02*
D03*
Y880740D02*
D03*
Y889510D02*
D03*
Y904740D02*
D03*
Y859280D02*
D03*
X700182Y958850D02*
D03*
X1235710Y875890D02*
D03*
X1242060Y811530D02*
D03*
X914400Y822960D02*
D03*
Y830580D02*
D03*
X808990Y891540D02*
D03*
X1210570Y801110D02*
D03*
X820420Y919480D02*
D03*
X929640Y852170D02*
D03*
Y842010D02*
D03*
X1217930Y830390D02*
D03*
X1218040Y843390D02*
D03*
X754380Y786130D02*
D03*
Y775970D02*
D03*
Y765810D02*
D03*
X1212180Y875890D02*
D03*
Y914400D02*
D03*
X1393190Y784860D02*
D03*
X1247140Y944118D02*
D03*
Y933704D02*
D03*
Y923290D02*
D03*
Y954532D02*
D03*
X1235970Y849890D02*
D03*
X1226820Y901890D02*
D03*
X1153610Y916740D02*
D03*
X822960Y796890D02*
D03*
X803910Y873760D02*
D03*
X774700Y980440D02*
D03*
X1308660Y862890D02*
D03*
X1349170Y797990D02*
D03*
X1259170D02*
D03*
X1386410Y959490D02*
D03*
X955040Y842010D02*
D03*
X966470Y909320D02*
D03*
X889550Y796710D02*
D03*
X856940D02*
D03*
X867100D02*
D03*
X1226820Y889000D02*
D03*
X1277620Y969010D02*
D03*
X803910Y784860D02*
D03*
X889050Y896040D02*
D03*
X878050D02*
D03*
X867050D02*
D03*
X856050D02*
D03*
X845050D02*
D03*
X889050Y885040D02*
D03*
X878050D02*
D03*
X867050D02*
D03*
X856050D02*
D03*
X845050D02*
D03*
X889050Y874040D02*
D03*
X878050D02*
D03*
X867050D02*
D03*
X856050D02*
D03*
X845050D02*
D03*
X889050Y863040D02*
D03*
X878050D02*
D03*
X867050D02*
D03*
X856050D02*
D03*
X845050D02*
D03*
X889050Y852040D02*
D03*
X878050D02*
D03*
X867050D02*
D03*
X856050D02*
D03*
X845050D02*
D03*
D44*
X697230Y887290D02*
D03*
X719650D02*
D03*
D55*
X704000Y817880D02*
D03*
X693000D02*
D03*
X714590D02*
D03*
X725590D02*
D03*
X693000Y839470D02*
D03*
X704000D02*
D03*
X947840Y852170D02*
D03*
X936840D02*
D03*
X761580Y775970D02*
D03*
X772580D02*
D03*
X791630Y892810D02*
D03*
X780630D02*
D03*
X761580Y765810D02*
D03*
X772580D02*
D03*
X761580Y786130D02*
D03*
X772580D02*
D03*
X1225970Y982980D02*
D03*
X1214970D02*
D03*
X791630Y923290D02*
D03*
X780630D02*
D03*
X791630Y902970D02*
D03*
X780630D02*
D03*
X782740Y872490D02*
D03*
X771740D02*
D03*
X791630Y882650D02*
D03*
X780630D02*
D03*
X833970Y941070D02*
D03*
X844970D02*
D03*
X864020D02*
D03*
X853020D02*
D03*
X1228510Y801110D02*
D03*
X1217510D02*
D03*
X1024470Y856740D02*
D03*
X1035470D02*
D03*
X1024470Y892740D02*
D03*
X1035470D02*
D03*
X1024470Y868740D02*
D03*
X1035470D02*
D03*
X1024470Y880740D02*
D03*
X1035470D02*
D03*
X844970Y951230D02*
D03*
X833970D02*
D03*
X853020D02*
D03*
X864020D02*
D03*
X1105066Y895858D02*
D03*
X1094066D02*
D03*
X1105066Y907288D02*
D03*
X1094066D02*
D03*
X1024470Y904740D02*
D03*
X1035470D02*
D03*
X1228510Y811530D02*
D03*
X1217510D02*
D03*
X1341300Y896620D02*
D03*
X1352300D02*
D03*
X791630Y933450D02*
D03*
X780630D02*
D03*
Y843280D02*
D03*
X791630D02*
D03*
Y913130D02*
D03*
X780630D02*
D03*
X1105320Y871554D02*
D03*
X1116320D02*
D03*
X1105320Y881888D02*
D03*
X1116320D02*
D03*
X1228510Y914400D02*
D03*
X1217510D02*
D03*
X725590Y839470D02*
D03*
X714590D02*
D03*
X947840Y877570D02*
D03*
X936840D02*
D03*
X780630Y853440D02*
D03*
X791630D02*
D03*
X1073746Y907288D02*
D03*
X1084746D02*
D03*
X1073746Y895858D02*
D03*
X1084746D02*
D03*
X757770Y934720D02*
D03*
X768770D02*
D03*
X936840Y901700D02*
D03*
X947840D02*
D03*
X936840Y923290D02*
D03*
X947840D02*
D03*
X936840Y842220D02*
D03*
X947840D02*
D03*
X1228510Y875890D02*
D03*
X1217510D02*
D03*
X1116320Y844790D02*
D03*
X1105320D02*
D03*
X1116320Y858172D02*
D03*
X1105320D02*
D03*
X936840Y891540D02*
D03*
X947840D02*
D03*
X936840Y862330D02*
D03*
X947840D02*
D03*
X1124116Y895858D02*
D03*
X1113116D02*
D03*
X1124116Y907288D02*
D03*
X1113116D02*
D03*
D56*
X908050Y958220D02*
D03*
Y969220D02*
D03*
X769620Y893660D02*
D03*
Y904660D02*
D03*
X928370Y969220D02*
D03*
Y958220D02*
D03*
X877570Y964780D02*
D03*
Y975780D02*
D03*
X958850Y958220D02*
D03*
Y969220D02*
D03*
X943610Y931760D02*
D03*
Y942760D02*
D03*
X822960Y802220D02*
D03*
Y813220D02*
D03*
X918210Y969220D02*
D03*
Y958220D02*
D03*
X938530Y969220D02*
D03*
Y958220D02*
D03*
X948690Y969220D02*
D03*
Y958220D02*
D03*
X857250Y975780D02*
D03*
Y964780D02*
D03*
X867410Y975780D02*
D03*
Y964780D02*
D03*
X856940Y802040D02*
D03*
Y813040D02*
D03*
X867100Y802040D02*
D03*
Y813040D02*
D03*
X923290Y942760D02*
D03*
Y931760D02*
D03*
X933450Y942760D02*
D03*
Y931760D02*
D03*
X803910Y937680D02*
D03*
Y926680D02*
D03*
X814070Y937680D02*
D03*
Y926680D02*
D03*
X889550Y802040D02*
D03*
Y813040D02*
D03*
X817880Y948270D02*
D03*
Y959270D02*
D03*
X873760Y947000D02*
D03*
Y958000D02*
D03*
D57*
X744220Y876990D02*
D03*
Y855290D02*
D03*
D58*
X726290Y915670D02*
D03*
X739290D02*
D03*
X726290Y899160D02*
D03*
X739290D02*
D03*
X1355240Y830580D02*
D03*
X1342240D02*
D03*
X1179980Y866140D02*
D03*
X1166980D02*
D03*
X1179980Y891540D02*
D03*
X1166980D02*
D03*
X1222398Y859536D02*
D03*
X1209398D02*
D03*
X697080Y915670D02*
D03*
X710080D02*
D03*
X710080Y899160D02*
D03*
X697080D02*
D03*
X1179980Y906780D02*
D03*
X1166980D02*
D03*
X1179980Y850900D02*
D03*
X1166980D02*
D03*
D59*
X1322760Y875890D02*
D03*
Y862890D02*
D03*
Y830390D02*
D03*
X1250260Y908390D02*
D03*
Y901890D02*
D03*
Y875890D02*
D03*
Y869390D02*
D03*
Y862890D02*
D03*
Y856390D02*
D03*
Y849890D02*
D03*
Y823890D02*
D03*
X1322760Y882390D02*
D03*
Y888890D02*
D03*
Y908390D02*
D03*
Y823890D02*
D03*
Y869390D02*
D03*
Y856390D02*
D03*
Y849890D02*
D03*
Y895390D02*
D03*
X1250260Y888890D02*
D03*
X1322760Y836890D02*
D03*
Y843390D02*
D03*
X1250260D02*
D03*
X1322760Y901890D02*
D03*
X1250260Y895390D02*
D03*
Y836890D02*
D03*
Y882390D02*
D03*
Y830390D02*
D03*
D60*
X844550Y920040D02*
D03*
X849550D02*
D03*
X889550Y828040D02*
D03*
X884550D02*
D03*
X879550D02*
D03*
X874550D02*
D03*
X869550D02*
D03*
X864550D02*
D03*
X859550D02*
D03*
X854550D02*
D03*
X849550D02*
D03*
X844550D02*
D03*
X839550D02*
D03*
X834550D02*
D03*
X829550D02*
D03*
Y920040D02*
D03*
X839550D02*
D03*
X864550D02*
D03*
X869550D02*
D03*
X874550D02*
D03*
X879550D02*
D03*
X884550D02*
D03*
X889550D02*
D03*
X894550D02*
D03*
X899550D02*
D03*
X904550D02*
D03*
X859550D02*
D03*
X854550D02*
D03*
X834550D02*
D03*
X894550Y828040D02*
D03*
X904550D02*
D03*
X899550D02*
D03*
D61*
X913050Y911540D02*
D03*
Y906540D02*
D03*
Y901540D02*
D03*
Y896540D02*
D03*
Y891540D02*
D03*
Y886540D02*
D03*
Y881540D02*
D03*
Y876540D02*
D03*
Y866540D02*
D03*
Y856540D02*
D03*
Y846540D02*
D03*
Y841540D02*
D03*
Y836540D02*
D03*
X821050D02*
D03*
Y841540D02*
D03*
Y846540D02*
D03*
Y851540D02*
D03*
Y856540D02*
D03*
Y861540D02*
D03*
Y866540D02*
D03*
Y871540D02*
D03*
Y876540D02*
D03*
Y881540D02*
D03*
Y886540D02*
D03*
Y896540D02*
D03*
Y901540D02*
D03*
Y906540D02*
D03*
Y911540D02*
D03*
Y891540D02*
D03*
X913050Y851540D02*
D03*
Y861540D02*
D03*
Y871540D02*
D03*
D62*
X867050Y874040D02*
D03*
D63*
X977900Y909320D02*
D03*
Y925320D02*
D03*
X999900Y909320D02*
D03*
Y925320D02*
D03*
D64*
X719650Y856640D02*
D03*
Y866140D02*
D03*
Y875640D02*
D03*
X697670D02*
D03*
Y866140D02*
D03*
Y856640D02*
D03*
D65*
X837438Y958596D02*
X838200Y957834D01*
Y933450D02*
Y957834D01*
Y933450D02*
X844550Y927100D01*
X840730Y958078D02*
X841248Y958596D01*
X840730Y935746D02*
Y958078D01*
Y935746D02*
X849550Y926926D01*
Y920040D02*
Y926926D01*
X844550Y920040D02*
Y927100D01*
D66*
X726290Y899160D02*
Y915670D01*
X726290Y915670D02*
X726290Y915670D01*
X726290Y893930D02*
Y899160D01*
X726290Y899160D01*
X719650Y887290D02*
X726290Y893930D01*
X710080Y896860D02*
Y915670D01*
Y896860D02*
X719650Y887290D01*
Y875640D02*
Y887290D01*
X711810Y875640D02*
X719650D01*
X708660Y872490D02*
X711810Y875640D01*
X708660Y851140D02*
Y872490D01*
X704250Y846730D02*
X708660Y851140D01*
X704250Y839470D02*
Y846730D01*
M02*
