G04*
G04 #@! TF.GenerationSoftware,Altium Limited,Altium Designer,22.8.2 (66)*
G04*
G04 Layer_Color=128*
%FSLAX44Y44*%
%MOMM*%
G71*
G04*
G04 #@! TF.SameCoordinates,69D5640E-4D3D-4872-97FD-B36DD4CC5FE0*
G04*
G04*
G04 #@! TF.FilePolarity,Positive*
G04*
G01*
G75*
%ADD55R,0.4000X0.8000*%
%ADD56R,0.8000X0.4000*%
%ADD57R,2.2200X1.2300*%
%ADD58R,0.7000X0.9500*%
%ADD60O,0.2500X1.3000*%
%ADD61O,1.3000X0.2500*%
%ADD62R,6.0000X6.0000*%
%ADD63R,1.4000X1.2000*%
%ADD64R,1.0000X0.5500*%
%ADD77O,1.4500X0.2000*%
D55*
X704000Y817880D02*
D03*
X693000D02*
D03*
X714590D02*
D03*
X725590D02*
D03*
X693000Y839470D02*
D03*
X704000D02*
D03*
X947840Y852170D02*
D03*
X936840D02*
D03*
X761580Y775970D02*
D03*
X772580D02*
D03*
X791630Y892810D02*
D03*
X780630D02*
D03*
X761580Y765810D02*
D03*
X772580D02*
D03*
X761580Y786130D02*
D03*
X772580D02*
D03*
X1225970Y982980D02*
D03*
X1214970D02*
D03*
X791630Y923290D02*
D03*
X780630D02*
D03*
X791630Y902970D02*
D03*
X780630D02*
D03*
X782740Y872490D02*
D03*
X771740D02*
D03*
X791630Y882650D02*
D03*
X780630D02*
D03*
X833970Y941070D02*
D03*
X844970D02*
D03*
X864020D02*
D03*
X853020D02*
D03*
X1228510Y801110D02*
D03*
X1217510D02*
D03*
X1024470Y856740D02*
D03*
X1035470D02*
D03*
X1024470Y892740D02*
D03*
X1035470D02*
D03*
X1024470Y868740D02*
D03*
X1035470D02*
D03*
X1024470Y880740D02*
D03*
X1035470D02*
D03*
X844970Y951230D02*
D03*
X833970D02*
D03*
X853020D02*
D03*
X864020D02*
D03*
X1105066Y895858D02*
D03*
X1094066D02*
D03*
X1105066Y907288D02*
D03*
X1094066D02*
D03*
X1024470Y904740D02*
D03*
X1035470D02*
D03*
X1228510Y811530D02*
D03*
X1217510D02*
D03*
X1341300Y896620D02*
D03*
X1352300D02*
D03*
X791630Y933450D02*
D03*
X780630D02*
D03*
Y843280D02*
D03*
X791630D02*
D03*
Y913130D02*
D03*
X780630D02*
D03*
X1105320Y871554D02*
D03*
X1116320D02*
D03*
X1105320Y881888D02*
D03*
X1116320D02*
D03*
X1228510Y914400D02*
D03*
X1217510D02*
D03*
X725590Y839470D02*
D03*
X714590D02*
D03*
X947840Y877570D02*
D03*
X936840D02*
D03*
X780630Y853440D02*
D03*
X791630D02*
D03*
X1073746Y907288D02*
D03*
X1084746D02*
D03*
X1073746Y895858D02*
D03*
X1084746D02*
D03*
X757770Y934720D02*
D03*
X768770D02*
D03*
X936840Y901700D02*
D03*
X947840D02*
D03*
X936840Y923290D02*
D03*
X947840D02*
D03*
X936840Y842220D02*
D03*
X947840D02*
D03*
X1228510Y875890D02*
D03*
X1217510D02*
D03*
X1116320Y844790D02*
D03*
X1105320D02*
D03*
X1116320Y858172D02*
D03*
X1105320D02*
D03*
X936840Y891540D02*
D03*
X947840D02*
D03*
X936840Y862330D02*
D03*
X947840D02*
D03*
X1124116Y895858D02*
D03*
X1113116D02*
D03*
X1124116Y907288D02*
D03*
X1113116D02*
D03*
D56*
X908050Y958220D02*
D03*
Y969220D02*
D03*
X769620Y893660D02*
D03*
Y904660D02*
D03*
X928370Y969220D02*
D03*
Y958220D02*
D03*
X877570Y964780D02*
D03*
Y975780D02*
D03*
X958850Y958220D02*
D03*
Y969220D02*
D03*
X943610Y931760D02*
D03*
Y942760D02*
D03*
X822960Y802220D02*
D03*
Y813220D02*
D03*
X918210Y969220D02*
D03*
Y958220D02*
D03*
X938530Y969220D02*
D03*
Y958220D02*
D03*
X948690Y969220D02*
D03*
Y958220D02*
D03*
X857250Y975780D02*
D03*
Y964780D02*
D03*
X867410Y975780D02*
D03*
Y964780D02*
D03*
X856940Y802040D02*
D03*
Y813040D02*
D03*
X867100Y802040D02*
D03*
Y813040D02*
D03*
X923290Y942760D02*
D03*
Y931760D02*
D03*
X933450Y942760D02*
D03*
Y931760D02*
D03*
X803910Y937680D02*
D03*
Y926680D02*
D03*
X814070Y937680D02*
D03*
Y926680D02*
D03*
X889550Y802040D02*
D03*
Y813040D02*
D03*
X817880Y948270D02*
D03*
Y959270D02*
D03*
X873760Y947000D02*
D03*
Y958000D02*
D03*
D57*
X744220Y876990D02*
D03*
Y855290D02*
D03*
D58*
X726290Y915670D02*
D03*
X739290D02*
D03*
X726290Y899160D02*
D03*
X739290D02*
D03*
X1355240Y830580D02*
D03*
X1342240D02*
D03*
X1179980Y866140D02*
D03*
X1166980D02*
D03*
X1179980Y891540D02*
D03*
X1166980D02*
D03*
X1222398Y859536D02*
D03*
X1209398D02*
D03*
X697080Y915670D02*
D03*
X710080D02*
D03*
X710080Y899160D02*
D03*
X697080D02*
D03*
X1179980Y906780D02*
D03*
X1166980D02*
D03*
X1179980Y850900D02*
D03*
X1166980D02*
D03*
D60*
X844550Y920040D02*
D03*
X849550D02*
D03*
X889550Y828040D02*
D03*
X884550D02*
D03*
X879550D02*
D03*
X874550D02*
D03*
X869550D02*
D03*
X864550D02*
D03*
X859550D02*
D03*
X854550D02*
D03*
X849550D02*
D03*
X844550D02*
D03*
X839550D02*
D03*
X834550D02*
D03*
X829550D02*
D03*
Y920040D02*
D03*
X839550D02*
D03*
X864550D02*
D03*
X869550D02*
D03*
X874550D02*
D03*
X879550D02*
D03*
X884550D02*
D03*
X889550D02*
D03*
X894550D02*
D03*
X899550D02*
D03*
X904550D02*
D03*
X859550D02*
D03*
X854550D02*
D03*
X834550D02*
D03*
X894550Y828040D02*
D03*
X904550D02*
D03*
X899550D02*
D03*
D61*
X913050Y911540D02*
D03*
Y906540D02*
D03*
Y901540D02*
D03*
Y896540D02*
D03*
Y891540D02*
D03*
Y886540D02*
D03*
Y881540D02*
D03*
Y876540D02*
D03*
Y866540D02*
D03*
Y856540D02*
D03*
Y846540D02*
D03*
Y841540D02*
D03*
Y836540D02*
D03*
X821050D02*
D03*
Y841540D02*
D03*
Y846540D02*
D03*
Y851540D02*
D03*
Y856540D02*
D03*
Y861540D02*
D03*
Y866540D02*
D03*
Y871540D02*
D03*
Y876540D02*
D03*
Y881540D02*
D03*
Y886540D02*
D03*
Y896540D02*
D03*
Y901540D02*
D03*
Y906540D02*
D03*
Y911540D02*
D03*
Y891540D02*
D03*
X913050Y851540D02*
D03*
Y861540D02*
D03*
Y871540D02*
D03*
D62*
X867050Y874040D02*
D03*
D63*
X977900Y909320D02*
D03*
Y925320D02*
D03*
X999900Y909320D02*
D03*
Y925320D02*
D03*
D64*
X719650Y856640D02*
D03*
Y866140D02*
D03*
Y875640D02*
D03*
X697670D02*
D03*
Y866140D02*
D03*
Y856640D02*
D03*
D77*
X1322760Y875890D02*
D03*
Y862890D02*
D03*
Y830390D02*
D03*
X1250260Y908390D02*
D03*
Y901890D02*
D03*
Y875890D02*
D03*
Y869390D02*
D03*
Y862890D02*
D03*
Y856390D02*
D03*
Y849890D02*
D03*
Y823890D02*
D03*
X1322760Y882390D02*
D03*
Y888890D02*
D03*
Y908390D02*
D03*
Y823890D02*
D03*
Y869390D02*
D03*
Y856390D02*
D03*
Y849890D02*
D03*
Y895390D02*
D03*
X1250260Y888890D02*
D03*
X1322760Y836890D02*
D03*
Y843390D02*
D03*
X1250260D02*
D03*
X1322760Y901890D02*
D03*
X1250260Y895390D02*
D03*
Y836890D02*
D03*
Y882390D02*
D03*
Y830390D02*
D03*
M02*
