G04*
G04 #@! TF.GenerationSoftware,Altium Limited,Altium Designer,22.8.2 (66)*
G04*
G04 Layer_Color=8388736*
%FSLAX44Y44*%
%MOMM*%
G71*
G04*
G04 #@! TF.SameCoordinates,69D5640E-4D3D-4872-97FD-B36DD4CC5FE0*
G04*
G04*
G04 #@! TF.FilePolarity,Negative*
G04*
G01*
G75*
%ADD18R,1.7018X1.0160*%
%ADD19R,2.2032X0.7032*%
%ADD20R,2.6032X1.3232*%
%ADD21R,1.6032X0.8232*%
%ADD22R,1.7032X1.1032*%
%ADD23C,0.2032*%
%ADD24C,2.2032*%
%ADD25C,1.7032*%
%ADD26R,2.0032X2.0032*%
%ADD27C,2.0032*%
%ADD28R,1.7032X1.7032*%
%ADD29C,6.2032*%
%ADD30C,0.5532*%
%ADD31C,0.7032*%
%ADD32C,1.4732*%
G36*
X763524Y966470D02*
X757428Y962406D01*
X755396D01*
Y970534D01*
X757936D01*
X763524Y966470D01*
D02*
G37*
G36*
Y980440D02*
X757428Y976376D01*
X755396D01*
Y984504D01*
X757936D01*
X763524Y980440D01*
D02*
G37*
G36*
Y994410D02*
X757428Y990346D01*
X755396D01*
Y998474D01*
X757936D01*
X763524Y994410D01*
D02*
G37*
D18*
X762889D02*
D03*
Y966470D02*
D03*
Y980440D02*
D03*
D19*
X1140580Y916740D02*
D03*
Y908740D02*
D03*
Y900740D02*
D03*
Y892740D02*
D03*
Y884740D02*
D03*
X1058580Y840740D02*
D03*
Y848740D02*
D03*
Y856740D02*
D03*
Y864740D02*
D03*
Y872740D02*
D03*
Y880740D02*
D03*
Y888740D02*
D03*
Y896740D02*
D03*
Y904740D02*
D03*
X1140580Y876740D02*
D03*
Y868740D02*
D03*
Y860740D02*
D03*
Y852740D02*
D03*
Y844740D02*
D03*
X1058580Y912740D02*
D03*
D20*
X1367790Y959490D02*
D03*
X1277790D02*
D03*
X1367790Y797990D02*
D03*
X1277790D02*
D03*
D21*
X1257790Y866790D02*
D03*
Y811790D02*
D03*
Y833790D02*
D03*
Y844790D02*
D03*
Y855790D02*
D03*
Y877790D02*
D03*
Y888790D02*
D03*
Y822790D02*
D03*
Y899790D02*
D03*
D22*
X700182Y988610D02*
D03*
X731182Y970610D02*
D03*
Y988610D02*
D03*
X700182Y970610D02*
D03*
X731182Y783810D02*
D03*
Y765810D02*
D03*
X700182Y783810D02*
D03*
Y765810D02*
D03*
D23*
X1099580Y830740D02*
D03*
Y926740D02*
D03*
X1115580Y949990D02*
D03*
X1065580D02*
D03*
X1018580D02*
D03*
X1161580Y926740D02*
D03*
Y878740D02*
D03*
Y830740D02*
D03*
X1115580Y807490D02*
D03*
X1065580D02*
D03*
X1018580D02*
D03*
X990580Y893190D02*
D03*
Y839190D02*
D03*
X789580Y864190D02*
D03*
X1370754Y907990D02*
D03*
Y839990D02*
D03*
D24*
X790580Y949990D02*
D03*
X890580D02*
D03*
X990580D02*
D03*
X1090580D02*
D03*
X1040580Y807490D02*
D03*
X1140580D02*
D03*
X940580D02*
D03*
X840580D02*
D03*
D25*
X1243970Y718180D02*
D03*
X1269370D02*
D03*
X1294770D02*
D03*
X1320170D02*
D03*
X1345570D02*
D03*
D26*
X1247140Y982980D02*
D03*
D27*
X1323340D02*
D03*
X1348740D02*
D03*
X1297940D02*
D03*
X1272540D02*
D03*
D28*
X1218570Y718180D02*
D03*
D29*
X1395010Y713740D02*
D03*
X715010D02*
D03*
D30*
X1073746Y914488D02*
D03*
X1099312Y876808D02*
D03*
X1174750Y878840D02*
D03*
D31*
X926084Y870458D02*
D03*
X780288Y861060D02*
D03*
X1153610Y884740D02*
D03*
X1153414Y876808D02*
D03*
X1127252Y925322D02*
D03*
X1124204Y887476D02*
D03*
Y856096D02*
D03*
X928370Y947674D02*
D03*
X943610Y974852D02*
D03*
X913130Y973582D02*
D03*
X862330Y980694D02*
D03*
X869950Y940308D02*
D03*
X824926Y943224D02*
D03*
X808990Y945642D02*
D03*
X760222Y908812D02*
D03*
X774446Y912876D02*
D03*
Y923036D02*
D03*
X751332Y934720D02*
D03*
X955040Y891540D02*
D03*
Y877570D02*
D03*
Y902335D02*
D03*
Y927100D02*
D03*
X1198880Y859536D02*
D03*
X1220470Y895350D02*
D03*
X1247140Y964946D02*
D03*
X1247648Y763016D02*
D03*
X1238250Y759460D02*
D03*
X1212088Y836930D02*
D03*
X927354Y899668D02*
D03*
X1124204Y844790D02*
D03*
Y878709D02*
D03*
Y867403D02*
D03*
X1153610Y892740D02*
D03*
Y844740D02*
D03*
Y868740D02*
D03*
X1045550Y896740D02*
D03*
Y912740D02*
D03*
Y848740D02*
D03*
Y840740D02*
D03*
X1042160Y868740D02*
D03*
Y880740D02*
D03*
Y889510D02*
D03*
Y904740D02*
D03*
Y859280D02*
D03*
X700182Y958850D02*
D03*
X1235710Y875890D02*
D03*
X1242060Y811530D02*
D03*
X914400Y822960D02*
D03*
Y830580D02*
D03*
X808990Y891540D02*
D03*
X1210570Y801110D02*
D03*
X820420Y919480D02*
D03*
X929640Y852170D02*
D03*
Y842010D02*
D03*
X1217930Y830390D02*
D03*
X1218040Y843390D02*
D03*
X754380Y786130D02*
D03*
Y775970D02*
D03*
Y765810D02*
D03*
X1212180Y875890D02*
D03*
Y914400D02*
D03*
X1393190Y784860D02*
D03*
X1247140Y944118D02*
D03*
Y933704D02*
D03*
Y923290D02*
D03*
Y954532D02*
D03*
X1235970Y849890D02*
D03*
X1226820Y901890D02*
D03*
X1153610Y916740D02*
D03*
X822960Y796890D02*
D03*
X803910Y873760D02*
D03*
X774700Y980440D02*
D03*
X1349170Y797990D02*
D03*
X1259170D02*
D03*
X1386410Y959490D02*
D03*
X955040Y842010D02*
D03*
X966470Y909320D02*
D03*
X889550Y796710D02*
D03*
X856940D02*
D03*
X867100D02*
D03*
X1226820Y889000D02*
D03*
X1277620Y969010D02*
D03*
X803910Y784860D02*
D03*
X889050Y896040D02*
D03*
X878050D02*
D03*
X867050D02*
D03*
X856050D02*
D03*
X845050D02*
D03*
X889050Y885040D02*
D03*
X878050D02*
D03*
X867050D02*
D03*
X856050D02*
D03*
X845050D02*
D03*
X889050Y874040D02*
D03*
X878050D02*
D03*
X867050D02*
D03*
X856050D02*
D03*
X845050D02*
D03*
X889050Y863040D02*
D03*
X878050D02*
D03*
X867050D02*
D03*
X856050D02*
D03*
X845050D02*
D03*
X889050Y852040D02*
D03*
X878050D02*
D03*
X867050D02*
D03*
X856050D02*
D03*
X845050D02*
D03*
D32*
X697230Y887290D02*
D03*
X719650D02*
D03*
M02*
