G04*
G04 #@! TF.GenerationSoftware,Altium Limited,Altium Designer,22.8.2 (66)*
G04*
G04 Layer_Color=8421504*
%FSLAX44Y44*%
%MOMM*%
G71*
G04*
G04 #@! TF.SameCoordinates,69D5640E-4D3D-4872-97FD-B36DD4CC5FE0*
G04*
G04*
G04 #@! TF.FilePolarity,Positive*
G04*
G01*
G75*
%ADD14R,2.0000X0.5000*%
%ADD15R,2.4000X1.1200*%
%ADD16R,1.4000X0.6200*%
%ADD17R,1.5000X0.9000*%
G36*
X770318Y990346D02*
X760222D01*
X766318Y994410D01*
X760730Y998474D01*
X770318D01*
Y990346D01*
D02*
G37*
G36*
X763524Y994410D02*
X757428Y990346D01*
X755396D01*
Y998474D01*
X757936D01*
X763524Y994410D01*
D02*
G37*
G36*
X770318Y976376D02*
X760222D01*
X766318Y980440D01*
X760730Y984504D01*
X770318D01*
Y976376D01*
D02*
G37*
G36*
X763524Y980440D02*
X757428Y976376D01*
X755396D01*
Y984504D01*
X757936D01*
X763524Y980440D01*
D02*
G37*
G36*
X770318Y962406D02*
X760222D01*
X766318Y966470D01*
X760730Y970534D01*
X770318D01*
Y962406D01*
D02*
G37*
G36*
X763524Y966470D02*
X757428Y962406D01*
X755396D01*
Y970534D01*
X757936D01*
X763524Y966470D01*
D02*
G37*
D14*
X1140580Y916740D02*
D03*
Y908740D02*
D03*
Y900740D02*
D03*
Y892740D02*
D03*
Y884740D02*
D03*
X1058580Y840740D02*
D03*
Y848740D02*
D03*
Y856740D02*
D03*
Y864740D02*
D03*
Y872740D02*
D03*
Y880740D02*
D03*
Y888740D02*
D03*
Y896740D02*
D03*
Y904740D02*
D03*
X1140580Y876740D02*
D03*
Y868740D02*
D03*
Y860740D02*
D03*
Y852740D02*
D03*
Y844740D02*
D03*
X1058580Y912740D02*
D03*
D15*
X1367790Y959490D02*
D03*
X1277790D02*
D03*
X1367790Y797990D02*
D03*
X1277790D02*
D03*
D16*
X1257790Y866790D02*
D03*
Y811790D02*
D03*
Y833790D02*
D03*
Y844790D02*
D03*
Y855790D02*
D03*
Y877790D02*
D03*
Y888790D02*
D03*
Y822790D02*
D03*
Y899790D02*
D03*
D17*
X700182Y988610D02*
D03*
X731182Y970610D02*
D03*
Y988610D02*
D03*
X700182Y970610D02*
D03*
X731182Y783810D02*
D03*
Y765810D02*
D03*
X700182Y783810D02*
D03*
Y765810D02*
D03*
M02*
