%FSTAX23Y23*%
%MOIN*%
%SFA1B1*%

%IPPOS*%
%ADD10C,0.009840*%
%ADD15R,0.078740X0.019680*%
%ADD16R,0.027560X0.037400*%
%ADD17R,0.059060X0.035430*%
%ADD18O,0.009840X0.051180*%
%ADD19O,0.051180X0.009840*%
%ADD20R,0.236220X0.236220*%
%ADD21R,0.037400X0.027560*%
%ADD22R,0.055120X0.047240*%
%ADD37C,0.039370*%
%ADD38C,0.008000*%
%ADD39C,0.078740*%
%ADD40R,0.059060X0.059060*%
%ADD41C,0.059060*%
%ADD42C,0.236220*%
%ADD43C,0.019680*%
%ADD44C,0.047240*%
%ADD45C,0.027560*%
%LNboard-1*%
%LPD*%
G36*
X05185Y04325D02*
X02185D01*
Y04868*
X0219Y0487*
X02191Y04868*
X02197Y04864*
X02204Y04862*
X02212Y04864*
X02218Y04868*
X02222Y04874*
X02223Y04881*
X02222Y04889*
X02218Y04895*
X02212Y04899*
X02204Y04901*
X02197Y04899*
X02191Y04895*
X0219Y04893*
X02185Y04895*
Y05026*
X0219Y05027*
X02191Y05025*
X02197Y05021*
X02204Y0502*
X02212Y05021*
X02218Y05025*
X02222Y05032*
X02223Y05039*
X02222Y05046*
X02218Y05052*
X02212Y05057*
X02204Y05058*
X02197Y05057*
X02191Y05052*
X0219Y05051*
X02185Y05052*
Y0531*
X05185*
Y04325*
G37*
%LNboard-2*%
%LPC*%
G36*
X04837Y05276D02*
X04813D01*
Y05257*
X04837*
Y05276*
G37*
G36*
X04606D02*
X04582D01*
Y05257*
X04606*
Y05276*
G37*
G36*
X04914D02*
X04891D01*
Y05257*
X04914*
Y05276*
G37*
G36*
X04991D02*
X04968D01*
Y05257*
X04991*
Y05276*
G37*
G36*
X04683D02*
X04659D01*
Y05257*
X04683*
Y05276*
G37*
G36*
X04451D02*
X04428D01*
Y05257*
X04451*
Y05276*
G37*
G36*
X0476D02*
X04736D01*
Y05257*
X0476*
Y05276*
G37*
G36*
X04529D02*
X04505D01*
Y05257*
X04529*
Y05276*
G37*
G36*
X04495D02*
X04471D01*
Y05257*
X04495*
Y05276*
G37*
G36*
X04418D02*
X04394D01*
Y05257*
X04418*
Y05276*
G37*
G36*
X04726D02*
X04703D01*
Y05257*
X04726*
Y05276*
G37*
G36*
X04958D02*
X04934D01*
Y05257*
X04958*
Y05276*
G37*
G36*
X04649D02*
X04625D01*
Y05257*
X04649*
Y05276*
G37*
G36*
X04572D02*
X04548D01*
Y05257*
X04572*
Y05276*
G37*
G36*
X04881D02*
X04857D01*
Y05257*
X04881*
Y05276*
G37*
G36*
X04803D02*
X0478D01*
Y05257*
X04803*
Y05276*
G37*
G36*
X03115Y05289D02*
Y05255D01*
X03149*
X03148Y0526*
X03144Y05269*
X03138Y05278*
X03129Y05284*
X0312Y05288*
X03115Y05289*
G37*
G36*
X03105D02*
X03099Y05288D01*
X0309Y05284*
X03081Y05278*
X03075Y05269*
X03071Y0526*
X0307Y05255*
X03105*
Y05289*
G37*
G36*
X04991Y05247D02*
X04968D01*
Y05228*
X04991*
Y05247*
G37*
G36*
X04958D02*
X04934D01*
Y05228*
X04958*
Y05247*
G37*
G36*
X04914D02*
X04891D01*
Y05228*
X04914*
Y05247*
G37*
G36*
X04881D02*
X04857D01*
Y05228*
X04881*
Y05247*
G37*
G36*
X04837D02*
X04813D01*
Y05228*
X04837*
Y05247*
G37*
G36*
X04803D02*
X0478D01*
Y05228*
X04803*
Y05247*
G37*
G36*
X0476D02*
X04736D01*
Y05228*
X0476*
Y05247*
G37*
G36*
X04726D02*
X04703D01*
Y05228*
X04726*
Y05247*
G37*
G36*
X04683D02*
X04659D01*
Y05228*
X04683*
Y05247*
G37*
G36*
X04649D02*
X04625D01*
Y05228*
X04649*
Y05247*
G37*
G36*
X04606D02*
X04582D01*
Y05228*
X04606*
Y05247*
G37*
G36*
X04572D02*
X04548D01*
Y05228*
X04572*
Y05247*
G37*
G36*
X04529D02*
X04505D01*
Y05228*
X04529*
Y05247*
G37*
G36*
X04495D02*
X04471D01*
Y05228*
X04495*
Y05247*
G37*
G36*
X04451D02*
X04428D01*
Y05228*
X04451*
Y05247*
G37*
G36*
X02944Y05284D02*
X02875D01*
Y05215*
X02944*
Y05284*
G37*
G36*
X0331Y05284D02*
X033Y05283D01*
X03292Y0528*
X03285Y05274*
X03279Y05267*
X03276Y05259*
X03275Y0525*
X03276Y0524*
X03279Y05232*
X03285Y05225*
X03292Y05219*
X033Y05216*
X0331Y05215*
X03319Y05216*
X03327Y05219*
X03334Y05225*
X0334Y05232*
X03343Y0524*
X03344Y0525*
X03343Y05259*
X0334Y05267*
X03334Y05274*
X03327Y0528*
X03319Y05283*
X0331Y05284*
G37*
G36*
X0321D02*
X032Y05283D01*
X03192Y0528*
X03185Y05274*
X03179Y05267*
X03176Y05259*
X03175Y0525*
X03176Y0524*
X03179Y05232*
X03185Y05225*
X03192Y05219*
X032Y05216*
X0321Y05215*
X03219Y05216*
X03227Y05219*
X03234Y05225*
X0324Y05232*
X03243Y0524*
X03244Y0525*
X03243Y05259*
X0324Y05267*
X03234Y05274*
X03227Y0528*
X03219Y05283*
X0321Y05284*
G37*
G36*
X0301D02*
X03Y05283D01*
X02992Y0528*
X02985Y05274*
X02979Y05267*
X02976Y05259*
X02975Y0525*
X02976Y0524*
X02979Y05232*
X02985Y05225*
X02992Y05219*
X03Y05216*
X0301Y05215*
X03019Y05216*
X03027Y05219*
X03034Y05225*
X0304Y05232*
X03043Y0524*
X03044Y0525*
X03043Y05259*
X0304Y05267*
X03034Y05274*
X03027Y0528*
X03019Y05283*
X0301Y05284*
G37*
G36*
X03149Y05245D02*
X03115D01*
Y0521*
X0312Y05211*
X03129Y05215*
X03138Y05221*
X03144Y0523*
X03148Y05239*
X03149Y05245*
G37*
G36*
X03105D02*
X0307D01*
X03071Y05239*
X03075Y0523*
X03081Y05221*
X0309Y05215*
X03099Y05211*
X03105Y0521*
Y05245*
G37*
G36*
X04255Y05188D02*
X04236D01*
Y05165*
X04255*
Y05188*
G37*
G36*
X04284D02*
X04265D01*
Y0516*
Y05131*
X04284*
Y05136*
X04288Y05139*
X04289Y05139*
X04296Y05141*
X04303Y05145*
X04307Y05152*
X04308Y05155*
X04289*
Y05165*
X04308*
X04307Y05167*
X04303Y05174*
X04296Y05178*
X04289Y0518*
X04288Y0518*
X04284Y05183*
Y05188*
G37*
G36*
X04255Y05155D02*
X04236D01*
Y05131*
X04255*
Y05155*
G37*
G36*
X03847Y05159D02*
Y05115D01*
X03891*
X0389Y05122*
X03885Y05134*
X03877Y05145*
X03867Y05153*
X03855Y05158*
X03847Y05159*
G37*
G36*
X03837D02*
X03829Y05158D01*
X03817Y05153*
X03807Y05145*
X03799Y05134*
X03794Y05122*
X03793Y05115*
X03837*
Y05159*
G37*
G36*
X03453D02*
Y05115D01*
X03497*
X03496Y05122*
X03491Y05134*
X03483Y05145*
X03473Y05153*
X03461Y05158*
X03453Y05159*
G37*
G36*
X03443D02*
X03435Y05158D01*
X03423Y05153*
X03413Y05145*
X03405Y05134*
X034Y05122*
X03399Y05115*
X03443*
Y05159*
G37*
G36*
X0306D02*
Y05115D01*
X03104*
X03103Y05122*
X03098Y05134*
X0309Y05145*
X03079Y05153*
X03067Y05158*
X0306Y05159*
G37*
G36*
X0305D02*
X03042Y05158D01*
X0303Y05153*
X03019Y05145*
X03011Y05134*
X03006Y05122*
X03005Y05115*
X0305*
Y05159*
G37*
G36*
X02666D02*
Y05115D01*
X0271*
X02709Y05122*
X02704Y05134*
X02696Y05145*
X02686Y05153*
X02674Y05158*
X02666Y05159*
G37*
G36*
X02656D02*
X02648Y05158D01*
X02636Y05153*
X02626Y05145*
X02618Y05134*
X02613Y05122*
X02612Y05115*
X02656*
Y05159*
G37*
G36*
X0248Y05137D02*
X02472Y05135D01*
X02466Y05131*
X02462Y05125*
X02461Y05118*
X02462Y0511*
X02466Y05104*
X02472Y051*
X0248Y05098*
X02487Y051*
X02493Y05104*
X02498Y0511*
X02499Y05118*
X02498Y05125*
X02493Y05131*
X02487Y05135*
X0248Y05137*
G37*
G36*
X02401D02*
X02394Y05135D01*
X02388Y05131*
X02383Y05125*
X02382Y05118*
X02383Y0511*
X02388Y05104*
X02394Y051*
X02401Y05098*
X02408Y051*
X02415Y05104*
X02419Y0511*
X0242Y05118*
X02419Y05125*
X02415Y05131*
X02408Y05135*
X02401Y05137*
G37*
G36*
X02322D02*
X02315Y05135D01*
X02309Y05131*
X02305Y05125*
X02303Y05118*
X02305Y0511*
X02309Y05104*
X02315Y051*
X02322Y05098*
X0233Y051*
X02336Y05104*
X0234Y0511*
X02341Y05118*
X0234Y05125*
X02336Y05131*
X0233Y05135*
X02322Y05137*
G37*
G36*
X02244D02*
X02236Y05135D01*
X0223Y05131*
X02226Y05125*
X02224Y05118*
X02226Y0511*
X0223Y05104*
X02236Y051*
X02244Y05098*
X02251Y051*
X02257Y05104*
X02261Y0511*
X02263Y05118*
X02261Y05125*
X02257Y05131*
X02251Y05135*
X02244Y05137*
G37*
G36*
X0394Y05132D02*
X03932Y0513D01*
X03925Y05125*
X0392Y05118*
X03918Y0511*
X0392Y05101*
X03925Y05094*
X03932Y05089*
X0394Y05087*
X03949Y05089*
X03956Y05094*
X03961Y05101*
X03962Y0511*
X03961Y05118*
X03956Y05125*
X03949Y0513*
X0394Y05132*
G37*
G36*
X03743D02*
X03735Y0513D01*
X03728Y05125*
X03723Y05118*
X03721Y0511*
X03723Y05101*
X03728Y05094*
X03735Y05089*
X03743Y05087*
X03752Y05089*
X03759Y05094*
X03764Y05101*
X03766Y0511*
X03764Y05118*
X03759Y05125*
X03752Y0513*
X03743Y05132*
G37*
G36*
X03558D02*
X0355Y0513D01*
X03543Y05125*
X03538Y05118*
X03536Y0511*
X03538Y05101*
X03543Y05094*
X0355Y05089*
X03558Y05087*
X03567Y05089*
X03574Y05094*
X03579Y05101*
X03581Y0511*
X03579Y05118*
X03574Y05125*
X03567Y0513*
X03558Y05132*
G37*
G36*
X04369Y05271D02*
X04322D01*
Y05233*
X04365*
X04399Y052*
Y05182*
X04413*
Y05003*
X04409Y05001*
X04408Y05001*
X04392Y05017*
X04388Y05019*
X04385Y0502*
X04378*
Y05028*
X04331*
Y0502*
X04279*
Y05033*
X04242*
Y04986*
X04279*
Y04999*
X0429*
X04292Y04997*
X04292Y04994*
X0429Y0499*
X04289Y04985*
X0429Y04979*
X04293Y04974*
X04298Y04971*
X04304Y04969*
X04309Y04971*
X04314Y04974*
X04318Y04979*
X04319Y04985*
X04318Y0499*
X04315Y04994*
X04316Y04997*
X04317Y04999*
X04331*
Y0499*
X04378*
Y04994*
X04383Y04996*
X04465Y04915*
X04463Y0491*
X0446Y04909*
X04417Y04953*
X04413Y04955*
X0441Y04956*
X04378*
Y04964*
X04331*
Y04956*
X04279*
Y04969*
X04242*
Y04922*
X04279*
Y04935*
X04331*
Y04926*
X04378*
Y04935*
X04405*
X0445Y04891*
X0445Y04891*
X04451Y04888*
X0445Y04885*
X04395Y04829*
X04393Y04826*
X04392Y04822*
Y04726*
X04382Y04716*
X04378Y04714*
X04331*
Y04705*
X04279*
Y04718*
X04242*
Y04671*
X04251*
Y04657*
X04242*
Y0461*
X04276*
X04277*
X04278Y04608*
X0428Y04605*
X04279Y046*
X04281Y04594*
X04284Y04589*
X04289Y04586*
X04295Y04585*
X043Y04586*
X04305Y04589*
X04308Y04594*
X0431Y046*
X04308Y04606*
X04305Y04611*
X043Y04614*
X04295Y04615*
X04289Y04614*
X04284Y04611*
X04282Y04612*
X04279Y04613*
Y04614*
Y04614*
Y04631*
X04282Y04632*
X04284Y04633*
X04289Y0463*
X04295Y04629*
X043Y0463*
X04305Y04633*
X04306Y04635*
X04331*
Y04625*
X04378*
Y04663*
X04331*
Y04653*
X04306*
X04305Y04655*
X043Y04658*
X04295Y04659*
X04289Y04658*
X04284Y04655*
X04284Y04655*
X04279Y04657*
X04271*
Y04671*
X04279*
Y04684*
X04331*
Y04676*
X04378*
Y04685*
X04378Y04685*
X04382Y04687*
X04409Y04715*
X04411Y04718*
X04412Y04722*
Y04818*
X0442Y04825*
X04421Y04825*
X04424Y04823*
Y04769*
X04424Y04769*
X04421Y04764*
X04419Y04758*
X04421Y04752*
X04424Y04747*
X04429Y04744*
X04435Y04743*
X0444Y04744*
X04445Y04747*
X04448Y04752*
X0445Y04758*
X04448Y04764*
X04445Y04769*
X04445Y04769*
Y0482*
X0446Y04836*
X04465Y04834*
X04466Y04833*
X04469Y04828*
X04474Y04825*
X0448Y04824*
X0448Y04824*
X04484Y0482*
X04484Y04819*
X04484Y04819*
X0448Y04814*
X0448Y04815*
X04474Y04813*
X04469Y0481*
X04466Y04805*
X04464Y048*
X04466Y04794*
X04469Y04789*
X04474Y04786*
X0448Y04784*
X0448Y04785*
X04484Y0478*
X04484Y0478*
X04486Y04774*
X04489Y04769*
X04494Y04766*
X045Y04765*
X04505Y04766*
X04508Y04768*
X04511Y04767*
X04511Y04767*
X04514Y04762*
X04514Y0476*
X04514Y04756*
X04517Y04753*
Y04748*
X04514Y04744*
X04514Y0474*
X04514Y04737*
X04517Y04733*
Y04728*
X04514Y04725*
X04514Y04721*
X04514Y04717*
X04517Y04714*
Y04708*
X04514Y04705*
X04514Y04701*
X04514Y04697*
X04515Y04696*
X04512Y04691*
X04506*
X04505Y04692*
X045Y04695*
X04495Y04696*
X04489Y04695*
X04484Y04692*
X04481Y04687*
X04479Y04681*
X04481Y04676*
X04484Y04671*
X04489Y04667*
X0449Y04667*
Y04662*
X04489Y04662*
X04484Y04659*
X04481Y04654*
X0448Y04648*
X04481Y04642*
X04484Y04637*
X04489Y04634*
X04495Y04633*
X045Y04634*
X04505Y04637*
X04509Y04642*
X0451Y04648*
X04509Y04654*
X04505Y04659*
X045Y04662*
X04499Y04662*
Y04667*
X045Y04667*
X04505Y04671*
X04506Y04671*
X04563*
X04566Y0467*
X04568Y04667*
Y04648*
Y04614*
X04549Y04595*
X04435*
X04431Y04594*
X04427Y04592*
X04407Y04571*
X04405Y04568*
X04404Y04564*
Y04552*
X044Y0455*
X04399*
X04376*
Y04526*
Y04502*
X04399*
X044*
X04404Y045*
Y04485*
X04395*
Y04494*
X04348*
Y04456*
X04395*
Y04465*
X0443*
Y04445*
X04425Y04441*
X04425Y04441*
X04419Y0444*
X04414Y04436*
X04411Y04431*
X04409Y04426*
X04411Y0442*
X04414Y04415*
X04419Y04412*
X04425Y04411*
X0443Y04412*
X04435Y04415*
X04438Y0442*
X0444Y04426*
X04438Y04431*
X04436Y04435*
X04437Y04439*
X04438Y0444*
X04496*
Y04498*
X0443*
Y04485*
X04424*
Y04557*
X04425Y04557*
X04428Y04557*
X0443Y04555*
Y04503*
X04496*
Y04561*
X04435*
X04432*
X0443Y04565*
X04439Y04574*
X04553*
X04557Y04575*
X0456Y04577*
X04583Y046*
X04588Y04598*
Y04542*
X04582*
Y04561*
X04517*
Y04503*
X04582*
Y04522*
X04618*
Y04507*
X04665*
Y04545*
X0466*
X04659Y0455*
X04663Y04551*
X04667Y04554*
X04668Y04554*
X0468*
X04685Y0455*
X04683Y04545*
X0468*
Y04507*
X04727*
Y04545*
X04718*
X04716Y04547*
X04716Y04547*
X0472Y04552*
X04742*
X04744Y0455*
X04742Y04545*
Y04507*
X0479*
Y0454*
Y04545*
X0479Y0455*
X04794*
X04804*
X04805Y04545*
Y04507*
X04852*
Y04545*
X04841*
X0484Y04547*
X04839Y0455*
X04842Y04554*
X04843Y0456*
X04842Y04565*
X04843Y04566*
X04848Y04567*
X04865Y04549*
X04867Y04545*
Y04507*
X04914*
Y04545*
X04898*
X04898Y04546*
X04859Y04585*
X0486Y04589*
X04942*
X04942Y04589*
X04943Y04588*
Y04545*
X04929*
Y04507*
X04977*
Y04545*
X04963*
Y04588*
X04964Y04589*
X04967Y04594*
X04968Y046*
X04967Y04605*
X04964Y0461*
X04959Y04613*
X04953Y04615*
X04947Y04613*
X04942Y0461*
X04942Y0461*
X04852*
X04849Y04613*
X04852Y04617*
X04854Y04617*
X04857Y04618*
X04861Y0462*
X04866*
X04869Y04618*
X04873Y04617*
X04877Y04618*
X0488Y0462*
X04883Y04623*
X04883Y04627*
Y04667*
X04885Y0467*
X04888Y04671*
X0494*
X04944Y0467*
X04946Y04664*
X04949Y04659*
X04954Y04656*
X0496Y04654*
X04965Y04656*
X0497Y04659*
X04973Y04664*
X04975Y0467*
X04973Y04675*
X0497Y0468*
X04965Y04683*
X0496Y04685*
X04959Y04685*
X04955Y04689*
X04952Y04691*
X04948Y04691*
X04939*
X04936Y04696*
X04937Y04697*
X04937Y04701*
X04937Y04705*
X04936Y04706*
X04939Y04711*
X04954*
X04982Y04683*
X04985Y04681*
X04989Y0468*
X05013*
X05014Y04679*
X05019Y04676*
X05025Y04675*
X0503Y04676*
X05035Y04679*
X05038Y04684*
X0504Y0469*
X05038Y04696*
X05035Y04701*
X0503Y04704*
X05025Y04705*
X05019Y04704*
X05014Y04701*
X05013Y047*
X04993*
X04969Y04724*
X0497Y04729*
X0497Y0473*
X04971Y0473*
X0499*
Y04717*
X05028*
Y04764*
X0499*
Y04751*
X04971*
X0497Y04751*
X04965Y04754*
X0496Y04756*
X04954Y04754*
X04949Y04751*
X04948Y04751*
X04939*
X04936Y04756*
X04937Y04756*
X04937Y0476*
X04937Y04764*
X04935Y04767*
Y04773*
X04937Y04776*
X04937Y0478*
X04937Y04784*
X04935Y04787*
Y04792*
X04937Y04796*
X04937Y04799*
X04937Y04803*
X04936Y04804*
X04939Y04809*
X04947*
X04947Y04808*
X04952Y04805*
X04958Y04804*
X04964Y04805*
X04969Y04808*
X04969Y04809*
X0499*
Y04795*
X05028*
Y04843*
X0499*
Y04829*
X04969*
X04969Y0483*
X04964Y04833*
X04958Y04834*
X04952Y04833*
X04947Y0483*
X04947Y04829*
X04939*
X04936Y04834*
X04937Y04835*
X04937Y04839*
X04937Y04843*
X04935Y04846*
Y04851*
X04937Y04855*
X04937Y04859*
X04937Y04862*
X04935Y04866*
Y04871*
X04937Y04874*
X04937Y04878*
X04937Y04882*
X04935Y04885*
Y04891*
X04937Y04894*
X04937Y04898*
X04937Y04902*
X04935Y04905*
Y0491*
X04937Y04914*
X04937Y04918*
X04937Y04921*
X04935Y04925*
Y0493*
X04937Y04933*
X04937Y04937*
X04937Y04941*
X04935Y04944*
Y0495*
X04937Y04953*
X04937Y04957*
X04937Y04961*
X04936Y04962*
X04939Y04967*
X04948*
X04949Y04966*
X04954Y04963*
X0496Y04961*
X04965Y04963*
X0497Y04966*
X04971Y04967*
X0499*
Y04953*
X05028*
Y05*
X0499*
Y04987*
X04971*
X0497Y04987*
X04965Y04991*
X0496Y04992*
X04954Y04991*
X04949Y04987*
X04948Y04987*
X04888*
X04885Y04988*
X04883Y04991*
Y05031*
X04883Y05035*
X0488Y05038*
X04877Y0504*
X04873Y05041*
X04869Y0504*
X04866Y05038*
X04861*
X04857Y0504*
X04854Y05041*
X0485Y0504*
X04846Y05038*
X04841*
X04838Y0504*
X04834Y05041*
X0483Y0504*
X04827Y05038*
X04821*
X04818Y0504*
X04814Y05041*
X04812Y05046*
X04846Y0508*
X04847Y0508*
X04853Y05081*
X04858Y05084*
X04858Y05085*
X04937*
X04941Y05086*
X04944Y05088*
X0497Y05114*
X04972Y05117*
X04973Y05121*
Y05182*
X04986*
Y0522*
X04939*
Y05182*
X04953*
Y05125*
X04933Y05105*
X04858*
X04858Y05106*
X04853Y05109*
X04847Y0511*
X04841Y05109*
X04836Y05106*
X04833Y05101*
X04832Y05095*
X04832Y05094*
X0479Y05052*
X04786Y05054*
X04785Y05059*
X04788Y05064*
X0479Y0507*
X04788Y05075*
X04786Y05079*
X04855Y05148*
X04857Y05152*
X04858Y05156*
Y0518*
X04862Y05182*
X04909*
Y0522*
X04862*
Y05211*
X04832*
Y0522*
X04785*
Y05182*
X04832*
Y05191*
X04837*
Y0516*
X04768Y0509*
X04765Y05087*
X04765Y05083*
Y05081*
X04764Y0508*
X04761Y05075*
X04759Y0507*
X04761Y05064*
X04764Y05059*
X04765Y05058*
Y05042*
X0476Y0504*
X04759Y0504*
X04755Y05041*
X04751Y0504*
X04748Y05038*
X04743*
X04739Y0504*
X04735Y05041*
X04732Y0504*
X04727Y05041*
X04727Y05042*
X04722Y05045*
X04721Y05045*
Y0501*
Y04975*
X04722Y04975*
X04727Y04979*
X04727Y04979*
X04732Y0498*
X04735Y04979*
X04739Y0498*
X04743Y04982*
X04748*
X04751Y0498*
X04755Y04979*
X04759Y0498*
X04762Y04982*
X04768*
X04771Y0498*
X04775Y04979*
X04779Y0498*
X04782Y04982*
X04787*
X04791Y0498*
X04795Y04979*
X04798Y0498*
X04802Y04982*
X04807*
X0481Y0498*
X04814Y04979*
X04818Y0498*
X04821Y04982*
X04827*
X0483Y0498*
X04834Y04979*
X04838Y0498*
X04841Y04982*
X04846*
X0485Y0498*
X04854Y04979*
X04857Y0498*
X04861Y04982*
X04866*
X04869Y0498*
X04871Y0498*
X04874Y04978*
X04876Y04975*
X04877Y04973*
X04879Y04969*
Y04964*
X04877Y04961*
X04876Y04957*
X04877Y04953*
X04879Y0495*
Y04944*
X04877Y04941*
X04876Y04937*
X04877Y04933*
X04879Y0493*
Y04925*
X04877Y04921*
X04876Y04918*
X04877Y04914*
X04879Y0491*
Y04905*
X04877Y04902*
X04876Y04898*
X04877Y04894*
X04879Y04891*
Y04885*
X04877Y04882*
X04876Y04878*
X04877Y04874*
X04879Y04871*
Y04866*
X04877Y04862*
X04876Y04859*
X04877Y04855*
X04879Y04851*
Y04846*
X04877Y04843*
X04876Y04839*
X04877Y04835*
X04879Y04832*
Y04826*
X04877Y04823*
X04876Y04819*
X04877Y04815*
X04879Y04812*
Y04807*
X04877Y04803*
X04876Y04799*
X04877Y04796*
X04879Y04792*
Y04787*
X04877Y04784*
X04876Y0478*
X04877Y04776*
X04879Y04773*
Y04767*
X04877Y04764*
X04876Y0476*
X04877Y04756*
X04879Y04753*
Y04748*
X04877Y04744*
X04876Y0474*
X04877Y04737*
X04879Y04733*
Y04728*
X04877Y04725*
X04876Y04721*
X04877Y04717*
X04879Y04714*
Y04708*
X04877Y04705*
X04876Y04701*
X04877Y04697*
X04879Y04694*
Y04689*
X04877Y04685*
X04876Y04681*
X04871Y04678*
X04869Y04678*
X04866Y04676*
X04861*
X04857Y04678*
X04854Y04679*
X0485Y04678*
X04846Y04676*
X04841*
X04838Y04678*
X04834Y04679*
X0483Y04678*
X04827Y04676*
X04821*
X04818Y04678*
X04814Y04679*
X0481Y04678*
X04807Y04676*
X04802*
X04798Y04678*
X04795Y04679*
X04791Y04678*
X04789Y0468*
X04788Y04682*
X04788Y04683*
X0479Y04689*
X04788Y04694*
X04787Y04696*
X0479Y04701*
X04854*
Y04824*
X04731*
Y04701*
X04759*
X04762Y04696*
X04761Y04694*
X04759Y04689*
X04761Y04683*
X04761Y04682*
X04761Y04682*
X04758Y04678*
X04755Y04679*
X04751Y04678*
X04748Y04676*
X04743*
X04739Y04678*
X04735Y04679*
X04732Y04678*
X04728Y04676*
X04723*
X0472Y04678*
X04716Y04679*
X04712Y04678*
X04709Y04676*
X04703*
X047Y04678*
X04696Y04679*
X04692Y04678*
X04689Y04676*
X04684*
X0468Y04678*
X04676Y04679*
X04673Y04678*
X04669Y04676*
X04664*
X04661Y04678*
X04657Y04679*
X04653Y04678*
X04648Y04679*
X04648Y04679*
X04643Y04683*
X04642Y04683*
Y04648*
Y04613*
X04647Y0461*
Y04576*
X04646Y04575*
X04643Y0457*
X04642Y04565*
X04643Y04559*
X04646Y04554*
X04651Y04551*
X04654Y0455*
X04654Y04545*
X04618*
Y04542*
X04608*
Y04616*
X04613Y04618*
X04613Y04618*
X04617Y04617*
X04621Y04618*
X04626Y04617*
X04626Y04616*
X04631Y04613*
X04632Y04613*
Y04648*
Y04683*
X04631Y04683*
X04626Y04679*
X04626Y04679*
X04621Y04678*
X04617Y04679*
X04613Y04678*
X0461Y04676*
X04605*
X04602Y04678*
X04598Y04679*
X04594Y04678*
X04591Y04676*
X04585*
X04582Y04678*
X04578Y04679*
X04575Y04681*
X04575Y04685*
X04572Y04689*
Y04694*
X04575Y04697*
X04575Y04701*
X04575Y04705*
X04572Y04708*
Y04714*
X04575Y04717*
X04575Y04721*
X04575Y04725*
X04572Y04728*
Y04733*
X04575Y04737*
X04575Y0474*
X04575Y04744*
X04572Y04748*
Y04753*
X04575Y04756*
X04575Y0476*
X04575Y04764*
X04572Y04767*
Y04773*
X04575Y04776*
X04575Y0478*
X04575Y04784*
X04572Y04787*
Y04792*
X04575Y04796*
X04575Y04799*
X04575Y04803*
X04572Y04807*
Y04812*
X04575Y04815*
X04575Y04819*
X04575Y04823*
X04572Y04826*
Y04832*
X04575Y04835*
X04575Y04839*
X04575Y04843*
X04572Y04846*
Y04851*
X04575Y04855*
X04575Y04859*
X04575Y04862*
X04572Y04866*
Y04871*
X04575Y04874*
X04575Y04878*
X04575Y04882*
X04572Y04885*
Y04891*
X04575Y04894*
X04575Y04898*
X04575Y04902*
X04572Y04905*
Y0491*
X04575Y04914*
X04575Y04918*
X04575Y04921*
X04572Y04925*
Y0493*
X04575Y04933*
X04575Y04937*
X04575Y04941*
X04572Y04944*
Y0495*
X04575Y04953*
X04575Y04957*
X04575Y04961*
X04572Y04964*
Y04969*
X04575Y04973*
X04575Y04975*
X04578Y04979*
X04582Y0498*
X04585Y04982*
X04591*
X04594Y0498*
X04598Y04979*
X04602Y0498*
X04605Y04982*
X0461*
X04613Y0498*
X04617Y04979*
X04621Y0498*
X04624Y04982*
X0463*
X04633Y0498*
X04637Y04979*
X04641Y0498*
X04644Y04982*
X0465*
X04653Y0498*
X04657Y04979*
X04661Y0498*
X04664Y04982*
X04669*
X04673Y0498*
X04676Y04979*
X0468Y0498*
X04684Y04982*
X04689*
X04692Y0498*
X04696Y04979*
X047Y0498*
X04705Y04979*
X04705Y04979*
X0471Y04975*
X04711Y04975*
Y0501*
Y05045*
X0471Y05045*
X04705Y05042*
X04705Y05041*
X047Y0504*
X04696Y05041*
X04692Y0504*
X04689Y05038*
X04684*
X0468Y0504*
X04676Y05041*
X04673Y0504*
X04669Y05038*
X04664*
X04661Y0504*
X04657Y05041*
X04656Y05041*
X0465Y05044*
X0465Y05044*
X0465Y05047*
X04651Y05049*
X04652Y05055*
X04651Y0506*
X04648Y05065*
X04643Y05068*
X04637Y0507*
X04636Y05069*
X04633Y05074*
X04738Y05179*
X0474Y05182*
X04755*
Y0522*
X04708*
Y05182*
X04709Y05179*
X04613Y05082*
X04608Y05084*
Y0514*
X04618Y05151*
X04619Y0515*
X04624Y05152*
X04629Y05155*
X04633Y0516*
X04634Y05166*
X04634Y05166*
X0465Y05182*
X04678*
Y0522*
X0463*
Y05192*
X04619Y05181*
X04619Y05181*
X04613Y05179*
X04608Y05176*
X04605Y05171*
X04604Y05166*
X04604Y05165*
X04593Y05154*
X04588Y05156*
Y05182*
X04601*
Y0522*
X04553*
Y05182*
X04568*
Y05031*
Y04991*
X04566Y04988*
X04563Y04987*
X04524*
X0452Y04986*
X0452Y04986*
X04515Y04988*
Y05026*
X04514Y0503*
X04512Y05033*
X045Y05045*
X045Y05046*
X04499Y05051*
X04496Y05056*
X04491Y0506*
X04485Y05061*
X04479Y0506*
X04474Y05056*
X04471Y05051*
X0447Y05046*
X04471Y0504*
X04474Y05035*
X04479Y05032*
X04485Y0503*
X04486Y05031*
X04494Y05022*
Y05011*
X04489Y05009*
X04485Y05009*
X04479Y05008*
X04474Y05005*
X04471Y05*
X04469Y04994*
X04471Y04989*
X04474Y04984*
X04479Y0498*
X04485Y04979*
X04489Y0498*
X04494Y04978*
Y04965*
X04495Y04961*
X04497Y04957*
X04502Y04952*
X045Y04947*
X04491*
X04433Y05006*
Y05182*
X04446*
Y05191*
X04476*
Y05182*
X04524*
Y0522*
X04476*
Y05211*
X04446*
Y0522*
X04408*
X04404Y05224*
X04406Y05228*
X04418*
Y05247*
X04394*
Y0524*
X04389Y05238*
X04369Y05258*
Y05271*
G37*
G36*
X04279Y05113D02*
X04241D01*
Y05066*
X04279*
Y05079*
X04284Y05079*
X04289Y05076*
X04295Y05074*
X043Y05076*
X04305Y05079*
X04308Y05084*
X0431Y0509*
X04308Y05095*
X04305Y051*
X043Y05103*
X04295Y05105*
X04289Y05103*
X04284Y051*
X04279Y051*
Y05113*
G37*
G36*
X04529Y05096D02*
X04523Y05095D01*
X04518Y05092*
X04515Y05087*
X04514Y05081*
X04515Y05075*
X04518Y0507*
X04523Y05067*
X04529Y05066*
X04535Y05067*
X04539Y0507*
X04543Y05075*
X04544Y05081*
X04543Y05087*
X04539Y05092*
X04535Y05095*
X04529Y05096*
G37*
G36*
X04485D02*
X04479Y05095D01*
X04474Y05092*
X04471Y05087*
X0447Y05081*
X04471Y05075*
X04474Y0507*
X04479Y05067*
X04485Y05066*
X04491Y05067*
X04496Y0507*
X04499Y05075*
X045Y05081*
X04499Y05087*
X04496Y05092*
X04491Y05095*
X04485Y05096*
G37*
G36*
X04228Y05183D02*
X0419D01*
Y05136*
X04199*
Y05113*
X0419*
Y05066*
X04228*
Y05113*
X04219*
Y05136*
X04228*
Y05183*
G37*
G36*
X03891Y05105D02*
X03847D01*
Y0506*
X03855Y05061*
X03867Y05066*
X03877Y05074*
X03885Y05085*
X0389Y05097*
X03891Y05105*
G37*
G36*
X03837D02*
X03793D01*
X03794Y05097*
X03799Y05085*
X03807Y05074*
X03817Y05066*
X03829Y05061*
X03837Y0506*
Y05105*
G37*
G36*
X03497D02*
X03453D01*
Y0506*
X03461Y05061*
X03473Y05066*
X03483Y05074*
X03491Y05085*
X03496Y05097*
X03497Y05105*
G37*
G36*
X03443D02*
X03399D01*
X034Y05097*
X03405Y05085*
X03413Y05074*
X03423Y05066*
X03435Y05061*
X03443Y0506*
Y05105*
G37*
G36*
X03104D02*
X0306D01*
Y0506*
X03067Y05061*
X03079Y05066*
X0309Y05074*
X03098Y05085*
X03103Y05097*
X03104Y05105*
G37*
G36*
X0305D02*
X03005D01*
X03006Y05097*
X03011Y05085*
X03019Y05074*
X0303Y05066*
X03042Y05061*
X0305Y0506*
Y05105*
G37*
G36*
X0271D02*
X02666D01*
Y0506*
X02674Y05061*
X02686Y05066*
X02696Y05074*
X02704Y05085*
X02709Y05097*
X0271Y05105*
G37*
G36*
X02656D02*
X02612D01*
X02613Y05097*
X02618Y05085*
X02626Y05074*
X02636Y05066*
X02648Y05061*
X02656Y0506*
Y05105*
G37*
G36*
X03983Y05085D02*
X03977Y05084D01*
X03972Y05081*
X03969Y05076*
X03967Y0507*
X03969Y05064*
X03972Y05059*
X03977Y05056*
X03983Y05055*
X03988Y05056*
X03993Y05059*
X03996Y05064*
X03998Y0507*
X03996Y05076*
X03993Y05081*
X03988Y05084*
X03983Y05085*
G37*
G36*
X04369Y0522D02*
X04322D01*
Y05191*
X0432Y05189*
X04319Y05185*
Y05141*
X04319Y0514*
X04316Y05135*
X04314Y0513*
X04316Y05124*
X04319Y05119*
X04319Y05118*
Y05085*
X0432Y05081*
X04322Y05078*
X04331Y05069*
Y05041*
X04378*
Y05079*
X0435*
X0434Y05089*
Y05118*
X0434Y05119*
X04343Y05124*
X04345Y0513*
X04343Y05135*
X0434Y0514*
X0434Y05141*
Y05181*
X04341Y05182*
X04369*
Y0522*
G37*
G36*
X02519Y05058D02*
X02512Y05057D01*
X02506Y05052*
X02502Y05046*
X025Y05039*
X02502Y05032*
X02506Y05025*
X02512Y05021*
X02519Y0502*
X02527Y05021*
X02533Y05025*
X02537Y05032*
X02538Y05039*
X02537Y05046*
X02533Y05052*
X02527Y05057*
X02519Y05058*
G37*
G36*
X0244D02*
X02433Y05057D01*
X02427Y05052*
X02423Y05046*
X02421Y05039*
X02423Y05032*
X02427Y05025*
X02433Y05021*
X0244Y0502*
X02448Y05021*
X02454Y05025*
X02458Y05032*
X0246Y05039*
X02458Y05046*
X02454Y05052*
X02448Y05057*
X0244Y05058*
G37*
G36*
X02362D02*
X02354Y05057D01*
X02348Y05052*
X02344Y05046*
X02343Y05039*
X02344Y05032*
X02348Y05025*
X02354Y05021*
X02362Y0502*
X02369Y05021*
X02375Y05025*
X02379Y05032*
X02381Y05039*
X02379Y05046*
X02375Y05052*
X02369Y05057*
X02362Y05058*
G37*
G36*
X02283D02*
X02276Y05057D01*
X02269Y05052*
X02265Y05046*
X02264Y05039*
X02265Y05032*
X02269Y05025*
X02276Y05021*
X02283Y0502*
X0229Y05021*
X02297Y05025*
X02301Y05032*
X02302Y05039*
X02301Y05046*
X02297Y05052*
X0229Y05057*
X02283Y05058*
G37*
G36*
X02969Y05063D02*
X02963Y05062D01*
X02958Y05059*
X02955Y05054*
X02954Y05048*
X02955Y05042*
X02958Y05037*
X02963Y05034*
X02969Y05033*
X02975Y05034*
X02979Y05037*
X02983Y05034*
X0298Y0503*
X02979Y05025*
X0298Y05019*
X02984Y05014*
X02989Y05011*
X02994Y05009*
X03Y05011*
X03005Y05014*
X03008Y05019*
X03009Y05025*
X03008Y0503*
X03005Y05035*
X03Y05038*
X02994Y0504*
X02989Y05038*
X02984Y05035*
X0298Y05038*
X02983Y05042*
X02984Y05048*
X02983Y05054*
X02979Y05059*
X02975Y05062*
X02969Y05063*
G37*
G36*
X04034Y04998D02*
X03989D01*
Y04984*
X04034*
Y04998*
G37*
G36*
X03877Y05054D02*
X03868Y05053D01*
X03859Y05049*
X03852Y05043*
X03846Y05036*
X03843Y05027*
X03842Y05018*
X03843Y05009*
X03846Y05*
X03852Y04993*
X03859Y04987*
X03868Y04983*
X03877Y04982*
X03887Y04983*
X03895Y04987*
X03903Y04993*
X03908Y05*
X03912Y05009*
X03913Y05018*
X03912Y05027*
X03908Y05036*
X03903Y05043*
X03895Y05049*
X03887Y05053*
X03877Y05054*
G37*
G36*
X05084Y05005D02*
X05065D01*
Y04982*
X05084*
Y05005*
G37*
G36*
X05055D02*
X05036D01*
Y04982*
X05055*
Y05005*
G37*
G36*
X04165Y05045D02*
X04159Y05043D01*
X04154Y0504*
X04151Y05035*
X04149Y0503*
X04151Y05024*
X04154Y05019*
X04159Y05016*
X04163Y05015*
X04165Y05011*
X04165Y0501*
X04137Y04981*
X04131Y04983*
X0413Y04987*
X04127Y04992*
X04129Y04997*
X0413Y04997*
X04137Y05002*
X04142Y05009*
X04144Y05018*
X04142Y05026*
X04137Y05034*
X0413Y05038*
X04121Y0504*
X04113Y05038*
X04106Y05034*
X04101Y05026*
X04099Y05018*
X04101Y05009*
X04105Y05004*
X04104Y04999*
X04103Y04998*
X04097Y04994*
X04096Y04992*
X04089Y0499*
X04088Y04991*
Y04998*
X04044*
Y04979*
X04039*
Y04974*
X03989*
Y04959*
X03994*
Y04935*
Y04932*
Y04927*
Y04904*
X03989*
Y04889*
X04088*
Y04904*
X04092Y04905*
X04121*
X04124Y04906*
X04128Y04908*
X04155Y04935*
X04191*
Y04922*
X04228*
Y04969*
X04191*
Y04956*
X04151*
X04147Y04955*
X04146Y04954*
X04142Y04958*
X04184Y04999*
X04191*
Y04986*
X04228*
Y05033*
X04191*
Y0502*
X04182*
X0418Y05022*
X04179Y05024*
X04179Y05025*
X0418Y0503*
X04178Y05035*
X04175Y0504*
X0417Y05043*
X04165Y05045*
G37*
G36*
X03772Y04983D02*
Y04969D01*
X03787*
X03786Y04971*
X03782Y04978*
X03775Y04982*
X03772Y04983*
G37*
G36*
X03711Y04983D02*
X03667D01*
Y04968*
X03711*
Y04983*
G37*
G36*
X05084Y04972D02*
X05065D01*
Y04948*
X05084*
Y04972*
G37*
G36*
X05055D02*
X05036D01*
Y04948*
X05055*
Y04972*
G37*
G36*
X03762Y04983D02*
X03762Y04983D01*
X03721*
Y04963*
X03716*
Y04958*
X03667*
Y04947*
X03662Y04944*
X0366Y04945*
X03655Y04946*
X03649Y04945*
X03644Y04942*
X03641Y04937*
X03639Y04931*
X03641Y04926*
X03644Y04921*
X03649Y04917*
X03655Y04916*
X0366Y04917*
X03662Y04918*
X03667Y04916*
Y04905*
X03716*
Y04895*
X03667*
Y04885*
X03662Y04882*
X0366Y04883*
X03655Y04884*
X03649Y04883*
X03644Y04879*
X03641Y04875*
X03639Y04869*
X03641Y04863*
X03644Y04858*
X03647Y04856*
X03648Y04854*
Y04851*
X03647Y0485*
X03644Y04848*
X03641Y04843*
X03639Y04837*
X03641Y04831*
X03644Y04826*
X03649Y04823*
X03655Y04822*
X0366Y04823*
X03665Y04826*
X0367Y04825*
X03672Y04823*
Y04817*
Y04794*
Y04791*
Y04784*
X0367Y04783*
X03667Y04781*
X03649Y04764*
X03647Y0476*
X03646Y04757*
Y04729*
X03631Y04714*
X03631Y04714*
X03625Y04712*
X0362Y04709*
X03617Y04704*
X03615Y04699*
X03617Y04693*
X0362Y04688*
X03625Y04685*
X03631Y04683*
X03636Y04685*
X03641Y04688*
X03644Y04693*
X03646Y04699*
X03646Y04699*
X03662Y04715*
X03667Y04713*
Y04691*
Y04684*
X03716*
Y04679*
X03721*
Y0466*
X03761*
X03765*
X0377Y04661*
X03776Y04662*
X03783Y04666*
X03787Y04673*
X03787Y04676*
X03768*
Y04686*
X03787*
X03787Y04688*
X03783Y04695*
X03776Y04699*
X03768Y04701*
X03765Y04703*
Y04706*
X03716*
Y04716*
X03765*
Y04719*
X0377Y04721*
X03771Y0472*
X03776Y04717*
X03782Y04715*
X03787Y04717*
X03792Y0472*
X03795Y04725*
X03797Y04731*
X03795Y04736*
X03792Y04741*
X03787Y04744*
X03787Y04745*
X03782Y0475*
X03778Y04752*
X03775Y04752*
X03761*
X0376Y04757*
Y04759*
Y04786*
Y04789*
Y04793*
X03763Y04795*
X03767Y04796*
X0377Y04798*
X0378Y04809*
X03781Y04809*
X03787Y0481*
X03792Y04813*
X03795Y04818*
X03796Y04824*
X03795Y0483*
X03792Y04835*
X03787Y04838*
X03781Y04839*
X03775Y04838*
X0377Y04835*
X03767Y0483*
X03767Y04827*
X03765Y04826*
X0376Y04829*
Y04849*
Y04852*
Y04857*
Y0488*
X03762*
Y04901*
Y04923*
X0376Y04924*
Y04943*
X03762*
Y04964*
Y04983*
G37*
G36*
X03325Y04975D02*
X03319Y04973D01*
X03314Y0497*
X03311Y04965*
X03309Y0496*
X03311Y04954*
X03314Y04949*
X03319Y04946*
X03325Y04944*
X0333Y04946*
X03335Y04949*
X03338Y04954*
X0334Y0496*
X03338Y04965*
X03335Y0497*
X0333Y04973*
X03325Y04975*
G37*
G36*
X03787Y04959D02*
X03772D01*
Y04944*
X03775Y04945*
X03782Y04949*
X03786Y04956*
X03787Y04959*
G37*
G36*
X02401Y04979D02*
X02394Y04978D01*
X02388Y04974*
X02383Y04967*
X02382Y0496*
X02383Y04953*
X02388Y04947*
X02394Y04942*
X02401Y04941*
X02408Y04942*
X02415Y04947*
X02419Y04953*
X0242Y0496*
X02419Y04967*
X02415Y04974*
X02408Y04978*
X02401Y04979*
G37*
G36*
X03772Y0492D02*
Y04906D01*
X03786*
X03786Y04908*
X03781Y04915*
X03775Y04919*
X03772Y0492*
G37*
G36*
X0308Y04899D02*
X03074Y04898D01*
X03069Y04895*
X03066Y0489*
X03065Y04888*
X0306*
X0306Y0489*
X03056Y04895*
X03051Y04898*
X03046Y04899*
X0304Y04898*
X03035Y04895*
X03032Y0489*
X0303Y04884*
X03032Y04879*
X03035Y04874*
X0304Y0487*
X03046Y04869*
X03051Y0487*
X03056Y04874*
X0306Y04879*
X0306Y04881*
X03065*
X03066Y04879*
X03069Y04874*
X03074Y0487*
X0308Y04869*
X03085Y0487*
X0309Y04874*
X03093Y04879*
X03095Y04884*
X03093Y0489*
X0309Y04895*
X03085Y04898*
X0308Y04899*
G37*
G36*
X03786Y04896D02*
X03772D01*
Y04881*
X03775Y04882*
X03781Y04886*
X03786Y04893*
X03786Y04896*
G37*
G36*
X04378Y04913D02*
X04331D01*
Y04875*
X04331Y04875*
X04331Y0487*
X04329Y04865*
X04331Y04859*
X04334Y04854*
X04334Y04853*
Y04829*
X04331*
Y04791*
X04378*
Y04829*
X04355*
Y04853*
X04355Y04854*
X04358Y04859*
X0436Y04865*
X04359Y0487*
X04358Y04871*
X04361Y04875*
X04378*
Y04913*
G37*
G36*
X03148Y049D02*
X03142Y04898D01*
X03137Y04895*
X03134Y0489*
X03133Y04885*
X03134Y04879*
X03137Y04874*
X03142Y04871*
X03148Y04869*
X03154Y04871*
X03159Y04874*
X03162Y04879*
X03163Y04885*
X03162Y0489*
X03159Y04895*
X03154Y04898*
X03148Y049*
G37*
G36*
X03448Y04908D02*
X0344Y04906D01*
X03433Y04902*
X03428Y04894*
X03426Y04886*
X03428Y04877*
X03433Y0487*
X0344Y04865*
X03448Y04864*
X03457Y04865*
X03464Y0487*
X03469Y04877*
X0347Y04886*
X03469Y04894*
X03464Y04902*
X03457Y04906*
X03448Y04908*
G37*
G36*
X04088Y04879D02*
X03989D01*
Y04866*
X03987Y04865*
X03985Y04864*
X0398Y04867*
X03975Y04868*
X03969Y04867*
X03964Y04863*
X03961Y04858*
X03959Y04853*
X03961Y04847*
X03964Y04842*
X03967Y0484*
X03967Y04839*
Y04835*
X03967Y04834*
X03964Y04832*
X03961Y04827*
X03959Y04821*
X03961Y04815*
X03964Y0481*
X03969Y04807*
X03975Y04806*
X0398Y04807*
X03985Y0481*
X03987Y04809*
X03989Y04808*
Y04795*
X04088*
Y04809*
X04083*
Y04833*
Y04836*
Y04841*
Y04864*
X04088*
Y04879*
G37*
G36*
X0423Y0489D02*
X04224Y04888D01*
X04219Y04885*
X04216Y0488*
X04214Y04875*
X04216Y04869*
X04219Y04864*
X04224Y04861*
X0423Y04859*
X04235Y04861*
X0424Y04864*
X04243Y04869*
X04245Y04875*
X04243Y0488*
X0424Y04885*
X04235Y04888*
X0423Y0489*
G37*
G36*
X03199Y04909D02*
X03193Y04907D01*
X03188Y04904*
X03185Y04899*
X03183Y04894*
X03185Y04888*
X03188Y04883*
X03188Y04883*
Y04876*
X03188Y04876*
X03185Y04871*
X03183Y04866*
X03185Y0486*
X03188Y04855*
X03193Y04852*
X03199Y0485*
X03204Y04852*
X03209Y04855*
X03212Y0486*
X03214Y04866*
X03212Y04871*
X03209Y04876*
X03209Y04876*
Y04883*
X03209Y04883*
X03212Y04888*
X03214Y04894*
X03212Y04899*
X03209Y04904*
X03204Y04907*
X03199Y04909*
G37*
G36*
X04205Y0485D02*
X04186D01*
Y04843*
X04181Y0484*
X0418Y0484*
Y04821*
Y04802*
X04181Y04802*
X04186Y04799*
Y04792*
X04205*
Y04821*
Y0485*
G37*
G36*
X04854Y04957D02*
X04731D01*
Y04834*
X04854*
Y04957*
G37*
G36*
X04721D02*
X04597D01*
Y04834*
X04721*
Y04957*
G37*
G36*
X04233Y0485D02*
X04215D01*
Y04826*
X04233*
Y0485*
G37*
G36*
X0417Y0484D02*
X04167Y0484D01*
X0416Y04835*
X04156Y04829*
X04155Y04826*
X0417*
Y0484*
G37*
G36*
X05084Y04848D02*
X05065D01*
Y04824*
X05084*
Y04848*
G37*
G36*
X05055D02*
X05036D01*
Y04824*
X05055*
Y04848*
G37*
G36*
X03148Y04843D02*
X03142Y04842D01*
X03137Y04839*
X03134Y04834*
X03133Y04828*
X03134Y04822*
X03137Y04817*
X03142Y04814*
X03148Y04813*
X03154Y04814*
X03159Y04817*
X03162Y04822*
X03163Y04828*
X03162Y04834*
X03159Y04839*
X03154Y04842*
X03148Y04843*
G37*
G36*
X04121Y04851D02*
X04113Y04849D01*
X04106Y04845*
X04101Y04837*
X04099Y04829*
X04101Y04821*
X04106Y04813*
X04113Y04809*
X04121Y04807*
X0413Y04809*
X04137Y04813*
X04142Y04821*
X04144Y04829*
X04142Y04837*
X04137Y04845*
X0413Y04849*
X04121Y04851*
G37*
G36*
X0417Y04816D02*
X04155D01*
X04156Y04813*
X0416Y04807*
X04167Y04802*
X0417Y04802*
Y04816*
G37*
G36*
X0293Y0483D02*
X02924Y04828D01*
X02919Y04825*
X02916Y0482*
X02914Y04815*
X02916Y04809*
X02919Y04804*
X02924Y04801*
X0293Y04799*
X02935Y04801*
X0294Y04804*
X02943Y04809*
X02945Y04815*
X02943Y0482*
X0294Y04825*
X02935Y04828*
X0293Y0483*
G37*
G36*
X04233Y04816D02*
X04215D01*
Y04792*
X04233*
Y04816*
G37*
G36*
X05084Y04814D02*
X05065D01*
Y0479*
X05084*
Y04814*
G37*
G36*
X05055D02*
X05036D01*
Y0479*
X05055*
Y04814*
G37*
G36*
X02401Y04822D02*
X02394Y0482D01*
X02388Y04816*
X02383Y0481*
X02382Y04803*
X02383Y04795*
X02388Y04789*
X02394Y04785*
X02401Y04784*
X02408Y04785*
X02415Y04789*
X02419Y04795*
X0242Y04803*
X02419Y0481*
X02415Y04816*
X02408Y0482*
X02401Y04822*
G37*
G36*
X03115Y04809D02*
X03109Y04807D01*
X03104Y04804*
X03101Y04799*
X03099Y04794*
X03101Y04788*
X03104Y04783*
X03109Y0478*
X03115Y04778*
X0312Y0478*
X03125Y04783*
X03128Y04788*
X0313Y04794*
X03128Y04799*
X03125Y04804*
X0312Y04807*
X03115Y04809*
G37*
G36*
X03175Y04787D02*
X03169Y04786D01*
X03164Y04782*
X03161Y04778*
X03159Y04772*
X03161Y04766*
X03164Y04761*
X03169Y04758*
X03175Y04757*
X0318Y04758*
X03185Y04761*
X03188Y04766*
X0319Y04772*
X03188Y04778*
X03185Y04782*
X0318Y04786*
X03175Y04787*
G37*
G36*
X02657Y04794D02*
X02648Y04792D01*
X02641Y04787*
X02636Y0478*
X02635Y04772*
X02636Y04763*
X02641Y04756*
X02648Y04751*
X02657Y0475*
X02665Y04751*
X02673Y04756*
X02677Y04763*
X02679Y04772*
X02677Y0478*
X02673Y04787*
X02665Y04792*
X02657Y04794*
G37*
G36*
X05084Y04769D02*
X05065D01*
Y04745*
X05084*
Y04769*
G37*
G36*
X05055D02*
X05036D01*
Y04745*
X05055*
Y04769*
G37*
G36*
X04279Y04845D02*
X04242D01*
Y04797*
X04251*
Y04782*
X04242*
Y04734*
X04279*
Y04748*
X04331*
Y0474*
X04378*
Y04778*
X04331*
Y04768*
X04315*
Y04778*
X04316Y04779*
X04319Y04784*
X0432Y0479*
X04319Y04795*
X04316Y048*
X04313Y04803*
X04312Y04803*
Y04807*
X04313Y04808*
X04316Y0481*
X04319Y04815*
X0432Y04821*
X04319Y04827*
X04316Y04832*
X04311Y04835*
X04305Y04836*
X043Y04835*
X04295Y04832*
X04291Y04827*
X0429Y04821*
X04291Y04815*
X04295Y0481*
X04298Y04808*
X04298Y04807*
Y04803*
X04298Y04803*
X04295Y048*
X04291Y04795*
X0429Y0479*
X04291Y04784*
X04295Y04779*
X04295Y04778*
Y04768*
X04279*
Y04782*
X04271*
Y04797*
X04279*
Y04845*
G37*
G36*
X0302Y04758D02*
X03014Y04757D01*
X03009Y04753*
X03006Y04749*
X03005Y04743*
X03006Y04737*
X03009Y04732*
X03014Y04729*
X0302Y04728*
X03026Y04729*
X03031Y04732*
X03034Y04737*
X03035Y04743*
X03034Y04749*
X03031Y04753*
X03026Y04757*
X0302Y04758*
G37*
G36*
X05084Y04735D02*
X05065D01*
Y04712*
X05084*
Y04735*
G37*
G36*
X05055D02*
X05036D01*
Y04712*
X05055*
Y04735*
G37*
G36*
X04721Y04824D02*
X04597D01*
Y04701*
X04721*
Y04824*
G37*
G36*
X0325Y04731D02*
X03244Y04729D01*
X03239Y04726*
X03236Y04721*
X03234Y04716*
X03236Y0471*
X03239Y04705*
X03244Y04702*
X0325Y047*
X03255Y04702*
X0326Y04705*
X03263Y0471*
X03265Y04716*
X03263Y04721*
X0326Y04726*
X03255Y04729*
X0325Y04731*
G37*
G36*
X02513Y04753D02*
X02505Y04752D01*
X02498Y0475*
X02492Y04745*
X02488Y04739*
X02486Y04735*
X02253*
X02249Y04734*
X02246Y04732*
X02202Y04688*
X022Y04685*
X02199Y04681*
Y0438*
X022Y04376*
X02202Y04373*
X02218Y04357*
X02221Y04355*
X02225Y04354*
X02244*
Y04341*
X02313*
Y04387*
X02244*
Y04374*
X02229*
X02219Y04384*
Y04419*
X02224Y04422*
X02226Y04421*
X02232Y04419*
X02238Y04421*
X02239Y04421*
X02244Y04418*
Y04412*
X02313*
Y04458*
X02244*
Y04451*
X02239Y04448*
X02238Y04448*
X02232Y0445*
X02226Y04448*
X02224Y04447*
X02219Y0445*
Y04677*
X02257Y04714*
X02486*
X02488Y0471*
X02492Y04704*
X02498Y047*
X02505Y04697*
X02513Y04696*
X0252Y04697*
X02527Y047*
X02533Y04704*
X02538Y0471*
X02541Y04717*
X02542Y04725*
X02541Y04732*
X02538Y04739*
X02533Y04745*
X02527Y0475*
X0252Y04752*
X02513Y04753*
G37*
G36*
X04165Y0471D02*
X04159Y04708D01*
X04154Y04705*
X04151Y047*
X04149Y04695*
X04151Y04689*
X04154Y04684*
X04159Y04681*
X04165Y04679*
X0417Y04681*
X04175Y04684*
X04178Y04689*
X0418Y04695*
X04178Y047*
X04175Y04705*
X0417Y04708*
X04165Y0471*
G37*
G36*
X04034Y0469D02*
X03989D01*
Y04675*
X04034*
Y0469*
G37*
G36*
X04116Y0469D02*
X04101D01*
Y04675*
X04104Y04676*
X04111Y0468*
X04115Y04687*
X04116Y0469*
G37*
G36*
X04088Y04785D02*
X03989D01*
Y0477*
X03994*
Y04746*
Y04743*
Y04738*
Y04715*
X03989*
Y047*
X04039*
Y04695*
X04044*
Y04675*
X04088*
X04091Y04675*
Y04695*
X04096*
Y047*
X04116*
X04115Y04702*
X04111Y04709*
X04107Y04712*
X04108Y04717*
X04173*
X04191Y04699*
Y04671*
X04228*
Y04718*
X042*
X04191Y04728*
X04191Y0473*
X04195Y04734*
X04228*
Y04782*
X04191*
Y04768*
X04092*
X04088Y0477*
Y04785*
G37*
G36*
X03711Y04674D02*
X03667D01*
Y0466*
X03711*
Y04674*
G37*
G36*
X04205Y04662D02*
X04186D01*
Y04655*
X04182Y04653*
X04181Y04652*
X04179Y04653*
Y04634*
Y04614*
X04181Y04615*
X04182Y04614*
X04186Y04613*
Y04605*
X04205*
Y04633*
Y04662*
G37*
G36*
X03448Y04695D02*
X0344Y04694D01*
X03433Y04689*
X03428Y04682*
X03426Y04673*
X03428Y04665*
X03433Y04658*
X0344Y04653*
X03448Y04651*
X03457Y04653*
X03464Y04658*
X03469Y04665*
X0347Y04673*
X03469Y04682*
X03464Y04689*
X03457Y04694*
X03448Y04695*
G37*
G36*
X04169Y04653D02*
X04166Y04652D01*
X04159Y04648*
X04155Y04641*
X04154Y04639*
X04169*
Y04653*
G37*
G36*
X04233Y04662D02*
X04215D01*
Y04638*
X04233*
Y04662*
G37*
G36*
X04535Y04663D02*
X04529Y04662D01*
X04524Y04659*
X04521Y04654*
X04519Y04648*
X04521Y04642*
X04524Y04637*
X04529Y04634*
X04535Y04633*
X0454Y04634*
X04545Y04637*
X04548Y04642*
X0455Y04648*
X04548Y04654*
X04545Y04659*
X0454Y04662*
X04535Y04663*
G37*
G36*
X04121Y04662D02*
X04113Y0466D01*
X04106Y04656*
X04101Y04648*
X04099Y0464*
X04101Y04632*
X04106Y04624*
X04113Y0462*
X04121Y04618*
X0413Y0462*
X04137Y04624*
X04142Y04632*
X04144Y0464*
X04142Y04648*
X04137Y04656*
X0413Y0466*
X04121Y04662*
G37*
G36*
X04169Y04629D02*
X04154D01*
X04155Y04626*
X04159Y04619*
X04166Y04615*
X04169Y04614*
Y04629*
G37*
G36*
X04233Y04628D02*
X04215D01*
Y04605*
X04233*
Y04628*
G37*
G36*
X03071Y04635D02*
X03065Y04633D01*
X0306Y0463*
X03057Y04625*
X03056Y0462*
X03057Y04614*
X0306Y04609*
X03065Y04606*
X03071Y04604*
X03077Y04606*
X03082Y04609*
X03085Y04614*
X03086Y0462*
X03085Y04625*
X03082Y0463*
X03077Y04633*
X03071Y04635*
G37*
G36*
X02943D02*
X02937Y04633D01*
X02932Y0463*
X02929Y04625*
X02928Y0462*
X02929Y04614*
X02932Y04609*
X02937Y04606*
X02943Y04604*
X02949Y04606*
X02954Y04609*
X02957Y04614*
X02958Y0462*
X02957Y04625*
X02954Y0463*
X02949Y04633*
X02943Y04635*
G37*
G36*
X03877Y04676D02*
X03868Y04675D01*
X03859Y04671*
X03852Y04665*
X03846Y04658*
X03843Y04649*
X03842Y0464*
X03843Y04631*
X03846Y04622*
X03852Y04615*
X03859Y04609*
X03868Y04605*
X03877Y04604*
X03887Y04605*
X03895Y04609*
X03903Y04615*
X03908Y04622*
X03912Y04631*
X03913Y0464*
X03912Y04649*
X03908Y04658*
X03903Y04665*
X03895Y04671*
X03887Y04675*
X03877Y04676*
G37*
G36*
X03983Y0463D02*
X03977Y04628D01*
X03972Y04625*
X03969Y0462*
X03967Y04614*
X03969Y04609*
X03972Y04604*
X03977Y046*
X03983Y04599*
X03988Y046*
X03993Y04604*
X03996Y04609*
X03998Y04614*
X03996Y0462*
X03993Y04625*
X03988Y04628*
X03983Y0463*
G37*
G36*
X03033Y04625D02*
X03027Y04623D01*
X03022Y0462*
X03019Y04615*
X03017Y0461*
X03019Y04604*
X03022Y04599*
X03027Y04596*
X03033Y04594*
X03038Y04596*
X03043Y04599*
X03046Y04604*
X03048Y0461*
X03046Y04615*
X03043Y0462*
X03038Y04623*
X03033Y04625*
G37*
G36*
X02994D02*
X02989Y04623D01*
X02984Y0462*
X0298Y04615*
X02979Y0461*
X0298Y04604*
X02984Y04599*
X02989Y04596*
X02994Y04594*
X03Y04596*
X03005Y04599*
X03008Y04604*
X03009Y0461*
X03008Y04615*
X03005Y0462*
X03Y04623*
X02994Y04625*
G37*
G36*
X04235Y0459D02*
X04229Y04588D01*
X04224Y04585*
X04221Y0458*
X04219Y04575*
X04221Y04569*
X04224Y04564*
X04229Y04561*
X04235Y04559*
X0424Y04561*
X04245Y04564*
X04248Y04569*
X0425Y04575*
X04248Y0458*
X04245Y04585*
X0424Y04588*
X04235Y0459*
G37*
G36*
X02276D02*
X0227Y04588D01*
X02265Y04585*
X02262Y0458*
X02261Y04575*
X02262Y04569*
X02265Y04564*
X0227Y04561*
X02276Y04559*
X02282Y04561*
X02287Y04564*
X0229Y04569*
X02291Y04575*
X0229Y0458*
X02287Y04585*
X02282Y04588*
X02276Y0459*
G37*
G36*
X02339Y04589D02*
X02334Y04587D01*
X02329Y04584*
X02326Y04579*
X02324Y04574*
X02326Y04568*
X02329Y04563*
X02334Y0456*
X02339Y04558*
X02345Y0456*
X0235Y04563*
X02353Y04568*
X02355Y04574*
X02353Y04579*
X0235Y04584*
X02345Y04587*
X02339Y04589*
G37*
G36*
X02402Y04588D02*
X02397Y04587D01*
X02392Y04584*
X02389Y04579*
X02387Y04573*
X02389Y04568*
X02392Y04563*
X02397Y04559*
X02402Y04558*
X02408Y04559*
X02413Y04563*
X02416Y04568*
X02418Y04573*
X02416Y04579*
X02413Y04584*
X02408Y04587*
X02402Y04588*
G37*
G36*
X04044Y04598D02*
Y04553D01*
X04088*
X04087Y04561*
X04082Y04573*
X04074Y04584*
X04064Y04592*
X04052Y04597*
X04044Y04598*
G37*
G36*
X04034D02*
X04026Y04597D01*
X04014Y04592*
X04004Y04584*
X03996Y04573*
X03991Y04561*
X0399Y04553*
X04034*
Y04598*
G37*
G36*
X0365D02*
Y04553D01*
X03694*
X03693Y04561*
X03688Y04573*
X0368Y04584*
X0367Y04592*
X03658Y04597*
X0365Y04598*
G37*
G36*
X0364D02*
X03632Y04597D01*
X0362Y04592*
X0361Y04584*
X03602Y04573*
X03597Y04561*
X03596Y04553*
X0364*
Y04598*
G37*
G36*
X03256D02*
Y04553D01*
X033*
X03299Y04561*
X03294Y04573*
X03287Y04584*
X03276Y04592*
X03264Y04597*
X03256Y04598*
G37*
G36*
X03225Y04628D02*
X03219Y04626D01*
X03214Y04623*
X03211Y04618*
X0321Y04612*
X03211Y04607*
X03214Y04602*
X03219Y04598*
X03225Y04597*
X0323Y04598*
X03231Y04593*
X03226Y04592*
X03216Y04584*
X03208Y04573*
X03203Y04561*
X03202Y04553*
X03246*
Y04598*
X03238Y04597*
X03234Y04595*
X03231Y04599*
X03235Y04602*
X03239Y04607*
X0324Y04612*
X03239Y04618*
X03235Y04623*
X0323Y04626*
X03225Y04628*
G37*
G36*
X02863Y04598D02*
Y04553D01*
X02907*
X02906Y04561*
X02901Y04573*
X02893Y04584*
X02883Y04592*
X02871Y04597*
X02863Y04598*
G37*
G36*
X02853D02*
X02845Y04597D01*
X02833Y04592*
X02822Y04584*
X02815Y04573*
X0281Y04561*
X02809Y04553*
X02853*
Y04598*
G37*
G36*
X04366Y0455D02*
X04343D01*
Y04544*
X04338Y04542*
X04333Y04545*
X04331Y04545*
Y04526*
Y04507*
X04333Y04507*
X04338Y0451*
X04343Y04508*
Y04502*
X04366*
Y04526*
Y0455*
G37*
G36*
X04321Y04545D02*
X04318Y04545D01*
X04311Y0454*
X04307Y04534*
X04306Y04531*
X04321*
Y04545*
G37*
G36*
X0394Y04571D02*
X03932Y04569D01*
X03925Y04564*
X0392Y04557*
X03918Y04548*
X0392Y0454*
X03925Y04533*
X03932Y04528*
X0394Y04526*
X03949Y04528*
X03956Y04533*
X03961Y0454*
X03962Y04548*
X03961Y04557*
X03956Y04564*
X03949Y04569*
X0394Y04571*
G37*
G36*
X03743D02*
X03735Y04569D01*
X03728Y04564*
X03723Y04557*
X03721Y04548*
X03723Y0454*
X03728Y04533*
X03735Y04528*
X03743Y04526*
X03752Y04528*
X03759Y04533*
X03764Y0454*
X03766Y04548*
X03764Y04557*
X03759Y04564*
X03752Y04569*
X03743Y04571*
G37*
G36*
X03558D02*
X0355Y04569D01*
X03543Y04564*
X03538Y04557*
X03536Y04548*
X03538Y0454*
X03543Y04533*
X0355Y04528*
X03558Y04526*
X03567Y04528*
X03574Y04533*
X03579Y0454*
X03581Y04548*
X03579Y04557*
X03574Y04564*
X03567Y04569*
X03558Y04571*
G37*
G36*
X04321Y04521D02*
X04306D01*
X04307Y04518*
X04311Y04512*
X04318Y04507*
X04321Y04507*
Y04521*
G37*
G36*
X04088Y04543D02*
X04044D01*
Y04499*
X04052Y045*
X04064Y04505*
X04074Y04513*
X04082Y04524*
X04087Y04536*
X04088Y04543*
G37*
G36*
X04034D02*
X0399D01*
X03991Y04536*
X03996Y04524*
X04004Y04513*
X04014Y04505*
X04026Y045*
X04034Y04499*
Y04543*
G37*
G36*
X03694D02*
X0365D01*
Y04499*
X03658Y045*
X0367Y04505*
X0368Y04513*
X03688Y04524*
X03693Y04536*
X03694Y04543*
G37*
G36*
X0364D02*
X03596D01*
X03597Y04536*
X03602Y04524*
X0361Y04513*
X0362Y04505*
X03632Y045*
X0364Y04499*
Y04543*
G37*
G36*
X033D02*
X03256D01*
Y04499*
X03264Y045*
X03276Y04505*
X03287Y04513*
X03294Y04524*
X03299Y04536*
X033Y04543*
G37*
G36*
X03246D02*
X03202D01*
X03203Y04536*
X03208Y04524*
X03216Y04513*
X03226Y04505*
X03238Y045*
X03246Y04499*
Y04543*
G37*
G36*
X02907D02*
X02863D01*
Y04499*
X02871Y045*
X02883Y04505*
X02893Y04513*
X02901Y04524*
X02906Y04536*
X02907Y04543*
G37*
G36*
X02853D02*
X02809D01*
X0281Y04536*
X02815Y04524*
X02822Y04513*
X02833Y04505*
X02845Y045*
X02853Y04499*
Y04543*
G37*
G36*
X04795Y04499D02*
D01*
X04771*
Y04475*
Y04451*
X04779*
X04783Y04446*
X04782Y04445*
X04784Y04439*
X04787Y04434*
X04792Y04431*
X04798Y04429*
X04803Y04431*
X04808Y04434*
X04811Y04439*
X04813Y04445*
X04812Y04446*
X04816Y04451*
X04823*
Y04475*
Y04499*
X048*
X048*
X04795*
G37*
G36*
X04924D02*
X04919D01*
X04919*
X04896*
Y04475*
Y04451*
X04919*
X04919*
X04924*
X04924*
X04948*
Y04475*
Y04499*
X04924*
X04924*
G37*
G36*
X04737D02*
X04732D01*
X04732*
X04709*
Y04475*
Y04451*
X04732*
X04732*
X04737*
X04737*
X04761*
Y04475*
Y04499*
X04737*
X04737*
G37*
G36*
X04636D02*
X04613D01*
Y0448*
X04636*
Y04499*
G37*
G36*
X04958D02*
Y0448D01*
X04982*
Y04499*
X04958*
G37*
G36*
X04982Y0447D02*
X04958D01*
Y04451*
X04982*
Y0447*
G37*
G36*
X04862Y04499D02*
X04857D01*
X04857*
X04833*
Y04475*
Y04451*
X04857*
X04857*
X04862*
X04862*
X04886*
Y04475*
Y04499*
X04862*
X04862*
G37*
G36*
X04675D02*
X0467D01*
X0467*
X04646*
Y04475*
Y04451*
X0467*
X0467*
X04675*
X04675*
X04699*
Y04475*
Y04499*
X04675*
X04675*
G37*
G36*
X04636Y0447D02*
X04613D01*
Y04451*
X04636*
Y0447*
G37*
G36*
X04582Y04498D02*
X04517D01*
Y0444*
X04582*
Y04498*
G37*
G36*
X02435Y04458D02*
X02366D01*
Y04412*
X02435*
Y04421*
X02436Y04422*
X0244Y04423*
X02444Y04421*
X02449Y0442*
X02455Y04421*
X0246Y04424*
X02463Y04429*
X02465Y04435*
X02463Y04441*
X0246Y04446*
X02455Y04449*
X02449Y0445*
X02444Y04449*
X0244Y04446*
X02436Y04448*
X02435Y04449*
Y04458*
G37*
G36*
Y04387D02*
X02366D01*
Y04375*
X0235*
X0235Y04375*
X02345Y04378*
X02339Y0438*
X02334Y04378*
X02329Y04375*
X02325Y0437*
X02324Y04365*
X02325Y04359*
X02329Y04354*
X02334Y04351*
X02339Y04349*
X02345Y04351*
X0235Y04354*
X0235Y04354*
X02366*
Y04341*
X02435*
Y04387*
G37*
G36*
X04525Y04394D02*
X04519Y04392D01*
X04514Y04389*
X04511Y04384*
X04509Y04379*
X04511Y04373*
X04514Y04368*
X04519Y04365*
X04525Y04363*
X0453Y04365*
X04535Y04368*
X04538Y04373*
X0454Y04379*
X04538Y04384*
X04535Y04389*
X0453Y04392*
X04525Y04394*
G37*
G36*
X04625Y04369D02*
X04619Y04367D01*
X04614Y04364*
X04611Y04359*
X04609Y04354*
X04611Y04348*
X04614Y04343*
X04619Y0434*
X04625Y04338*
X0463Y0434*
X04635Y04343*
X04638Y04348*
X0464Y04354*
X04638Y04359*
X04635Y04364*
X0463Y04367*
X04625Y04369*
G37*
%LNboard-3*%
%LPD*%
G54D10*
X03716Y04805D02*
X03763D01*
X03781Y04824*
X04619Y05166D02*
X04654Y05201D01*
X04598Y05144D02*
X04619Y05166D01*
X04345Y04865D02*
Y04894D01*
Y0481D02*
Y04865D01*
X04657Y04567D02*
X04659Y04565D01*
X04598Y0501D02*
Y05144D01*
X04848Y05201D02*
X04886D01*
X04808D02*
X04848D01*
X04775Y0501D02*
Y05083D01*
X04848Y05156D02*
Y05201D01*
X04775Y05083D02*
X04848Y05156D01*
X04963Y05121D02*
Y05201D01*
X04937Y05095D02*
X04963Y05121D01*
X04847Y05095D02*
X04937D01*
X04795Y05043D02*
X04847Y05095D01*
X04795Y0501D02*
Y05043D01*
X04731Y05186D02*
Y05201D01*
X04617Y05073D02*
X04731Y05186D01*
X04617Y0501D02*
Y05073D01*
X04578Y0501D02*
Y052D01*
X04577Y05201D02*
X04578Y052D01*
X04423Y05001D02*
Y05201D01*
Y05001D02*
X04487Y04937D01*
X0433Y05185D02*
X04346Y05201D01*
X0433Y0513D02*
Y05185D01*
Y05085D02*
Y0513D01*
Y05085D02*
X04355Y0506D01*
X04423Y05201D02*
X045D01*
X04412D02*
X04423D01*
X04361Y05252D02*
X04412Y05201D01*
X04346Y05252D02*
X04361D01*
X04637Y04648D02*
Y0474D01*
X03674Y04774D02*
X03716D01*
X03657Y04757D02*
X03674Y04774D01*
X03657Y04725D02*
Y04757D01*
X03631Y04699D02*
X03657Y04725D01*
X04305Y04758D02*
X04355D01*
X04639Y04916D02*
X04726Y04829D01*
X04716Y0485D02*
Y0501D01*
Y0485D02*
X04726Y0484D01*
Y04829D02*
Y0484D01*
X04326Y04526D02*
X04371D01*
X0404Y0498D02*
X04112D01*
X04039Y04979D02*
X0404Y0498D01*
X04637Y0474D02*
X04726Y04829D01*
X0426Y0516D02*
X04289D01*
X04174Y04634D02*
X04174Y04633D01*
X0421*
X04175Y04821D02*
X0421D01*
X04096Y04695D02*
X04096Y04695D01*
X04039Y04695D02*
X04096D01*
X03767Y04679D02*
X03768Y04681D01*
X03716Y04679D02*
X03767D01*
X03716D02*
Y04711D01*
X03766Y049D02*
X03767Y04901D01*
X03716Y049D02*
X03766D01*
X03767Y04963D02*
X03767Y04964D01*
X03716Y04963D02*
X03767D01*
X04209Y0509D02*
Y0516D01*
X04293Y0509D02*
X04295Y05088D01*
X03782Y04731D02*
Y04735D01*
X03775Y04742D02*
X03782Y04735D01*
X04775Y04689D02*
X04775Y04688D01*
Y04648D02*
Y04688D01*
X04261Y04758D02*
X04305D01*
Y0479*
X04354Y04759D02*
X04355Y04759D01*
X04355Y04758*
X04948Y04681D02*
X0496Y0467D01*
X04907Y04681D02*
X04948D01*
X04848Y046D02*
X04953D01*
X04834Y04614D02*
X04848Y046D01*
X04814Y04604D02*
X04814Y04604D01*
Y04648*
X04834Y04614D02*
Y04648D01*
X04891Y04526D02*
Y04538D01*
X04847Y04583D02*
X04891Y04538D01*
X04794Y04583D02*
X04847D01*
X04989Y0469D02*
X05025D01*
X04958Y04721D02*
X04989Y0469D01*
X04907Y04721D02*
X04958D01*
X04485Y05046D02*
X04505Y05026D01*
Y04965D02*
Y05026D01*
Y04965D02*
X04512Y04957D01*
X04545*
X0426Y0509D02*
X04293D01*
X04637Y0501D02*
Y05055D01*
X024Y04435D02*
X02449D01*
X02253Y04725D02*
X02513D01*
X02209Y04681D02*
X02253Y04725D01*
X02209Y0438D02*
Y04681D01*
Y0438D02*
X02225Y04364D01*
X02278*
X024Y04365D02*
X024Y04364D01*
X02342Y04365D02*
X024D01*
X02233Y04435D02*
X02278D01*
X02232Y04435D02*
X02233Y04435D01*
X04659Y04565D02*
X04684D01*
X04704Y04545*
X04657Y04567D02*
Y04648D01*
X04958Y04819D02*
X05009D01*
X04907D02*
X04958D01*
X04676Y04603D02*
X04717Y04562D01*
X04755*
X04766Y04551*
Y04526D02*
Y04551D01*
X04789Y0456D02*
X04828D01*
X04767Y04583D02*
X04789Y0456D01*
X04743Y04583D02*
X04767D01*
X04716Y0461D02*
X04743Y04583D01*
X03716Y04742D02*
X03775D01*
X04775Y04602D02*
Y04648D01*
Y04602D02*
X04794Y04583D01*
X04735Y04621D02*
X04755Y04602D01*
X04735Y04621D02*
Y04648D01*
X03655Y04837D02*
X03716D01*
X03655Y04868D02*
X03716D01*
X03655Y04869D02*
X03655Y04868D01*
X03655Y04931D02*
X03716D01*
X04828Y04526D02*
Y0456D01*
X04953Y04526D02*
Y046D01*
X0496Y0474D02*
X05009D01*
X04907D02*
X0496D01*
Y04977D02*
X05009D01*
X04907D02*
X0496D01*
X04345Y0481D02*
X04355D01*
X04345Y04894D02*
X04355D01*
X03975Y04821D02*
X04039D01*
X03975Y04853D02*
X04039D01*
X04578Y04609D02*
Y04648D01*
X04553Y04585D02*
X04578Y04609D01*
X04435Y04585D02*
X04553D01*
X04414Y04475D02*
X04457D01*
X04371D02*
X04414D01*
Y04564D02*
X04435Y04585D01*
X04414Y04475D02*
Y04564D01*
X04457Y04475D02*
X04463Y04469D01*
X04635Y04532D02*
X04641Y04526D01*
X04598Y04532D02*
X04635D01*
X0455D02*
X04598D01*
Y04648*
X04355Y04894D02*
D01*
X04676Y04603D02*
Y04648D01*
X04704Y0461D02*
X04716D01*
X04696Y04618D02*
X04704Y0461D01*
X04696Y04618D02*
Y04648D01*
X04716Y0461D02*
Y04648D01*
X04704Y04526D02*
Y04545D01*
X04261Y0501D02*
X04385D01*
X04476Y04918*
X04495Y04681D02*
X04545D01*
X045Y0478D02*
X04545D01*
X0448Y048D02*
X0448Y04799D01*
X04545*
X045Y04819D02*
X04545D01*
X0448Y04839D02*
X04545D01*
X04487Y04937D02*
X04545D01*
X04261Y04946D02*
X0441D01*
X04261Y04695D02*
X04375D01*
X04458Y04878D02*
X04545D01*
X04469Y04859D02*
X04545D01*
X04402Y04822D02*
X04458Y04878D01*
X04402Y04722D02*
Y04822D01*
X04375Y04695D02*
X04402Y04722D01*
X04435Y04825D02*
X04469Y04859D01*
X04435Y04758D02*
Y04825D01*
X04476Y04918D02*
X04545D01*
X0441Y04946D02*
X04457Y04898D01*
X04545*
X04261Y04758D02*
Y04821D01*
Y04633D02*
Y04695D01*
X04177Y04727D02*
X0421Y04695D01*
X04039Y04727D02*
X04177D01*
X04039Y04758D02*
X0421D01*
X04151Y04946D02*
X0421D01*
X04121Y04916D02*
X04151Y04946D01*
X04039Y04916D02*
X04121D01*
X0418Y0501D02*
X0421D01*
X04117Y04947D02*
X0418Y0501D01*
X04039Y04947D02*
X04117D01*
G54D15*
X04039Y04979D03*
Y04947D03*
Y04916D03*
Y04884D03*
Y04853D03*
X03716Y04679D03*
Y04711D03*
Y04742D03*
Y04774D03*
Y04805D03*
Y04837D03*
Y04868D03*
Y049D03*
Y04931D03*
X04039Y04821D03*
Y0479D03*
Y04758D03*
Y04727D03*
Y04695D03*
X03716Y04963D03*
G54D16*
X04604Y041D03*
X04552D03*
X04261Y04633D03*
X0421D03*
X04261Y04695D03*
X0421D03*
X04261Y04758D03*
X0421D03*
X04261Y04821D03*
X0421D03*
X04209Y0516D03*
X0426D03*
Y0509D03*
X04209D03*
X04261Y0501D03*
X0421D03*
X04261Y04946D03*
X0421D03*
X05009Y0474D03*
X0506D03*
X05009Y04819D03*
X0506D03*
X05009Y04977D03*
X0506D03*
G54D17*
X02278Y04364D03*
Y04435D03*
X024Y04364D03*
Y04435D03*
G54D18*
X04578Y04648D03*
X04598D03*
X04617D03*
X04637D03*
X04657D03*
X04676D03*
X04696D03*
X04716D03*
X04735D03*
X04755D03*
X04775D03*
X04795D03*
X04814D03*
X04834D03*
X04854D03*
X04873D03*
Y0501D03*
X04854D03*
X04834D03*
X04814D03*
X04795D03*
X04775D03*
X04755D03*
X04735D03*
X04716D03*
X04696D03*
X04676D03*
X04657D03*
X04637D03*
X04617D03*
X04598D03*
X04578D03*
G54D19*
X04907Y04681D03*
Y04701D03*
Y04721D03*
Y0474D03*
Y0476D03*
Y0478D03*
Y04799D03*
Y04819D03*
Y04839D03*
Y04859D03*
Y04878D03*
Y04898D03*
Y04918D03*
Y04937D03*
Y04957D03*
Y04977D03*
X04545D03*
Y04957D03*
Y04937D03*
Y04918D03*
Y04898D03*
Y04878D03*
Y04859D03*
Y04839D03*
Y04819D03*
Y04799D03*
Y0478D03*
Y0476D03*
Y0474D03*
Y04721D03*
Y04701D03*
Y04681D03*
G54D20*
X04726Y04829D03*
G54D21*
X04963Y05201D03*
Y05252D03*
X04886Y05201D03*
Y05252D03*
X04808Y05201D03*
Y05252D03*
X04731D03*
Y05201D03*
X04654D03*
Y05252D03*
X04577D03*
Y05201D03*
X045D03*
Y05252D03*
X04423Y05201D03*
Y05252D03*
X04346D03*
Y05201D03*
X04371Y04526D03*
Y04475D03*
X04355Y04644D03*
Y04695D03*
Y0481D03*
Y04759D03*
Y0506D03*
Y05009D03*
Y04894D03*
Y04945D03*
X04641Y04475D03*
Y04526D03*
X04704D03*
Y04475D03*
X04766Y04526D03*
Y04475D03*
X04828Y04526D03*
Y04475D03*
X04891Y04526D03*
Y04475D03*
X04953Y04526D03*
Y04475D03*
G54D22*
X0455Y04469D03*
Y04532D03*
X04463Y04469D03*
Y04532D03*
G54D37*
X04345Y041D02*
X04552D01*
X04325Y0412D02*
X04345Y041D01*
X04325Y0412D02*
Y04185D01*
X04825Y04127D02*
Y04185D01*
X04798Y041D02*
X04825Y04127D01*
X04604Y041D02*
X04798D01*
G54D38*
X04295Y04644D02*
X04355D01*
G54D39*
X02661Y0511D03*
X03055D03*
X03448D03*
X03842D03*
X03645Y04548D03*
X04039D03*
X03251D03*
X02858D03*
G54D40*
X0291Y0525D03*
X04325Y04185D03*
G54D41*
X0301Y0525D03*
X0311D03*
X0321D03*
X0331D03*
X04825Y04185D03*
X04725D03*
X04625D03*
X04525D03*
X04425D03*
G54D42*
X02342Y04168D03*
X05019D03*
G54D43*
X03115Y04794D03*
X04639Y04742D03*
Y04786D03*
Y04829D03*
Y04872D03*
Y04916D03*
X04682Y04742D03*
Y04786D03*
Y04829D03*
Y04872D03*
Y04916D03*
X04726Y04742D03*
Y04786D03*
Y04829D03*
Y04872D03*
Y04916D03*
X04769Y04742D03*
Y04786D03*
Y04829D03*
Y04872D03*
Y04916D03*
X04812Y04742D03*
Y04786D03*
Y04829D03*
Y04872D03*
Y04916D03*
X03781Y04824D03*
X04619Y05166D03*
X04847Y05095D03*
X0433Y0513D03*
X03631Y04699D03*
X04326Y04526D03*
X04295Y046D03*
X04112Y0498D03*
X04289Y0516D03*
X04174Y04634D03*
X04175Y04821D03*
X04096Y04695D03*
X03768Y04681D03*
X03767Y04901D03*
X03767Y04964D03*
X0293Y04815D03*
X04625Y04354D03*
X04525Y04379D03*
X04425Y04426D03*
X03148Y04828D03*
X02402Y04573D03*
X02339Y04574D03*
X02276Y04575D03*
X03148Y04885D03*
X0308Y04884D03*
X03046D03*
X03199Y04866D03*
Y04894D03*
X03175Y04772D03*
X03983Y0507D03*
Y04614D03*
X0325Y04716D03*
X03782Y04731D03*
X04775Y04689D03*
X04295Y04644D03*
X04305Y0479D03*
X03225Y04612D03*
X0496Y0467D03*
X04798Y04445D03*
X03033Y0461D03*
X04814Y04604D03*
X02994Y0461D03*
X05025Y0469D03*
X04535Y04648D03*
X04495D03*
X0302Y04743D03*
X04485Y04994D03*
X04485Y05081D03*
X02994Y05025D03*
X04529Y05081D03*
X02969Y05048D03*
X04295Y0509D03*
X04637Y05055D03*
X04485Y05046D03*
X03071Y0462D03*
X02943D03*
X02339Y04365D03*
X02232Y04435D03*
X02449Y04435D03*
X03325Y0496D03*
X04657Y04565D03*
X04958Y04819D03*
X04775Y0507D03*
X04755Y04562D03*
X04165Y0503D03*
Y04695D03*
X04235Y04575D03*
X0423Y04875D03*
X04755Y04602D03*
X03655Y04837D03*
Y04869D03*
Y04931D03*
X04828Y0456D03*
X04953Y046D03*
X0496Y0474D03*
Y04977D03*
X04345Y04865D03*
X03975Y04821D03*
Y04853D03*
X04304Y04985D03*
X04305Y04821D03*
X04495Y04681D03*
X045Y0478D03*
X0448Y048D03*
X045Y04819D03*
X0448Y04839D03*
X04435Y04758D03*
G54D44*
X02513Y04725D03*
G54D45*
X02519Y05039D03*
X0248Y05118D03*
X0244Y05039D03*
X02401Y05118D03*
X02362Y05039D03*
X02401Y0496D03*
Y04803D03*
X02322Y05118D03*
X02283Y05039D03*
X02244Y05118D03*
X02204Y05039D03*
Y04881D03*
M02*