%FSTAX23Y23*%
%MOIN*%
%SFA1B1*%

%IPPOS*%
%ADD16R,0.027560X0.037400*%
%ADD21R,0.037400X0.027560*%
%ADD46R,0.084650X0.127950*%
%ADD47R,0.084650X0.039370*%
%ADD48O,0.015750X0.064960*%
%ADD49R,0.055120X0.024410*%
%LNboard-1*%
%LPD*%
G54D16*
X0243Y04685D03*
X02379D03*
X0243Y0462D03*
X02379D03*
X02934Y05185D03*
X02985D03*
X02829D03*
X0288D03*
X03534Y04699D03*
X03585D03*
X03534Y04765D03*
X03585D03*
X03534Y0483D03*
X03585D03*
X03534Y04895D03*
X03585D03*
X03534Y0496D03*
X03585D03*
X03878Y04735D03*
X0393D03*
X03878Y04799D03*
X0393D03*
X03878Y04882D03*
X0393D03*
X03878Y04946D03*
X0393D03*
X0426Y0501D03*
X04209D03*
X0421Y04821D03*
X04261D03*
X0426Y04695D03*
X04209D03*
X0426Y04635D03*
X04209D03*
X0443Y05135D03*
X04379D03*
Y0507D03*
X0443D03*
X04379Y05007D03*
X0443D03*
X04379Y04938D03*
X0443D03*
Y04869D03*
X04379D03*
Y048D03*
X0443D03*
X04379Y0472D03*
X0443D03*
X04379Y04655D03*
X0443D03*
X04379Y0459D03*
X0443D03*
X04379Y04525D03*
X0443D03*
G54D21*
X03148Y0459D03*
Y04539D03*
X03071Y0459D03*
Y04539D03*
X02943Y0459D03*
Y04539D03*
X02276Y0449D03*
Y04541D03*
X02339Y0449D03*
Y04541D03*
X02402Y0449D03*
Y04541D03*
X02605Y04904D03*
Y04955D03*
X0325Y05045D03*
Y05096D03*
X0395Y04666D03*
Y04614D03*
X04015Y04666D03*
Y04614D03*
X0395Y05019D03*
Y0507D03*
X04015Y05019D03*
Y0507D03*
G54D46*
X02284Y04885D03*
G54D47*
X02515Y04794D03*
Y04885D03*
Y04975D03*
G54D48*
X03276Y04667D03*
X0325D03*
X03225D03*
X03199D03*
X03173D03*
X03148D03*
X03122D03*
X03097D03*
X03071D03*
X03046D03*
X0302D03*
X02994D03*
X02969D03*
X02943D03*
X03276Y04952D03*
X0325D03*
X03225D03*
X03199D03*
X03173D03*
X03148D03*
X03122D03*
X03097D03*
X03071D03*
X03046D03*
X0302D03*
X02994D03*
X02969D03*
X02943D03*
G54D49*
X05011Y04499D03*
X04657D03*
X05011Y05135D03*
X04657D03*
X04578Y04864D03*
Y05081D03*
Y04994D03*
Y04951D03*
Y04908D03*
Y04821D03*
Y04778D03*
Y05038D03*
Y04735D03*
M02*